M48
;Layer_Color=9474304
;FILE_FORMAT=4:3
METRIC,LZ
;TYPE=PLATED
T1F00S00C0.400
T2F00S00C1.000
T3F00S00C1.020
T4F00S00C1.100
T5F00S00C1.200
%
T01
X0022634Y0013585
X0023599Y0015973
X0026264Y0018694
X0030787Y0018742
X0038644Y0022403
X003955Y0013636
X0067861Y0020452
X0072949Y0022711
X0075565Y0020447
X0077292Y0018999
X0079809Y0018284
X0083541Y0018288
X0083464Y001618
X0079197Y0014199
X0079146Y0024282
X0087732Y001999
Y0018263
X0087706Y0032487
X0087732Y0034341
X0083681Y0032563
X0083388Y0030556
X0080645Y0033151
X0078054Y0033325
X007554Y003363
X0073Y0030328
X0079248Y0028423
X0079172Y003843
X0079223Y0042596
X00794Y0046507
X0078054Y0047549
X007554Y0047803
X0072949Y0045034
X0083591Y0044425
X0083605Y0046507
X0079273Y0052807
X0035814Y0047727
X0033249Y0043942
X003589Y0036652
X0032029Y0035103
X0032741Y0034239
X0032029Y0033435
X0033646Y003236
X0034669Y0030635
X0031664Y0029321
X0030759Y0028702
X0029947Y0029667
X0027241Y0024899
X0025785Y0025701
X0024686Y0025756
X0020752Y0025806
X0019914Y0030251
X0022733Y0029108
X0023139Y0040665
X0039878Y0040513
X0041605Y0037084
X0042333Y0031598
X003998Y0030632
X0037592Y0025832
X001382Y0026616
T02
X0025654Y0052172
X0028194
X0030734
X0033274
X0035814
X0038354
T03
X0062509Y0009627
X0065049
X0067589
X0070129
X0072669
X0075209
X0077749
X0080289
T04
X0022581Y0009779
X0025121
X0027661
X0030201
X0032741
X0035281
X0037821
X0040361
T05
X001585Y0022992
X0047423Y0023043
X0055853Y0023018
Y0026518
Y0030018
X0055855Y0033528
Y0037028
Y0040528
X0047422Y0040559
Y0037059
Y0033559
X0047423Y0030043
Y0026543
X001585Y0026492
Y0029992
Y0033508
Y0037008
Y0040508
M30
