%TF.GenerationSoftware,Altium Limited,Altium Designer,21.6.4 (81)*%
G04 Layer_Color=8421504*
%FSLAX43Y43*%
%MOMM*%
%TF.SameCoordinates,EF7AACBD-433E-4B6D-8733-A8E214C0EB56*%
%TF.FilePolarity,Positive*%
%TF.FileFunction,Paste,Top*%
%TF.Part,Single*%
G01*
G75*
%TA.AperFunction,SMDPad,CuDef*%
%ADD11R,0.900X0.800*%
%ADD12R,1.100X1.200*%
G04:AMPARAMS|DCode=13|XSize=0.9mm|YSize=0.8mm|CornerRadius=0mm|HoleSize=0mm|Usage=FLASHONLY|Rotation=45.000|XOffset=0mm|YOffset=0mm|HoleType=Round|Shape=Rectangle|*
%AMROTATEDRECTD13*
4,1,4,-0.035,-0.601,-0.601,-0.035,0.035,0.601,0.601,0.035,-0.035,-0.601,0.0*
%
%ADD13ROTATEDRECTD13*%

%ADD14R,1.000X2.940*%
G04:AMPARAMS|DCode=15|XSize=0.304mm|YSize=1.353mm|CornerRadius=0mm|HoleSize=0mm|Usage=FLASHONLY|Rotation=45.000|XOffset=0mm|YOffset=0mm|HoleType=Round|Shape=Rectangle|*
%AMROTATEDRECTD15*
4,1,4,0.371,-0.586,-0.586,0.371,-0.371,0.586,0.586,-0.371,0.371,-0.586,0.0*
%
%ADD15ROTATEDRECTD15*%

G04:AMPARAMS|DCode=16|XSize=0.304mm|YSize=1.353mm|CornerRadius=0mm|HoleSize=0mm|Usage=FLASHONLY|Rotation=135.000|XOffset=0mm|YOffset=0mm|HoleType=Round|Shape=Rectangle|*
%AMROTATEDRECTD16*
4,1,4,0.586,0.371,-0.371,-0.586,-0.586,-0.371,0.371,0.586,0.586,0.371,0.0*
%
%ADD16ROTATEDRECTD16*%

D11*
X25273Y23774D02*
D03*
X26973D02*
D03*
Y22479D02*
D03*
X25273D02*
D03*
D12*
X21708Y24003D02*
D03*
X23808D02*
D03*
X21708Y22250D02*
D03*
X23808D02*
D03*
Y25756D02*
D03*
X21708D02*
D03*
D13*
X37702Y27822D02*
D03*
X38904Y29024D02*
D03*
D14*
X67894Y28540D02*
D03*
X70434D02*
D03*
X72974D02*
D03*
X75514D02*
D03*
X78054D02*
D03*
Y38100D02*
D03*
X75514D02*
D03*
X72974D02*
D03*
X70434D02*
D03*
X67894D02*
D03*
Y52324D02*
D03*
X70434D02*
D03*
X72974D02*
D03*
X75514D02*
D03*
X78054D02*
D03*
Y42764D02*
D03*
X75514D02*
D03*
X72974D02*
D03*
X70434D02*
D03*
X67894D02*
D03*
X67894Y23860D02*
D03*
X70434D02*
D03*
X72974D02*
D03*
X75514D02*
D03*
X78054D02*
D03*
Y14300D02*
D03*
X75514D02*
D03*
X72974D02*
D03*
X70434D02*
D03*
X67894D02*
D03*
D15*
X36597Y30685D02*
D03*
X36032Y30119D02*
D03*
X35466Y29553D02*
D03*
X34900Y28988D02*
D03*
X34335Y28422D02*
D03*
X33769Y27856D02*
D03*
X33203Y27291D02*
D03*
X32638Y26725D02*
D03*
X26598Y32765D02*
D03*
X27164Y33330D02*
D03*
X27729Y33896D02*
D03*
X28295Y34462D02*
D03*
X28861Y35027D02*
D03*
X29426Y35593D02*
D03*
X29992Y36159D02*
D03*
X30558Y36724D02*
D03*
D16*
Y26725D02*
D03*
X29992Y27291D02*
D03*
X29426Y27856D02*
D03*
X28861Y28422D02*
D03*
X28295Y28988D02*
D03*
X27729Y29553D02*
D03*
X27164Y30119D02*
D03*
X26598Y30685D02*
D03*
X32638Y36724D02*
D03*
X33203Y36159D02*
D03*
X33769Y35593D02*
D03*
X34335Y35027D02*
D03*
X34900Y34462D02*
D03*
X35466Y33896D02*
D03*
X36032Y33330D02*
D03*
X36597Y32765D02*
D03*
%TF.MD5,b1cfdd4b417c4d16955b179d588445a0*%
M02*
