%TF.GenerationSoftware,Altium Limited,Altium Designer,21.6.4 (81)*%
G04 Layer_Color=16711935*
%FSLAX43Y43*%
%MOMM*%
%TF.SameCoordinates,EF7AACBD-433E-4B6D-8733-A8E214C0EB56*%
%TF.FilePolarity,Positive*%
%TF.FileFunction,Other,Bottom_3D_Body*%
%TF.Part,Single*%
G01*
G75*
%TA.AperFunction,NonConductor*%
%ADD58C,0.100*%
%ADD60C,0.200*%
G36*
X23703Y31725D02*
X31598Y39619D01*
X39492Y31725D01*
X31598Y23830D01*
X23703Y31725D01*
D02*
G37*
D58*
X54205Y31779D02*
X54275Y31278D01*
X54205Y31778D02*
X59255D01*
X53476Y31278D02*
X53555Y31778D01*
X53476Y31278D02*
X54275D01*
X52255Y31778D02*
Y42278D01*
Y31778D02*
X53555D01*
X59255D02*
Y42278D01*
X58106Y42778D02*
X58155Y42278D01*
X58605D02*
X58654Y42778D01*
X58105Y42778D02*
X58655D01*
X58605Y42278D02*
X59255D01*
X52255D02*
X58155D01*
X54203Y21269D02*
X54273Y20768D01*
X54203Y21268D02*
X59253D01*
X53475Y20768D02*
X53553Y21268D01*
X53475Y20768D02*
X54273D01*
X52253Y21268D02*
Y31768D01*
Y21268D02*
X53553D01*
X59253D02*
Y31768D01*
X58104Y32268D02*
X58153Y31768D01*
X58603D02*
X58652Y32268D01*
X58103Y32268D02*
X58653D01*
X58603Y31768D02*
X59253D01*
X52253D02*
X58153D01*
D60*
X23056Y11203D02*
Y12903D01*
X22156D02*
X23056D01*
X22156Y11203D02*
Y12903D01*
Y11203D02*
X23056D01*
Y14249D02*
Y15949D01*
X22156D02*
X23056D01*
X22156Y14249D02*
Y15949D01*
Y14249D02*
X23056D01*
X28882Y16441D02*
X30582D01*
Y17341D01*
X28882D02*
X30582D01*
X28882Y16441D02*
Y17341D01*
X43053D02*
X44753D01*
X43053Y16441D02*
Y17341D01*
Y16441D02*
X44753D01*
Y17341D01*
X21512Y10921D02*
Y17121D01*
X18112D02*
X21512D01*
X18112Y10921D02*
Y17121D01*
Y10921D02*
X21512D01*
X39968Y17341D02*
X41668D01*
X39968Y16441D02*
Y17341D01*
Y16441D02*
X41668D01*
Y17341D01*
X20728Y48208D02*
Y54408D01*
Y48208D02*
X24128D01*
Y54408D01*
X20728D02*
X24128D01*
X42062Y24346D02*
X44762D01*
Y25946D01*
X42062D02*
X44762D01*
X42062Y24346D02*
Y25946D01*
X44045Y23488D02*
X45745D01*
X44045Y22588D02*
Y23488D01*
Y22588D02*
X45745D01*
Y23488D01*
X44045Y41039D02*
X45745D01*
X44045Y40139D02*
Y41039D01*
Y40139D02*
X45745D01*
Y41039D01*
X44045Y30524D02*
X45745D01*
X44045Y29624D02*
Y30524D01*
Y29624D02*
X45745D01*
Y30524D01*
X42062Y34862D02*
X44762D01*
Y36462D01*
X42062D02*
X44762D01*
X42062Y34862D02*
Y36462D01*
Y37681D02*
X44762D01*
Y39281D01*
X42062D02*
X44762D01*
X42062Y37681D02*
Y39281D01*
Y27165D02*
X44762D01*
Y28765D01*
X42062D02*
X44762D01*
X42062Y27165D02*
Y28765D01*
X44045Y34003D02*
X45745D01*
X44045Y33103D02*
Y34003D01*
Y33103D02*
X45745D01*
Y34003D01*
X19703Y21668D02*
Y23368D01*
X18803D02*
X19703D01*
X18803Y21668D02*
Y23368D01*
Y21668D02*
X19703D01*
X24605D02*
Y23368D01*
X23705D02*
X24605D01*
X23705Y21668D02*
Y23368D01*
Y21668D02*
X24605D01*
X23996Y27358D02*
Y29058D01*
X23096D02*
X23996D01*
X23096Y27358D02*
Y29058D01*
Y27358D02*
X23996D01*
X22370Y27383D02*
Y29083D01*
X21470D02*
X22370D01*
X21470Y27383D02*
Y29083D01*
Y27383D02*
X22370D01*
X25952Y27457D02*
Y29057D01*
X25152D02*
X25952D01*
X25152Y27457D02*
Y29057D01*
Y27457D02*
X25952D01*
X20339D02*
Y29057D01*
X19539D02*
X20339D01*
X19539Y27457D02*
Y29057D01*
Y27457D02*
X20339D01*
Y31534D02*
Y33134D01*
X19539D02*
X20339D01*
X19539Y31534D02*
Y33134D01*
Y31534D02*
X20339D01*
X25952D02*
Y33134D01*
X25152D02*
X25952D01*
X25152Y31534D02*
Y33134D01*
Y31534D02*
X25952D01*
X16212Y42926D02*
Y44626D01*
Y42926D02*
X17112D01*
Y44626D01*
X16212D02*
X17112D01*
X21426Y41816D02*
X23126D01*
Y42716D01*
X21426D02*
X23126D01*
X21426Y41816D02*
Y42716D01*
X24677Y41816D02*
X26377D01*
Y42716D01*
X24677D02*
X26377D01*
X24677Y41816D02*
Y42716D01*
Y41242D02*
X26377D01*
X24677Y40342D02*
Y41242D01*
Y40342D02*
X26377D01*
Y41242D01*
X80633Y46983D02*
X82333D01*
X80633Y46083D02*
Y46983D01*
Y46083D02*
X82333D01*
Y46983D01*
X84799Y32962D02*
X86499D01*
X84799Y32062D02*
Y32962D01*
Y32062D02*
X86499D01*
Y32962D01*
X80608Y47861D02*
X82308D01*
Y48761D01*
X80608D02*
X82308D01*
X80608Y47861D02*
Y48761D01*
X84900Y47912D02*
X86600D01*
Y48812D01*
X84900D02*
X86600D01*
X84900Y47912D02*
Y48812D01*
X84850Y46932D02*
X86550D01*
X84850Y46032D02*
Y46932D01*
Y46032D02*
X86550D01*
Y46932D01*
X84799Y33942D02*
X86499D01*
Y34842D01*
X84799D02*
X86499D01*
X84799Y33942D02*
Y34842D01*
X80684Y32911D02*
X82384D01*
X80684Y32011D02*
Y32911D01*
Y32011D02*
X82384D01*
Y32911D01*
X80709Y33865D02*
X82409D01*
Y34765D01*
X80709D02*
X82409D01*
X80709Y33865D02*
Y34765D01*
X80571Y19514D02*
X82271D01*
Y20414D01*
X80571D02*
X82271D01*
X80571Y19514D02*
Y20414D01*
X84760Y19540D02*
X86460D01*
Y20440D01*
X84760D02*
X86460D01*
X84760Y19540D02*
Y20440D01*
Y18713D02*
X86460D01*
X84760Y17813D02*
Y18713D01*
Y17813D02*
X86460D01*
Y18713D01*
X80571Y18687D02*
X82271D01*
X80571Y17787D02*
Y18687D01*
Y17787D02*
X82271D01*
Y18687D01*
X61365Y11454D02*
Y17654D01*
X57965D02*
X61365D01*
X57965Y11454D02*
Y17654D01*
Y11454D02*
X61365D01*
X66414Y16916D02*
Y18616D01*
X65514D02*
X66414D01*
X65514Y16916D02*
Y18616D01*
Y16916D02*
X66414D01*
X62462Y15608D02*
X66162D01*
X62462Y14008D02*
Y15608D01*
Y14008D02*
X66162D01*
Y15608D01*
%TF.MD5,b725875e238a512eabb228c43a1f6b62*%
M02*
