%TF.GenerationSoftware,Altium Limited,Altium Designer,21.6.4 (81)*%
G04 Layer_Color=32896*
%FSLAX43Y43*%
%MOMM*%
%TF.SameCoordinates,EF7AACBD-433E-4B6D-8733-A8E214C0EB56*%
%TF.FilePolarity,Positive*%
%TF.FileFunction,Legend,Bot*%
%TF.Part,Single*%
G01*
G75*
%TA.AperFunction,NonConductor*%
%ADD57C,0.250*%
%ADD58C,0.100*%
%ADD59C,0.152*%
%ADD60C,0.200*%
%ADD61C,0.500*%
%ADD62C,1.000*%
D57*
X41276Y24265D02*
G03*
X41276Y24265I-125J0D01*
G01*
Y34781D02*
G03*
X41276Y34781I-125J0D01*
G01*
Y37600D02*
G03*
X41276Y37600I-125J0D01*
G01*
Y27084D02*
G03*
X41276Y27084I-125J0D01*
G01*
X19404Y38918D02*
G03*
X19404Y38918I-125J0D01*
G01*
X67212Y14808D02*
G03*
X67212Y14808I-125J0D01*
G01*
D58*
X48072Y34631D02*
G03*
X48072Y34631I-50J0D01*
G01*
X46846Y39511D02*
G03*
X46846Y39511I-50J0D01*
G01*
Y28996D02*
G03*
X46846Y28996I-50J0D01*
G01*
X48072Y24065D02*
G03*
X48072Y24065I-50J0D01*
G01*
X23727Y44088D02*
X24127D01*
X23727Y43288D02*
X24127D01*
X30991Y11434D02*
Y11934D01*
X30741D01*
X30658Y11851D01*
Y11684D01*
X30741Y11601D01*
X30991D01*
X30491Y11434D02*
X30325D01*
X30408D01*
Y11934D01*
X30491Y11851D01*
X80829Y48924D02*
Y49424D01*
X80579D01*
X80496Y49341D01*
Y49174D01*
X80579Y49091D01*
X80829D01*
X80662D02*
X80496Y48924D01*
X80329Y49341D02*
X80246Y49424D01*
X80079D01*
X79996Y49341D01*
Y49258D01*
X80079Y49174D01*
X80162D01*
X80079D01*
X79996Y49091D01*
Y49008D01*
X80079Y48924D01*
X80246D01*
X80329Y49008D01*
X79829Y49424D02*
X79496D01*
Y49341D01*
X79829Y49008D01*
Y48924D01*
X80626Y47096D02*
Y47596D01*
X80376D01*
X80292Y47512D01*
Y47346D01*
X80376Y47262D01*
X80626D01*
X80459D02*
X80292Y47096D01*
X80126Y47512D02*
X80043Y47596D01*
X79876D01*
X79793Y47512D01*
Y47429D01*
X79876Y47346D01*
X79959D01*
X79876D01*
X79793Y47262D01*
Y47179D01*
X79876Y47096D01*
X80043D01*
X80126Y47179D01*
X79293Y47596D02*
X79459Y47512D01*
X79626Y47346D01*
Y47179D01*
X79543Y47096D01*
X79376D01*
X79293Y47179D01*
Y47262D01*
X79376Y47346D01*
X79626D01*
X86366Y49051D02*
Y49551D01*
X86116D01*
X86033Y49468D01*
Y49301D01*
X86116Y49218D01*
X86366D01*
X86199D02*
X86033Y49051D01*
X85866Y49468D02*
X85783Y49551D01*
X85616D01*
X85533Y49468D01*
Y49385D01*
X85616Y49301D01*
X85700D01*
X85616D01*
X85533Y49218D01*
Y49135D01*
X85616Y49051D01*
X85783D01*
X85866Y49135D01*
X85033Y49551D02*
X85366D01*
Y49301D01*
X85200Y49385D01*
X85116D01*
X85033Y49301D01*
Y49135D01*
X85116Y49051D01*
X85283D01*
X85366Y49135D01*
X86366Y45267D02*
Y45767D01*
X86116D01*
X86033Y45683D01*
Y45517D01*
X86116Y45433D01*
X86366D01*
X86199D02*
X86033Y45267D01*
X85866Y45683D02*
X85783Y45767D01*
X85616D01*
X85533Y45683D01*
Y45600D01*
X85616Y45517D01*
X85700D01*
X85616D01*
X85533Y45433D01*
Y45350D01*
X85616Y45267D01*
X85783D01*
X85866Y45350D01*
X85116Y45267D02*
Y45767D01*
X85366Y45517D01*
X85033D01*
X82608Y52716D02*
Y53049D01*
X82691Y53133D01*
X82858D01*
X82941Y53049D01*
Y52716D01*
X82858Y52633D01*
X82691D01*
X82775Y52799D02*
X82608Y52633D01*
X82691D02*
X82608Y52716D01*
X82441Y53049D02*
X82358Y53133D01*
X82191D01*
X82108Y53049D01*
Y52966D01*
X82191Y52883D01*
X82108Y52799D01*
Y52716D01*
X82191Y52633D01*
X82358D01*
X82441Y52716D01*
Y52799D01*
X82358Y52883D01*
X82441Y52966D01*
Y53049D01*
X82358Y52883D02*
X82191D01*
X82659Y41921D02*
Y42254D01*
X82742Y42338D01*
X82909D01*
X82992Y42254D01*
Y41921D01*
X82909Y41838D01*
X82742D01*
X82825Y42004D02*
X82659Y41838D01*
X82742D02*
X82659Y41921D01*
X82492Y42338D02*
X82159D01*
Y42254D01*
X82492Y41921D01*
Y41838D01*
X77009Y49905D02*
X76509D01*
Y50155D01*
X76592Y50238D01*
X76925D01*
X77009Y50155D01*
Y49905D01*
X76509Y50738D02*
Y50405D01*
X76842Y50738D01*
X76925D01*
X77009Y50655D01*
Y50488D01*
X76925Y50405D01*
X77009Y51238D02*
X76925Y51071D01*
X76759Y50905D01*
X76592D01*
X76509Y50988D01*
Y51155D01*
X76592Y51238D01*
X76675D01*
X76759Y51155D01*
Y50905D01*
X77161Y44215D02*
X76661D01*
Y44465D01*
X76745Y44549D01*
X77078D01*
X77161Y44465D01*
Y44215D01*
X76661Y45048D02*
Y44715D01*
X76995Y45048D01*
X77078D01*
X77161Y44965D01*
Y44798D01*
X77078Y44715D01*
X77161Y45548D02*
Y45215D01*
X76911D01*
X76995Y45382D01*
Y45465D01*
X76911Y45548D01*
X76745D01*
X76661Y45465D01*
Y45298D01*
X76745Y45215D01*
X80753Y34802D02*
Y35302D01*
X80503D01*
X80419Y35219D01*
Y35052D01*
X80503Y34969D01*
X80753D01*
X80586D02*
X80419Y34802D01*
X80253Y35219D02*
X80170Y35302D01*
X80003D01*
X79920Y35219D01*
Y35135D01*
X80003Y35052D01*
X80086D01*
X80003D01*
X79920Y34969D01*
Y34885D01*
X80003Y34802D01*
X80170D01*
X80253Y34885D01*
X79753Y35219D02*
X79670Y35302D01*
X79503D01*
X79420Y35219D01*
Y35135D01*
X79503Y35052D01*
X79586D01*
X79503D01*
X79420Y34969D01*
Y34885D01*
X79503Y34802D01*
X79670D01*
X79753Y34885D01*
X80880Y32973D02*
Y33473D01*
X80630D01*
X80546Y33390D01*
Y33223D01*
X80630Y33140D01*
X80880D01*
X80713D02*
X80546Y32973D01*
X80380Y33390D02*
X80297Y33473D01*
X80130D01*
X80047Y33390D01*
Y33307D01*
X80130Y33223D01*
X80213D01*
X80130D01*
X80047Y33140D01*
Y33057D01*
X80130Y32973D01*
X80297D01*
X80380Y33057D01*
X79547Y32973D02*
X79880D01*
X79547Y33307D01*
Y33390D01*
X79630Y33473D01*
X79797D01*
X79880Y33390D01*
X86239Y35183D02*
Y35683D01*
X85989D01*
X85906Y35600D01*
Y35433D01*
X85989Y35350D01*
X86239D01*
X86072D02*
X85906Y35183D01*
X85406D02*
X85739D01*
X85406Y35516D01*
Y35600D01*
X85489Y35683D01*
X85656D01*
X85739Y35600D01*
X84906Y35683D02*
X85073Y35600D01*
X85239Y35433D01*
Y35266D01*
X85156Y35183D01*
X84989D01*
X84906Y35266D01*
Y35350D01*
X84989Y35433D01*
X85239D01*
X86163Y31297D02*
Y31797D01*
X85913D01*
X85830Y31713D01*
Y31547D01*
X85913Y31463D01*
X86163D01*
X85996D02*
X85830Y31297D01*
X85330D02*
X85663D01*
X85330Y31630D01*
Y31713D01*
X85413Y31797D01*
X85580D01*
X85663Y31713D01*
X84830Y31797D02*
X85163D01*
Y31547D01*
X84997Y31630D01*
X84913D01*
X84830Y31547D01*
Y31380D01*
X84913Y31297D01*
X85080D01*
X85163Y31380D01*
X82659Y38568D02*
Y38902D01*
X82742Y38985D01*
X82909D01*
X82992Y38902D01*
Y38568D01*
X82909Y38485D01*
X82742D01*
X82825Y38652D02*
X82659Y38485D01*
X82742D02*
X82659Y38568D01*
X82159Y38985D02*
X82492D01*
Y38735D01*
X82325Y38818D01*
X82242D01*
X82159Y38735D01*
Y38568D01*
X82242Y38485D01*
X82409D01*
X82492Y38568D01*
X82608Y27926D02*
Y28259D01*
X82691Y28342D01*
X82858D01*
X82941Y28259D01*
Y27926D01*
X82858Y27842D01*
X82691D01*
X82775Y28009D02*
X82608Y27842D01*
X82691D02*
X82608Y27926D01*
X82191Y27842D02*
Y28342D01*
X82441Y28092D01*
X82108D01*
X77009Y35833D02*
X76509D01*
Y36083D01*
X76592Y36167D01*
X76925D01*
X77009Y36083D01*
Y35833D01*
X76509Y36666D02*
Y36333D01*
X76842Y36666D01*
X76925D01*
X77009Y36583D01*
Y36417D01*
X76925Y36333D01*
X76509Y37083D02*
X77009D01*
X76759Y36833D01*
Y37166D01*
X76983Y29890D02*
X76483D01*
Y30140D01*
X76567Y30223D01*
X76900D01*
X76983Y30140D01*
Y29890D01*
X76483Y30723D02*
Y30390D01*
X76817Y30723D01*
X76900D01*
X76983Y30640D01*
Y30473D01*
X76900Y30390D01*
Y30889D02*
X76983Y30973D01*
Y31139D01*
X76900Y31223D01*
X76817D01*
X76733Y31139D01*
Y31056D01*
Y31139D01*
X76650Y31223D01*
X76567D01*
X76483Y31139D01*
Y30973D01*
X76567Y30889D01*
X68916Y15185D02*
Y14685D01*
X68666D01*
X68583Y14769D01*
Y15102D01*
X68666Y15185D01*
X68916D01*
X68083Y14685D02*
X68416D01*
X68083Y15019D01*
Y15102D01*
X68166Y15185D01*
X68333D01*
X68416Y15102D01*
X67583Y14685D02*
X67917D01*
X67583Y15019D01*
Y15102D01*
X67667Y15185D01*
X67833D01*
X67917Y15102D01*
X24794Y21930D02*
X25294D01*
Y22180D01*
X25211Y22264D01*
X25044D01*
X24961Y22180D01*
Y21930D01*
Y22097D02*
X24794Y22264D01*
Y22430D02*
Y22597D01*
Y22514D01*
X25294D01*
X25211Y22430D01*
X25294Y22847D02*
Y23180D01*
X25211D01*
X24878Y22847D01*
X24794D01*
X53271Y43125D02*
X53438D01*
X53354D01*
Y42709D01*
X53438Y42625D01*
X53521D01*
X53604Y42709D01*
X53104D02*
X53021Y42625D01*
X52854D01*
X52771Y42709D01*
Y43042D01*
X52854Y43125D01*
X53021D01*
X53104Y43042D01*
Y42959D01*
X53021Y42875D01*
X52771D01*
X55785Y20976D02*
X55952D01*
X55869D01*
Y20560D01*
X55952Y20476D01*
X56035D01*
X56119Y20560D01*
X55619Y20893D02*
X55536Y20976D01*
X55369D01*
X55286Y20893D01*
Y20810D01*
X55369Y20726D01*
X55286Y20643D01*
Y20560D01*
X55369Y20476D01*
X55536D01*
X55619Y20560D01*
Y20643D01*
X55536Y20726D01*
X55619Y20810D01*
Y20893D01*
X55536Y20726D02*
X55369D01*
X27925Y42117D02*
Y42617D01*
X27675D01*
X27591Y42534D01*
Y42367D01*
X27675Y42284D01*
X27925D01*
X27758D02*
X27591Y42117D01*
X27425Y42201D02*
X27342Y42117D01*
X27175D01*
X27092Y42201D01*
Y42534D01*
X27175Y42617D01*
X27342D01*
X27425Y42534D01*
Y42451D01*
X27342Y42367D01*
X27092D01*
X18197Y39264D02*
Y38764D01*
X17947D01*
X17863Y38848D01*
Y39181D01*
X17947Y39264D01*
X18197D01*
X17447Y38764D02*
Y39264D01*
X17697Y39014D01*
X17363D01*
X45298Y32364D02*
Y32864D01*
X45048D01*
X44965Y32780D01*
Y32614D01*
X45048Y32530D01*
X45298D01*
X45132D02*
X44965Y32364D01*
X44798Y32864D02*
X44465D01*
Y32780D01*
X44798Y32447D01*
Y32364D01*
X45375Y41304D02*
Y41804D01*
X45125D01*
X45041Y41721D01*
Y41554D01*
X45125Y41471D01*
X45375D01*
X45208D02*
X45041Y41304D01*
X44541D02*
X44875D01*
X44541Y41638D01*
Y41721D01*
X44625Y41804D01*
X44791D01*
X44875Y41721D01*
X46630Y34926D02*
X46130D01*
Y35176D01*
X46214Y35259D01*
X46547D01*
X46630Y35176D01*
Y34926D01*
X46130Y35759D02*
Y35426D01*
X46464Y35759D01*
X46547D01*
X46630Y35676D01*
Y35509D01*
X46547Y35426D01*
X46130Y35926D02*
Y36092D01*
Y36009D01*
X46630D01*
X46547Y35926D01*
X41687Y36724D02*
Y36224D01*
X41438D01*
X41354Y36308D01*
Y36641D01*
X41438Y36724D01*
X41687D01*
X40854Y36224D02*
X41188D01*
X40854Y36558D01*
Y36641D01*
X40938Y36724D01*
X41104D01*
X41188Y36641D01*
X40688D02*
X40604Y36724D01*
X40438D01*
X40355Y36641D01*
Y36308D01*
X40438Y36224D01*
X40604D01*
X40688Y36308D01*
Y36641D01*
X45273Y21823D02*
Y22323D01*
X45023D01*
X44940Y22239D01*
Y22073D01*
X45023Y21989D01*
X45273D01*
X45106D02*
X44940Y21823D01*
X44440Y22323D02*
X44606Y22239D01*
X44773Y22073D01*
Y21906D01*
X44690Y21823D01*
X44523D01*
X44440Y21906D01*
Y21989D01*
X44523Y22073D01*
X44773D01*
X45164Y30840D02*
Y31340D01*
X44914D01*
X44831Y31256D01*
Y31090D01*
X44914Y31006D01*
X45164D01*
X44998D02*
X44831Y30840D01*
X44664D02*
X44498D01*
X44581D01*
Y31340D01*
X44664Y31256D01*
X41634Y29104D02*
Y28604D01*
X41384D01*
X41300Y28688D01*
Y29021D01*
X41384Y29104D01*
X41634D01*
X41134Y28604D02*
X40967D01*
X41050D01*
Y29104D01*
X41134Y29021D01*
X46605Y28057D02*
X46105D01*
Y28307D01*
X46188Y28390D01*
X46522D01*
X46605Y28307D01*
Y28057D01*
Y28890D02*
Y28557D01*
X46355D01*
X46438Y28723D01*
Y28807D01*
X46355Y28890D01*
X46188D01*
X46105Y28807D01*
Y28640D01*
X46188Y28557D01*
X46732Y24369D02*
X46232D01*
Y24619D01*
X46315Y24702D01*
X46649D01*
X46732Y24619D01*
Y24369D01*
X46232Y24869D02*
Y25035D01*
Y24952D01*
X46732D01*
X46649Y24869D01*
X46732Y25618D02*
X46649Y25452D01*
X46482Y25285D01*
X46315D01*
X46232Y25368D01*
Y25535D01*
X46315Y25618D01*
X46399D01*
X46482Y25535D01*
Y25285D01*
X41747Y26488D02*
Y25988D01*
X41497D01*
X41414Y26072D01*
Y26405D01*
X41497Y26488D01*
X41747D01*
X41248Y25988D02*
X41081D01*
X41164D01*
Y26488D01*
X41248Y26405D01*
X40498Y26488D02*
X40831D01*
Y26238D01*
X40664Y26322D01*
X40581D01*
X40498Y26238D01*
Y26072D01*
X40581Y25988D01*
X40748D01*
X40831Y26072D01*
X63804Y20316D02*
Y19983D01*
X63637Y19816D01*
X63471Y19983D01*
Y20316D01*
X63304D02*
X62971D01*
X63137D01*
Y19816D01*
X62804D02*
X62637D01*
X62721D01*
Y20316D01*
X62804Y20233D01*
X24089Y40280D02*
Y39864D01*
X24006Y39780D01*
X23839D01*
X23756Y39864D01*
Y40280D01*
X23589Y40197D02*
X23506Y40280D01*
X23340D01*
X23256Y40197D01*
Y40114D01*
X23340Y40030D01*
X23423D01*
X23340D01*
X23256Y39947D01*
Y39864D01*
X23340Y39780D01*
X23506D01*
X23589Y39864D01*
X35418Y18284D02*
Y17867D01*
X35334Y17784D01*
X35168D01*
X35084Y17867D01*
Y18284D01*
X34585Y17784D02*
X34918D01*
X34585Y18117D01*
Y18201D01*
X34668Y18284D01*
X34835D01*
X34918Y18201D01*
X67306Y18541D02*
X66806D01*
Y18291D01*
X66889Y18208D01*
X67056D01*
X67139Y18291D01*
Y18541D01*
Y18374D02*
X67306Y18208D01*
X66889Y18041D02*
X66806Y17958D01*
Y17791D01*
X66889Y17708D01*
X66973D01*
X67056Y17791D01*
Y17874D01*
Y17791D01*
X67139Y17708D01*
X67223D01*
X67306Y17791D01*
Y17958D01*
X67223Y18041D01*
X67306Y17541D02*
Y17375D01*
Y17458D01*
X66806D01*
X66889Y17541D01*
X80803Y20476D02*
Y20976D01*
X80554D01*
X80470Y20893D01*
Y20726D01*
X80554Y20643D01*
X80803D01*
X80637D02*
X80470Y20476D01*
X80304Y20893D02*
X80220Y20976D01*
X80054D01*
X79970Y20893D01*
Y20810D01*
X80054Y20726D01*
X80137D01*
X80054D01*
X79970Y20643D01*
Y20560D01*
X80054Y20476D01*
X80220D01*
X80304Y20560D01*
X79804Y20893D02*
X79720Y20976D01*
X79554D01*
X79471Y20893D01*
Y20560D01*
X79554Y20476D01*
X79720D01*
X79804Y20560D01*
Y20893D01*
X80854Y18724D02*
Y19224D01*
X80604D01*
X80521Y19140D01*
Y18974D01*
X80604Y18890D01*
X80854D01*
X80688D02*
X80521Y18724D01*
X80021D02*
X80354D01*
X80021Y19057D01*
Y19140D01*
X80104Y19224D01*
X80271D01*
X80354Y19140D01*
X79855Y18807D02*
X79771Y18724D01*
X79605D01*
X79521Y18807D01*
Y19140D01*
X79605Y19224D01*
X79771D01*
X79855Y19140D01*
Y19057D01*
X79771Y18974D01*
X79521D01*
X86264Y20781D02*
Y21281D01*
X86015D01*
X85931Y21198D01*
Y21031D01*
X86015Y20948D01*
X86264D01*
X86098D02*
X85931Y20781D01*
X85431D02*
X85765D01*
X85431Y21115D01*
Y21198D01*
X85515Y21281D01*
X85681D01*
X85765Y21198D01*
X85265D02*
X85181Y21281D01*
X85015D01*
X84932Y21198D01*
Y21115D01*
X85015Y21031D01*
X84932Y20948D01*
Y20865D01*
X85015Y20781D01*
X85181D01*
X85265Y20865D01*
Y20948D01*
X85181Y21031D01*
X85265Y21115D01*
Y21198D01*
X85181Y21031D02*
X85015D01*
X86087Y17022D02*
Y17522D01*
X85837D01*
X85753Y17439D01*
Y17272D01*
X85837Y17189D01*
X86087D01*
X85920D02*
X85753Y17022D01*
X85254D02*
X85587D01*
X85254Y17355D01*
Y17439D01*
X85337Y17522D01*
X85504D01*
X85587Y17439D01*
X85087Y17522D02*
X84754D01*
Y17439D01*
X85087Y17105D01*
Y17022D01*
X18038Y21838D02*
X18538D01*
Y22088D01*
X18455Y22171D01*
X18288D01*
X18205Y22088D01*
Y21838D01*
Y22005D02*
X18038Y22171D01*
Y22671D02*
Y22338D01*
X18371Y22671D01*
X18455D01*
X18538Y22588D01*
Y22421D01*
X18455Y22338D01*
X18038Y23088D02*
X18538D01*
X18288Y22838D01*
Y23171D01*
X23270Y11500D02*
X23770D01*
Y11750D01*
X23687Y11833D01*
X23520D01*
X23437Y11750D01*
Y11500D01*
Y11667D02*
X23270Y11833D01*
Y12333D02*
Y12000D01*
X23604Y12333D01*
X23687D01*
X23770Y12250D01*
Y12083D01*
X23687Y12000D01*
Y12500D02*
X23770Y12583D01*
Y12750D01*
X23687Y12833D01*
X23604D01*
X23520Y12750D01*
Y12666D01*
Y12750D01*
X23437Y12833D01*
X23354D01*
X23270Y12750D01*
Y12583D01*
X23354Y12500D01*
X22280Y16707D02*
X22780D01*
Y16957D01*
X22696Y17040D01*
X22530D01*
X22446Y16957D01*
Y16707D01*
Y16874D02*
X22280Y17040D01*
Y17540D02*
Y17207D01*
X22613Y17540D01*
X22696D01*
X22780Y17457D01*
Y17290D01*
X22696Y17207D01*
X22280Y18040D02*
Y17707D01*
X22613Y18040D01*
X22696D01*
X22780Y17957D01*
Y17790D01*
X22696Y17707D01*
X23245Y29770D02*
X23745D01*
Y30020D01*
X23662Y30103D01*
X23495D01*
X23412Y30020D01*
Y29770D01*
Y29936D02*
X23245Y30103D01*
Y30603D02*
Y30270D01*
X23578Y30603D01*
X23662D01*
X23745Y30520D01*
Y30353D01*
X23662Y30270D01*
X23245Y30770D02*
Y30936D01*
Y30853D01*
X23745D01*
X23662Y30770D01*
X15447Y43190D02*
X15947D01*
Y43440D01*
X15864Y43523D01*
X15697D01*
X15614Y43440D01*
Y43190D01*
Y43357D02*
X15447Y43523D01*
Y43690D02*
Y43857D01*
Y43773D01*
X15947D01*
X15864Y43690D01*
X15947Y44440D02*
X15864Y44273D01*
X15697Y44107D01*
X15531D01*
X15447Y44190D01*
Y44356D01*
X15531Y44440D01*
X15614D01*
X15697Y44356D01*
Y44107D01*
X21670Y29728D02*
X22170D01*
Y29978D01*
X22087Y30061D01*
X21920D01*
X21837Y29978D01*
Y29728D01*
Y29895D02*
X21670Y30061D01*
Y30228D02*
Y30395D01*
Y30311D01*
X22170D01*
X22087Y30228D01*
X22170Y30978D02*
Y30645D01*
X21920D01*
X22003Y30811D01*
Y30894D01*
X21920Y30978D01*
X21754D01*
X21670Y30894D01*
Y30728D01*
X21754Y30645D01*
X22748Y41101D02*
Y41601D01*
X22498D01*
X22415Y41518D01*
Y41351D01*
X22498Y41268D01*
X22748D01*
X22582D02*
X22415Y41101D01*
X22248D02*
X22082D01*
X22165D01*
Y41601D01*
X22248Y41518D01*
X21582Y41101D02*
Y41601D01*
X21832Y41351D01*
X21499D01*
X18267Y27747D02*
X18767D01*
Y27997D01*
X18683Y28080D01*
X18517D01*
X18433Y27997D01*
Y27747D01*
Y27914D02*
X18267Y28080D01*
Y28247D02*
Y28413D01*
Y28330D01*
X18767D01*
X18683Y28247D01*
Y28663D02*
X18767Y28747D01*
Y28913D01*
X18683Y28997D01*
X18600D01*
X18517Y28913D01*
Y28830D01*
Y28913D01*
X18433Y28997D01*
X18350D01*
X18267Y28913D01*
Y28747D01*
X18350Y28663D01*
X26674Y27696D02*
X27174D01*
Y27946D01*
X27091Y28029D01*
X26924D01*
X26841Y27946D01*
Y27696D01*
Y27863D02*
X26674Y28029D01*
Y28196D02*
Y28363D01*
Y28279D01*
X27174D01*
X27091Y28196D01*
X26674Y28946D02*
Y28613D01*
X27007Y28946D01*
X27091D01*
X27174Y28862D01*
Y28696D01*
X27091Y28613D01*
X18343Y32047D02*
X18843D01*
Y32297D01*
X18759Y32380D01*
X18593D01*
X18509Y32297D01*
Y32047D01*
Y32213D02*
X18343Y32380D01*
Y32547D02*
Y32713D01*
Y32630D01*
X18843D01*
X18759Y32547D01*
X18343Y32963D02*
Y33130D01*
Y33046D01*
X18843D01*
X18759Y32963D01*
X26776Y31836D02*
X27276D01*
Y32086D01*
X27192Y32170D01*
X27026D01*
X26942Y32086D01*
Y31836D01*
Y32003D02*
X26776Y32170D01*
Y32336D02*
Y32503D01*
Y32420D01*
X27276D01*
X27192Y32336D01*
Y32753D02*
X27276Y32836D01*
Y33003D01*
X27192Y33086D01*
X26859D01*
X26776Y33003D01*
Y32836D01*
X26859Y32753D01*
X27192D01*
X27925Y40492D02*
Y40992D01*
X27675D01*
X27591Y40908D01*
Y40742D01*
X27675Y40658D01*
X27925D01*
X27758D02*
X27591Y40492D01*
X27425Y40908D02*
X27342Y40992D01*
X27175D01*
X27092Y40908D01*
Y40825D01*
X27175Y40742D01*
X27092Y40658D01*
Y40575D01*
X27175Y40492D01*
X27342D01*
X27425Y40575D01*
Y40658D01*
X27342Y40742D01*
X27425Y40825D01*
Y40908D01*
X27342Y40742D02*
X27175D01*
X44308Y17632D02*
Y18132D01*
X44058D01*
X43974Y18048D01*
Y17882D01*
X44058Y17798D01*
X44308D01*
X44141D02*
X43974Y17632D01*
X43475Y18132D02*
X43808D01*
Y17882D01*
X43641Y17965D01*
X43558D01*
X43475Y17882D01*
Y17715D01*
X43558Y17632D01*
X43725D01*
X43808Y17715D01*
X41133Y17657D02*
Y18157D01*
X40883D01*
X40799Y18074D01*
Y17907D01*
X40883Y17824D01*
X41133D01*
X40966D02*
X40799Y17657D01*
X40383D02*
Y18157D01*
X40633Y17907D01*
X40300D01*
X30135Y17632D02*
Y18132D01*
X29885D01*
X29801Y18048D01*
Y17882D01*
X29885Y17798D01*
X30135D01*
X29968D02*
X29801Y17632D01*
X29635Y18048D02*
X29551Y18132D01*
X29385D01*
X29301Y18048D01*
Y17965D01*
X29385Y17882D01*
X29468D01*
X29385D01*
X29301Y17798D01*
Y17715D01*
X29385Y17632D01*
X29551D01*
X29635Y17715D01*
X82760Y13549D02*
Y13883D01*
X82844Y13966D01*
X83010D01*
X83094Y13883D01*
Y13549D01*
X83010Y13466D01*
X82844D01*
X82927Y13633D02*
X82760Y13466D01*
X82844D02*
X82760Y13549D01*
X82260Y13966D02*
X82427Y13883D01*
X82594Y13716D01*
Y13549D01*
X82510Y13466D01*
X82344D01*
X82260Y13549D01*
Y13633D01*
X82344Y13716D01*
X82594D01*
X82582Y24268D02*
Y24601D01*
X82666Y24685D01*
X82832D01*
X82916Y24601D01*
Y24268D01*
X82832Y24185D01*
X82666D01*
X82749Y24351D02*
X82582Y24185D01*
X82666D02*
X82582Y24268D01*
X82416Y24601D02*
X82333Y24685D01*
X82166D01*
X82083Y24601D01*
Y24518D01*
X82166Y24435D01*
X82249D01*
X82166D01*
X82083Y24351D01*
Y24268D01*
X82166Y24185D01*
X82333D01*
X82416Y24268D01*
X22816Y25589D02*
Y25922D01*
X22900Y26006D01*
X23066D01*
X23150Y25922D01*
Y25589D01*
X23066Y25506D01*
X22900D01*
X22983Y25672D02*
X22816Y25506D01*
X22900D02*
X22816Y25589D01*
X22316Y25506D02*
X22650D01*
X22316Y25839D01*
Y25922D01*
X22400Y26006D01*
X22566D01*
X22650Y25922D01*
X20636Y44983D02*
X20969D01*
X21053Y44900D01*
Y44733D01*
X20969Y44650D01*
X20636D01*
X20553Y44733D01*
Y44900D01*
X20719Y44817D02*
X20553Y44983D01*
Y44900D02*
X20636Y44983D01*
X20553Y45150D02*
Y45317D01*
Y45233D01*
X21053D01*
X20969Y45150D01*
X76856Y15911D02*
X76356D01*
Y16161D01*
X76440Y16244D01*
X76773D01*
X76856Y16161D01*
Y15911D01*
X76356Y16410D02*
Y16577D01*
Y16494D01*
X76856D01*
X76773Y16410D01*
X76440Y16827D02*
X76356Y16910D01*
Y17077D01*
X76440Y17160D01*
X76773D01*
X76856Y17077D01*
Y16910D01*
X76773Y16827D01*
X76690D01*
X76606Y16910D01*
Y17160D01*
X77136Y21600D02*
X76636D01*
Y21850D01*
X76719Y21933D01*
X77052D01*
X77136Y21850D01*
Y21600D01*
X76636Y22100D02*
Y22267D01*
Y22183D01*
X77136D01*
X77052Y22100D01*
X77136Y22517D02*
Y22850D01*
X77052D01*
X76719Y22517D01*
X76636D01*
X60569Y20900D02*
Y20400D01*
X60319D01*
X60236Y20484D01*
Y20817D01*
X60319Y20900D01*
X60569D01*
X60069Y20400D02*
X59902D01*
X59986D01*
Y20900D01*
X60069Y20817D01*
X59652D02*
X59569Y20900D01*
X59403D01*
X59319Y20817D01*
Y20734D01*
X59403Y20650D01*
X59486D01*
X59403D01*
X59319Y20567D01*
Y20484D01*
X59403Y20400D01*
X59569D01*
X59652Y20484D01*
X15261Y27595D02*
X14761D01*
Y27845D01*
X14845Y27928D01*
X15178D01*
X15261Y27845D01*
Y27595D01*
X14761Y28094D02*
Y28261D01*
Y28178D01*
X15261D01*
X15178Y28094D01*
X14761Y28844D02*
Y28511D01*
X15095Y28844D01*
X15178D01*
X15261Y28761D01*
Y28594D01*
X15178Y28511D01*
X15261Y24147D02*
X14761D01*
Y24397D01*
X14845Y24481D01*
X15178D01*
X15261Y24397D01*
Y24147D01*
X14761Y24647D02*
Y24814D01*
Y24730D01*
X15261D01*
X15178Y24647D01*
X14761Y25064D02*
Y25230D01*
Y25147D01*
X15261D01*
X15178Y25064D01*
X24140Y31822D02*
Y31322D01*
X23890D01*
X23807Y31406D01*
Y31739D01*
X23890Y31822D01*
X24140D01*
X23640Y31739D02*
X23557Y31822D01*
X23390D01*
X23307Y31739D01*
Y31656D01*
X23390Y31572D01*
X23307Y31489D01*
Y31406D01*
X23390Y31322D01*
X23557D01*
X23640Y31406D01*
Y31489D01*
X23557Y31572D01*
X23640Y31656D01*
Y31739D01*
X23557Y31572D02*
X23390D01*
X24293Y44827D02*
Y44327D01*
X24043D01*
X23959Y44410D01*
Y44744D01*
X24043Y44827D01*
X24293D01*
X23793D02*
X23459D01*
Y44744D01*
X23793Y44410D01*
Y44327D01*
X46580Y38318D02*
X46080D01*
Y38568D01*
X46163Y38652D01*
X46496D01*
X46580Y38568D01*
Y38318D01*
Y39152D02*
X46496Y38985D01*
X46330Y38818D01*
X46163D01*
X46080Y38902D01*
Y39068D01*
X46163Y39152D01*
X46246D01*
X46330Y39068D01*
Y38818D01*
X26248Y18132D02*
Y17632D01*
X25998D01*
X25915Y17715D01*
Y18048D01*
X25998Y18132D01*
X26248D01*
X25748Y18048D02*
X25665Y18132D01*
X25499D01*
X25415Y18048D01*
Y17965D01*
X25499Y17882D01*
X25582D01*
X25499D01*
X25415Y17798D01*
Y17715D01*
X25499Y17632D01*
X25665D01*
X25748Y17715D01*
X41819Y39798D02*
Y39298D01*
X41569D01*
X41485Y39381D01*
Y39714D01*
X41569Y39798D01*
X41819D01*
X40985Y39298D02*
X41319D01*
X40985Y39631D01*
Y39714D01*
X41069Y39798D01*
X41235D01*
X41319Y39714D01*
X57364Y13449D02*
X57281Y13532D01*
Y13699D01*
X57364Y13782D01*
X57698D01*
X57781Y13699D01*
Y13532D01*
X57698Y13449D01*
X57781Y13282D02*
Y13116D01*
Y13199D01*
X57281D01*
X57364Y13282D01*
X57781Y12532D02*
Y12866D01*
X57448Y12532D01*
X57364D01*
X57281Y12616D01*
Y12782D01*
X57364Y12866D01*
X55713Y18877D02*
X55630Y18961D01*
Y19127D01*
X55713Y19210D01*
X56047D01*
X56130Y19127D01*
Y18961D01*
X56047Y18877D01*
X56130Y18711D02*
Y18544D01*
Y18627D01*
X55630D01*
X55713Y18711D01*
X56130Y18294D02*
Y18128D01*
Y18211D01*
X55630D01*
X55713Y18294D01*
X54469Y16014D02*
X54385Y16097D01*
Y16264D01*
X54469Y16347D01*
X54802D01*
X54885Y16264D01*
Y16097D01*
X54802Y16014D01*
X54885Y15848D02*
Y15681D01*
Y15764D01*
X54385D01*
X54469Y15848D01*
Y15431D02*
X54385Y15348D01*
Y15181D01*
X54469Y15098D01*
X54802D01*
X54885Y15181D01*
Y15348D01*
X54802Y15431D01*
X54469D01*
X65823Y12021D02*
X65739Y12105D01*
Y12271D01*
X65823Y12355D01*
X66156D01*
X66239Y12271D01*
Y12105D01*
X66156Y12021D01*
Y11855D02*
X66239Y11771D01*
Y11605D01*
X66156Y11521D01*
X65823D01*
X65739Y11605D01*
Y11771D01*
X65823Y11855D01*
X65906D01*
X65989Y11771D01*
Y11521D01*
X49468Y33013D02*
X49551Y32930D01*
Y32763D01*
X49468Y32680D01*
X49135D01*
X49051Y32763D01*
Y32930D01*
X49135Y33013D01*
X49468Y33180D02*
X49551Y33263D01*
Y33429D01*
X49468Y33513D01*
X49385D01*
X49301Y33429D01*
X49218Y33513D01*
X49135D01*
X49051Y33429D01*
Y33263D01*
X49135Y33180D01*
X49218D01*
X49301Y33263D01*
X49385Y33180D01*
X49468D01*
X49301Y33263D02*
Y33429D01*
X49366Y22548D02*
X49450Y22465D01*
Y22298D01*
X49366Y22215D01*
X49033D01*
X48950Y22298D01*
Y22465D01*
X49033Y22548D01*
X49450Y22715D02*
Y23048D01*
X49366D01*
X49033Y22715D01*
X48950D01*
X17845Y14090D02*
X17928Y14007D01*
Y13840D01*
X17845Y13757D01*
X17512D01*
X17428Y13840D01*
Y14007D01*
X17512Y14090D01*
X17928Y14590D02*
X17845Y14423D01*
X17678Y14257D01*
X17512D01*
X17428Y14340D01*
Y14506D01*
X17512Y14590D01*
X17595D01*
X17678Y14506D01*
Y14257D01*
X45074Y51682D02*
X45157Y51599D01*
Y51432D01*
X45074Y51349D01*
X44741D01*
X44657Y51432D01*
Y51599D01*
X44741Y51682D01*
X45157Y52182D02*
Y51848D01*
X44907D01*
X44991Y52015D01*
Y52098D01*
X44907Y52182D01*
X44741D01*
X44657Y52098D01*
Y51932D01*
X44741Y51848D01*
X39359Y54146D02*
X39442Y54062D01*
Y53896D01*
X39359Y53812D01*
X39026D01*
X38942Y53896D01*
Y54062D01*
X39026Y54146D01*
X38942Y54562D02*
X39442D01*
X39192Y54312D01*
Y54646D01*
X49443Y40811D02*
X49526Y40727D01*
Y40561D01*
X49443Y40477D01*
X49109D01*
X49026Y40561D01*
Y40727D01*
X49109Y40811D01*
X49443Y40977D02*
X49526Y41061D01*
Y41227D01*
X49443Y41311D01*
X49359D01*
X49276Y41227D01*
Y41144D01*
Y41227D01*
X49193Y41311D01*
X49109D01*
X49026Y41227D01*
Y41061D01*
X49109Y40977D01*
X49392Y30092D02*
X49475Y30009D01*
Y29842D01*
X49392Y29759D01*
X49059D01*
X48975Y29842D01*
Y30009D01*
X49059Y30092D01*
X48975Y30592D02*
Y30259D01*
X49309Y30592D01*
X49392D01*
X49475Y30508D01*
Y30342D01*
X49392Y30259D01*
X19976Y51130D02*
X19892Y51214D01*
Y51380D01*
X19976Y51463D01*
X20309D01*
X20392Y51380D01*
Y51214D01*
X20309Y51130D01*
X20392Y50964D02*
Y50797D01*
Y50880D01*
X19892D01*
X19976Y50964D01*
D59*
X24663Y23089D02*
G03*
X24663Y23089I-127J0D01*
G01*
X18364Y40919D02*
G03*
X18364Y40919I-127J0D01*
G01*
X78842Y30759D02*
G03*
X78842Y30759I-127J0D01*
G01*
X84430Y35904D02*
G03*
X84430Y35904I-127J0D01*
G01*
X84379Y21768D02*
G03*
X84379Y21768I-127J0D01*
G01*
X78816Y16434D02*
G03*
X78816Y16434I-127J0D01*
G01*
Y44856D02*
G03*
X78816Y44856I-127J0D01*
G01*
X84404Y50128D02*
G03*
X84404Y50128I-127J0D01*
G01*
X64719Y20549D02*
G03*
X64719Y20549I-127J0D01*
G01*
X22379Y25235D02*
X23393D01*
X21363Y23584D02*
X22122D01*
X20091Y24258D02*
Y25235D01*
X21106D01*
X23393Y24258D02*
Y25235D01*
X20383Y42062D02*
Y43077D01*
X18733Y43334D02*
Y44093D01*
X19407Y45364D02*
X20383D01*
Y44350D02*
Y45364D01*
X19407Y42062D02*
X20383D01*
X79858Y28613D02*
X80872D01*
X81129Y30264D02*
X81888D01*
X83160Y28613D02*
Y29590D01*
X82145Y28613D02*
X83160D01*
X79858D02*
Y29590D01*
X82145Y38050D02*
X83160D01*
X81129Y36399D02*
X81888D01*
X79858Y37073D02*
Y38050D01*
X80872D01*
X83160Y37073D02*
Y38050D01*
X82095Y23914D02*
X83109D01*
X81079Y22263D02*
X81837D01*
X79807Y22938D02*
Y23914D01*
X80821D01*
X83109Y22938D02*
Y23914D01*
X79832Y14288D02*
X80846D01*
X81104Y15939D02*
X81862D01*
X83134Y14288D02*
Y15264D01*
X82120Y14288D02*
X83134D01*
X79832D02*
Y15264D01*
Y42710D02*
X80846D01*
X81104Y44361D02*
X81862D01*
X83134Y42710D02*
Y43687D01*
X82120Y42710D02*
X83134D01*
X79832D02*
Y43687D01*
X82120Y52274D02*
X83134D01*
X81104Y50623D02*
X81862D01*
X79832Y51297D02*
Y52274D01*
X80846D01*
X83134Y51297D02*
Y52274D01*
X62446Y18351D02*
Y19406D01*
X64097Y17335D02*
Y18174D01*
X62446Y16104D02*
X64097D01*
X62446D02*
Y17158D01*
Y19406D02*
X64097D01*
X42266Y9771D02*
X42435Y9602D01*
X42773D01*
X42943Y9771D01*
Y9940D01*
X42773Y10109D01*
X42943Y10279D01*
Y10448D01*
X42773Y10617D01*
X42435D01*
X42266Y10448D01*
Y10279D01*
X42435Y10109D01*
X42266Y9940D01*
Y9771D01*
X42435Y10109D02*
X42773D01*
D60*
X25327Y43788D02*
G03*
X25327Y43588I0J-100D01*
G01*
D02*
G03*
X25327Y43788I0J100D01*
G01*
X23056Y12028D02*
Y12078D01*
X22156Y12028D02*
Y12078D01*
X23056Y15074D02*
Y15124D01*
X22156Y15074D02*
Y15124D01*
X25928Y14511D02*
X26351D01*
Y16625D02*
Y17411D01*
Y14511D02*
Y15297D01*
X25928Y17411D02*
X26351D01*
X25051Y15675D02*
Y16247D01*
X29707Y16441D02*
X29757D01*
X29707Y17341D02*
X29757D01*
X43878D02*
X43928D01*
X43878Y16441D02*
X43928D01*
X36932Y17566D02*
X38457D01*
X36582Y12536D02*
Y17436D01*
X33382Y12536D02*
X36582D01*
X33382D02*
Y17436D01*
X36582D01*
X21512Y13146D02*
Y14896D01*
X18112Y13146D02*
Y14896D01*
X19512Y17946D02*
X20112D01*
X19812Y17646D02*
Y18246D01*
X40793Y17341D02*
X40843D01*
X40793Y16441D02*
X40843D01*
X39817Y51506D02*
Y54412D01*
X42073Y51506D02*
Y54412D01*
X20728Y50433D02*
Y52183D01*
X24128Y50433D02*
Y52183D01*
X22128Y47383D02*
X22728D01*
X22428Y47083D02*
Y47683D01*
X42077Y50578D02*
Y53484D01*
X44333Y50578D02*
Y53484D01*
X42062Y25866D02*
Y25946D01*
X44762D01*
Y25866D02*
Y25946D01*
X42062Y24346D02*
Y24426D01*
Y24346D02*
X44762D01*
Y24426D01*
X47822Y35257D02*
Y35405D01*
X47022Y35257D02*
Y35405D01*
X46997Y38737D02*
Y38885D01*
X47796Y38737D02*
Y38885D01*
X50480Y37383D02*
Y40290D01*
X48224Y37383D02*
Y40290D01*
X44870Y23488D02*
X44920D01*
X44870Y22588D02*
X44920D01*
X44870Y41039D02*
X44920D01*
X44870Y40139D02*
X44920D01*
X44870Y30524D02*
X44920D01*
X44870Y29624D02*
X44920D01*
X48173Y23324D02*
Y26230D01*
X50430Y23324D02*
Y26230D01*
X42062Y36382D02*
Y36462D01*
X44762D01*
Y36382D02*
Y36462D01*
X42062Y34862D02*
Y34942D01*
Y34862D02*
X44762D01*
Y34942D01*
X48224Y33853D02*
Y36759D01*
X50480Y33853D02*
Y36759D01*
Y26665D02*
Y29571D01*
X48224Y26665D02*
Y29571D01*
X46997Y28222D02*
Y28370D01*
X47796Y28222D02*
Y28370D01*
X47822Y24691D02*
Y24839D01*
X47022Y24691D02*
Y24839D01*
X42062Y39201D02*
Y39281D01*
X44762D01*
Y39201D02*
Y39281D01*
X42062Y37681D02*
Y37761D01*
Y37681D02*
X44762D01*
Y37761D01*
X42062Y28685D02*
Y28765D01*
X44762D01*
Y28685D02*
Y28765D01*
X42062Y27165D02*
Y27245D01*
Y27165D02*
X44762D01*
Y27245D01*
X44870Y34003D02*
X44920D01*
X44870Y33103D02*
X44920D01*
X19703Y22493D02*
Y22543D01*
X18803Y22493D02*
Y22543D01*
X24605Y22493D02*
Y22543D01*
X23705Y22493D02*
Y22543D01*
X23996Y28183D02*
Y28233D01*
X23096Y28183D02*
Y28233D01*
X22370Y28208D02*
Y28258D01*
X21470Y28208D02*
Y28258D01*
X24646Y26851D02*
Y29663D01*
X26458Y26851D02*
Y29663D01*
X19033Y26851D02*
Y29663D01*
X20845Y26851D02*
Y29663D01*
X19033Y30928D02*
Y33740D01*
X20845Y30928D02*
Y33740D01*
X24646Y30928D02*
Y33740D01*
X26458Y30928D02*
Y33740D01*
X21293Y31993D02*
Y32416D01*
X23407Y31993D02*
X24193D01*
X21293D02*
X22079D01*
X24193D02*
Y32416D01*
X22457Y33293D02*
X23029D01*
X16212Y43751D02*
Y43801D01*
X17112Y43751D02*
Y43801D01*
X22251Y41816D02*
X22301D01*
X22251Y42716D02*
X22301D01*
X25502Y41816D02*
X25552D01*
X25502Y42716D02*
X25552D01*
X25502Y41242D02*
X25552D01*
X25502Y40342D02*
X25552D01*
X25699Y39740D02*
X27224D01*
X25349Y34710D02*
Y39610D01*
X22149Y34710D02*
X25349D01*
X22149D02*
Y39610D01*
X25349D01*
X17629Y35558D02*
Y36218D01*
Y35558D02*
X18444D01*
X17629Y37818D02*
Y38478D01*
X18444D01*
X81458Y46983D02*
X81508D01*
X81458Y46083D02*
X81508D01*
X85624Y32962D02*
X85674D01*
X85624Y32062D02*
X85674D01*
X77404Y35320D02*
Y37870D01*
X78704Y35320D02*
Y37020D01*
X81433Y47861D02*
X81483D01*
X81433Y48761D02*
X81483D01*
X85725Y47912D02*
X85775D01*
X85725Y48812D02*
X85775D01*
X77404Y49467D02*
Y52017D01*
X78704Y49467D02*
Y51167D01*
Y43004D02*
Y45554D01*
X77404Y43854D02*
Y45554D01*
X85675Y46932D02*
X85725D01*
X85675Y46032D02*
X85725D01*
X78679Y28831D02*
Y31381D01*
X77379Y29681D02*
Y31381D01*
X85624Y33942D02*
X85674D01*
X85624Y34842D02*
X85674D01*
X81509Y32911D02*
X81559D01*
X81509Y32011D02*
X81559D01*
X81534Y33865D02*
X81584D01*
X81534Y34765D02*
X81584D01*
X77379Y20994D02*
Y23544D01*
X78679Y20994D02*
Y22694D01*
X81396Y19514D02*
X81446D01*
X81396Y20414D02*
X81446D01*
X85585Y19540D02*
X85635D01*
X85585Y20440D02*
X85635D01*
X85585Y18713D02*
X85635D01*
X85585Y17813D02*
X85635D01*
X81396Y18687D02*
X81446D01*
X81396Y17787D02*
X81446D01*
X78679Y14683D02*
Y17233D01*
X77379Y15533D02*
Y17233D01*
X53027Y17290D02*
Y19490D01*
X55177Y17290D02*
Y19490D01*
X55286Y14236D02*
Y17542D01*
X57642Y14236D02*
Y17542D01*
X61365Y13679D02*
Y15429D01*
X57965Y13679D02*
Y15429D01*
X59365Y18479D02*
X59965D01*
X59665Y18179D02*
Y18779D01*
X62101Y13065D02*
X65407D01*
X62101Y10709D02*
X65407D01*
X66414Y17741D02*
Y17791D01*
X65514Y17741D02*
Y17791D01*
X63537Y15608D02*
X65087D01*
X63537Y14008D02*
X65087D01*
X58219Y18806D02*
X60769D01*
X59069Y20106D02*
X60769D01*
X13168Y27928D02*
Y30478D01*
X14468Y27928D02*
Y29628D01*
Y22481D02*
Y25031D01*
X13168Y23331D02*
Y25031D01*
X58106Y42778D02*
X58155Y42278D01*
X58605D02*
X58654Y42778D01*
X58105Y42778D02*
X58655D01*
X58605Y42278D02*
X59255D01*
X52255D02*
X58155D01*
X54205Y31779D02*
X54275Y31278D01*
X54205Y31778D02*
X59255D01*
X53476Y31278D02*
X53555Y31778D01*
X53476Y31278D02*
X54275D01*
X52255Y31778D02*
Y42278D01*
Y31778D02*
X53555D01*
X59255D02*
Y42278D01*
X58104Y32268D02*
X58153Y31768D01*
X58603D02*
X58652Y32268D01*
X58103Y32268D02*
X58653D01*
X58603Y31768D02*
X59253D01*
X52253D02*
X58153D01*
X54203Y21269D02*
X54273Y20768D01*
X54203Y21268D02*
X59253D01*
X53475Y20768D02*
X53553Y21268D01*
X53475Y20768D02*
X54273D01*
X52253Y21268D02*
Y31768D01*
Y21268D02*
X53553D01*
X59253D02*
Y31768D01*
X41781Y8434D02*
Y11124D01*
X21161Y8434D02*
X41781D01*
X21161D02*
Y11124D01*
X41781D01*
D61*
X74066Y22174D02*
Y23089D01*
X69520Y27661D02*
X74066Y23114D01*
X55677Y27661D02*
X69520D01*
X68707Y25400D02*
X70129Y23978D01*
X55804Y25400D02*
X68707D01*
X54813Y23622D02*
X55321Y24130D01*
X54813Y22276D02*
Y23622D01*
Y22276D02*
X55143Y21946D01*
X68529D01*
X71145Y19329D01*
X76352D01*
D62*
X55778Y24714D02*
X55829Y24765D01*
X55778Y24206D02*
Y24714D01*
X72034Y21819D02*
X75565D01*
X69647Y24206D02*
X72034Y21819D01*
X55778Y24206D02*
X69647D01*
X55855Y31775D02*
X75590Y31775D01*
X55880Y38786D02*
X65126D01*
X72847Y46507D02*
X75565D01*
X65126Y38786D02*
X72847Y46507D01*
%TF.MD5,20de04b2fa75ac6be097f752355f1472*%
M02*
