%TF.GenerationSoftware,Altium Limited,Altium Designer,21.6.4 (81)*%
G04 Layer_Color=32896*
%FSLAX43Y43*%
%MOMM*%
%TF.SameCoordinates,EF7AACBD-433E-4B6D-8733-A8E214C0EB56*%
%TF.FilePolarity,Positive*%
%TF.FileFunction,Other,Top_3D_Body*%
%TF.Part,Single*%
G01*
G75*
%TA.AperFunction,NonConductor*%
%ADD58C,0.100*%
%ADD60C,0.200*%
G36*
X83896Y48689D02*
X79070D01*
Y54208D01*
X83896D01*
Y48689D01*
D02*
G37*
G36*
X22318Y41300D02*
X16798D01*
Y46126D01*
X22318D01*
Y41300D01*
D02*
G37*
G36*
X83896Y40776D02*
X79070D01*
Y46295D01*
X83896D01*
Y40776D01*
D02*
G37*
G36*
X83922Y34465D02*
X79096D01*
Y39984D01*
X83922D01*
Y34465D01*
D02*
G37*
G36*
Y26679D02*
X79096D01*
Y32198D01*
X83922D01*
Y26679D01*
D02*
G37*
G36*
X24155Y21650D02*
X19329D01*
Y27169D01*
X24155D01*
Y21650D01*
D02*
G37*
G36*
X83871Y20329D02*
X79045D01*
Y25848D01*
X83871D01*
Y20329D01*
D02*
G37*
G36*
X65225Y15748D02*
X61318D01*
Y19761D01*
X65225D01*
Y15748D01*
D02*
G37*
G36*
X83896Y12353D02*
X79070D01*
Y17873D01*
X83896D01*
Y12353D01*
D02*
G37*
D58*
X12250Y21242D02*
X18150D01*
X18600D02*
X19250D01*
X18100Y20742D02*
X18650D01*
X18600Y21242D02*
X18649Y20742D01*
X18101D02*
X18150Y21242D01*
X19250D02*
Y31742D01*
X12250D02*
X13550D01*
X12250Y21242D02*
Y31742D01*
X13471Y32242D02*
X14270D01*
X13471D02*
X13550Y31742D01*
X14200D02*
X19250D01*
X14200Y31741D02*
X14270Y32242D01*
X60989Y8377D02*
Y10877D01*
Y8377D02*
X81809D01*
Y10877D01*
X60989D02*
X81809D01*
X12250Y31758D02*
X18150D01*
X18600D02*
X19250D01*
X18100Y31258D02*
X18650D01*
X18600Y31758D02*
X18649Y31258D01*
X18101D02*
X18150Y31758D01*
X19250D02*
Y42258D01*
X12250D02*
X13550D01*
X12250Y31758D02*
Y42258D01*
X13471Y42758D02*
X14270D01*
X13471D02*
X13550Y42258D01*
X14200D02*
X19250D01*
X14200Y42257D02*
X14270Y42758D01*
X45122Y42309D02*
X51022D01*
X44022D02*
X44672D01*
X44622Y42809D02*
X45172D01*
X44623Y42809D02*
X44672Y42309D01*
X45122D02*
X45171Y42809D01*
X44022Y31809D02*
Y42309D01*
X49722Y31809D02*
X51022D01*
Y42309D01*
X49002Y31309D02*
X49800D01*
X49722Y31809D02*
X49800Y31309D01*
X44022Y31809D02*
X49072D01*
X49002Y31309D02*
X49071Y31810D01*
X45123Y31793D02*
X51023D01*
X44023D02*
X44673D01*
X44623Y32293D02*
X45173D01*
X44624Y32293D02*
X44673Y31793D01*
X45123D02*
X45172Y32293D01*
X44023Y21293D02*
Y31793D01*
X49723Y21293D02*
X51023D01*
Y31793D01*
X49003Y20793D02*
X49802D01*
X49723Y21293D02*
X49802Y20793D01*
X44023Y21293D02*
X49073D01*
X49003Y20793D02*
X49073Y21294D01*
D60*
X25273Y24224D02*
X26973D01*
Y23324D02*
Y24224D01*
X25273Y23324D02*
X26973D01*
X25273D02*
Y24224D01*
X37384Y28140D02*
X38586Y29342D01*
X39222Y28705D01*
X38020Y27503D02*
X39222Y28705D01*
X37384Y28140D02*
X38020Y27503D01*
X65824Y37970D02*
X80124D01*
Y28670D02*
Y37970D01*
X65824Y28670D02*
X80124D01*
X65824D02*
Y37970D01*
Y42894D02*
Y52194D01*
Y42894D02*
X80124D01*
Y52194D01*
X65824D02*
X80124D01*
X25273Y22029D02*
Y22929D01*
Y22029D02*
X26973D01*
Y22929D01*
X25273D02*
X26973D01*
X65824Y14430D02*
Y23730D01*
Y14430D02*
X80124D01*
Y23730D01*
X65824D02*
X80124D01*
%TF.MD5,10b808e63ca90f129fa22e393a7f513f*%
M02*
