%TF.GenerationSoftware,Altium Limited,Altium Designer,21.6.4 (81)*%
G04 Layer_Color=32896*
%FSLAX43Y43*%
%MOMM*%
%TF.SameCoordinates,EF7AACBD-433E-4B6D-8733-A8E214C0EB56*%
%TF.FilePolarity,Positive*%
%TF.FileFunction,Other,Mechanical_12*%
%TF.Part,Single*%
G01*
G75*
%TA.AperFunction,NonConductor*%
%ADD60C,0.200*%
D60*
X25051Y14511D02*
X26351D01*
Y17411D01*
X25051D02*
X26351D01*
X25051Y14511D02*
Y17411D01*
X21708Y24678D02*
X23808D01*
Y23328D02*
Y24678D01*
X21708Y23328D02*
X23808D01*
X21708D02*
Y24678D01*
Y22925D02*
X23808D01*
Y21575D02*
Y22925D01*
X21708Y21575D02*
X23808D01*
X21708D02*
Y22925D01*
X41570Y51959D02*
Y53959D01*
X40320D02*
X41570D01*
X40320Y51959D02*
Y53959D01*
Y51959D02*
X41570D01*
X43830Y51031D02*
Y53031D01*
X42580D02*
X43830D01*
X42580Y51031D02*
Y53031D01*
Y51031D02*
X43830D01*
X48727Y37837D02*
Y39837D01*
Y37837D02*
X49977D01*
Y39837D01*
X48727D02*
X49977D01*
X49926Y23777D02*
Y25777D01*
X48676D02*
X49926D01*
X48676Y23777D02*
Y25777D01*
Y23777D02*
X49926D01*
X49977Y34306D02*
Y36306D01*
X48727D02*
X49977D01*
X48727Y34306D02*
Y36306D01*
Y34306D02*
X49977D01*
X48727Y27118D02*
Y29118D01*
Y27118D02*
X49977D01*
Y29118D01*
X48727D02*
X49977D01*
X21293Y31993D02*
Y33293D01*
Y31993D02*
X24193D01*
Y33293D01*
X21293D02*
X24193D01*
X53377Y17290D02*
Y19490D01*
Y17290D02*
X54827D01*
Y19490D01*
X53377D02*
X54827D01*
X55839Y16889D02*
X57089D01*
Y14889D02*
Y16889D01*
X55839Y14889D02*
X57089D01*
X55839D02*
Y16889D01*
X64754Y11262D02*
Y12512D01*
X62754Y11262D02*
X64754D01*
X62754D02*
Y12512D01*
X64754D01*
X21708Y25081D02*
Y26431D01*
Y25081D02*
X23808D01*
Y26431D01*
X21708D02*
X23808D01*
X39804Y49422D02*
Y55522D01*
X24204D02*
X39804D01*
X24204Y49422D02*
Y55522D01*
Y49422D02*
X39804D01*
%TF.MD5,e1158c318a2edd9fff704315f094aed9*%
M02*
