%TF.GenerationSoftware,Altium Limited,Altium Designer,21.6.4 (81)*%
G04 Layer_Color=32768*
%FSLAX43Y43*%
%MOMM*%
%TF.SameCoordinates,EF7AACBD-433E-4B6D-8733-A8E214C0EB56*%
%TF.FilePolarity,Positive*%
%TF.FileFunction,Other,Mechanical_15*%
%TF.Part,Single*%
G01*
G75*
%TA.AperFunction,NonConductor*%
%ADD58C,0.100*%
%ADD59C,0.152*%
%ADD60C,0.200*%
%ADD81C,0.050*%
G36*
X82295Y52655D02*
X83515D01*
Y50242D01*
X83311D01*
Y49070D01*
X79655D01*
Y50242D01*
X79451D01*
Y52655D01*
X80671D01*
Y53827D01*
X82295D01*
Y52655D01*
D02*
G37*
G36*
X20764Y44525D02*
X21937D01*
Y42901D01*
X20764D01*
Y41681D01*
X18351D01*
Y41885D01*
X17179D01*
Y45541D01*
X18351D01*
Y45745D01*
X20764D01*
Y44525D01*
D02*
G37*
G36*
X83311Y44742D02*
X83515D01*
Y42329D01*
X82295D01*
Y41157D01*
X80671D01*
Y42329D01*
X79451D01*
Y44742D01*
X79655D01*
Y45914D01*
X83311D01*
Y44742D01*
D02*
G37*
G36*
X37543Y33136D02*
X36586Y32179D01*
X37040Y31725D01*
X36586Y31271D01*
X37543Y30314D01*
X33009Y25780D01*
X32052Y26737D01*
X31598Y26283D01*
X31144Y26737D01*
X30187Y25780D01*
X25653Y30314D01*
X26610Y31271D01*
X26156Y31725D01*
X26610Y32179D01*
X25653Y33136D01*
X30187Y37670D01*
X31144Y36713D01*
X31598Y37167D01*
X32052Y36713D01*
X33009Y37670D01*
X37543Y33136D01*
D02*
G37*
G36*
X82321Y38431D02*
X83541D01*
Y36018D01*
X83337D01*
Y34846D01*
X79681D01*
Y36018D01*
X79477D01*
Y38431D01*
X80697D01*
Y39603D01*
X82321D01*
Y38431D01*
D02*
G37*
G36*
X83337Y30645D02*
X83541D01*
Y28232D01*
X82321D01*
Y27060D01*
X80697D01*
Y28232D01*
X79477D01*
Y30645D01*
X79681D01*
Y31817D01*
X83337D01*
Y30645D01*
D02*
G37*
G36*
X22554Y25616D02*
X23774D01*
Y23203D01*
X23570D01*
Y22031D01*
X19914D01*
Y23203D01*
X19710D01*
Y25616D01*
X20930D01*
Y26788D01*
X22554D01*
Y25616D01*
D02*
G37*
G36*
X82270Y24295D02*
X83490D01*
Y21882D01*
X83286D01*
Y20710D01*
X79630D01*
Y21882D01*
X79426D01*
Y24295D01*
X80646D01*
Y25467D01*
X82270D01*
Y24295D01*
D02*
G37*
G36*
X64072Y19136D02*
X64844D01*
Y16373D01*
X64072D01*
Y16129D01*
X62471D01*
Y17389D01*
X61699D01*
Y18120D01*
X62471D01*
Y19380D01*
X64072D01*
Y19136D01*
D02*
G37*
G36*
X83311Y16319D02*
X83515D01*
Y13906D01*
X82295D01*
Y12734D01*
X80671D01*
Y13906D01*
X79451D01*
Y16319D01*
X79655D01*
Y17492D01*
X83311D01*
Y16319D01*
D02*
G37*
D58*
X25201Y15961D02*
X26201D01*
X25701Y15461D02*
Y16461D01*
X22258Y24003D02*
X23258D01*
X22758Y23503D02*
Y24503D01*
X22258Y22250D02*
X23258D01*
X22758Y21750D02*
Y22750D01*
X40945Y52459D02*
Y53459D01*
X40445Y52959D02*
X41445D01*
X43205Y51531D02*
Y52531D01*
X42705Y52031D02*
X43705D01*
X47172Y35331D02*
X47672D01*
X47422Y35081D02*
Y35581D01*
X47146Y38811D02*
X47646D01*
X47396Y38561D02*
Y39061D01*
X49352Y38337D02*
Y39337D01*
X48852Y38837D02*
X49852D01*
X49301Y24277D02*
Y25277D01*
X48801Y24777D02*
X49801D01*
X49352Y34806D02*
Y35806D01*
X48852Y35306D02*
X49852D01*
X49352Y27618D02*
Y28618D01*
X48852Y28118D02*
X49852D01*
X47146Y28296D02*
X47646D01*
X47396Y28046D02*
Y28546D01*
X47172Y24765D02*
X47672D01*
X47422Y24515D02*
Y25015D01*
X22743Y32143D02*
Y33143D01*
X22243Y32643D02*
X23243D01*
X22427Y44588D02*
X25927D01*
X22427Y42788D02*
Y44588D01*
Y42788D02*
X25927D01*
Y44588D01*
X18279Y36518D02*
Y37518D01*
X17779Y37018D02*
X18779D01*
X54102Y17890D02*
Y18890D01*
X53602Y18390D02*
X54602D01*
X55964Y15889D02*
X56964D01*
X56464Y15389D02*
Y16389D01*
X63754Y11387D02*
Y12387D01*
X63254Y11887D02*
X64254D01*
X22758Y25256D02*
Y26256D01*
X22258Y25756D02*
X23258D01*
X32004Y51972D02*
Y52972D01*
X31504Y52472D02*
X32504D01*
D59*
X23774Y23203D02*
Y25616D01*
X22554D02*
X23774D01*
X22554D02*
Y26788D01*
X20930D02*
X22554D01*
X20930Y25616D02*
Y26788D01*
X19710Y25616D02*
X20930D01*
X19710Y23203D02*
Y25616D01*
Y23203D02*
X19914D01*
X23570D02*
X23774D01*
X19914Y22031D02*
Y23203D01*
X23570Y22031D02*
Y23203D01*
X19914Y22031D02*
X23570D01*
X18351Y41681D02*
X20764D01*
Y42901D01*
X21937D01*
Y44525D01*
X20764D02*
X21937D01*
X20764D02*
Y45745D01*
X18351D02*
X20764D01*
X18351Y45541D02*
Y45745D01*
Y41681D02*
Y41885D01*
X17179Y45541D02*
X18351D01*
X17179Y41885D02*
X18351D01*
X17179D02*
Y45541D01*
X79477Y28232D02*
Y30645D01*
Y28232D02*
X80697D01*
Y27060D02*
Y28232D01*
Y27060D02*
X82321D01*
Y28232D01*
X83541D01*
Y30645D01*
X83337D02*
X83541D01*
X79477D02*
X79681D01*
X83337D02*
Y31817D01*
X79681Y30645D02*
Y31817D01*
X83337D01*
X83541Y36018D02*
Y38431D01*
X82321D02*
X83541D01*
X82321D02*
Y39603D01*
X80697D02*
X82321D01*
X80697Y38431D02*
Y39603D01*
X79477Y38431D02*
X80697D01*
X79477Y36018D02*
Y38431D01*
Y36018D02*
X79681D01*
X83337D02*
X83541D01*
X79681Y34846D02*
Y36018D01*
X83337Y34846D02*
Y36018D01*
X79681Y34846D02*
X83337D01*
X83490Y21882D02*
Y24295D01*
X82270D02*
X83490D01*
X82270D02*
Y25467D01*
X80646D02*
X82270D01*
X80646Y24295D02*
Y25467D01*
X79426Y24295D02*
X80646D01*
X79426Y21882D02*
Y24295D01*
Y21882D02*
X79630D01*
X83286D02*
X83490D01*
X79630Y20710D02*
Y21882D01*
X83286Y20710D02*
Y21882D01*
X79630Y20710D02*
X83286D01*
X79451Y13906D02*
Y16319D01*
Y13906D02*
X80671D01*
Y12734D02*
Y13906D01*
Y12734D02*
X82295D01*
Y13906D01*
X83515D01*
Y16319D01*
X83311D02*
X83515D01*
X79451D02*
X79655D01*
X83311D02*
Y17492D01*
X79655Y16319D02*
Y17492D01*
X83311D01*
X79451Y42329D02*
Y44742D01*
Y42329D02*
X80671D01*
Y41157D02*
Y42329D01*
Y41157D02*
X82295D01*
Y42329D01*
X83515D01*
Y44742D01*
X83311D02*
X83515D01*
X79451D02*
X79655D01*
X83311D02*
Y45914D01*
X79655Y44742D02*
Y45914D01*
X83311D01*
X83515Y50242D02*
Y52655D01*
X82295D02*
X83515D01*
X82295D02*
Y53827D01*
X80671D02*
X82295D01*
X80671Y52655D02*
Y53827D01*
X79451Y52655D02*
X80671D01*
X79451Y50242D02*
Y52655D01*
Y50242D02*
X79655D01*
X83311D02*
X83515D01*
X79655Y49070D02*
Y50242D01*
X83311Y49070D02*
Y50242D01*
X79655Y49070D02*
X83311D01*
X62471Y19380D02*
X64072D01*
X62471Y18120D02*
Y19380D01*
X61699Y18120D02*
X62471D01*
X61699Y17389D02*
Y18120D01*
Y17389D02*
X62471D01*
Y16129D02*
Y17389D01*
Y16129D02*
X64072D01*
Y16373D01*
Y19136D02*
Y19380D01*
Y16373D02*
X64844D01*
X64072Y19136D02*
X64844D01*
Y16373D02*
Y19136D01*
X26156Y31725D02*
X26610Y32179D01*
X25653Y33136D02*
X26610Y32179D01*
X25653Y33136D02*
X30187Y37670D01*
X31144Y36713D01*
X31598Y37167D01*
Y26283D02*
X32052Y26737D01*
X33009Y25780D01*
X37543Y30314D01*
X36586Y31271D02*
X37543Y30314D01*
X36586Y31271D02*
X37040Y31725D01*
X31144Y26737D02*
X31598Y26283D01*
X30187Y25780D02*
X31144Y26737D01*
X25653Y30314D02*
X30187Y25780D01*
X25653Y30314D02*
X26610Y31271D01*
X26156Y31725D02*
X26610Y31271D01*
X36586Y32179D02*
X37040Y31725D01*
X36586Y32179D02*
X37543Y33136D01*
X33009Y37670D02*
X37543Y33136D01*
X32052Y36713D02*
X33009Y37670D01*
X31598Y37167D02*
X32052Y36713D01*
D60*
X23778Y14261D02*
X27623D01*
Y17661D01*
X23778D02*
X27623D01*
X23778Y14261D02*
Y17661D01*
X21058Y24778D02*
X24458D01*
Y23228D02*
Y24778D01*
X21058Y23228D02*
X24458D01*
X21058D02*
Y24778D01*
Y23025D02*
X24458D01*
Y21475D02*
Y23025D01*
X21058Y21475D02*
X24458D01*
X21058D02*
Y23025D01*
X41923Y51256D02*
Y54662D01*
X39967D02*
X41923D01*
X39967Y51256D02*
Y54662D01*
Y51256D02*
X41923D01*
X44183Y50328D02*
Y53734D01*
X42227D02*
X44183D01*
X42227Y50328D02*
Y53734D01*
Y50328D02*
X44183D01*
X48374Y37133D02*
Y40540D01*
Y37133D02*
X50330D01*
Y40540D01*
X48374D02*
X50330D01*
X50279Y23074D02*
Y26480D01*
X48323D02*
X50279D01*
X48323Y23074D02*
Y26480D01*
Y23074D02*
X50279D01*
X50330Y33603D02*
Y37009D01*
X48374D02*
X50330D01*
X48374Y33603D02*
Y37009D01*
Y33603D02*
X50330D01*
X48374Y26415D02*
Y29821D01*
Y26415D02*
X50330D01*
Y29821D01*
X48374D02*
X50330D01*
X21043Y30721D02*
Y34566D01*
Y30721D02*
X24443D01*
Y34566D01*
X21043D02*
X24443D01*
X53252Y16990D02*
Y19790D01*
Y16990D02*
X54952D01*
Y19790D01*
X53252D02*
X54952D01*
X55186Y18042D02*
X57742D01*
Y13736D02*
Y18042D01*
X55186Y13736D02*
X57742D01*
X55186D02*
Y18042D01*
X65907Y10609D02*
Y13165D01*
X61601Y10609D02*
X65907D01*
X61601D02*
Y13165D01*
X65907D01*
X21058Y24981D02*
Y26531D01*
Y24981D02*
X24458D01*
Y26531D01*
X21058D02*
X24458D01*
X39904Y49322D02*
Y55622D01*
X24104D02*
X39904D01*
X24104Y49322D02*
Y55622D01*
Y49322D02*
X39904D01*
D81*
X38707Y12236D02*
Y17736D01*
X31257Y12236D02*
X38707D01*
X31257D02*
Y17736D01*
X38707D01*
X46922Y34331D02*
Y36331D01*
X47922D01*
Y34331D02*
Y36331D01*
X46922Y34331D02*
X47922D01*
X47896Y37811D02*
Y39811D01*
X46896Y37811D02*
X47896D01*
X46896D02*
Y39811D01*
X47896D01*
Y27296D02*
Y29296D01*
X46896Y27296D02*
X47896D01*
X46896D02*
Y29296D01*
X47896D01*
X46922Y23765D02*
Y25765D01*
X47922D01*
Y23765D02*
Y25765D01*
X46922Y23765D02*
X47922D01*
X27474Y34410D02*
Y39910D01*
X20024Y34410D02*
X27474D01*
X20024D02*
Y39910D01*
X27474D01*
X16729Y35458D02*
X19829D01*
X16729Y38578D02*
X19829D01*
X16729Y35458D02*
Y38578D01*
X19829Y35458D02*
Y38578D01*
X76904Y34195D02*
Y38145D01*
Y34195D02*
X79204D01*
Y38145D01*
X76904D02*
X79204D01*
X76904Y48342D02*
Y52292D01*
Y48342D02*
X79204D01*
Y52292D01*
X76904D02*
X79204D01*
Y42729D02*
Y46679D01*
X76904D02*
X79204D01*
X76904Y42729D02*
Y46679D01*
Y42729D02*
X79204D01*
X79179Y28556D02*
Y32506D01*
X76879D02*
X79179D01*
X76879Y28556D02*
Y32506D01*
Y28556D02*
X79179D01*
X76879Y19869D02*
Y23819D01*
Y19869D02*
X79179D01*
Y23819D01*
X76879D02*
X79179D01*
Y14408D02*
Y18358D01*
X76879D02*
X79179D01*
X76879Y14408D02*
Y18358D01*
Y14408D02*
X79179D01*
X57944Y18306D02*
X61894D01*
Y20606D01*
X57944D02*
X61894D01*
X57944Y18306D02*
Y20606D01*
X12668Y26803D02*
Y30753D01*
Y26803D02*
X14968D01*
Y30753D01*
X12668D02*
X14968D01*
Y22206D02*
Y26156D01*
X12668D02*
X14968D01*
X12668Y22206D02*
Y26156D01*
Y22206D02*
X14968D01*
X30971Y9779D02*
X31971D01*
X31471Y9279D02*
Y10279D01*
X20961Y8234D02*
X41981D01*
Y11324D01*
X20961D02*
X41981D01*
X20961Y8234D02*
Y11324D01*
%TF.MD5,082415b55c6181d1254b186797140f61*%
M02*
