%TF.GenerationSoftware,Altium Limited,Altium Designer,21.6.4 (81)*%
G04 Layer_Color=255*
%FSLAX43Y43*%
%MOMM*%
%TF.SameCoordinates,EF7AACBD-433E-4B6D-8733-A8E214C0EB56*%
%TF.FilePolarity,Positive*%
%TF.FileFunction,Pads,Bot*%
%TF.Part,Single*%
G01*
G75*
%TA.AperFunction,SMDPad,CuDef*%
%ADD11R,0.900X0.800*%
%TA.AperFunction,ComponentPad*%
%ADD23C,1.800*%
G04:AMPARAMS|DCode=24|XSize=1.8mm|YSize=1.8mm|CornerRadius=0.45mm|HoleSize=0mm|Usage=FLASHONLY|Rotation=270.000|XOffset=0mm|YOffset=0mm|HoleType=Round|Shape=RoundedRectangle|*
%AMROUNDEDRECTD24*
21,1,1.800,0.900,0,0,270.0*
21,1,0.900,1.800,0,0,270.0*
1,1,0.900,-0.450,-0.450*
1,1,0.900,-0.450,0.450*
1,1,0.900,0.450,0.450*
1,1,0.900,0.450,-0.450*
%
%ADD24ROUNDEDRECTD24*%
%ADD25C,1.600*%
%ADD26R,1.600X1.600*%
%ADD27C,1.520*%
G04:AMPARAMS|DCode=28|XSize=1.52mm|YSize=1.52mm|CornerRadius=0.38mm|HoleSize=0mm|Usage=FLASHONLY|Rotation=0.000|XOffset=0mm|YOffset=0mm|HoleType=Round|Shape=RoundedRectangle|*
%AMROUNDEDRECTD28*
21,1,1.520,0.760,0,0,0.0*
21,1,0.760,1.520,0,0,0.0*
1,1,0.760,0.380,-0.380*
1,1,0.760,-0.380,-0.380*
1,1,0.760,-0.380,0.380*
1,1,0.760,0.380,0.380*
%
%ADD28ROUNDEDRECTD28*%
%ADD29C,1.550*%
%ADD30R,1.550X1.550*%
%TA.AperFunction,SMDPad,CuDef*%
%ADD32R,0.800X0.900*%
%ADD33R,1.524X0.578*%
G04:AMPARAMS|DCode=34|XSize=1.524mm|YSize=0.578mm|CornerRadius=0.289mm|HoleSize=0mm|Usage=FLASHONLY|Rotation=0.000|XOffset=0mm|YOffset=0mm|HoleType=Round|Shape=RoundedRectangle|*
%AMROUNDEDRECTD34*
21,1,1.524,0.000,0,0,0.0*
21,1,0.946,0.578,0,0,0.0*
1,1,0.578,0.473,0.000*
1,1,0.578,-0.473,0.000*
1,1,0.578,-0.473,0.000*
1,1,0.578,0.473,0.000*
%
%ADD34ROUNDEDRECTD34*%
%ADD35R,1.525X0.650*%
%ADD36R,2.800X2.000*%
%ADD37R,1.456X1.305*%
%ADD38R,1.308X0.762*%
G04:AMPARAMS|DCode=39|XSize=1.308mm|YSize=0.762mm|CornerRadius=0.381mm|HoleSize=0mm|Usage=FLASHONLY|Rotation=0.000|XOffset=0mm|YOffset=0mm|HoleType=Round|Shape=RoundedRectangle|*
%AMROUNDEDRECTD39*
21,1,1.308,0.000,0,0,0.0*
21,1,0.546,0.762,0,0,0.0*
1,1,0.762,0.273,0.000*
1,1,0.762,-0.273,0.000*
1,1,0.762,-0.273,0.000*
1,1,0.762,0.273,0.000*
%
%ADD39ROUNDEDRECTD39*%
%ADD40R,0.400X0.480*%
%ADD41R,0.608X1.686*%
%ADD42R,1.012X1.059*%
%ADD43R,0.578X1.524*%
G04:AMPARAMS|DCode=44|XSize=1.524mm|YSize=0.578mm|CornerRadius=0.289mm|HoleSize=0mm|Usage=FLASHONLY|Rotation=270.000|XOffset=0mm|YOffset=0mm|HoleType=Round|Shape=RoundedRectangle|*
%AMROUNDEDRECTD44*
21,1,1.524,0.000,0,0,270.0*
21,1,0.946,0.578,0,0,270.0*
1,1,0.578,0.000,-0.473*
1,1,0.578,0.000,0.473*
1,1,0.578,0.000,0.473*
1,1,0.578,0.000,-0.473*
%
%ADD44ROUNDEDRECTD44*%
%ADD45R,0.600X0.700*%
%ADD46R,1.686X0.608*%
%ADD47R,0.900X0.800*%
%ADD48R,0.500X1.075*%
%ADD49R,1.350X0.950*%
%ADD50R,1.556X1.505*%
%ADD51R,1.086X0.528*%
%ADD52R,1.505X1.556*%
%ADD53R,1.000X1.700*%
%ADD54R,1.075X0.500*%
D11*
X28882Y16891D02*
D03*
X30582D02*
D03*
X44753D02*
D03*
X43053D02*
D03*
X41668D02*
D03*
X39968D02*
D03*
X45745Y23038D02*
D03*
X44045D02*
D03*
X45745Y40589D02*
D03*
X44045D02*
D03*
X45745Y30074D02*
D03*
X44045D02*
D03*
X45745Y33553D02*
D03*
X44045D02*
D03*
X21426Y42266D02*
D03*
X23126D02*
D03*
X24677D02*
D03*
X26377D02*
D03*
Y40792D02*
D03*
X24677D02*
D03*
X82333Y46533D02*
D03*
X80633D02*
D03*
X86499Y32512D02*
D03*
X84799D02*
D03*
X80608Y48311D02*
D03*
X82308D02*
D03*
X84900Y48362D02*
D03*
X86600D02*
D03*
X86550Y46482D02*
D03*
X84850D02*
D03*
X84799Y34392D02*
D03*
X86499D02*
D03*
X82384Y32461D02*
D03*
X80684D02*
D03*
X80709Y34315D02*
D03*
X82409D02*
D03*
X80571Y19964D02*
D03*
X82271D02*
D03*
X84760Y19990D02*
D03*
X86460D02*
D03*
Y18263D02*
D03*
X84760D02*
D03*
X82271Y18237D02*
D03*
X80571D02*
D03*
D23*
X15850Y26492D02*
D03*
Y22992D02*
D03*
X55855Y40528D02*
D03*
Y37028D02*
D03*
X55853Y30018D02*
D03*
Y26518D02*
D03*
X15850Y37008D02*
D03*
Y33508D02*
D03*
X47422Y37059D02*
D03*
Y40559D02*
D03*
X47423Y26543D02*
D03*
Y30043D02*
D03*
D24*
X15850Y29992D02*
D03*
X55855Y33528D02*
D03*
X55853Y23018D02*
D03*
X15850Y40508D02*
D03*
X47422Y33559D02*
D03*
X47423Y23043D02*
D03*
D25*
X40361Y9779D02*
D03*
X37821D02*
D03*
X32741D02*
D03*
X27661D02*
D03*
X25121D02*
D03*
X30201D02*
D03*
X35281D02*
D03*
D26*
X22581D02*
D03*
D27*
X80289Y9627D02*
D03*
X77749D02*
D03*
X67589D02*
D03*
X65049D02*
D03*
X70129D02*
D03*
X72669D02*
D03*
X75209D02*
D03*
D28*
X62509D02*
D03*
D29*
X25654Y52172D02*
D03*
X28194D02*
D03*
X30734D02*
D03*
X33274D02*
D03*
X35814D02*
D03*
D30*
X38354D02*
D03*
D32*
X22606Y11203D02*
D03*
Y12903D02*
D03*
Y14249D02*
D03*
Y15949D02*
D03*
X19253Y21668D02*
D03*
Y23368D02*
D03*
X24155Y21668D02*
D03*
Y23368D02*
D03*
X23546Y27358D02*
D03*
Y29058D02*
D03*
X21920Y27383D02*
D03*
Y29083D02*
D03*
X16662Y44626D02*
D03*
Y42926D02*
D03*
X65964Y16916D02*
D03*
Y18616D02*
D03*
D33*
X24790Y15011D02*
D03*
D34*
Y16911D02*
D03*
X26611Y15961D02*
D03*
D35*
X32270Y16891D02*
D03*
Y15621D02*
D03*
Y14351D02*
D03*
Y13081D02*
D03*
X37694D02*
D03*
Y14351D02*
D03*
Y15621D02*
D03*
Y16891D02*
D03*
X21037Y39065D02*
D03*
Y37795D02*
D03*
Y36525D02*
D03*
Y35255D02*
D03*
X26461D02*
D03*
Y36525D02*
D03*
Y37795D02*
D03*
Y39065D02*
D03*
D36*
X19812Y11771D02*
D03*
Y16271D02*
D03*
X22428Y53558D02*
D03*
Y49058D02*
D03*
X59665Y12304D02*
D03*
Y16804D02*
D03*
D37*
X40945Y52158D02*
D03*
Y53760D02*
D03*
X43205Y51230D02*
D03*
Y52832D02*
D03*
X49352Y39637D02*
D03*
Y38036D02*
D03*
X49301Y23976D02*
D03*
Y25578D02*
D03*
X49352Y34505D02*
D03*
Y36107D02*
D03*
Y28919D02*
D03*
Y27317D02*
D03*
D38*
X41587Y25146D02*
D03*
Y35662D02*
D03*
Y38481D02*
D03*
Y27965D02*
D03*
D39*
X45237Y25146D02*
D03*
Y35662D02*
D03*
Y38481D02*
D03*
Y27965D02*
D03*
D40*
X47422Y34671D02*
D03*
Y35991D02*
D03*
X47396Y39471D02*
D03*
Y38151D02*
D03*
Y28956D02*
D03*
Y27636D02*
D03*
X47422Y24105D02*
D03*
Y25425D02*
D03*
D41*
X22758Y23382D02*
D03*
X20726D02*
D03*
X21742Y25437D02*
D03*
X80493Y30466D02*
D03*
X82525D02*
D03*
X81509Y28411D02*
D03*
X82525Y36197D02*
D03*
X80493D02*
D03*
X81509Y38252D02*
D03*
X82474Y22061D02*
D03*
X80442D02*
D03*
X81458Y24117D02*
D03*
X80467Y16141D02*
D03*
X82499D02*
D03*
X81483Y14085D02*
D03*
X80467Y44563D02*
D03*
X82499D02*
D03*
X81483Y42508D02*
D03*
X82499Y50421D02*
D03*
X80467D02*
D03*
X81483Y52476D02*
D03*
D42*
X25552Y27380D02*
D03*
Y29134D02*
D03*
X19939Y27380D02*
D03*
Y29134D02*
D03*
Y31457D02*
D03*
Y33211D02*
D03*
X25552Y31457D02*
D03*
Y33211D02*
D03*
D43*
X21793Y33553D02*
D03*
D44*
X23693D02*
D03*
X22743Y31733D02*
D03*
D45*
X24627Y43688D02*
D03*
X23227D02*
D03*
D46*
X18530Y42697D02*
D03*
Y44729D02*
D03*
X20586Y43713D02*
D03*
D47*
X17279Y37018D02*
D03*
X19279Y36068D02*
D03*
Y37968D02*
D03*
D48*
X78054Y37332D02*
D03*
Y35008D02*
D03*
Y51479D02*
D03*
Y49155D02*
D03*
Y43542D02*
D03*
Y45866D02*
D03*
X78029Y29369D02*
D03*
Y31693D02*
D03*
Y23006D02*
D03*
Y20682D02*
D03*
Y15221D02*
D03*
Y17545D02*
D03*
X13818Y29940D02*
D03*
Y27616D02*
D03*
Y23019D02*
D03*
Y25343D02*
D03*
D49*
X54102Y19140D02*
D03*
Y17640D02*
D03*
D50*
X56464Y14988D02*
D03*
Y16789D02*
D03*
D51*
X64199Y18771D02*
D03*
Y16739D02*
D03*
X62343Y17755D02*
D03*
D52*
X62853Y11887D02*
D03*
X64655D02*
D03*
D53*
X65962Y14808D02*
D03*
X62662D02*
D03*
D54*
X58757Y19456D02*
D03*
X61081D02*
D03*
%TF.MD5,1a5ece90f4a0a4245203d294bbe3a7ae*%
M02*
