%TF.GenerationSoftware,Altium Limited,Altium Designer,21.6.4 (81)*%
G04 Layer_Physical_Order=2*
G04 Layer_Color=16711680*
%FSLAX43Y43*%
%MOMM*%
%TF.SameCoordinates,EF7AACBD-433E-4B6D-8733-A8E214C0EB56*%
%TF.FilePolarity,Positive*%
%TF.FileFunction,Copper,L2,Bot,Signal*%
%TF.Part,Single*%
G01*
G75*
%TA.AperFunction,SMDPad,CuDef*%
%ADD11R,0.900X0.800*%
%TA.AperFunction,Conductor*%
%ADD17C,1.000*%
%ADD18C,0.500*%
%ADD19C,0.600*%
%ADD20C,0.300*%
%ADD21C,0.254*%
%ADD22C,0.400*%
%TA.AperFunction,ComponentPad*%
%ADD23C,1.800*%
G04:AMPARAMS|DCode=24|XSize=1.8mm|YSize=1.8mm|CornerRadius=0.45mm|HoleSize=0mm|Usage=FLASHONLY|Rotation=270.000|XOffset=0mm|YOffset=0mm|HoleType=Round|Shape=RoundedRectangle|*
%AMROUNDEDRECTD24*
21,1,1.800,0.900,0,0,270.0*
21,1,0.900,1.800,0,0,270.0*
1,1,0.900,-0.450,-0.450*
1,1,0.900,-0.450,0.450*
1,1,0.900,0.450,0.450*
1,1,0.900,0.450,-0.450*
%
%ADD24ROUNDEDRECTD24*%
%ADD25C,1.600*%
%ADD26R,1.600X1.600*%
%ADD27C,1.520*%
G04:AMPARAMS|DCode=28|XSize=1.52mm|YSize=1.52mm|CornerRadius=0.38mm|HoleSize=0mm|Usage=FLASHONLY|Rotation=0.000|XOffset=0mm|YOffset=0mm|HoleType=Round|Shape=RoundedRectangle|*
%AMROUNDEDRECTD28*
21,1,1.520,0.760,0,0,0.0*
21,1,0.760,1.520,0,0,0.0*
1,1,0.760,0.380,-0.380*
1,1,0.760,-0.380,-0.380*
1,1,0.760,-0.380,0.380*
1,1,0.760,0.380,0.380*
%
%ADD28ROUNDEDRECTD28*%
%ADD29C,1.550*%
%ADD30R,1.550X1.550*%
%TA.AperFunction,ViaPad*%
%ADD31C,0.800*%
%TA.AperFunction,SMDPad,CuDef*%
%ADD32R,0.800X0.900*%
%ADD33R,1.524X0.578*%
G04:AMPARAMS|DCode=34|XSize=1.524mm|YSize=0.578mm|CornerRadius=0.289mm|HoleSize=0mm|Usage=FLASHONLY|Rotation=0.000|XOffset=0mm|YOffset=0mm|HoleType=Round|Shape=RoundedRectangle|*
%AMROUNDEDRECTD34*
21,1,1.524,0.000,0,0,0.0*
21,1,0.946,0.578,0,0,0.0*
1,1,0.578,0.473,0.000*
1,1,0.578,-0.473,0.000*
1,1,0.578,-0.473,0.000*
1,1,0.578,0.473,0.000*
%
%ADD34ROUNDEDRECTD34*%
%ADD35R,1.525X0.650*%
%ADD36R,2.800X2.000*%
%ADD37R,1.456X1.305*%
%ADD38R,1.308X0.762*%
G04:AMPARAMS|DCode=39|XSize=1.308mm|YSize=0.762mm|CornerRadius=0.381mm|HoleSize=0mm|Usage=FLASHONLY|Rotation=0.000|XOffset=0mm|YOffset=0mm|HoleType=Round|Shape=RoundedRectangle|*
%AMROUNDEDRECTD39*
21,1,1.308,0.000,0,0,0.0*
21,1,0.546,0.762,0,0,0.0*
1,1,0.762,0.273,0.000*
1,1,0.762,-0.273,0.000*
1,1,0.762,-0.273,0.000*
1,1,0.762,0.273,0.000*
%
%ADD39ROUNDEDRECTD39*%
%ADD40R,0.400X0.480*%
%ADD41R,0.608X1.686*%
%ADD42R,1.012X1.059*%
%ADD43R,0.578X1.524*%
G04:AMPARAMS|DCode=44|XSize=1.524mm|YSize=0.578mm|CornerRadius=0.289mm|HoleSize=0mm|Usage=FLASHONLY|Rotation=270.000|XOffset=0mm|YOffset=0mm|HoleType=Round|Shape=RoundedRectangle|*
%AMROUNDEDRECTD44*
21,1,1.524,0.000,0,0,270.0*
21,1,0.946,0.578,0,0,270.0*
1,1,0.578,0.000,-0.473*
1,1,0.578,0.000,0.473*
1,1,0.578,0.000,0.473*
1,1,0.578,0.000,-0.473*
%
%ADD44ROUNDEDRECTD44*%
%ADD45R,0.600X0.700*%
%ADD46R,1.686X0.608*%
%ADD47R,0.900X0.800*%
%ADD48R,0.500X1.075*%
%ADD49R,1.350X0.950*%
%ADD50R,1.556X1.505*%
%ADD51R,1.086X0.528*%
%ADD52R,1.505X1.556*%
%ADD53R,1.000X1.700*%
%ADD54R,1.075X0.500*%
%TA.AperFunction,Conductor*%
%ADD55C,2.000*%
G36*
X40886Y55173D02*
X41739Y55037D01*
X42579Y54836D01*
X43401Y54569D01*
X44199Y54238D01*
X44968Y53846D01*
X45705Y53395D01*
X46404Y52887D01*
X47061Y52326D01*
X47671Y51715D01*
X48232Y51058D01*
X48740Y50359D01*
X49192Y49623D01*
X49584Y48853D01*
X49914Y48055D01*
X50181Y47233D01*
X50383Y46393D01*
X50518Y45540D01*
X50586Y44679D01*
Y44247D01*
X50586Y44247D01*
X50586Y44217D01*
X50586Y44158D01*
X50585Y44098D01*
X50585Y44098D01*
X50584Y44038D01*
X50583Y44008D01*
X50590Y44001D01*
X50696Y44001D01*
X50696Y44001D01*
X50709Y44001D01*
X52474D01*
X52593Y44001D01*
X52599Y44008D01*
X52597Y44127D01*
X52590Y44446D01*
X52641Y45320D01*
X52761Y46187D01*
X52950Y47042D01*
X53206Y47879D01*
X53528Y48693D01*
X53913Y49479D01*
X54360Y50232D01*
X54865Y50947D01*
X55426Y51619D01*
X56038Y52245D01*
X56698Y52820D01*
X57401Y53341D01*
X58144Y53805D01*
X58921Y54208D01*
X59728Y54548D01*
X60559Y54822D01*
X61410Y55030D01*
X62274Y55170D01*
X63146Y55240D01*
X63584Y55240D01*
X63584Y55240D01*
X63590Y55236D01*
X79474D01*
X79594Y55236D01*
X79601Y55240D01*
X79601Y55240D01*
X80026Y55240D01*
X80875Y55174D01*
X81716Y55042D01*
X82545Y54845D01*
X83355Y54585D01*
X84143Y54263D01*
X84904Y53881D01*
X85633Y53442D01*
X86326Y52947D01*
X86979Y52400D01*
X87587Y51805D01*
X88148Y51164D01*
X88657Y50482D01*
X89112Y49762D01*
X89510Y49009D01*
X89849Y48228D01*
X90126Y47423D01*
X90340Y46599D01*
X90489Y45761D01*
X90574Y44914D01*
X90583Y44488D01*
X90583Y44008D01*
X90586Y19248D01*
X90586Y19248D01*
X90586Y19248D01*
X90586Y19248D01*
Y19248D01*
X90586Y19247D01*
X90586Y19247D01*
X90586Y18815D01*
X90518Y17954D01*
X90383Y17101D01*
X90181Y16261D01*
X89914Y15439D01*
X89584Y14641D01*
X89192Y13871D01*
X88740Y13135D01*
X88232Y12436D01*
X87671Y11779D01*
X87061Y11168D01*
X86404Y10607D01*
X85705Y10100D01*
X84968Y9648D01*
X84199Y9256D01*
X83400Y8925D01*
X82579Y8658D01*
X81739Y8457D01*
X80886Y8322D01*
X80025Y8254D01*
X79593Y8254D01*
X63606Y8254D01*
X63606Y8254D01*
X63173Y8253D01*
X62311Y8320D01*
X61457Y8455D01*
X60617Y8656D01*
X59794Y8922D01*
X58995Y9252D01*
X58225Y9644D01*
X57487Y10095D01*
X56787Y10603D01*
X56130Y11164D01*
X55518Y11775D01*
X54956Y12432D01*
X54448Y13131D01*
X53996Y13868D01*
X53603Y14638D01*
X53272Y15437D01*
X53005Y16259D01*
X52803Y17099D01*
X52667Y17953D01*
X52599Y18815D01*
X52599Y19247D01*
X52599Y19247D01*
X52599Y19248D01*
Y19248D01*
X52593Y19255D01*
X52476Y19255D01*
X52476Y19255D01*
X52473Y19255D01*
X50713Y19255D01*
X50593Y19255D01*
X50586Y19248D01*
Y19247D01*
X50586Y19247D01*
X50586Y19131D01*
X50586Y18815D01*
X50518Y17954D01*
X50383Y17101D01*
X50181Y16261D01*
X49914Y15439D01*
X49584Y14641D01*
X49192Y13871D01*
X48740Y13135D01*
X48232Y12436D01*
X47671Y11779D01*
X47061Y11168D01*
X46404Y10607D01*
X45705Y10100D01*
X44968Y9648D01*
X44199Y9256D01*
X43401Y8925D01*
X42579Y8658D01*
X41739Y8457D01*
X40886Y8322D01*
X40025Y8254D01*
X39593Y8254D01*
X23606Y8254D01*
X23606Y8254D01*
X23173Y8253D01*
X22311Y8320D01*
X21457Y8455D01*
X20617Y8656D01*
X19794Y8922D01*
X18995Y9252D01*
X18225Y9644D01*
X17487Y10095D01*
X16787Y10603D01*
X16130Y11164D01*
X15518Y11775D01*
X14956Y12432D01*
X14448Y13131D01*
X13996Y13868D01*
X13603Y14638D01*
X13272Y15436D01*
X13005Y16258D01*
X12803Y17099D01*
X12667Y17953D01*
X12599Y18815D01*
X12599Y19247D01*
X12599Y44122D01*
X12599Y44242D01*
X12599Y44242D01*
X12599Y44242D01*
X12599Y44242D01*
X12599Y44674D01*
X12667Y45535D01*
X12801Y46388D01*
X13003Y47228D01*
X13269Y48050D01*
X13599Y48849D01*
X13991Y49618D01*
X14442Y50355D01*
X14950Y51054D01*
X15511Y51712D01*
X16121Y52323D01*
X16778Y52884D01*
X17476Y53392D01*
X18213Y53844D01*
X18982Y54236D01*
X19781Y54567D01*
X20602Y54835D01*
X21442Y55037D01*
X22295Y55172D01*
X23156Y55240D01*
X23462Y55240D01*
X23595Y55240D01*
X23724D01*
X39593Y55240D01*
X40025D01*
X40886Y55173D01*
D02*
G37*
%LPC*%
G36*
X82041Y53573D02*
X80925D01*
Y53320D01*
X79684D01*
X79675Y53330D01*
X79526Y53416D01*
X79359Y53461D01*
X79187D01*
X79021Y53416D01*
X78872Y53330D01*
X78805Y53263D01*
X78347D01*
X78150Y53224D01*
X77984Y53113D01*
X77691Y52820D01*
X77579Y52653D01*
X77540Y52456D01*
Y51479D01*
X77550Y51430D01*
Y50688D01*
X78558D01*
Y51430D01*
X78568Y51479D01*
Y52235D01*
X78955D01*
X79021Y52197D01*
X79187Y52153D01*
X79359D01*
X79526Y52197D01*
X79675Y52283D01*
X79684Y52293D01*
X80925D01*
Y51380D01*
X81941D01*
Y49324D01*
X81985D01*
Y48965D01*
X81604D01*
Y47657D01*
X83012D01*
Y47822D01*
X84196D01*
Y47708D01*
X85604D01*
Y49016D01*
X84196D01*
Y48850D01*
X83013D01*
Y49324D01*
X83057D01*
Y51518D01*
X82041D01*
Y53573D01*
D02*
G37*
G36*
X35949Y53201D02*
X35679D01*
X35417Y53130D01*
X35182Y52995D01*
X34991Y52803D01*
X34855Y52569D01*
X34785Y52307D01*
Y52036D01*
X34855Y51774D01*
X34991Y51540D01*
X35182Y51348D01*
X35417Y51213D01*
X35679Y51143D01*
X35949D01*
X36211Y51213D01*
X36446Y51348D01*
X36637Y51540D01*
X36773Y51774D01*
X36843Y52036D01*
Y52307D01*
X36773Y52569D01*
X36637Y52803D01*
X36446Y52995D01*
X36211Y53130D01*
X35949Y53201D01*
D02*
G37*
G36*
X33409D02*
X33139D01*
X32877Y53130D01*
X32642Y52995D01*
X32451Y52803D01*
X32315Y52569D01*
X32245Y52307D01*
Y52036D01*
X32315Y51774D01*
X32451Y51540D01*
X32642Y51348D01*
X32877Y51213D01*
X33139Y51143D01*
X33409D01*
X33671Y51213D01*
X33906Y51348D01*
X34097Y51540D01*
X34233Y51774D01*
X34303Y52036D01*
Y52307D01*
X34233Y52569D01*
X34097Y52803D01*
X33906Y52995D01*
X33671Y53130D01*
X33409Y53201D01*
D02*
G37*
G36*
X30869D02*
X30599D01*
X30337Y53130D01*
X30102Y52995D01*
X29911Y52803D01*
X29775Y52569D01*
X29705Y52307D01*
Y52036D01*
X29775Y51774D01*
X29911Y51540D01*
X30102Y51348D01*
X30337Y51213D01*
X30599Y51143D01*
X30869D01*
X31131Y51213D01*
X31366Y51348D01*
X31557Y51540D01*
X31693Y51774D01*
X31763Y52036D01*
Y52307D01*
X31693Y52569D01*
X31557Y52803D01*
X31366Y52995D01*
X31131Y53130D01*
X30869Y53201D01*
D02*
G37*
G36*
X28329D02*
X28059D01*
X27797Y53130D01*
X27562Y52995D01*
X27371Y52803D01*
X27235Y52569D01*
X27165Y52307D01*
Y52036D01*
X27235Y51774D01*
X27371Y51540D01*
X27562Y51348D01*
X27797Y51213D01*
X28059Y51143D01*
X28329D01*
X28591Y51213D01*
X28826Y51348D01*
X29017Y51540D01*
X29153Y51774D01*
X29223Y52036D01*
Y52307D01*
X29153Y52569D01*
X29017Y52803D01*
X28826Y52995D01*
X28591Y53130D01*
X28329Y53201D01*
D02*
G37*
G36*
X39383D02*
X37325D01*
Y51143D01*
X37619D01*
Y50482D01*
X37479Y50341D01*
X23914D01*
X23741Y50319D01*
X22928D01*
X22879Y50312D01*
X20774D01*
Y47804D01*
X24082D01*
Y48820D01*
X37794D01*
X37990Y48846D01*
X38174Y48922D01*
X38331Y49043D01*
X38917Y49629D01*
X39038Y49786D01*
X39069Y49862D01*
X39114Y49970D01*
X39140Y50167D01*
Y51143D01*
X39383D01*
Y51404D01*
X39963D01*
Y51252D01*
X40794D01*
X41260Y50786D01*
X41417Y50666D01*
X41601Y50590D01*
X41797Y50564D01*
X42223D01*
Y50324D01*
X43112D01*
X43232Y50204D01*
Y41324D01*
X42173D01*
X41976Y41298D01*
X41869Y41254D01*
X41793Y41222D01*
X41635Y41102D01*
X41050Y40516D01*
X40929Y40358D01*
X40853Y40175D01*
X40827Y39978D01*
Y39116D01*
X40679D01*
Y37846D01*
X40845D01*
Y37084D01*
Y36297D01*
X40679D01*
Y35027D01*
X40827D01*
Y34139D01*
X40853Y33942D01*
X40929Y33759D01*
X41050Y33601D01*
X41635Y33016D01*
X41793Y32895D01*
X41869Y32863D01*
X41976Y32819D01*
X42173Y32793D01*
X43285D01*
Y30885D01*
X42661D01*
X42627Y31012D01*
X42735Y31074D01*
X42856Y31196D01*
X42942Y31345D01*
X42987Y31511D01*
Y31684D01*
X42942Y31850D01*
X42856Y31999D01*
X42735Y32121D01*
X42585Y32207D01*
X42419Y32252D01*
X42247D01*
X42081Y32207D01*
X41931Y32121D01*
X41820Y32010D01*
X36772D01*
X33387Y35394D01*
X33254Y35483D01*
X33096Y35515D01*
X32542D01*
X32431Y35626D01*
X32282Y35712D01*
X32116Y35757D01*
X31943D01*
X31777Y35712D01*
X31747Y35695D01*
X31637Y35758D01*
Y41781D01*
X33148Y43292D01*
X33162Y43288D01*
X33335D01*
X33501Y43333D01*
X33650Y43419D01*
X33772Y43540D01*
X33858Y43690D01*
X33903Y43856D01*
Y44028D01*
X33858Y44194D01*
X33772Y44344D01*
X33650Y44465D01*
X33501Y44551D01*
X33356Y44590D01*
X33295Y44709D01*
X35673Y47087D01*
X35728Y47073D01*
X35900D01*
X36066Y47117D01*
X36216Y47203D01*
X36337Y47325D01*
X36423Y47474D01*
X36468Y47640D01*
Y47813D01*
X36423Y47979D01*
X36337Y48128D01*
X36216Y48250D01*
X36066Y48336D01*
X35900Y48381D01*
X35728D01*
X35562Y48336D01*
X35412Y48250D01*
X35291Y48128D01*
X35205Y47979D01*
X35160Y47813D01*
Y47673D01*
X30466Y42978D01*
X30382Y42852D01*
X30352Y42704D01*
Y30335D01*
X30225Y30262D01*
X30199Y30277D01*
X30033Y30321D01*
X30019D01*
X29491Y30850D01*
X29324Y30961D01*
X29127Y31000D01*
X26312D01*
Y32241D01*
X24792D01*
Y30674D01*
X25039D01*
Y29917D01*
X24792D01*
Y28350D01*
X26312D01*
Y29917D01*
X26417Y29973D01*
X28915D01*
X29293Y29594D01*
Y29581D01*
X29337Y29415D01*
X29423Y29266D01*
X29545Y29144D01*
X29694Y29058D01*
X29861Y29013D01*
X30033D01*
X30040Y29015D01*
X30064Y29001D01*
X30138Y28910D01*
X30105Y28788D01*
Y28616D01*
X30150Y28450D01*
X30236Y28300D01*
X30358Y28179D01*
X30507Y28093D01*
X30673Y28048D01*
X30846D01*
X31012Y28093D01*
X31161Y28179D01*
X31283Y28300D01*
X31369Y28450D01*
X31413Y28616D01*
X31506Y28687D01*
X31578Y28667D01*
X31750D01*
X31917Y28712D01*
X32066Y28798D01*
X32187Y28920D01*
X32274Y29069D01*
X32303Y29180D01*
X32430Y29163D01*
Y27552D01*
X30993Y26115D01*
X26908D01*
X26751Y26083D01*
X26617Y25994D01*
X26146Y25523D01*
X26057Y25389D01*
X26025Y25232D01*
Y22080D01*
X24809D01*
Y22372D01*
X23501D01*
Y20964D01*
X24809D01*
Y21256D01*
X26262D01*
X26419Y21287D01*
X26553Y21377D01*
X26610Y21434D01*
X26728Y21385D01*
Y19778D01*
X26636Y19687D01*
X26560Y19636D01*
X26272Y19348D01*
X26177D01*
X26011Y19304D01*
X25862Y19218D01*
X25740Y19096D01*
X25654Y18947D01*
X25610Y18781D01*
Y18608D01*
X25654Y18442D01*
X25740Y18293D01*
X25862Y18171D01*
X26011Y18085D01*
X26177Y18040D01*
X26350D01*
X26516Y18085D01*
X26665Y18171D01*
X26787Y18293D01*
X26873Y18442D01*
X26893Y18516D01*
X27235Y18858D01*
X27312Y18909D01*
X27605Y19202D01*
X27716Y19369D01*
X27755Y19566D01*
Y24488D01*
X27765Y24497D01*
X27851Y24646D01*
X27895Y24813D01*
Y24985D01*
X27851Y25151D01*
X27834Y25181D01*
X27897Y25291D01*
X31164D01*
X31321Y25322D01*
X31455Y25411D01*
X33107Y27064D01*
X33210Y27034D01*
X33234Y27016D01*
Y21828D01*
X30802Y19396D01*
X30701D01*
X30535Y19351D01*
X30386Y19265D01*
X30264Y19143D01*
X30178Y18994D01*
X30133Y18828D01*
Y18656D01*
X30178Y18489D01*
X30264Y18340D01*
X30386Y18218D01*
X30535Y18132D01*
X30701Y18088D01*
X30873D01*
X31040Y18132D01*
X31189Y18218D01*
X31310Y18340D01*
X31397Y18489D01*
X31441Y18656D01*
Y18828D01*
X31432Y18861D01*
X33937Y21366D01*
X34027Y21500D01*
X34058Y21657D01*
Y30141D01*
X34185Y30194D01*
X34267Y30112D01*
X34416Y30026D01*
X34583Y29981D01*
X34596D01*
X37078Y27499D01*
Y26243D01*
X37069Y26233D01*
X36983Y26084D01*
X36938Y25918D01*
Y25746D01*
X36983Y25579D01*
X37027Y25502D01*
Y17470D01*
X36677D01*
Y16312D01*
X36677D01*
Y16200D01*
X36677D01*
Y15042D01*
X37601D01*
X37630Y15023D01*
X37846Y14980D01*
X38033Y15017D01*
X39616D01*
X39616Y15017D01*
X39832Y15060D01*
X40016Y15183D01*
X40367Y15534D01*
X40367Y15534D01*
X40490Y15717D01*
X40533Y15933D01*
X40533Y15933D01*
Y16237D01*
X40672D01*
Y17545D01*
X39264D01*
Y17456D01*
X38710D01*
Y17470D01*
X38055D01*
Y21887D01*
X38182Y21940D01*
X38242Y21879D01*
X38391Y21793D01*
X38558Y21749D01*
X38730D01*
X38896Y21793D01*
X39045Y21879D01*
X39167Y22001D01*
X39253Y22150D01*
X39298Y22317D01*
Y22489D01*
X39253Y22655D01*
X39167Y22804D01*
X39056Y22916D01*
Y28499D01*
X39024Y28657D01*
X38935Y28790D01*
X36667Y31059D01*
X36719Y31186D01*
X39428D01*
X39481Y31059D01*
X39456Y31034D01*
X39370Y30885D01*
X39326Y30719D01*
Y30546D01*
X39370Y30380D01*
X39456Y30231D01*
X39466Y30221D01*
Y19406D01*
X39505Y19209D01*
X39616Y19042D01*
X41008Y17651D01*
X40964Y17545D01*
X40964D01*
Y16237D01*
X43757D01*
Y17545D01*
X42151D01*
Y17748D01*
X42112Y17945D01*
X42000Y18111D01*
X40493Y19618D01*
Y30221D01*
X40503Y30231D01*
X40589Y30380D01*
X40634Y30546D01*
Y30719D01*
X40589Y30885D01*
X40503Y31034D01*
X40478Y31059D01*
X40531Y31186D01*
X41820D01*
X41931Y31074D01*
X42063Y30998D01*
X42066Y30939D01*
X42044Y30868D01*
X41976Y30859D01*
X41869Y30814D01*
X41793Y30783D01*
X41635Y30662D01*
X41050Y30076D01*
X40929Y29919D01*
X40853Y29735D01*
X40827Y29539D01*
Y28600D01*
X40679D01*
Y27330D01*
X40827D01*
Y25781D01*
X40679D01*
Y24511D01*
X40827D01*
Y23624D01*
X40853Y23427D01*
X40929Y23243D01*
X41050Y23086D01*
X41635Y22500D01*
X41793Y22379D01*
X41869Y22348D01*
X41976Y22303D01*
X42173Y22277D01*
X44045D01*
X44242Y22303D01*
X44426Y22379D01*
X44432Y22384D01*
X44749D01*
Y22767D01*
X44780Y22841D01*
X44806Y23038D01*
X44780Y23235D01*
X44749Y23308D01*
Y23692D01*
X44432D01*
X44426Y23696D01*
X44242Y23772D01*
X44045Y23798D01*
X42488D01*
X42348Y23939D01*
Y24511D01*
X42496D01*
Y25781D01*
X42348D01*
Y27330D01*
X42496D01*
Y28600D01*
X42348D01*
Y29224D01*
X42488Y29364D01*
X43788D01*
X43849Y29339D01*
X44045Y29313D01*
X44242Y29339D01*
X44350Y29384D01*
X44426Y29415D01*
X44432Y29420D01*
X44749D01*
Y29803D01*
X44780Y29877D01*
X44806Y30074D01*
Y33553D01*
X44780Y33750D01*
X44749Y33824D01*
Y34207D01*
X44432D01*
X44426Y34212D01*
X44242Y34288D01*
X44045Y34314D01*
X42488D01*
X42348Y34454D01*
Y35027D01*
X42496D01*
Y36297D01*
X42366D01*
Y37084D01*
Y37846D01*
X42496D01*
Y39116D01*
X42348D01*
Y39663D01*
X42488Y39803D01*
X43993D01*
X44190Y39829D01*
X44373Y39905D01*
X44412Y39935D01*
X44749D01*
Y40534D01*
X44753Y40564D01*
Y50519D01*
X44727Y50716D01*
X44651Y50899D01*
X44531Y51057D01*
X44188Y51400D01*
Y52137D01*
X42223D01*
Y52124D01*
X42096Y52101D01*
X41927Y52270D01*
Y53065D01*
X39963D01*
Y52925D01*
X39383D01*
Y53201D01*
D02*
G37*
G36*
X81337Y47187D02*
X79929D01*
Y47047D01*
X79774D01*
X79653Y47117D01*
X79487Y47161D01*
X79314D01*
X79148Y47117D01*
X78999Y47031D01*
X78877Y46909D01*
X78791Y46760D01*
X78746Y46593D01*
Y46421D01*
X78791Y46255D01*
X78877Y46106D01*
X78999Y45984D01*
X79148Y45898D01*
X79314Y45853D01*
X79487D01*
X79653Y45898D01*
X79686Y45917D01*
X79929D01*
Y45879D01*
X79953D01*
Y45660D01*
X79909D01*
Y43467D01*
X80925D01*
Y43110D01*
X79634D01*
X79624Y43119D01*
X79475Y43205D01*
X79309Y43250D01*
X79136D01*
X78970Y43205D01*
X78904Y43167D01*
X78568D01*
Y43542D01*
X78558Y43592D01*
Y44333D01*
X77550D01*
Y43592D01*
X77540Y43542D01*
Y42946D01*
X77550Y42896D01*
Y42750D01*
X77579D01*
X77579Y42749D01*
X77691Y42583D01*
X77984Y42290D01*
X78150Y42178D01*
X78347Y42139D01*
X78754D01*
X78821Y42072D01*
X78970Y41986D01*
X79136Y41942D01*
X79309D01*
X79475Y41986D01*
X79624Y42072D01*
X79634Y42082D01*
X80925D01*
Y41411D01*
X82041D01*
Y43605D01*
X81025D01*
Y45660D01*
X80981D01*
Y45879D01*
X81337D01*
Y47187D01*
D02*
G37*
G36*
X87304Y49016D02*
X85896D01*
Y47708D01*
X87304D01*
Y47848D01*
X87620D01*
X88945Y46523D01*
Y45907D01*
X88828Y45859D01*
X87841Y46845D01*
X87674Y46957D01*
X87478Y46996D01*
X87254D01*
Y47136D01*
X85846D01*
Y45828D01*
X87254D01*
Y45828D01*
X87381Y45852D01*
X88158Y45075D01*
Y34997D01*
X88031Y34923D01*
X87984Y34950D01*
X87818Y34995D01*
X87646D01*
X87479Y34950D01*
X87330Y34864D01*
X87330Y34864D01*
X87203Y34913D01*
Y35046D01*
X85795D01*
Y33738D01*
X87203D01*
Y33765D01*
X87330Y33818D01*
X87330Y33817D01*
X87479Y33731D01*
X87646Y33687D01*
X87818D01*
X87984Y33731D01*
X88031Y33758D01*
X88158Y33685D01*
Y33128D01*
X88031Y33055D01*
X87959Y33096D01*
X87792Y33141D01*
X87620D01*
X87454Y33096D01*
X87330Y33024D01*
X87247Y33054D01*
X87203Y33088D01*
Y33166D01*
X85795D01*
Y31858D01*
X87203D01*
Y31885D01*
X87247Y31919D01*
X87330Y31949D01*
X87454Y31877D01*
X87620Y31833D01*
X87792D01*
X87959Y31877D01*
X88031Y31919D01*
X88158Y31845D01*
Y20646D01*
X88031Y20572D01*
X87984Y20599D01*
X87818Y20644D01*
X87646D01*
X87479Y20599D01*
X87330Y20513D01*
X87291Y20474D01*
X87164Y20504D01*
Y20644D01*
X85756D01*
Y19336D01*
X87164D01*
Y19476D01*
X87291Y19506D01*
X87330Y19466D01*
X87479Y19380D01*
X87646Y19336D01*
X87818D01*
X87984Y19380D01*
X88031Y19407D01*
X88158Y19334D01*
Y18919D01*
X88031Y18845D01*
X87984Y18872D01*
X87818Y18917D01*
X87646D01*
X87479Y18872D01*
X87330Y18786D01*
X87291Y18747D01*
X87164Y18777D01*
Y18917D01*
X85756D01*
Y17609D01*
X87164D01*
Y17749D01*
X87291Y17778D01*
X87330Y17739D01*
X87479Y17653D01*
X87646Y17609D01*
X87818D01*
X87844Y17616D01*
X87979Y17520D01*
X87982Y17487D01*
X83277Y12782D01*
X70231D01*
X70034Y12743D01*
X69868Y12632D01*
X67844Y10608D01*
X67723Y10641D01*
X67456D01*
X67198Y10571D01*
X66967Y10438D01*
X66778Y10249D01*
X66645Y10018D01*
X66575Y9760D01*
Y9493D01*
X66645Y9235D01*
X66778Y9004D01*
X66967Y8815D01*
X67198Y8682D01*
X67456Y8613D01*
X67723D01*
X67981Y8682D01*
X68212Y8815D01*
X68401Y9004D01*
X68534Y9235D01*
X68603Y9493D01*
Y9760D01*
X68571Y9881D01*
X70444Y11754D01*
X83252D01*
X83300Y11637D01*
X83142Y11479D01*
X71468D01*
X71271Y11440D01*
X71104Y11328D01*
X70384Y10608D01*
X70263Y10641D01*
X69996D01*
X69738Y10571D01*
X69507Y10438D01*
X69318Y10249D01*
X69185Y10018D01*
X69115Y9760D01*
Y9493D01*
X69185Y9235D01*
X69318Y9004D01*
X69507Y8815D01*
X69738Y8682D01*
X69996Y8613D01*
X70263D01*
X70521Y8682D01*
X70752Y8815D01*
X70941Y9004D01*
X71074Y9235D01*
X71143Y9493D01*
Y9760D01*
X71111Y9881D01*
X71680Y10451D01*
X71880D01*
X71933Y10324D01*
X71858Y10249D01*
X71725Y10018D01*
X71655Y9760D01*
Y9493D01*
X71725Y9235D01*
X71858Y9004D01*
X72047Y8815D01*
X72278Y8682D01*
X72536Y8613D01*
X72803D01*
X73061Y8682D01*
X73292Y8815D01*
X73481Y9004D01*
X73614Y9235D01*
X73683Y9493D01*
Y9760D01*
X73614Y10018D01*
X73481Y10249D01*
X73406Y10324D01*
X73459Y10451D01*
X74420D01*
X74473Y10324D01*
X74398Y10249D01*
X74265Y10018D01*
X74195Y9760D01*
Y9493D01*
X74265Y9235D01*
X74398Y9004D01*
X74587Y8815D01*
X74818Y8682D01*
X75076Y8613D01*
X75343D01*
X75601Y8682D01*
X75832Y8815D01*
X76021Y9004D01*
X76154Y9235D01*
X76223Y9493D01*
Y9760D01*
X76154Y10018D01*
X76021Y10249D01*
X75946Y10324D01*
X75999Y10451D01*
X76960D01*
X77013Y10324D01*
X76938Y10249D01*
X76804Y10018D01*
X76735Y9760D01*
Y9493D01*
X76804Y9235D01*
X76938Y9004D01*
X77127Y8815D01*
X77358Y8682D01*
X77616Y8613D01*
X77883D01*
X78141Y8682D01*
X78372Y8815D01*
X78561Y9004D01*
X78694Y9235D01*
X78763Y9493D01*
Y9760D01*
X78694Y10018D01*
X78561Y10249D01*
X78486Y10324D01*
X78539Y10451D01*
X79500D01*
X79553Y10324D01*
X79478Y10249D01*
X79344Y10018D01*
X79275Y9760D01*
Y9493D01*
X79344Y9235D01*
X79478Y9004D01*
X79667Y8815D01*
X79898Y8682D01*
X80156Y8613D01*
X80423D01*
X80681Y8682D01*
X80912Y8815D01*
X81101Y9004D01*
X81234Y9235D01*
X81303Y9493D01*
Y9760D01*
X81234Y10018D01*
X81101Y10249D01*
X81026Y10324D01*
X81079Y10451D01*
X83355D01*
X83551Y10490D01*
X83718Y10601D01*
X89822Y16705D01*
X89934Y16872D01*
X89973Y17069D01*
Y46736D01*
X89934Y46933D01*
X89822Y47099D01*
X88197Y48725D01*
X88030Y48836D01*
X87833Y48875D01*
X87304D01*
Y49016D01*
D02*
G37*
G36*
X83691Y47161D02*
X83519D01*
X83353Y47117D01*
X83203Y47031D01*
X83082Y46909D01*
X82996Y46760D01*
X82951Y46593D01*
Y46421D01*
X82996Y46255D01*
X83082Y46106D01*
X83203Y45984D01*
X83353Y45898D01*
X83519Y45853D01*
X83691D01*
X83857Y45898D01*
X84001Y45981D01*
X84146D01*
Y45828D01*
X85554D01*
Y47136D01*
X84146D01*
Y47033D01*
X84019Y47019D01*
X84007Y47031D01*
X83857Y47117D01*
X83691Y47161D01*
D02*
G37*
G36*
X78558Y49947D02*
X77550D01*
Y49205D01*
X77540Y49155D01*
Y47960D01*
X77531Y47950D01*
X77445Y47801D01*
X77400Y47635D01*
Y47463D01*
X77445Y47296D01*
X77531Y47147D01*
X77540Y47138D01*
Y45872D01*
X77550Y45823D01*
Y45075D01*
X78558D01*
Y45823D01*
X78568Y45872D01*
Y47138D01*
X78578Y47147D01*
X78664Y47296D01*
X78708Y47463D01*
Y47635D01*
X78664Y47801D01*
X78578Y47950D01*
X78568Y47960D01*
Y49155D01*
X78558Y49205D01*
Y49947D01*
D02*
G37*
G36*
X23781Y44292D02*
X22673D01*
Y44215D01*
X21683D01*
Y44271D01*
X19489D01*
Y43255D01*
X17433D01*
Y43255D01*
X17316Y43280D01*
Y43630D01*
X16008D01*
Y42222D01*
X16698D01*
X16891Y42184D01*
X17433D01*
Y42139D01*
X18534D01*
X18567Y42133D01*
X18907D01*
X19137Y41902D01*
X19304Y41791D01*
X19501Y41752D01*
X20722D01*
Y41612D01*
X22130D01*
Y42920D01*
X20722D01*
Y42779D01*
X19714D01*
X19627Y42866D01*
Y43155D01*
X21683D01*
Y43187D01*
X22673D01*
Y43084D01*
X23781D01*
Y44292D01*
D02*
G37*
G36*
X25181D02*
X24073D01*
Y43084D01*
X24138D01*
Y42920D01*
X23973D01*
Y41612D01*
X25381D01*
Y42920D01*
X25166D01*
Y43084D01*
X25181D01*
Y44292D01*
D02*
G37*
G36*
X51716Y42268D02*
X51453Y42266D01*
X51420Y42259D01*
X51387Y42257D01*
X51134Y42188D01*
X51104Y42173D01*
X51072Y42162D01*
X50845Y42029D01*
X50820Y42007D01*
X50792Y41988D01*
X50607Y41802D01*
X50588Y41774D01*
X50566Y41749D01*
X50436Y41521D01*
X50425Y41489D01*
X50410Y41459D01*
X50342Y41206D01*
X50340Y41172D01*
X50334Y41139D01*
X50334Y41008D01*
X50334Y40634D01*
X50244Y40544D01*
X49446D01*
X48986Y41003D01*
X48829Y41124D01*
X48645Y41200D01*
X48449Y41226D01*
X48369D01*
X48345Y41267D01*
X48130Y41482D01*
X47867Y41634D01*
X47574Y41713D01*
X47270D01*
X46976Y41634D01*
X46713Y41482D01*
X46581Y41350D01*
X45822D01*
X45784Y41345D01*
X45745Y41350D01*
X45549Y41324D01*
X45365Y41248D01*
X45359Y41243D01*
X45041D01*
Y40860D01*
X45011Y40786D01*
X44985Y40589D01*
X45011Y40392D01*
X45041Y40319D01*
Y39935D01*
X45229D01*
Y39382D01*
X45066Y39219D01*
X45041Y39216D01*
X44857Y39140D01*
X44800Y39096D01*
X44717Y39079D01*
X44507Y38939D01*
X44366Y38729D01*
X44317Y38481D01*
X44366Y38233D01*
X44507Y38023D01*
X44717Y37883D01*
X44800Y37866D01*
X44857Y37822D01*
X45041Y37746D01*
X45237Y37720D01*
X45403D01*
X45600Y37746D01*
X45784Y37822D01*
X45941Y37943D01*
X46527Y38529D01*
X46648Y38687D01*
X46679Y38763D01*
X46724Y38870D01*
X46750Y39067D01*
Y39361D01*
X46877Y39432D01*
X46892Y39423D01*
X46922Y39275D01*
X46942Y39243D01*
Y38977D01*
X47296D01*
X47396Y38957D01*
X47496Y38977D01*
X47850D01*
Y39243D01*
X47871Y39275D01*
X47910Y39471D01*
Y39508D01*
X48130Y39635D01*
X48167Y39672D01*
X48370Y39468D01*
Y38731D01*
X50334D01*
X50334Y35501D01*
X50244Y35412D01*
X48370D01*
Y34674D01*
X48279Y34583D01*
X48227Y34624D01*
X48056Y34694D01*
X47928Y34711D01*
X47897Y34868D01*
X47876Y34899D01*
Y35165D01*
X47522D01*
X47422Y35185D01*
X47322Y35165D01*
X46968D01*
Y34899D01*
X46947Y34868D01*
X46916Y34711D01*
X46788Y34694D01*
X46764Y34684D01*
X46658Y34755D01*
Y35076D01*
X46632Y35273D01*
X46588Y35380D01*
X46556Y35456D01*
X46436Y35614D01*
X46046Y36003D01*
X45968Y36119D01*
X45852Y36197D01*
X45850Y36199D01*
X45692Y36320D01*
X45509Y36396D01*
X45312Y36422D01*
X45237D01*
X45041Y36396D01*
X44857Y36320D01*
X44800Y36276D01*
X44717Y36260D01*
X44507Y36119D01*
X44366Y35909D01*
X44317Y35662D01*
X44366Y35414D01*
X44507Y35204D01*
X44717Y35063D01*
X44800Y35047D01*
X44857Y35003D01*
X44922Y34976D01*
X45137Y34761D01*
Y34207D01*
X45041D01*
Y33824D01*
X45011Y33750D01*
X44985Y33553D01*
X45011Y33357D01*
X45041Y33283D01*
Y32899D01*
X45359D01*
X45365Y32895D01*
X45549Y32819D01*
X45745Y32793D01*
X46341D01*
X46357Y32754D01*
X46470Y32606D01*
X46617Y32494D01*
X46788Y32423D01*
X46972Y32399D01*
X47872D01*
X48056Y32423D01*
X48227Y32494D01*
X48374Y32606D01*
X48487Y32754D01*
X48558Y32925D01*
X48559Y32931D01*
X48645Y32943D01*
X48829Y33019D01*
X48986Y33140D01*
X49446Y33599D01*
X50334D01*
X50334Y29915D01*
X50244Y29825D01*
X49446D01*
X48783Y30487D01*
X48626Y30608D01*
X48442Y30684D01*
X48381Y30692D01*
X48347Y30752D01*
X48132Y30966D01*
X47869Y31118D01*
X47575Y31197D01*
X47271D01*
X46978Y31118D01*
X46715Y30966D01*
X46583Y30834D01*
X45872D01*
X45676Y30808D01*
X45492Y30732D01*
X45486Y30728D01*
X45041D01*
Y29420D01*
X45112D01*
Y28866D01*
X44879Y28633D01*
X44857Y28624D01*
X44800Y28580D01*
X44717Y28564D01*
X44507Y28423D01*
X44366Y28213D01*
X44317Y27965D01*
X44366Y27718D01*
X44507Y27508D01*
X44717Y27367D01*
X44800Y27351D01*
X44857Y27307D01*
X45041Y27231D01*
X45237Y27205D01*
X45287D01*
X45483Y27231D01*
X45667Y27307D01*
X45741Y27364D01*
X45758Y27367D01*
X45968Y27508D01*
X46097Y27700D01*
X46410Y28013D01*
X46531Y28171D01*
X46562Y28247D01*
X46607Y28354D01*
X46633Y28551D01*
Y29034D01*
X46760Y29094D01*
X46883Y29023D01*
Y28956D01*
X46922Y28759D01*
X46942Y28728D01*
Y28462D01*
X47296D01*
X47396Y28442D01*
X47496Y28462D01*
X47850D01*
Y28728D01*
X47871Y28759D01*
X47910Y28956D01*
Y28992D01*
X48048Y29071D01*
X48370Y28749D01*
Y28012D01*
X50334D01*
X50334Y24989D01*
X50207Y24883D01*
X48319D01*
Y24198D01*
X48284Y24163D01*
X48204Y24118D01*
X48057Y24179D01*
X47917Y24197D01*
X47897Y24302D01*
X47876Y24333D01*
Y24599D01*
X47522D01*
X47422Y24619D01*
X47322Y24599D01*
X46968D01*
Y24333D01*
X46947Y24302D01*
X46929Y24209D01*
X46809Y24182D01*
X46737Y24214D01*
X46684Y24249D01*
Y24495D01*
X46658Y24692D01*
X46582Y24876D01*
X46461Y25033D01*
X46111Y25383D01*
X46109Y25394D01*
X45968Y25604D01*
X45758Y25744D01*
X45722Y25751D01*
X45653Y25805D01*
X45469Y25881D01*
X45273Y25907D01*
X45237D01*
X45041Y25881D01*
X44857Y25805D01*
X44800Y25761D01*
X44717Y25744D01*
X44507Y25604D01*
X44366Y25394D01*
X44317Y25146D01*
X44366Y24898D01*
X44507Y24688D01*
X44717Y24548D01*
X44800Y24531D01*
X44851Y24492D01*
X45163Y24180D01*
Y23692D01*
X45041D01*
Y23308D01*
X45011Y23235D01*
X44985Y23038D01*
X45011Y22841D01*
X45041Y22767D01*
Y22384D01*
X45359D01*
X45365Y22379D01*
X45549Y22303D01*
X45745Y22277D01*
X46342D01*
X46358Y22238D01*
X46471Y22091D01*
X46618Y21978D01*
X46790Y21907D01*
X46973Y21883D01*
X47028D01*
X47031Y21882D01*
X47035Y21883D01*
X47873D01*
X48057Y21907D01*
X48228Y21978D01*
X48376Y22091D01*
X48488Y22238D01*
X48545Y22375D01*
X48557Y22376D01*
X48741Y22452D01*
X48898Y22573D01*
X49395Y23070D01*
X50284Y23070D01*
X50334Y22964D01*
X50334Y22249D01*
X50334Y22117D01*
X50340Y22084D01*
X50342Y22050D01*
X50411Y21796D01*
X50426Y21765D01*
X50436Y21733D01*
X50568Y21505D01*
X50590Y21479D01*
X50609Y21451D01*
X50795Y21265D01*
X50824Y21246D01*
X50849Y21224D01*
X51077Y21092D01*
X51109Y21081D01*
X51139Y21066D01*
X51394Y20998D01*
X51428Y20996D01*
X51461Y20989D01*
X51724Y20989D01*
X51757Y20996D01*
X51791Y20998D01*
X52046Y21066D01*
X52076Y21081D01*
X52108Y21092D01*
X52336Y21224D01*
X52362Y21246D01*
X52390Y21265D01*
X52576Y21451D01*
X52595Y21479D01*
X52617Y21505D01*
X52749Y21733D01*
X52760Y21765D01*
X52775Y21795D01*
X52843Y22050D01*
X52845Y22083D01*
X52852Y22117D01*
Y22248D01*
X52852Y41022D01*
X52851Y41023D01*
X52852Y41024D01*
X52852Y41026D01*
X52852Y41026D01*
X52850Y41155D01*
X52843Y41188D01*
X52840Y41222D01*
X52769Y41474D01*
X52754Y41505D01*
X52743Y41536D01*
X52609Y41762D01*
X52587Y41787D01*
X52568Y41815D01*
X52381Y41999D01*
X52352Y42017D01*
X52327Y42039D01*
X52099Y42168D01*
X52067Y42179D01*
X52036Y42194D01*
X51782Y42259D01*
X51749Y42261D01*
X51716Y42268D01*
D02*
G37*
G36*
X23830Y42920D02*
X22422D01*
Y41612D01*
X22568D01*
Y40983D01*
X22530Y40918D01*
X22485Y40751D01*
Y40579D01*
X22530Y40413D01*
X22616Y40264D01*
X22738Y40142D01*
X22887Y40056D01*
X23053Y40011D01*
X23226D01*
X23392Y40056D01*
X23541Y40142D01*
X23663Y40264D01*
X23749Y40413D01*
X23793Y40579D01*
Y40751D01*
X23749Y40918D01*
X23697Y41007D01*
Y41612D01*
X23830D01*
Y42920D01*
D02*
G37*
G36*
X39964Y41167D02*
X39792D01*
X39626Y41122D01*
X39476Y41036D01*
X39355Y40915D01*
X39269Y40765D01*
X39224Y40599D01*
Y40505D01*
X36015Y37296D01*
X35976Y37306D01*
X35804D01*
X35638Y37262D01*
X35489Y37176D01*
X35367Y37054D01*
X35281Y36905D01*
X35236Y36738D01*
Y36566D01*
X35281Y36400D01*
X35367Y36251D01*
X35489Y36129D01*
X35638Y36043D01*
X35804Y35998D01*
X35976D01*
X36143Y36043D01*
X36292Y36129D01*
X36414Y36251D01*
X36500Y36400D01*
X36544Y36566D01*
Y36660D01*
X39753Y39869D01*
X39792Y39859D01*
X39964D01*
X40130Y39904D01*
X40280Y39990D01*
X40401Y40111D01*
X40487Y40261D01*
X40532Y40427D01*
Y40599D01*
X40487Y40765D01*
X40401Y40915D01*
X40280Y41036D01*
X40130Y41122D01*
X39964Y41167D01*
D02*
G37*
G36*
X82067Y39349D02*
X80951D01*
Y38944D01*
X79583D01*
X79573Y38954D01*
X79424Y39040D01*
X79258Y39084D01*
X79086D01*
X78919Y39040D01*
X78770Y38954D01*
X78703Y38887D01*
X78347D01*
X78150Y38848D01*
X77984Y38736D01*
X77691Y38443D01*
X77579Y38277D01*
X77540Y38080D01*
Y37332D01*
X77550Y37282D01*
Y36540D01*
X78558D01*
Y37282D01*
X78568Y37332D01*
Y37859D01*
X78853D01*
X78919Y37821D01*
X79086Y37776D01*
X79258D01*
X79424Y37821D01*
X79573Y37907D01*
X79583Y37916D01*
X80951D01*
Y37155D01*
X81967D01*
Y35100D01*
X82011D01*
Y34969D01*
X81705D01*
Y33661D01*
X83113D01*
Y33840D01*
X84095D01*
Y33738D01*
X85503D01*
Y35046D01*
X84095D01*
Y34867D01*
X83113D01*
Y34969D01*
X83038D01*
Y35100D01*
X83083D01*
Y37293D01*
X82067D01*
Y39349D01*
D02*
G37*
G36*
X27081Y42920D02*
X25673D01*
Y41612D01*
X25877D01*
Y41446D01*
X25673D01*
Y40138D01*
X25863D01*
Y39644D01*
X25444D01*
Y38501D01*
X25444Y38486D01*
Y38374D01*
X25382Y38258D01*
X25191D01*
Y40138D01*
X25381D01*
Y41446D01*
X23973D01*
Y40138D01*
X24163D01*
Y38550D01*
X24036Y38521D01*
X23764Y38794D01*
X23597Y38905D01*
X23400Y38944D01*
X23137D01*
X23132Y38969D01*
X23020Y39136D01*
X22727Y39429D01*
X22561Y39540D01*
X22364Y39579D01*
X22053D01*
Y39644D01*
X20021D01*
Y38733D01*
X19983Y38622D01*
X19592D01*
Y38656D01*
X19553Y38852D01*
X19442Y39019D01*
X17570Y40891D01*
X17403Y41002D01*
X17207Y41041D01*
X16999D01*
X16985Y41142D01*
X16915Y41313D01*
X16802Y41460D01*
X16655Y41573D01*
X16483Y41644D01*
X16300Y41668D01*
X15400D01*
X15216Y41644D01*
X15045Y41573D01*
X14898Y41460D01*
X14785Y41313D01*
X14714Y41142D01*
X14690Y40958D01*
Y40058D01*
X14714Y39874D01*
X14785Y39703D01*
X14898Y39556D01*
X15045Y39443D01*
X15216Y39372D01*
X15400Y39348D01*
X16300D01*
X16483Y39372D01*
X16655Y39443D01*
X16802Y39556D01*
X16915Y39703D01*
X16976Y39852D01*
X17103Y39905D01*
X18565Y38443D01*
Y38118D01*
X18575Y38068D01*
Y37314D01*
X19379D01*
X19429Y37304D01*
X19657D01*
X19771Y37281D01*
X19914D01*
X20012Y37222D01*
Y37099D01*
X19914Y37039D01*
X19771D01*
X19575Y37000D01*
X19408Y36889D01*
X19242Y36722D01*
X18575D01*
Y35968D01*
X18565Y35918D01*
Y35598D01*
X17002Y34035D01*
X16871Y34046D01*
X16773Y34216D01*
X16558Y34431D01*
X16295Y34583D01*
X16002Y34662D01*
X15698D01*
X15404Y34583D01*
X15141Y34431D01*
X14926Y34216D01*
X14774Y33953D01*
X14696Y33660D01*
Y33356D01*
X14774Y33062D01*
X14926Y32799D01*
X15141Y32584D01*
X15404Y32432D01*
X15698Y32354D01*
X16002D01*
X16295Y32432D01*
X16558Y32584D01*
X16773Y32799D01*
X16885Y32994D01*
X17201D01*
X17398Y33033D01*
X17564Y33144D01*
X19442Y35022D01*
X19553Y35189D01*
X19592Y35385D01*
Y35414D01*
X19983D01*
X20021Y35303D01*
Y34676D01*
X21240D01*
Y33788D01*
X20699D01*
Y33994D01*
X19179D01*
Y32428D01*
X20699D01*
Y32760D01*
X21250D01*
Y32537D01*
X22177D01*
X22230Y32437D01*
X22230Y32410D01*
X22190Y32206D01*
Y31260D01*
X22224Y31086D01*
Y29787D01*
X21266D01*
Y28379D01*
X22574D01*
Y28399D01*
X22647Y28454D01*
X22819D01*
X22892Y28399D01*
Y28354D01*
X24200D01*
Y29762D01*
X23252D01*
Y31044D01*
X23255Y31048D01*
X23297Y31260D01*
Y32206D01*
X23255Y32418D01*
X23135Y32598D01*
X22955Y32718D01*
X22743Y32760D01*
X22531Y32718D01*
X22463Y32672D01*
X22336Y32740D01*
Y33165D01*
X22358Y33274D01*
X22336Y33383D01*
Y34570D01*
X22268D01*
Y34741D01*
X22364D01*
X22561Y34780D01*
X22727Y34892D01*
X23020Y35185D01*
X23052Y35233D01*
X23179Y35194D01*
Y34226D01*
X23140Y34027D01*
Y33711D01*
X23108Y33553D01*
X23140Y33395D01*
Y33080D01*
X23182Y32868D01*
X23302Y32689D01*
X23481Y32569D01*
X23693Y32527D01*
X23905Y32569D01*
X24085Y32689D01*
X24090Y32697D01*
X24792D01*
Y32428D01*
X26312D01*
Y33994D01*
X24792D01*
Y33725D01*
X24247D01*
Y34027D01*
X24207Y34226D01*
Y35135D01*
X24334Y35164D01*
X24607Y34892D01*
X24773Y34780D01*
X24970Y34741D01*
X25444D01*
Y34676D01*
X27478D01*
Y35808D01*
X27478Y35834D01*
X27540Y35935D01*
X27876D01*
X28072Y35974D01*
X28239Y36086D01*
X28532Y36379D01*
X28643Y36545D01*
X28682Y36742D01*
Y38772D01*
X28643Y38969D01*
X28532Y39136D01*
X28239Y39429D01*
X28072Y39540D01*
X27876Y39579D01*
X27478D01*
Y39644D01*
X26891D01*
Y40138D01*
X27081D01*
Y40893D01*
X27091Y40942D01*
Y40992D01*
X27081Y41042D01*
Y41446D01*
X26904D01*
Y41612D01*
X27081D01*
Y42920D01*
D02*
G37*
G36*
X75540Y49068D02*
X72517D01*
X72190Y49025D01*
X71885Y48898D01*
X71623Y48697D01*
X71623Y48697D01*
X64718Y41793D01*
X55855D01*
X55527Y41750D01*
X55222Y41623D01*
X54960Y41422D01*
X54759Y41160D01*
X54633Y40855D01*
X54590Y40528D01*
X54633Y40201D01*
X54759Y39896D01*
X54960Y39634D01*
X55222Y39433D01*
X55527Y39306D01*
X55855Y39263D01*
X65209D01*
X65276Y39150D01*
X64419Y38293D01*
X55855D01*
X55527Y38250D01*
X55222Y38123D01*
X54960Y37922D01*
X54759Y37660D01*
X54633Y37355D01*
X54590Y37028D01*
X54633Y36701D01*
X54759Y36396D01*
X54960Y36134D01*
X55222Y35933D01*
X55527Y35806D01*
X55855Y35763D01*
X64943D01*
X64943Y35763D01*
X65270Y35806D01*
X65575Y35933D01*
X65837Y36134D01*
X73843Y44140D01*
X74044Y44402D01*
X74171Y44707D01*
X74214Y45034D01*
X74171Y45362D01*
X74044Y45667D01*
X73843Y45929D01*
X73581Y46130D01*
X73276Y46256D01*
X72978Y46295D01*
X72914Y46411D01*
X73041Y46538D01*
X75540D01*
X75867Y46581D01*
X76172Y46707D01*
X76434Y46908D01*
X76635Y47170D01*
X76761Y47475D01*
X76804Y47803D01*
X76761Y48130D01*
X76635Y48435D01*
X76434Y48697D01*
X76172Y48898D01*
X75867Y49025D01*
X75540Y49068D01*
D02*
G37*
G36*
X75438Y34793D02*
X55855D01*
X55527Y34750D01*
X55366Y34683D01*
X55221Y34664D01*
X55050Y34593D01*
X54903Y34480D01*
X54790Y34333D01*
X54719Y34162D01*
X54700Y34016D01*
X54633Y33855D01*
X54590Y33528D01*
X54633Y33201D01*
X54700Y33040D01*
X54719Y32894D01*
X54790Y32723D01*
X54903Y32576D01*
X55050Y32463D01*
X55221Y32392D01*
X55366Y32373D01*
X55527Y32306D01*
X55855Y32263D01*
X75438D01*
X75765Y32306D01*
X76070Y32433D01*
X76332Y32634D01*
X76533Y32896D01*
X76660Y33201D01*
X76703Y33528D01*
X76660Y33855D01*
X76533Y34160D01*
X76332Y34422D01*
X76070Y34623D01*
X75765Y34750D01*
X75438Y34793D01*
D02*
G37*
G36*
X83767Y33217D02*
X83595D01*
X83429Y33172D01*
X83280Y33086D01*
X83158Y32964D01*
X83072Y32815D01*
X83027Y32649D01*
Y32477D01*
X83072Y32310D01*
X83158Y32161D01*
X83280Y32039D01*
X83429Y31953D01*
X83595Y31909D01*
X83767D01*
X83934Y31953D01*
X83968Y31973D01*
X84095Y31900D01*
Y31858D01*
X85503D01*
Y33166D01*
X84095D01*
X84095Y33166D01*
Y33166D01*
X83968Y33153D01*
X83934Y33172D01*
X83767Y33217D01*
D02*
G37*
G36*
X78558Y35799D02*
X77550D01*
Y35057D01*
X77540Y35008D01*
Y33736D01*
X77531Y33726D01*
X77445Y33577D01*
X77400Y33411D01*
Y33239D01*
X77445Y33072D01*
X77515Y32951D01*
Y31693D01*
X77525Y31643D01*
Y30901D01*
X78533D01*
Y31643D01*
X78543Y31693D01*
Y32888D01*
X78578Y32923D01*
X78664Y33072D01*
X78708Y33239D01*
Y33411D01*
X78664Y33577D01*
X78578Y33726D01*
X78568Y33736D01*
Y35008D01*
X78558Y35057D01*
Y35799D01*
D02*
G37*
G36*
X16300Y31152D02*
X15400D01*
X15216Y31128D01*
X15045Y31057D01*
X14898Y30944D01*
X14785Y30797D01*
X14714Y30626D01*
X14690Y30442D01*
Y30429D01*
X14322D01*
Y30732D01*
X13314D01*
Y29149D01*
X14322D01*
Y29503D01*
X14695D01*
X14714Y29358D01*
X14785Y29187D01*
X14898Y29040D01*
X15045Y28927D01*
X15216Y28856D01*
X15400Y28832D01*
X16300D01*
X16483Y28856D01*
X16655Y28927D01*
X16802Y29040D01*
X16915Y29187D01*
X16985Y29358D01*
X17010Y29542D01*
Y30442D01*
X16985Y30626D01*
X16915Y30797D01*
X16802Y30944D01*
X16655Y31057D01*
X16483Y31128D01*
X16300Y31152D01*
D02*
G37*
G36*
X80731Y33805D02*
X80559D01*
X80393Y33761D01*
X80243Y33675D01*
X80122Y33553D01*
X80036Y33404D01*
X79991Y33237D01*
Y33115D01*
X79980D01*
Y32341D01*
X79979Y32334D01*
Y31563D01*
X79935D01*
Y29370D01*
X80951D01*
Y28936D01*
X79659D01*
X79650Y28946D01*
X79500Y29032D01*
X79334Y29077D01*
X79162D01*
X78996Y29032D01*
X78929Y28994D01*
X78543D01*
Y29369D01*
X78533Y29418D01*
Y30160D01*
X77525D01*
Y29418D01*
X77515Y29369D01*
Y28773D01*
X77525Y28723D01*
Y28577D01*
X77554D01*
X77554Y28576D01*
X77665Y28410D01*
X77958Y28117D01*
X78125Y28005D01*
X78322Y27966D01*
X78780D01*
X78846Y27899D01*
X78996Y27813D01*
X79162Y27769D01*
X79334D01*
X79500Y27813D01*
X79650Y27899D01*
X79659Y27909D01*
X80951D01*
Y27314D01*
X82067D01*
Y29508D01*
X81051D01*
Y31563D01*
X81006D01*
Y31807D01*
X81388D01*
Y33115D01*
X81299D01*
Y33237D01*
X81254Y33404D01*
X81168Y33553D01*
X81047Y33675D01*
X80897Y33761D01*
X80731Y33805D01*
D02*
G37*
G36*
X73000Y31592D02*
X72672Y31549D01*
X72367Y31423D01*
X72259Y31340D01*
X55911D01*
X55583Y31297D01*
X55278Y31171D01*
X55016Y30970D01*
X54815Y30708D01*
X54689Y30403D01*
X54646Y30075D01*
X54689Y29748D01*
X54815Y29443D01*
X55016Y29181D01*
X55278Y28980D01*
X55583Y28853D01*
X55911Y28810D01*
X72747D01*
X72747Y28810D01*
X73075Y28853D01*
X73380Y28980D01*
X73642Y29181D01*
X73894Y29433D01*
X74095Y29695D01*
X74221Y30000D01*
X74264Y30328D01*
X74221Y30655D01*
X74095Y30960D01*
X73894Y31222D01*
X73632Y31423D01*
X73327Y31549D01*
X73000Y31592D01*
D02*
G37*
G36*
X20699Y32241D02*
X19179D01*
Y30674D01*
X19256D01*
X19329Y30547D01*
X19304Y30504D01*
X19260Y30337D01*
Y30165D01*
X19292Y30044D01*
X19219Y29917D01*
X19179D01*
Y28350D01*
X20699D01*
Y29917D01*
X20608D01*
X20535Y30044D01*
X20568Y30165D01*
Y30337D01*
X20523Y30504D01*
X20498Y30547D01*
X20571Y30674D01*
X20699D01*
Y32241D01*
D02*
G37*
G36*
X22574Y28087D02*
X21266D01*
Y27283D01*
X21256Y27233D01*
Y26534D01*
X21184D01*
Y26458D01*
X21057Y26385D01*
X21004Y26416D01*
X20838Y26460D01*
X20666D01*
X20499Y26416D01*
X20350Y26330D01*
X20228Y26208D01*
X20142Y26059D01*
X20098Y25892D01*
Y25720D01*
X20142Y25554D01*
X20228Y25405D01*
X20350Y25283D01*
X20499Y25197D01*
X20666Y25152D01*
X20838D01*
X21004Y25197D01*
X21057Y25228D01*
X21184Y25154D01*
Y24478D01*
X20168D01*
Y23882D01*
X19907D01*
Y24072D01*
X18599D01*
Y22664D01*
X19907D01*
Y22854D01*
X20168D01*
Y22285D01*
X21284D01*
Y24340D01*
X22200D01*
Y22285D01*
X23316D01*
Y22854D01*
X23501D01*
Y22664D01*
X24809D01*
Y24072D01*
X23501D01*
Y23882D01*
X23316D01*
Y24478D01*
X22300D01*
Y26534D01*
X22284D01*
Y26679D01*
X22574D01*
Y28087D01*
D02*
G37*
G36*
X24200Y28062D02*
X22892D01*
Y26654D01*
X23032D01*
Y26049D01*
X23071Y25852D01*
X23182Y25685D01*
X23475Y25392D01*
X23642Y25281D01*
X23839Y25242D01*
X24275D01*
X24285Y25232D01*
X24434Y25146D01*
X24600Y25102D01*
X24772D01*
X24939Y25146D01*
X25088Y25232D01*
X25209Y25354D01*
X25296Y25503D01*
X25340Y25670D01*
Y25842D01*
X25296Y26008D01*
X25209Y26157D01*
X25088Y26279D01*
X24939Y26365D01*
X24772Y26410D01*
X24600D01*
X24434Y26365D01*
X24285Y26279D01*
X24275Y26269D01*
X24060D01*
Y26654D01*
X24200D01*
Y28062D01*
D02*
G37*
G36*
X82016Y25213D02*
X80900D01*
Y24796D01*
X79557D01*
X79548Y24806D01*
X79399Y24892D01*
X79232Y24936D01*
X79060D01*
X78894Y24892D01*
X78745Y24806D01*
X78678Y24739D01*
X78322D01*
X78125Y24700D01*
X77958Y24588D01*
X77665Y24295D01*
X77554Y24129D01*
X77515Y23932D01*
Y23006D01*
X77525Y22956D01*
Y22215D01*
X78533D01*
Y22956D01*
X78543Y23006D01*
Y23711D01*
X78828D01*
X78894Y23673D01*
X79060Y23628D01*
X79232D01*
X79399Y23673D01*
X79548Y23759D01*
X79557Y23769D01*
X80900D01*
Y23020D01*
X81916D01*
Y22095D01*
X81909Y22061D01*
Y20618D01*
X81567D01*
Y19310D01*
X82183D01*
X82245Y19298D01*
X82308Y19310D01*
X82975D01*
Y19425D01*
X84056D01*
Y19336D01*
X85464D01*
Y20644D01*
X84056D01*
Y20555D01*
X83039D01*
Y22061D01*
X83032Y22095D01*
Y23158D01*
X82016D01*
Y25213D01*
D02*
G37*
G36*
X14322Y28408D02*
X13314D01*
Y27710D01*
X13304Y27661D01*
Y27024D01*
X13297Y27017D01*
X13211Y26868D01*
X13166Y26702D01*
Y26529D01*
X13211Y26363D01*
X13297Y26214D01*
X13304Y26207D01*
Y25343D01*
X13314Y25293D01*
Y24551D01*
X14322D01*
Y25293D01*
X14331Y25343D01*
Y26202D01*
X14343Y26214D01*
X14429Y26363D01*
X14474Y26529D01*
Y26702D01*
X14429Y26868D01*
X14343Y27017D01*
X14331Y27029D01*
Y27661D01*
X14322Y27710D01*
Y28408D01*
D02*
G37*
G36*
X69142Y27782D02*
X69142Y27782D01*
X55853D01*
X55526Y27739D01*
X55221Y27613D01*
X54959Y27412D01*
X54758Y27150D01*
X54631Y26845D01*
X54588Y26518D01*
X54631Y26190D01*
X54758Y25885D01*
X54959Y25623D01*
X55221Y25422D01*
X55526Y25296D01*
X55853Y25253D01*
X68618D01*
X69589Y24282D01*
X69517Y24174D01*
X69359Y24239D01*
X69032Y24282D01*
X69032Y24282D01*
X55853D01*
X55526Y24239D01*
X55365Y24173D01*
X55219Y24153D01*
X55048Y24083D01*
X54901Y23970D01*
X54788Y23823D01*
X54717Y23651D01*
X54698Y23506D01*
X54631Y23345D01*
X54588Y23018D01*
X54631Y22690D01*
X54698Y22529D01*
X54717Y22384D01*
X54788Y22213D01*
X54901Y22066D01*
X55048Y21953D01*
X55219Y21882D01*
X55365Y21863D01*
X55526Y21796D01*
X55853Y21753D01*
X68508D01*
X70667Y19593D01*
X70623Y19466D01*
X70029D01*
X69442Y20054D01*
X69275Y20165D01*
X69079Y20204D01*
X68917D01*
X68614Y20507D01*
X68595Y20649D01*
X68519Y20832D01*
X68399Y20990D01*
X68241Y21111D01*
X68058Y21187D01*
X67861Y21213D01*
X64008D01*
X63811Y21187D01*
X63627Y21111D01*
X63470Y20990D01*
X62803Y20323D01*
X61118D01*
X60921Y20297D01*
X60814Y20253D01*
X60738Y20221D01*
X60580Y20100D01*
X60543Y20063D01*
X60464Y19960D01*
X60289D01*
Y18952D01*
X60517D01*
X60543Y18919D01*
X60700Y18798D01*
X60884Y18722D01*
X61081Y18696D01*
X61277Y18722D01*
X61461Y18798D01*
X61466Y18802D01*
X63118D01*
X63275Y18823D01*
X63372Y18762D01*
X63402Y18727D01*
Y18253D01*
X63646D01*
X63662Y18233D01*
X63819Y18112D01*
X64002Y18036D01*
X64199Y18010D01*
X65310D01*
Y17912D01*
X65636D01*
X65767Y17858D01*
X65964Y17832D01*
X66841D01*
X66981Y17692D01*
Y16065D01*
X66839Y15922D01*
X66716Y15912D01*
Y15912D01*
X65975D01*
X65967Y16039D01*
X66026Y16047D01*
X66209Y16123D01*
X66326Y16212D01*
X66618D01*
Y16530D01*
X66622Y16536D01*
X66698Y16720D01*
X66724Y16916D01*
X66698Y17113D01*
X66622Y17297D01*
X66618Y17303D01*
Y17620D01*
X66234D01*
X66161Y17651D01*
X65964Y17677D01*
X65767Y17651D01*
X65693Y17620D01*
X65310D01*
Y17542D01*
X64242D01*
X64045Y17516D01*
X63862Y17440D01*
X63704Y17319D01*
X63656Y17257D01*
X63402D01*
Y16221D01*
X63439D01*
Y13982D01*
X63465Y13785D01*
X63541Y13602D01*
X63662Y13444D01*
X63705Y13401D01*
Y12919D01*
X63648D01*
Y10855D01*
X63971D01*
Y10085D01*
X63997Y9888D01*
X64041Y9782D01*
X64035Y9760D01*
Y9493D01*
X64104Y9235D01*
X64238Y9004D01*
X64427Y8815D01*
X64658Y8682D01*
X64916Y8613D01*
X65183D01*
X65441Y8682D01*
X65672Y8815D01*
X65861Y9004D01*
X65994Y9235D01*
X66063Y9493D01*
Y9760D01*
X65994Y10018D01*
X65861Y10249D01*
X65672Y10438D01*
X65492Y10542D01*
Y10855D01*
X65661D01*
Y12919D01*
X65226D01*
Y13704D01*
X66716D01*
Y14364D01*
X67117D01*
X67314Y14390D01*
X67497Y14466D01*
X67655Y14587D01*
X68280Y15212D01*
X68400Y15369D01*
X68476Y15553D01*
X68502Y15750D01*
Y18007D01*
X68476Y18204D01*
X68432Y18311D01*
X68400Y18387D01*
X68280Y18545D01*
X67694Y19131D01*
X67536Y19251D01*
X67353Y19327D01*
X67156Y19353D01*
X66289D01*
X66190Y19429D01*
X66006Y19505D01*
X65810Y19531D01*
X64458D01*
X64390Y19658D01*
X64413Y19692D01*
X67861D01*
X67962Y19705D01*
X68341Y19327D01*
X68507Y19216D01*
X68704Y19176D01*
X68866D01*
X69453Y18589D01*
X69620Y18478D01*
X69816Y18439D01*
X74467D01*
X74515Y18429D01*
X76972D01*
X77040Y18390D01*
X77206Y18345D01*
X77378D01*
X77414Y18355D01*
X77515Y18278D01*
Y17501D01*
X77525Y17451D01*
Y16753D01*
X78533D01*
Y17451D01*
X78543Y17501D01*
Y19152D01*
Y20682D01*
X78533Y20732D01*
Y21473D01*
X77525D01*
Y20732D01*
X77515Y20682D01*
Y19721D01*
X77414Y19644D01*
X77378Y19653D01*
X77206D01*
X77040Y19609D01*
X76891Y19523D01*
X76825Y19457D01*
X76528D01*
X76483Y19584D01*
X76660Y19815D01*
X76787Y20120D01*
X76830Y20447D01*
X76787Y20774D01*
X76660Y21079D01*
X76459Y21341D01*
X76450Y21351D01*
X76188Y21552D01*
X75883Y21678D01*
X75555Y21721D01*
X75555Y21721D01*
X73914D01*
X73868Y21848D01*
X74044Y22078D01*
X74171Y22383D01*
X74214Y22711D01*
X74171Y23038D01*
X74044Y23343D01*
X73843Y23605D01*
X70036Y27412D01*
X69774Y27613D01*
X69469Y27739D01*
X69142Y27782D01*
D02*
G37*
G36*
X16002Y24146D02*
X15698D01*
X15404Y24068D01*
X15141Y23916D01*
X14926Y23701D01*
X14792Y23468D01*
X14322D01*
Y23810D01*
X13314D01*
Y22227D01*
X14322D01*
Y22543D01*
X14777D01*
X14926Y22284D01*
X15141Y22069D01*
X15404Y21917D01*
X15698Y21838D01*
X16002D01*
X16295Y21917D01*
X16558Y22069D01*
X16773Y22284D01*
X16925Y22547D01*
X17004Y22840D01*
Y23144D01*
X16925Y23438D01*
X16773Y23701D01*
X16558Y23916D01*
X16295Y24068D01*
X16002Y24146D01*
D02*
G37*
G36*
X83627Y18942D02*
X83454D01*
X83288Y18897D01*
X83139Y18811D01*
X83017Y18690D01*
X82931Y18540D01*
X82887Y18374D01*
Y18202D01*
X82931Y18036D01*
X83017Y17886D01*
X83139Y17765D01*
X83288Y17679D01*
X83454Y17634D01*
X83627D01*
X83793Y17679D01*
X83929Y17757D01*
X84056Y17724D01*
Y17609D01*
X85464D01*
Y18917D01*
X84056D01*
Y18875D01*
X83985Y18835D01*
X83929Y18819D01*
X83793Y18897D01*
X83627Y18942D01*
D02*
G37*
G36*
X29058Y17583D02*
X28868Y17545D01*
X28178D01*
Y17425D01*
X25463D01*
X25264Y17465D01*
X24453D01*
X24335Y17544D01*
X24139Y17583D01*
X21255D01*
X21058Y17544D01*
X21045Y17535D01*
X20962D01*
X20912Y17525D01*
X18158D01*
Y15017D01*
X21466D01*
Y16555D01*
X21952D01*
Y15245D01*
X23260D01*
Y15282D01*
X23387Y15353D01*
X23513Y15319D01*
X23685D01*
X23774Y15251D01*
Y14468D01*
X24581D01*
Y10685D01*
X24473Y10622D01*
X24277Y10426D01*
X24138Y10186D01*
X24067Y9918D01*
Y9640D01*
X24138Y9372D01*
X24277Y9132D01*
X24473Y8936D01*
X24714Y8797D01*
X24982Y8725D01*
X25259D01*
X25527Y8797D01*
X25768Y8936D01*
X25964Y9132D01*
X26103Y9372D01*
X26175Y9640D01*
Y9918D01*
X26103Y10186D01*
X25964Y10426D01*
X25768Y10622D01*
X25609Y10714D01*
Y14468D01*
X25807D01*
Y15442D01*
X25968D01*
X26138Y15408D01*
X27084D01*
X27296Y15450D01*
X27475Y15570D01*
X27595Y15750D01*
X27638Y15961D01*
X27595Y16173D01*
X27530Y16271D01*
X27598Y16398D01*
X28178D01*
Y16237D01*
X29586D01*
Y17545D01*
X29247D01*
X29058Y17583D01*
D02*
G37*
G36*
X58719Y20179D02*
X58285D01*
X58088Y20153D01*
X57981Y20109D01*
X57905Y20078D01*
X57747Y19957D01*
X57691Y19900D01*
X54102D01*
X53905Y19874D01*
X53892Y19869D01*
X53173D01*
Y18411D01*
X53892D01*
X53905Y18405D01*
X54102Y18379D01*
X55653D01*
Y17796D01*
X55432D01*
Y15783D01*
X57496D01*
Y16036D01*
X58011D01*
Y15550D01*
X61319D01*
Y16994D01*
X62343D01*
X62540Y17020D01*
X62724Y17096D01*
X62881Y17217D01*
X62896Y17237D01*
X63140D01*
Y18273D01*
X62896D01*
X62881Y18292D01*
X62724Y18413D01*
X62540Y18489D01*
X62343Y18515D01*
X59944D01*
X59747Y18489D01*
X59564Y18413D01*
X59406Y18292D01*
X59279Y18165D01*
X59197Y18058D01*
X58011D01*
Y17557D01*
X57496D01*
Y17796D01*
X57174D01*
Y18379D01*
X58006D01*
X58203Y18405D01*
X58386Y18481D01*
X58544Y18602D01*
X58600Y18658D01*
X58719D01*
X58916Y18684D01*
X59099Y18760D01*
X59257Y18881D01*
X59312Y18952D01*
X59548D01*
Y19960D01*
X59252D01*
X59099Y20078D01*
X58916Y20153D01*
X58719Y20179D01*
D02*
G37*
G36*
X79895Y18938D02*
X79723D01*
X79557Y18894D01*
X79408Y18808D01*
X79286Y18686D01*
X79200Y18537D01*
X79155Y18371D01*
Y18198D01*
X79200Y18032D01*
X79286Y17883D01*
X79408Y17761D01*
X79557Y17675D01*
X79723Y17630D01*
X79867D01*
Y17583D01*
X79902D01*
Y16141D01*
X79909Y16106D01*
Y15044D01*
X80925D01*
Y14712D01*
X79608D01*
X79599Y14722D01*
X79450Y14808D01*
X79283Y14853D01*
X79111D01*
X78945Y14808D01*
X78879Y14770D01*
X78543D01*
Y15221D01*
X78533Y15271D01*
Y16013D01*
X77525D01*
Y15271D01*
X77515Y15221D01*
Y14549D01*
X77525Y14499D01*
Y14429D01*
X77539D01*
X77554Y14352D01*
X77665Y14186D01*
X77958Y13893D01*
X78125Y13781D01*
X78322Y13742D01*
X78729D01*
X78796Y13675D01*
X78945Y13589D01*
X79111Y13545D01*
X79283D01*
X79450Y13589D01*
X79599Y13675D01*
X79608Y13685D01*
X80925D01*
Y12988D01*
X82041D01*
Y15182D01*
X81025D01*
Y16106D01*
X81032Y16141D01*
Y17583D01*
X81275D01*
Y18891D01*
X80066D01*
X80062Y18894D01*
X79895Y18938D01*
D02*
G37*
G36*
X45457Y17545D02*
X44049D01*
Y16237D01*
X44188D01*
Y13666D01*
X43101Y12579D01*
X36708D01*
X35807Y13480D01*
X35624Y13603D01*
X35408Y13646D01*
X35408Y13646D01*
X33437D01*
X33398Y13716D01*
X33437Y13786D01*
X33913D01*
X33913Y13786D01*
X34129Y13829D01*
X34313Y13952D01*
X34664Y14303D01*
X34664Y14303D01*
X34786Y14486D01*
X34829Y14702D01*
X34829Y14702D01*
Y15270D01*
X34829Y15270D01*
X34786Y15486D01*
X34664Y15669D01*
X34664Y15669D01*
X34313Y16020D01*
X34129Y16143D01*
X33913Y16186D01*
X33913Y16186D01*
X33288D01*
X33286Y16312D01*
X33286Y16327D01*
Y17470D01*
X31286D01*
Y17545D01*
X29878D01*
Y16237D01*
X31141D01*
X31253Y16200D01*
X31253Y16149D01*
Y15042D01*
X31253D01*
Y14930D01*
X31253D01*
Y13787D01*
X31253Y13772D01*
Y13660D01*
X31253Y13645D01*
Y12502D01*
X33286D01*
Y12516D01*
X35174D01*
X36075Y11615D01*
X36075Y11615D01*
X36258Y11492D01*
X36474Y11449D01*
X36474Y11449D01*
X43335D01*
X43335Y11449D01*
X43551Y11492D01*
X43734Y11615D01*
X45152Y13033D01*
X45152Y13033D01*
X45275Y13216D01*
X45318Y13432D01*
Y16237D01*
X45457D01*
Y17545D01*
D02*
G37*
G36*
X23260Y14953D02*
X21952D01*
Y13545D01*
Y12199D01*
X23260D01*
Y13396D01*
X23288Y13499D01*
Y13672D01*
X23260Y13775D01*
Y14953D01*
D02*
G37*
G36*
X40499Y10833D02*
X40222D01*
X39954Y10761D01*
X39713Y10622D01*
X39517Y10426D01*
X39378Y10186D01*
X39307Y9918D01*
Y9640D01*
X39378Y9372D01*
X39517Y9132D01*
X39713Y8936D01*
X39954Y8797D01*
X40222Y8725D01*
X40499D01*
X40767Y8797D01*
X41008Y8936D01*
X41204Y9132D01*
X41343Y9372D01*
X41415Y9640D01*
Y9918D01*
X41343Y10186D01*
X41204Y10426D01*
X41008Y10622D01*
X40767Y10761D01*
X40499Y10833D01*
D02*
G37*
G36*
X37959D02*
X37682D01*
X37414Y10761D01*
X37173Y10622D01*
X36977Y10426D01*
X36838Y10186D01*
X36767Y9918D01*
Y9640D01*
X36838Y9372D01*
X36977Y9132D01*
X37173Y8936D01*
X37414Y8797D01*
X37682Y8725D01*
X37959D01*
X38227Y8797D01*
X38468Y8936D01*
X38664Y9132D01*
X38803Y9372D01*
X38875Y9640D01*
Y9918D01*
X38803Y10186D01*
X38664Y10426D01*
X38468Y10622D01*
X38227Y10761D01*
X37959Y10833D01*
D02*
G37*
G36*
X35419D02*
X35142D01*
X34874Y10761D01*
X34633Y10622D01*
X34437Y10426D01*
X34298Y10186D01*
X34227Y9918D01*
Y9640D01*
X34298Y9372D01*
X34437Y9132D01*
X34633Y8936D01*
X34874Y8797D01*
X35142Y8725D01*
X35419D01*
X35687Y8797D01*
X35928Y8936D01*
X36124Y9132D01*
X36263Y9372D01*
X36335Y9640D01*
Y9918D01*
X36263Y10186D01*
X36124Y10426D01*
X35928Y10622D01*
X35687Y10761D01*
X35419Y10833D01*
D02*
G37*
G36*
X32879D02*
X32602D01*
X32334Y10761D01*
X32093Y10622D01*
X31897Y10426D01*
X31758Y10186D01*
X31687Y9918D01*
Y9640D01*
X31758Y9372D01*
X31897Y9132D01*
X32093Y8936D01*
X32334Y8797D01*
X32602Y8725D01*
X32879D01*
X33147Y8797D01*
X33388Y8936D01*
X33584Y9132D01*
X33723Y9372D01*
X33795Y9640D01*
Y9918D01*
X33723Y10186D01*
X33584Y10426D01*
X33388Y10622D01*
X33147Y10761D01*
X32879Y10833D01*
D02*
G37*
G36*
X30339D02*
X30062D01*
X29794Y10761D01*
X29553Y10622D01*
X29357Y10426D01*
X29218Y10186D01*
X29147Y9918D01*
Y9640D01*
X29218Y9372D01*
X29357Y9132D01*
X29553Y8936D01*
X29794Y8797D01*
X30062Y8725D01*
X30339D01*
X30607Y8797D01*
X30848Y8936D01*
X31044Y9132D01*
X31183Y9372D01*
X31255Y9640D01*
Y9918D01*
X31183Y10186D01*
X31044Y10426D01*
X30848Y10622D01*
X30607Y10761D01*
X30339Y10833D01*
D02*
G37*
G36*
X27799D02*
X27522D01*
X27254Y10761D01*
X27013Y10622D01*
X26817Y10426D01*
X26678Y10186D01*
X26607Y9918D01*
Y9640D01*
X26678Y9372D01*
X26817Y9132D01*
X27013Y8936D01*
X27254Y8797D01*
X27522Y8725D01*
X27799D01*
X28067Y8797D01*
X28308Y8936D01*
X28504Y9132D01*
X28643Y9372D01*
X28715Y9640D01*
Y9918D01*
X28643Y10186D01*
X28504Y10426D01*
X28308Y10622D01*
X28067Y10761D01*
X27799Y10833D01*
D02*
G37*
%LPD*%
G36*
X31777Y32826D02*
X31943Y32781D01*
X32101D01*
X32430Y32452D01*
Y29479D01*
X32303Y29463D01*
X32274Y29574D01*
X32187Y29723D01*
X32066Y29845D01*
X31917Y29931D01*
X31750Y29975D01*
X31707D01*
X31637Y30046D01*
Y32780D01*
X31747Y32843D01*
X31777Y32826D01*
D02*
G37*
G36*
X38232Y28328D02*
Y27714D01*
X38106Y27712D01*
X38067Y27908D01*
X37955Y28075D01*
X35323Y30708D01*
Y30721D01*
X35278Y30888D01*
X35192Y31037D01*
X35070Y31158D01*
X34921Y31245D01*
X34755Y31289D01*
X34583D01*
X34416Y31245D01*
X34267Y31158D01*
X34185Y31076D01*
X34058Y31129D01*
Y31847D01*
X34170Y31958D01*
X34256Y32107D01*
X34264Y32140D01*
X34387Y32173D01*
X38232Y28328D01*
D02*
G37*
D11*
X28882Y16891D02*
D03*
X30582D02*
D03*
X44753D02*
D03*
X43053D02*
D03*
X41668D02*
D03*
X39968D02*
D03*
X45745Y23038D02*
D03*
X44045D02*
D03*
X45745Y40589D02*
D03*
X44045D02*
D03*
X45745Y30074D02*
D03*
X44045D02*
D03*
X45745Y33553D02*
D03*
X44045D02*
D03*
X21426Y42266D02*
D03*
X23126D02*
D03*
X24677D02*
D03*
X26377D02*
D03*
Y40792D02*
D03*
X24677D02*
D03*
X82333Y46533D02*
D03*
X80633D02*
D03*
X86499Y32512D02*
D03*
X84799D02*
D03*
X80608Y48311D02*
D03*
X82308D02*
D03*
X84900Y48362D02*
D03*
X86600D02*
D03*
X86550Y46482D02*
D03*
X84850D02*
D03*
X84799Y34392D02*
D03*
X86499D02*
D03*
X82384Y32461D02*
D03*
X80684D02*
D03*
X80709Y34315D02*
D03*
X82409D02*
D03*
X80571Y19964D02*
D03*
X82271D02*
D03*
X84760Y19990D02*
D03*
X86460D02*
D03*
Y18263D02*
D03*
X84760D02*
D03*
X82271Y18237D02*
D03*
X80571D02*
D03*
D17*
X64008Y20452D02*
X67861D01*
X61081Y19456D02*
Y19525D01*
X61118Y19563D01*
X63118D01*
X64008Y20452D01*
X25629Y53701D02*
X40886D01*
X38379Y50167D02*
Y52172D01*
X22428Y49058D02*
X22928Y49558D01*
X23891D01*
X23914Y49581D01*
X37794D01*
X38379Y50167D01*
X43993Y40564D02*
Y50519D01*
X41605Y37084D02*
Y38463D01*
Y35679D02*
Y37084D01*
X41587Y29539D02*
X42173Y30124D01*
X43995D01*
X44045Y30074D01*
X41587Y27965D02*
Y29539D01*
X47525Y26441D02*
X49301D01*
X22408Y53701D02*
X25629D01*
X49352Y36107D02*
Y37084D01*
Y36043D02*
Y36107D01*
X47447Y37084D02*
X49352D01*
X41587Y35662D02*
X41605Y35679D01*
X41587Y38481D02*
X41605Y38463D01*
X48449Y40465D02*
X49341Y39573D01*
X49378D01*
X45872Y28551D02*
Y30074D01*
X47031Y22643D02*
X47423Y23035D01*
Y23043D01*
X45745Y23038D02*
X47023D01*
X47422Y33553D02*
X47473Y33604D01*
X45745Y33553D02*
X47422D01*
X40938Y52165D02*
X40945Y52158D01*
X38379Y52172D02*
X38386Y52165D01*
X40938D01*
X25629Y52197D02*
Y53701D01*
Y52197D02*
X25654Y52172D01*
X22352Y53645D02*
X22408Y53701D01*
X42354Y53607D02*
X43130Y52832D01*
X43205D01*
X41173Y53607D02*
X42354D01*
X41072Y53709D02*
X41173Y53607D01*
X43281Y51230D02*
X43993Y50519D01*
X43205Y51230D02*
X43281D01*
X43112Y51324D02*
X43205Y51230D01*
X41797Y51324D02*
X43112D01*
X41173Y51949D02*
X41797Y51324D01*
X41021Y52158D02*
X41173Y52006D01*
Y51949D02*
Y52006D01*
X41587Y38481D02*
Y39978D01*
X42173Y40564D02*
X43993D01*
X44045Y30074D02*
Y33553D01*
X42173D02*
X44045D01*
X41587Y25146D02*
Y27965D01*
Y23624D02*
Y25146D01*
Y23624D02*
X42173Y23038D01*
X44045D01*
X41587Y34139D02*
Y35662D01*
Y39978D02*
X42173Y40564D01*
X41587Y34139D02*
X42173Y33553D01*
X45312Y35662D02*
X45898Y35076D01*
X45237Y35662D02*
X45312D01*
X45898Y33579D02*
Y35076D01*
X45403Y38481D02*
X45989Y39067D01*
X45237Y38481D02*
X45403D01*
X45989Y39067D02*
Y40345D01*
X45745Y40589D02*
X45989Y40345D01*
X45287Y27965D02*
X45872Y28551D01*
X45237Y27965D02*
X45287D01*
X45923Y23216D02*
Y24495D01*
X45273Y25146D02*
X45923Y24495D01*
X45237Y25146D02*
X45273D01*
X45872Y30074D02*
X47295D01*
X45822Y40589D02*
X47346D01*
X47422Y33604D02*
X47495Y33677D01*
X47444Y23111D02*
X48360D01*
X47422Y23089D02*
X47444Y23111D01*
X47295Y30074D02*
X47320Y30099D01*
X47422Y40559D02*
X47515Y40465D01*
X48449D01*
Y33677D02*
X49276Y34505D01*
X49352D01*
X47495Y33677D02*
X48449D01*
X48360Y23111D02*
X49226Y23976D01*
X49301D01*
X47517Y29950D02*
X48245D01*
X49264Y28931D01*
X49276D01*
X47423Y30043D02*
X47517Y29950D01*
X47423Y26543D02*
X47525Y26441D01*
X49301D02*
Y27266D01*
Y25578D02*
Y26441D01*
X49352Y37084D02*
Y37960D01*
X67742Y15750D02*
Y18007D01*
X65964Y18593D02*
X67156D01*
X67742Y18007D01*
X67117Y15125D02*
X67742Y15750D01*
X65962Y15125D02*
X67117D01*
X65962Y14808D02*
Y15125D01*
X65810Y18771D02*
X65964Y18616D01*
X64199Y18771D02*
X65810D01*
X64732Y10085D02*
X65049Y9767D01*
X64655Y11887D02*
X64732Y11810D01*
X65049Y9627D02*
Y9767D01*
X64732Y10085D02*
Y11810D01*
X62509Y9627D02*
X62691Y9808D01*
Y11725D02*
X62853Y11887D01*
X62691Y9808D02*
Y11725D01*
X59665Y12304D02*
X60082Y11887D01*
X62853D01*
X62662Y12165D02*
Y14808D01*
X64199Y13982D02*
Y16503D01*
Y13982D02*
X64465Y13716D01*
Y12165D02*
X64717D01*
X64465D02*
Y13716D01*
X56413Y19140D02*
X58006D01*
X56413D02*
X56413Y19140D01*
Y16797D02*
Y19140D01*
X54102Y19140D02*
X56413D01*
X58006D02*
X58285Y19419D01*
X58719D01*
X56413Y16797D02*
X59657D01*
X57050Y12319D02*
X59665D01*
X56234Y15140D02*
X56464Y14910D01*
Y14988D01*
Y12905D02*
Y14910D01*
Y12905D02*
X57050Y12319D01*
X54863Y15140D02*
X56234D01*
X54277Y15725D02*
X54863Y15140D01*
X54277Y15725D02*
Y17615D01*
X54153D02*
X54277D01*
X54128Y17640D02*
X54153Y17615D01*
X54102Y17640D02*
X54128D01*
X59657Y16797D02*
X59665Y16804D01*
X59817Y17628D02*
X59944Y17755D01*
X62343D01*
X64242Y16781D02*
X65829D01*
X65964Y16916D01*
D18*
X77942Y19152D02*
X78029D01*
X74515Y18943D02*
X77236D01*
X77350Y19057D01*
X77847D02*
X77942Y19152D01*
X77350Y19057D02*
X77847D01*
X74505Y18953D02*
X74515Y18943D01*
X69816Y18953D02*
X74505D01*
X69079Y19690D02*
X69816Y18953D01*
X67942Y20452D02*
X68704Y19690D01*
X69079D01*
X67861Y20452D02*
X67942D01*
X80493Y32334D02*
X80645Y32487D01*
X78029Y33299D02*
X78054Y33325D01*
X78029Y31693D02*
Y33299D01*
X78054Y33325D02*
Y35008D01*
Y45872D02*
Y47549D01*
Y49155D01*
X29127Y30486D02*
X29947Y29667D01*
X25552Y29134D02*
Y30486D01*
Y29134D02*
Y29157D01*
X39980Y19406D02*
Y30632D01*
Y19406D02*
X41637Y17748D01*
X24790Y15011D02*
X25056D01*
X25095Y9931D02*
Y14972D01*
X25056Y15011D02*
X25095Y14972D01*
X41637Y16922D02*
X41668Y16891D01*
X41637Y16922D02*
Y17748D01*
X37541Y16891D02*
X39968D01*
X37541Y16891D02*
Y25781D01*
Y16891D02*
X37541Y16891D01*
X21688Y25806D02*
X21742Y25752D01*
Y25437D02*
Y25752D01*
X20752Y25806D02*
X21688D01*
X23546Y26049D02*
X23839Y25756D01*
X23546Y26049D02*
Y27358D01*
X23839Y25756D02*
X24686D01*
X17207Y40528D02*
X19079Y38656D01*
Y38118D02*
Y38656D01*
Y38118D02*
X19229Y37968D01*
X19279D01*
X26949Y19273D02*
X27241Y19566D01*
Y24899D01*
X26923Y19273D02*
X26949D01*
X25727Y27162D02*
X25749Y27184D01*
X25727Y25759D02*
X25785Y25701D01*
X25727Y25759D02*
Y27162D01*
X26345Y18694D02*
X26923Y19273D01*
X26264Y18694D02*
X26345D01*
X22661Y15955D02*
X26605D01*
X25552Y27380D02*
X25749Y27184D01*
X21933Y29070D02*
X23559D01*
X22606Y12903D02*
Y14249D01*
Y14300D01*
X37592Y25832D02*
Y27712D01*
X34669Y30635D02*
X37592Y27712D01*
X37541Y25781D02*
X37592Y25832D01*
X25552Y30486D02*
X29127D01*
X25552Y29210D02*
Y30486D01*
X30582Y16891D02*
X32270D01*
X25552Y30486D02*
Y31457D01*
X24790Y16911D02*
X28900D01*
X29058Y17069D01*
X19914Y30251D02*
X19939Y30226D01*
X19926Y29146D02*
Y30213D01*
X19939Y30226D02*
Y31457D01*
X19926Y29146D02*
X19939Y29134D01*
X19926Y30213D02*
X19939Y30226D01*
X22738Y29114D02*
Y31728D01*
X22743Y31733D01*
X22733Y29108D02*
X22738Y29114D01*
X21920Y29083D02*
X21933Y29070D01*
X22110Y10249D02*
X22581Y9779D01*
X22555Y10008D02*
X22606Y10058D01*
Y11203D01*
X19812Y11771D02*
X20212D01*
X20962Y11021D01*
Y10890D02*
Y11021D01*
Y10890D02*
X21602Y10249D01*
X22110D01*
X20045Y16104D02*
X20962Y17021D01*
X24139Y17069D02*
X24296Y16911D01*
X21207Y17021D02*
X21255Y17069D01*
X20962Y17021D02*
X21207D01*
X21255Y17069D02*
X24139D01*
X24296Y16911D02*
X24790D01*
X22606Y15900D02*
X22661Y15955D01*
X26605D02*
X26611Y15961D01*
X14111Y37013D02*
X17274D01*
X47396Y39471D02*
Y40564D01*
X47422Y23041D02*
Y23089D01*
X47320Y30074D02*
X47396Y29997D01*
X47422Y33604D02*
Y34671D01*
Y23089D02*
Y24105D01*
X47371Y40589D02*
X47396Y40564D01*
Y28956D02*
Y29997D01*
X17348Y13157D02*
Y26492D01*
X19226Y21641D02*
X19253Y21668D01*
X17374Y21641D02*
X19226D01*
X17348Y26492D02*
X17348Y26492D01*
X15850Y26492D02*
X17348D01*
X17348D02*
X19051D01*
X19683Y27101D02*
X19939Y27357D01*
X19660Y27101D02*
X19683D01*
X19051Y26492D02*
X19660Y27101D01*
X19939Y27357D02*
Y27380D01*
X24130Y23368D02*
X24206Y23444D01*
X22772Y23368D02*
X24130D01*
X22758Y23382D02*
X22772Y23368D01*
X20713D02*
X20726Y23382D01*
X19355Y23368D02*
X20713D01*
X21770Y26099D02*
Y27233D01*
X21920Y27383D01*
X20002Y33274D02*
X21844D01*
X19939Y33211D02*
X20002Y33274D01*
X23622Y33553D02*
X23964Y33211D01*
X23693Y33553D02*
Y38137D01*
X23964Y33211D02*
X25552D01*
X16038Y40528D02*
X17207D01*
X15977Y40589D02*
X16038Y40528D01*
X19279Y37968D02*
X19429Y37818D01*
X19079Y35385D02*
Y35918D01*
X19229Y36068D02*
X19329D01*
X19079Y35918D02*
X19229Y36068D01*
X15855Y33508D02*
X17201D01*
X19079Y35385D01*
X22657Y38088D02*
Y38772D01*
X23400Y38430D02*
X23693Y38137D01*
X22708Y38430D02*
X23400D01*
X21754Y33592D02*
Y34975D01*
X21475Y35255D02*
X21754Y34975D01*
X21475Y35255D02*
X22364D01*
X21037D02*
X21475D01*
X17348Y13157D02*
X19079Y11427D01*
X13818Y25343D02*
Y27616D01*
Y37306D02*
X14111Y37013D01*
X13818Y44323D02*
X14121Y44626D01*
X13818Y37306D02*
Y44323D01*
X14121Y44626D02*
X16514D01*
X16588Y44552D01*
X16636Y44678D02*
X18478D01*
X16588Y44552D02*
X16662Y44626D01*
X24652Y42279D02*
Y43663D01*
X24638Y42266D02*
X24652Y42279D01*
X24627Y43688D02*
X24652Y43663D01*
X20599Y43739D02*
X20638Y43701D01*
X23214D02*
X23227Y43688D01*
X20638Y43701D02*
X23214D01*
X18567Y42647D02*
X19120D01*
X19501Y42266D02*
X21426D01*
X19120Y42647D02*
X19501Y42266D01*
X16891Y42697D02*
X18530D01*
X16662Y42876D02*
Y42926D01*
Y42876D02*
X16812Y42726D01*
X16862D01*
X16891Y42697D01*
X18478Y44678D02*
X18530Y44729D01*
X26416Y36450D02*
X27265D01*
X26377Y39053D02*
Y40792D01*
X26391Y40806D02*
Y42240D01*
X26427Y40792D02*
X26577Y40942D01*
X26391Y40806D02*
X26577Y40992D01*
X26377Y40792D02*
X26427D01*
X26577Y40942D02*
Y40992D01*
X28169Y36742D02*
Y38772D01*
X27876Y36449D02*
X28169Y36742D01*
X27266Y36449D02*
X27876D01*
Y39065D02*
X28169Y38772D01*
X26461Y39065D02*
X27876D01*
X24677Y35548D02*
X24970Y35255D01*
X24677Y35548D02*
Y37656D01*
X24970Y35255D02*
X26461D01*
X24677Y37668D02*
X24753Y37744D01*
X24677Y37668D02*
Y40792D01*
X24753Y37744D02*
X26441D01*
X27265Y36450D02*
X27266Y36449D01*
X19479Y36218D02*
Y36232D01*
X19771Y36525D02*
X22364D01*
X19479Y36232D02*
X19771Y36525D01*
X19329Y36068D02*
X19479Y36218D01*
X19771Y37795D02*
X22364D01*
X19429Y37818D02*
X19749D01*
X19771Y37795D01*
X22364Y35255D02*
X22657Y35548D01*
Y36232D01*
X22364Y36525D02*
X22657Y36232D01*
X22364Y37795D02*
X22657Y38088D01*
X21037Y39065D02*
X22364D01*
X22657Y38772D01*
X17274Y37013D02*
X17279Y37018D01*
X13818Y27616D02*
Y27661D01*
X86550Y46482D02*
X87478D01*
X88671Y17450D02*
Y45288D01*
X87478Y46482D02*
X88671Y45288D01*
X87833Y48362D02*
X89459Y46736D01*
X86600Y48362D02*
X87833D01*
X89459Y17069D02*
Y46736D01*
X83355Y10965D02*
X89459Y17069D01*
X83490Y12268D02*
X88671Y17450D01*
X70231Y12268D02*
X83490D01*
X67589Y9627D02*
X70231Y12268D01*
X70129Y9627D02*
X71468Y10965D01*
X83355D01*
X78322Y24225D02*
X79089D01*
X78029Y23006D02*
Y23932D01*
X78322Y24225D01*
X79146Y24282D02*
X81404D01*
X81458Y24228D01*
X79089Y24225D02*
X79146Y24282D01*
X81458Y24117D02*
Y24228D01*
X78347Y38373D02*
X79114D01*
X78054Y37332D02*
Y38080D01*
X78347Y38373D01*
X79114D02*
X79172Y38430D01*
X81455D01*
X81483Y38402D01*
Y38366D02*
Y38402D01*
X78054Y51479D02*
Y52456D01*
X78347Y52749D01*
X79216D01*
X79273Y52807D02*
X81429D01*
X81509Y52727D01*
X79216Y52749D02*
X79273Y52807D01*
X81509Y52590D02*
Y52727D01*
X78054Y42946D02*
Y43542D01*
Y42946D02*
X78347Y42653D01*
X79165D01*
X79223Y42596D01*
X81471D01*
X81483Y42584D01*
X78029Y28773D02*
X78322Y28480D01*
X78029Y28773D02*
Y29369D01*
X78322Y28480D02*
X79191D01*
X79248Y28423D02*
X81455D01*
X81483Y28394D01*
Y28334D02*
Y28394D01*
X79191Y28480D02*
X79248Y28423D01*
X78029Y14549D02*
X78322Y14256D01*
X78029Y14549D02*
Y15221D01*
X78322Y14256D02*
X79140D01*
X81429Y14199D02*
X81483Y14145D01*
Y14085D02*
Y14145D01*
X79140Y14256D02*
X79197Y14199D01*
X81429D01*
X82499Y44479D02*
X82553Y44425D01*
X82499Y44479D02*
Y44563D01*
X82553Y44425D02*
X83591D01*
X82562Y30556D02*
X83388D01*
X82512Y30606D02*
X82562Y30556D01*
X82513Y16180D02*
X83464D01*
X82512Y16179D02*
X82513Y16180D01*
X78029Y17501D02*
Y19152D01*
Y20682D01*
X80496Y19942D02*
Y22007D01*
X80658Y34417D02*
X82184Y32891D01*
X82245Y48336D02*
X84875D01*
X82194Y48285D02*
X82245Y48336D01*
X84875D02*
X84900Y48362D01*
X83643Y46495D02*
X84812D01*
X83719Y32550D02*
X84888D01*
X80808Y48111D02*
Y48161D01*
X82133Y46683D02*
Y46785D01*
X82283Y46533D02*
X82333D01*
X80658Y48311D02*
X80808Y48161D01*
X80608Y48311D02*
X80658D01*
X80808Y48111D02*
X82133Y46785D01*
Y46683D02*
X82283Y46533D01*
X80467Y48451D02*
X80608Y48311D01*
X80467Y48451D02*
Y50421D01*
X82445Y44606D02*
Y46421D01*
Y44606D02*
X82474Y44577D01*
X82184Y32611D02*
Y32891D01*
X82334Y32461D02*
X82384D01*
X82184Y32611D02*
X82334Y32461D01*
X84747Y34354D02*
X84836Y34442D01*
X82448Y34354D02*
X82525Y34431D01*
X82409Y34315D02*
X82448Y34354D01*
X84747D01*
X80493Y34758D02*
Y36197D01*
X82525Y30466D02*
Y32321D01*
X80493Y30466D02*
Y32334D01*
X82525Y34431D02*
Y36197D01*
X80467Y44563D02*
Y46406D01*
X80594Y46533D01*
X82499Y48461D02*
Y50421D01*
X83579Y18275D02*
X84747D01*
X84760Y18263D01*
X80442Y22061D02*
X80496Y22007D01*
X80493Y19939D02*
X80496Y19942D01*
X82347Y18211D02*
Y18212D01*
X82499Y16141D02*
Y18059D01*
X82347Y18211D02*
X82499Y18059D01*
D19*
X80645Y32487D02*
Y33151D01*
X41681Y16916D02*
X41707Y16891D01*
X43053D01*
X37694D02*
X39918D01*
X39968D01*
X39588Y13502D02*
Y14000D01*
X37883Y15582D02*
X39616D01*
X39968Y15933D01*
Y16891D01*
X37846Y15545D02*
X37883Y15582D01*
X37769Y13106D02*
X39192D01*
X37694Y14351D02*
X39237D01*
X39588Y14000D01*
X39192Y13106D02*
X39588Y13502D01*
X36474Y12014D02*
X43335D01*
X32270Y13081D02*
X35408D01*
X36474Y12014D01*
X43335D02*
X44753Y13432D01*
X37744Y13081D02*
X37769Y13106D01*
X44753Y13432D02*
Y16891D01*
X32270Y14351D02*
X33913D01*
X32106D02*
X32270D01*
X33913D02*
X34265Y14702D01*
Y15270D01*
X33913Y15621D02*
X34265Y15270D01*
X32270Y15621D02*
X33913D01*
X23133Y40672D02*
Y42259D01*
Y40672D02*
X23139Y40665D01*
X23126Y42266D02*
X23133Y42259D01*
X79809Y18284D02*
X79833Y18261D01*
X80547D01*
X80571Y18237D01*
X79426Y46482D02*
X80647D01*
X80467Y18137D02*
X80567Y18237D01*
X80467Y16141D02*
Y18137D01*
X80567Y18237D02*
X80571D01*
X82245Y19863D02*
X82372Y19990D01*
X82271Y20015D02*
X82371D01*
X82372Y19990D02*
X84760D01*
X82474Y20118D02*
Y22061D01*
X82371Y20015D02*
X82474Y20118D01*
D20*
X38644Y22403D02*
Y28499D01*
X33759Y33384D02*
X38644Y28499D01*
X33596Y33384D02*
X33759D01*
X32049Y33415D02*
X32842Y32622D01*
X31164Y25703D02*
X32842Y27381D01*
Y32622D01*
X32741Y34239D02*
X33596Y33384D01*
X33646Y21657D02*
Y32360D01*
X30709Y18720D02*
X33646Y21657D01*
X26908Y25703D02*
X31164D01*
X33096Y35103D02*
X36601Y31598D01*
X42333D01*
X32029Y35103D02*
X33096D01*
X24155Y21668D02*
X26262D01*
X26437Y21844D02*
Y25232D01*
X26262Y21668D02*
X26437Y21844D01*
Y25232D02*
X26908Y25703D01*
X35890Y36652D02*
X35954D01*
X39814Y40513D01*
X37821Y9830D02*
X37884Y9893D01*
X39814Y40513D02*
X39878D01*
X47409Y25387D02*
Y26441D01*
Y26543D02*
Y27623D01*
X47422Y37059D02*
X47447Y37084D01*
X49352Y36043D02*
X49378Y36017D01*
X47422Y37059D02*
Y38125D01*
Y35991D02*
Y37059D01*
X47346Y38202D02*
X47422Y38125D01*
X47396Y27636D02*
X47409Y27623D01*
D21*
X30740Y29527D02*
Y42704D01*
X31248Y29885D02*
Y41942D01*
Y29885D02*
X31664Y29469D01*
Y29321D02*
Y29469D01*
X30740Y29527D02*
X30759Y29508D01*
Y28702D02*
Y29508D01*
X31248Y41942D02*
X33249Y43942D01*
X30740Y42704D02*
X35763Y47727D01*
X35814D01*
D22*
X13831Y23006D02*
X15944D01*
X15951Y23012D01*
X13818Y23019D02*
X13831Y23006D01*
X13844Y29966D02*
X16084D01*
X13818Y29940D02*
X13844Y29966D01*
X16084D02*
X16129Y29921D01*
X86347Y32499D02*
X87693D01*
X86309Y32461D02*
X86347Y32499D01*
X87693D02*
X87706Y32487D01*
X86512Y34366D02*
X87706D01*
X86500Y34354D02*
X86512Y34366D01*
X87706D02*
X87732Y34341D01*
X86460Y18263D02*
X87732D01*
X87782Y18212D01*
X86460Y19990D02*
X87732D01*
X86411D02*
X86460D01*
X86284Y19863D02*
X86411Y19990D01*
X82119Y18339D02*
X82296D01*
X82021Y18437D02*
Y18564D01*
Y18437D02*
X82119Y18339D01*
X80571Y19964D02*
X80621D01*
X82021Y18564D01*
D23*
X15850Y26492D02*
D03*
Y22992D02*
D03*
X55855Y40528D02*
D03*
Y37028D02*
D03*
X55853Y30018D02*
D03*
Y26518D02*
D03*
X15850Y37008D02*
D03*
Y33508D02*
D03*
X47422Y37059D02*
D03*
Y40559D02*
D03*
X47423Y26543D02*
D03*
Y30043D02*
D03*
D24*
X15850Y29992D02*
D03*
X55855Y33528D02*
D03*
X55853Y23018D02*
D03*
X15850Y40508D02*
D03*
X47422Y33559D02*
D03*
X47423Y23043D02*
D03*
D25*
X40361Y9779D02*
D03*
X37821D02*
D03*
X32741D02*
D03*
X27661D02*
D03*
X25121D02*
D03*
X30201D02*
D03*
X35281D02*
D03*
D26*
X22581D02*
D03*
D27*
X80289Y9627D02*
D03*
X77749D02*
D03*
X67589D02*
D03*
X65049D02*
D03*
X70129D02*
D03*
X72669D02*
D03*
X75209D02*
D03*
D28*
X62509D02*
D03*
D29*
X25654Y52172D02*
D03*
X28194D02*
D03*
X30734D02*
D03*
X33274D02*
D03*
X35814D02*
D03*
D30*
X38354D02*
D03*
D31*
X73000Y30328D02*
D03*
X72949Y45034D02*
D03*
X77292Y18999D02*
D03*
X75565Y20447D02*
D03*
X72949Y22711D02*
D03*
X67861Y20452D02*
D03*
X75540Y33630D02*
D03*
X80645Y33151D02*
D03*
X78054Y33325D02*
D03*
Y47549D02*
D03*
X75540Y47803D02*
D03*
X33646Y32360D02*
D03*
X39980Y30632D02*
D03*
X32741Y34239D02*
D03*
X42333Y31598D02*
D03*
X25785Y25701D02*
D03*
X27241Y24899D02*
D03*
X31664Y29321D02*
D03*
X26264Y18694D02*
D03*
X24686Y25756D02*
D03*
X30787Y18742D02*
D03*
X32029Y33435D02*
D03*
X34669Y30635D02*
D03*
X32029Y35103D02*
D03*
X37592Y25832D02*
D03*
X38644Y22403D02*
D03*
X29947Y29667D02*
D03*
X30759Y28702D02*
D03*
X22634Y13585D02*
D03*
X23599Y15973D02*
D03*
X35890Y36652D02*
D03*
X39550Y13636D02*
D03*
X19914Y30251D02*
D03*
X22733Y29108D02*
D03*
X41605Y37084D02*
D03*
X33249Y43942D02*
D03*
X35814Y47727D02*
D03*
X39878Y40513D02*
D03*
X20752Y25806D02*
D03*
X13820Y26616D02*
D03*
X23139Y40665D02*
D03*
X87732Y34341D02*
D03*
Y18263D02*
D03*
Y19990D02*
D03*
X87706Y32487D02*
D03*
X79146Y24282D02*
D03*
X79172Y38430D02*
D03*
X79273Y52807D02*
D03*
X79223Y42596D02*
D03*
X79248Y28423D02*
D03*
X79197Y14199D02*
D03*
X83591Y44425D02*
D03*
X83388Y30556D02*
D03*
X83464Y16180D02*
D03*
X79809Y18284D02*
D03*
X83605Y46507D02*
D03*
X79400D02*
D03*
X83681Y32563D02*
D03*
X83541Y18288D02*
D03*
D32*
X22606Y11203D02*
D03*
Y12903D02*
D03*
Y14249D02*
D03*
Y15949D02*
D03*
X19253Y21668D02*
D03*
Y23368D02*
D03*
X24155Y21668D02*
D03*
Y23368D02*
D03*
X23546Y27358D02*
D03*
Y29058D02*
D03*
X21920Y27383D02*
D03*
Y29083D02*
D03*
X16662Y44626D02*
D03*
Y42926D02*
D03*
X65964Y16916D02*
D03*
Y18616D02*
D03*
D33*
X24790Y15011D02*
D03*
D34*
Y16911D02*
D03*
X26611Y15961D02*
D03*
D35*
X32270Y16891D02*
D03*
Y15621D02*
D03*
Y14351D02*
D03*
Y13081D02*
D03*
X37694D02*
D03*
Y14351D02*
D03*
Y15621D02*
D03*
Y16891D02*
D03*
X21037Y39065D02*
D03*
Y37795D02*
D03*
Y36525D02*
D03*
Y35255D02*
D03*
X26461D02*
D03*
Y36525D02*
D03*
Y37795D02*
D03*
Y39065D02*
D03*
D36*
X19812Y11771D02*
D03*
Y16271D02*
D03*
X22428Y53558D02*
D03*
Y49058D02*
D03*
X59665Y12304D02*
D03*
Y16804D02*
D03*
D37*
X40945Y52158D02*
D03*
Y53760D02*
D03*
X43205Y51230D02*
D03*
Y52832D02*
D03*
X49352Y39637D02*
D03*
Y38036D02*
D03*
X49301Y23976D02*
D03*
Y25578D02*
D03*
X49352Y34505D02*
D03*
Y36107D02*
D03*
Y28919D02*
D03*
Y27317D02*
D03*
D38*
X41587Y25146D02*
D03*
Y35662D02*
D03*
Y38481D02*
D03*
Y27965D02*
D03*
D39*
X45237Y25146D02*
D03*
Y35662D02*
D03*
Y38481D02*
D03*
Y27965D02*
D03*
D40*
X47422Y34671D02*
D03*
Y35991D02*
D03*
X47396Y39471D02*
D03*
Y38151D02*
D03*
Y28956D02*
D03*
Y27636D02*
D03*
X47422Y24105D02*
D03*
Y25425D02*
D03*
D41*
X22758Y23382D02*
D03*
X20726D02*
D03*
X21742Y25437D02*
D03*
X80493Y30466D02*
D03*
X82525D02*
D03*
X81509Y28411D02*
D03*
X82525Y36197D02*
D03*
X80493D02*
D03*
X81509Y38252D02*
D03*
X82474Y22061D02*
D03*
X80442D02*
D03*
X81458Y24117D02*
D03*
X80467Y16141D02*
D03*
X82499D02*
D03*
X81483Y14085D02*
D03*
X80467Y44563D02*
D03*
X82499D02*
D03*
X81483Y42508D02*
D03*
X82499Y50421D02*
D03*
X80467D02*
D03*
X81483Y52476D02*
D03*
D42*
X25552Y27380D02*
D03*
Y29134D02*
D03*
X19939Y27380D02*
D03*
Y29134D02*
D03*
Y31457D02*
D03*
Y33211D02*
D03*
X25552Y31457D02*
D03*
Y33211D02*
D03*
D43*
X21793Y33553D02*
D03*
D44*
X23693D02*
D03*
X22743Y31733D02*
D03*
D45*
X24627Y43688D02*
D03*
X23227D02*
D03*
D46*
X18530Y42697D02*
D03*
Y44729D02*
D03*
X20586Y43713D02*
D03*
D47*
X17279Y37018D02*
D03*
X19279Y36068D02*
D03*
Y37968D02*
D03*
D48*
X78054Y37332D02*
D03*
Y35008D02*
D03*
Y51479D02*
D03*
Y49155D02*
D03*
Y43542D02*
D03*
Y45866D02*
D03*
X78029Y29369D02*
D03*
Y31693D02*
D03*
Y23006D02*
D03*
Y20682D02*
D03*
Y15221D02*
D03*
Y17545D02*
D03*
X13818Y29940D02*
D03*
Y27616D02*
D03*
Y23019D02*
D03*
Y25343D02*
D03*
D49*
X54102Y19140D02*
D03*
Y17640D02*
D03*
D50*
X56464Y14988D02*
D03*
Y16789D02*
D03*
D51*
X64199Y18771D02*
D03*
Y16739D02*
D03*
X62343Y17755D02*
D03*
D52*
X62853Y11887D02*
D03*
X64655D02*
D03*
D53*
X65962Y14808D02*
D03*
X62662D02*
D03*
D54*
X58757Y19456D02*
D03*
X61081D02*
D03*
D55*
X55855Y33528D02*
X75438D01*
X72747Y30075D02*
X73000Y30328D01*
X55911Y30075D02*
X72747D01*
X55853Y26518D02*
X69142D01*
X72949Y22711D01*
X72517Y47803D02*
X75540D01*
X55855Y40528D02*
X65242D01*
X72517Y47803D01*
X64943Y37028D02*
X72949Y45034D01*
X55855Y37028D02*
X64943D01*
X75555Y20457D02*
X75565Y20447D01*
X71593Y20457D02*
X75555D01*
X69032Y23018D02*
X71593Y20457D01*
X55853Y23018D02*
X69032D01*
%TF.MD5,7207a6b2a4a117493a42e51b1a0efe79*%
M02*
