%TF.GenerationSoftware,Altium Limited,Altium Designer,21.6.4 (81)*%
G04 Layer_Physical_Order=1*
G04 Layer_Color=255*
%FSLAX43Y43*%
%MOMM*%
%TF.SameCoordinates,EF7AACBD-433E-4B6D-8733-A8E214C0EB56*%
%TF.FilePolarity,Positive*%
%TF.FileFunction,Copper,L1,Top,Signal*%
%TF.Part,Single*%
G01*
G75*
%TA.AperFunction,NonConductor*%
%ADD10C,0.013*%
%TA.AperFunction,SMDPad,CuDef*%
%ADD11R,0.900X0.800*%
%ADD12R,1.100X1.200*%
G04:AMPARAMS|DCode=13|XSize=0.9mm|YSize=0.8mm|CornerRadius=0mm|HoleSize=0mm|Usage=FLASHONLY|Rotation=45.000|XOffset=0mm|YOffset=0mm|HoleType=Round|Shape=Rectangle|*
%AMROTATEDRECTD13*
4,1,4,-0.035,-0.601,-0.601,-0.035,0.035,0.601,0.601,0.035,-0.035,-0.601,0.0*
%
%ADD13ROTATEDRECTD13*%

%ADD14R,1.000X2.940*%
G04:AMPARAMS|DCode=15|XSize=0.304mm|YSize=1.353mm|CornerRadius=0mm|HoleSize=0mm|Usage=FLASHONLY|Rotation=45.000|XOffset=0mm|YOffset=0mm|HoleType=Round|Shape=Rectangle|*
%AMROTATEDRECTD15*
4,1,4,0.371,-0.586,-0.586,0.371,-0.371,0.586,0.586,-0.371,0.371,-0.586,0.0*
%
%ADD15ROTATEDRECTD15*%

G04:AMPARAMS|DCode=16|XSize=0.304mm|YSize=1.353mm|CornerRadius=0mm|HoleSize=0mm|Usage=FLASHONLY|Rotation=135.000|XOffset=0mm|YOffset=0mm|HoleType=Round|Shape=Rectangle|*
%AMROTATEDRECTD16*
4,1,4,0.586,0.371,-0.371,-0.586,-0.586,-0.371,0.371,0.586,0.586,0.371,0.0*
%
%ADD16ROTATEDRECTD16*%

%TA.AperFunction,Conductor*%
%ADD17C,1.000*%
%ADD18C,0.500*%
%ADD19C,0.600*%
%ADD20C,0.300*%
%ADD21C,0.254*%
%ADD22C,0.400*%
%TA.AperFunction,ComponentPad*%
%ADD23C,1.800*%
G04:AMPARAMS|DCode=24|XSize=1.8mm|YSize=1.8mm|CornerRadius=0.45mm|HoleSize=0mm|Usage=FLASHONLY|Rotation=270.000|XOffset=0mm|YOffset=0mm|HoleType=Round|Shape=RoundedRectangle|*
%AMROUNDEDRECTD24*
21,1,1.800,0.900,0,0,270.0*
21,1,0.900,1.800,0,0,270.0*
1,1,0.900,-0.450,-0.450*
1,1,0.900,-0.450,0.450*
1,1,0.900,0.450,0.450*
1,1,0.900,0.450,-0.450*
%
%ADD24ROUNDEDRECTD24*%
%ADD25C,1.600*%
%ADD26R,1.600X1.600*%
%ADD27C,1.520*%
G04:AMPARAMS|DCode=28|XSize=1.52mm|YSize=1.52mm|CornerRadius=0.38mm|HoleSize=0mm|Usage=FLASHONLY|Rotation=0.000|XOffset=0mm|YOffset=0mm|HoleType=Round|Shape=RoundedRectangle|*
%AMROUNDEDRECTD28*
21,1,1.520,0.760,0,0,0.0*
21,1,0.760,1.520,0,0,0.0*
1,1,0.760,0.380,-0.380*
1,1,0.760,-0.380,-0.380*
1,1,0.760,-0.380,0.380*
1,1,0.760,0.380,0.380*
%
%ADD28ROUNDEDRECTD28*%
%ADD29C,1.550*%
%ADD30R,1.550X1.550*%
%TA.AperFunction,ViaPad*%
%ADD31C,0.800*%
G36*
X40886Y55173D02*
X41739Y55037D01*
X42579Y54836D01*
X43401Y54569D01*
X44199Y54238D01*
X44968Y53846D01*
X45705Y53395D01*
X46404Y52887D01*
X47061Y52326D01*
X47671Y51715D01*
X48232Y51058D01*
X48740Y50359D01*
X49192Y49623D01*
X49584Y48853D01*
X49914Y48055D01*
X50181Y47233D01*
X50383Y46393D01*
X50518Y45540D01*
X50586Y44679D01*
Y44247D01*
X50586Y44247D01*
X50586Y44217D01*
X50586Y44158D01*
X50585Y44098D01*
X50585Y44098D01*
X50584Y44038D01*
X50583Y44008D01*
X50590Y44001D01*
X50696Y44001D01*
X50696Y44001D01*
X50709Y44001D01*
X52474D01*
X52593Y44001D01*
X52599Y44008D01*
X52597Y44127D01*
X52590Y44446D01*
X52641Y45320D01*
X52761Y46187D01*
X52950Y47042D01*
X53206Y47879D01*
X53528Y48693D01*
X53913Y49479D01*
X54360Y50232D01*
X54865Y50947D01*
X55426Y51619D01*
X56038Y52245D01*
X56698Y52820D01*
X57401Y53341D01*
X58144Y53805D01*
X58921Y54208D01*
X59728Y54548D01*
X60559Y54822D01*
X61410Y55030D01*
X62274Y55170D01*
X63146Y55240D01*
X63584Y55240D01*
X63584Y55240D01*
X63590Y55236D01*
X79474D01*
X79594Y55236D01*
X79601Y55240D01*
X79601Y55240D01*
X80026Y55240D01*
X80875Y55174D01*
X81716Y55042D01*
X82545Y54845D01*
X83355Y54585D01*
X84143Y54263D01*
X84904Y53881D01*
X85633Y53442D01*
X86326Y52947D01*
X86979Y52400D01*
X87587Y51805D01*
X88148Y51164D01*
X88657Y50482D01*
X89112Y49762D01*
X89510Y49009D01*
X89849Y48228D01*
X90126Y47423D01*
X90340Y46599D01*
X90489Y45761D01*
X90574Y44914D01*
X90583Y44488D01*
X90583Y44008D01*
X90586Y19248D01*
X90586Y19248D01*
X90586Y19248D01*
X90586Y19248D01*
Y19248D01*
X90586Y19247D01*
X90586Y19247D01*
X90586Y18815D01*
X90518Y17954D01*
X90383Y17101D01*
X90181Y16261D01*
X89914Y15439D01*
X89584Y14641D01*
X89192Y13871D01*
X88740Y13135D01*
X88232Y12436D01*
X87671Y11779D01*
X87061Y11168D01*
X86404Y10607D01*
X85705Y10100D01*
X84968Y9648D01*
X84199Y9256D01*
X83400Y8925D01*
X82579Y8658D01*
X81739Y8457D01*
X80886Y8322D01*
X80025Y8254D01*
X79593Y8254D01*
X63606Y8254D01*
X63606Y8254D01*
X63173Y8253D01*
X62311Y8320D01*
X61457Y8455D01*
X60617Y8656D01*
X59794Y8922D01*
X58995Y9252D01*
X58225Y9644D01*
X57487Y10095D01*
X56787Y10603D01*
X56130Y11164D01*
X55518Y11775D01*
X54956Y12432D01*
X54448Y13131D01*
X53996Y13868D01*
X53603Y14638D01*
X53272Y15437D01*
X53005Y16259D01*
X52803Y17099D01*
X52667Y17953D01*
X52599Y18815D01*
X52599Y19247D01*
X52599Y19247D01*
X52599Y19248D01*
Y19248D01*
X52593Y19255D01*
X52476Y19255D01*
X52476Y19255D01*
X52473Y19255D01*
X50713Y19255D01*
X50593Y19255D01*
X50586Y19248D01*
Y19247D01*
X50586Y19247D01*
X50586Y19131D01*
X50586Y18815D01*
X50518Y17954D01*
X50383Y17101D01*
X50181Y16261D01*
X49914Y15439D01*
X49584Y14641D01*
X49192Y13871D01*
X48740Y13135D01*
X48232Y12436D01*
X47671Y11779D01*
X47061Y11168D01*
X46404Y10607D01*
X45705Y10100D01*
X44968Y9648D01*
X44199Y9256D01*
X43401Y8925D01*
X42579Y8658D01*
X41739Y8457D01*
X40886Y8322D01*
X40025Y8254D01*
X39593Y8254D01*
X23606Y8254D01*
X23606Y8254D01*
X23173Y8253D01*
X22311Y8320D01*
X21457Y8455D01*
X20617Y8656D01*
X19794Y8922D01*
X18995Y9252D01*
X18225Y9644D01*
X17487Y10095D01*
X16787Y10603D01*
X16130Y11164D01*
X15518Y11775D01*
X14956Y12432D01*
X14448Y13131D01*
X13996Y13868D01*
X13603Y14638D01*
X13272Y15436D01*
X13005Y16258D01*
X12803Y17099D01*
X12667Y17953D01*
X12599Y18815D01*
X12599Y19247D01*
X12599Y44122D01*
X12599Y44242D01*
X12599Y44242D01*
X12599Y44242D01*
X12599Y44242D01*
X12599Y44674D01*
X12667Y45535D01*
X12801Y46388D01*
X13003Y47228D01*
X13269Y48050D01*
X13599Y48849D01*
X13991Y49618D01*
X14442Y50355D01*
X14950Y51054D01*
X15511Y51712D01*
X16121Y52323D01*
X16778Y52884D01*
X17476Y53392D01*
X18213Y53844D01*
X18982Y54236D01*
X19781Y54567D01*
X20602Y54835D01*
X21442Y55037D01*
X22295Y55172D01*
X23156Y55240D01*
X23462Y55240D01*
X23595Y55240D01*
X23724D01*
X39593Y55240D01*
X40025D01*
X40886Y55173D01*
D02*
G37*
%LPC*%
G36*
X78808Y54048D02*
X77300D01*
Y50600D01*
X78808D01*
Y52174D01*
X78935Y52247D01*
X79021Y52197D01*
X79187Y52153D01*
X79359D01*
X79526Y52197D01*
X79675Y52283D01*
X79797Y52405D01*
X79883Y52554D01*
X79927Y52721D01*
Y52893D01*
X79883Y53059D01*
X79797Y53208D01*
X79675Y53330D01*
X79526Y53416D01*
X79359Y53461D01*
X79187D01*
X79021Y53416D01*
X78935Y53366D01*
X78808Y53439D01*
Y54048D01*
D02*
G37*
G36*
X39383Y53201D02*
X37325D01*
Y51143D01*
X39383D01*
Y53201D01*
D02*
G37*
G36*
X35949D02*
X35679D01*
X35417Y53130D01*
X35182Y52995D01*
X34991Y52803D01*
X34855Y52569D01*
X34785Y52307D01*
Y52036D01*
X34855Y51774D01*
X34991Y51540D01*
X35182Y51348D01*
X35417Y51213D01*
X35426Y51210D01*
Y48257D01*
X35412Y48250D01*
X35291Y48128D01*
X35205Y47979D01*
X35160Y47813D01*
Y47640D01*
X35205Y47474D01*
X35291Y47325D01*
X35412Y47203D01*
X35562Y47117D01*
X35728Y47073D01*
X35900D01*
X36066Y47117D01*
X36216Y47203D01*
X36337Y47325D01*
X36423Y47474D01*
X36468Y47640D01*
Y47813D01*
X36423Y47979D01*
X36337Y48128D01*
X36216Y48250D01*
X36202Y48257D01*
Y51210D01*
X36211Y51213D01*
X36446Y51348D01*
X36637Y51540D01*
X36773Y51774D01*
X36843Y52036D01*
Y52307D01*
X36773Y52569D01*
X36637Y52803D01*
X36446Y52995D01*
X36211Y53130D01*
X35949Y53201D01*
D02*
G37*
G36*
X78140Y48203D02*
X77968D01*
X77802Y48158D01*
X77653Y48072D01*
X77531Y47950D01*
X77445Y47801D01*
X77400Y47635D01*
Y47463D01*
X77445Y47296D01*
X77483Y47230D01*
Y46849D01*
X77481Y46845D01*
X77442Y46649D01*
Y46149D01*
X77481Y45952D01*
X77592Y45785D01*
X78763Y44615D01*
X78710Y44488D01*
X77300D01*
Y41040D01*
X78808D01*
Y41933D01*
X78935Y42007D01*
X78970Y41986D01*
X79136Y41942D01*
X79309D01*
X79475Y41986D01*
X79624Y42072D01*
X79750Y42019D01*
Y38956D01*
X79623Y38904D01*
X79573Y38954D01*
X79424Y39040D01*
X79258Y39084D01*
X79086D01*
X78935Y39044D01*
X78862Y39071D01*
X78808Y39102D01*
Y39824D01*
X77300D01*
Y36376D01*
X78808D01*
Y37758D01*
X78862Y37789D01*
X78935Y37817D01*
X79086Y37776D01*
X79258D01*
X79424Y37821D01*
X79573Y37907D01*
X79623Y37957D01*
X79750Y37904D01*
Y36738D01*
X77691Y34679D01*
X77579Y34512D01*
X77540Y34315D01*
Y33736D01*
X77531Y33726D01*
X77445Y33577D01*
X77400Y33411D01*
Y33239D01*
X77445Y33072D01*
X77531Y32923D01*
X77540Y32914D01*
Y31953D01*
X77579Y31757D01*
X77691Y31590D01*
X79826Y29454D01*
Y28949D01*
X79699Y28896D01*
X79650Y28946D01*
X79500Y29032D01*
X79334Y29077D01*
X79162D01*
X78996Y29032D01*
X78935Y28997D01*
X78808Y29070D01*
Y30264D01*
X77300D01*
Y26816D01*
X78808D01*
Y27775D01*
X78935Y27848D01*
X78996Y27813D01*
X79162Y27769D01*
X79334D01*
X79500Y27813D01*
X79650Y27899D01*
X79699Y27949D01*
X79826Y27896D01*
Y24667D01*
X79699Y24633D01*
X79670Y24684D01*
X79548Y24806D01*
X79399Y24892D01*
X79232Y24936D01*
X79060D01*
X78935Y24903D01*
X78808Y24974D01*
Y25584D01*
X77300D01*
Y22136D01*
X78808D01*
Y23591D01*
X78935Y23662D01*
X79060Y23628D01*
X79232D01*
X79399Y23673D01*
X79548Y23759D01*
X79670Y23881D01*
X79699Y23932D01*
X79826Y23898D01*
Y22336D01*
X77120Y19630D01*
X77040Y19609D01*
X76891Y19523D01*
X76769Y19401D01*
X76683Y19252D01*
X76638Y19085D01*
Y18913D01*
X76683Y18747D01*
X76769Y18598D01*
X76891Y18476D01*
X77040Y18390D01*
X77206Y18345D01*
X77378D01*
X77545Y18390D01*
X77694Y18476D01*
X77816Y18598D01*
X77902Y18747D01*
X77946Y18913D01*
Y19003D01*
X80704Y21760D01*
X80815Y21927D01*
X80854Y22123D01*
Y29667D01*
X80815Y29864D01*
X80704Y30031D01*
X78568Y32166D01*
Y32914D01*
X78578Y32923D01*
X78664Y33072D01*
X78708Y33239D01*
Y33411D01*
X78664Y33577D01*
X78578Y33726D01*
X78568Y33736D01*
Y34103D01*
X80627Y36162D01*
X80739Y36329D01*
X80778Y36525D01*
Y43840D01*
X80739Y44037D01*
X80627Y44204D01*
X78987Y45844D01*
X79065Y45946D01*
X79148Y45898D01*
X79314Y45853D01*
X79487D01*
X79653Y45898D01*
X79730Y45943D01*
X83275D01*
X83353Y45898D01*
X83519Y45853D01*
X83691D01*
X83857Y45898D01*
X84007Y45984D01*
X84128Y46106D01*
X84214Y46255D01*
X84259Y46421D01*
Y46593D01*
X84214Y46760D01*
X84128Y46909D01*
X84007Y47031D01*
X83857Y47117D01*
X83691Y47161D01*
X83519D01*
X83353Y47117D01*
X83275Y47072D01*
X79730D01*
X79653Y47117D01*
X79487Y47161D01*
X79314D01*
X79148Y47117D01*
X78999Y47031D01*
X78877Y46909D01*
X78791Y46760D01*
X78746Y46593D01*
Y46421D01*
X78791Y46255D01*
X78839Y46172D01*
X78737Y46094D01*
X78469Y46362D01*
Y46490D01*
X78472Y46493D01*
X78511Y46690D01*
Y47080D01*
X78578Y47147D01*
X78664Y47296D01*
X78708Y47463D01*
Y47635D01*
X78664Y47801D01*
X78578Y47950D01*
X78456Y48072D01*
X78307Y48158D01*
X78140Y48203D01*
D02*
G37*
G36*
X33409Y53201D02*
X33139D01*
X32877Y53130D01*
X32642Y52995D01*
X32451Y52803D01*
X32315Y52569D01*
X32245Y52307D01*
Y52036D01*
X32315Y51774D01*
X32451Y51540D01*
X32642Y51348D01*
X32873Y51215D01*
Y44480D01*
X32847Y44465D01*
X32725Y44344D01*
X32639Y44194D01*
X32595Y44028D01*
Y43856D01*
X32639Y43690D01*
X32725Y43540D01*
X32847Y43419D01*
X32996Y43333D01*
X33162Y43288D01*
X33335D01*
X33501Y43333D01*
X33650Y43419D01*
X33772Y43540D01*
X33858Y43690D01*
X33903Y43856D01*
Y44028D01*
X33858Y44194D01*
X33772Y44344D01*
X33650Y44465D01*
X33650Y44466D01*
Y51207D01*
X33671Y51213D01*
X33906Y51348D01*
X34097Y51540D01*
X34233Y51774D01*
X34303Y52036D01*
Y52307D01*
X34233Y52569D01*
X34097Y52803D01*
X33906Y52995D01*
X33671Y53130D01*
X33409Y53201D01*
D02*
G37*
G36*
X76268Y54048D02*
X74760D01*
Y52373D01*
X74753Y52324D01*
Y47829D01*
X74757Y47803D01*
X74753Y47777D01*
Y42764D01*
X74760Y42715D01*
Y41040D01*
X76268D01*
Y42715D01*
X76274Y42764D01*
Y47607D01*
X76300Y47803D01*
X76274Y47999D01*
Y52324D01*
X76268Y52373D01*
Y54048D01*
D02*
G37*
G36*
X73728D02*
X72220D01*
Y52373D01*
X72213Y52324D01*
Y42764D01*
X72220Y42715D01*
Y41040D01*
X73728D01*
Y42715D01*
X73734Y42764D01*
Y52324D01*
X73728Y52373D01*
Y54048D01*
D02*
G37*
G36*
X71188D02*
X69680D01*
Y52373D01*
X69673Y52324D01*
Y42764D01*
X69680Y42715D01*
Y41040D01*
X71188D01*
Y42715D01*
X71194Y42764D01*
Y52324D01*
X71188Y52373D01*
Y54048D01*
D02*
G37*
G36*
X47574Y41713D02*
X47270D01*
X46976Y41634D01*
X46713Y41482D01*
X46498Y41267D01*
X46346Y41004D01*
X46331Y40948D01*
X40368D01*
X40280Y41036D01*
X40130Y41122D01*
X39964Y41167D01*
X39792D01*
X39626Y41122D01*
X39476Y41036D01*
X39355Y40915D01*
X39269Y40765D01*
X39224Y40599D01*
Y40427D01*
X39269Y40261D01*
X39355Y40111D01*
X39476Y39990D01*
X39626Y39904D01*
X39792Y39859D01*
X39964D01*
X40130Y39904D01*
X40280Y39990D01*
X40401Y40111D01*
X40409Y40124D01*
X46344D01*
X46346Y40113D01*
X46498Y39850D01*
X46713Y39635D01*
X46976Y39483D01*
X47270Y39405D01*
X47574D01*
X47867Y39483D01*
X48130Y39635D01*
X48345Y39850D01*
X48497Y40113D01*
X48576Y40407D01*
Y40711D01*
X48497Y41004D01*
X48345Y41267D01*
X48130Y41482D01*
X47867Y41634D01*
X47574Y41713D01*
D02*
G37*
G36*
X56007Y41682D02*
X55703D01*
X55409Y41603D01*
X55146Y41451D01*
X54931Y41237D01*
X54779Y40973D01*
X54701Y40680D01*
Y40376D01*
X54779Y40083D01*
X54931Y39819D01*
X55146Y39605D01*
X55409Y39453D01*
X55703Y39374D01*
X56007D01*
X56300Y39453D01*
X56563Y39605D01*
X56778Y39819D01*
X56930Y40083D01*
X57009Y40376D01*
Y40680D01*
X56930Y40973D01*
X56778Y41237D01*
X56563Y41451D01*
X56300Y41603D01*
X56007Y41682D01*
D02*
G37*
G36*
X16300Y41668D02*
X15400D01*
X15216Y41644D01*
X15045Y41573D01*
X14898Y41460D01*
X14785Y41313D01*
X14714Y41142D01*
X14690Y40958D01*
Y40058D01*
X14714Y39874D01*
X14785Y39703D01*
X14898Y39556D01*
X15045Y39443D01*
X15216Y39372D01*
X15400Y39348D01*
X16300D01*
X16483Y39372D01*
X16655Y39443D01*
X16802Y39556D01*
X16915Y39703D01*
X16985Y39874D01*
X17010Y40058D01*
Y40958D01*
X16985Y41142D01*
X16915Y41313D01*
X16802Y41460D01*
X16655Y41573D01*
X16483Y41644D01*
X16300Y41668D01*
D02*
G37*
G36*
X56007Y38182D02*
X55703D01*
X55409Y38103D01*
X55146Y37951D01*
X54931Y37737D01*
X54779Y37473D01*
X54701Y37180D01*
Y36876D01*
X54779Y36583D01*
X54931Y36319D01*
X55146Y36105D01*
X55409Y35953D01*
X55703Y35874D01*
X56007D01*
X56300Y35953D01*
X56563Y36105D01*
X56778Y36319D01*
X56930Y36583D01*
X57009Y36876D01*
Y37180D01*
X56930Y37473D01*
X56778Y37737D01*
X56563Y37951D01*
X56300Y38103D01*
X56007Y38182D01*
D02*
G37*
G36*
X30869Y53201D02*
X30599D01*
X30337Y53130D01*
X30102Y52995D01*
X29911Y52803D01*
X29775Y52569D01*
X29705Y52307D01*
Y52036D01*
X29775Y51774D01*
X29911Y51540D01*
X30102Y51348D01*
X30297Y51236D01*
Y38653D01*
X30328Y38496D01*
X30417Y38362D01*
X32059Y36720D01*
X31692Y36353D01*
X32173Y35873D01*
X32123Y35771D01*
X32109Y35757D01*
X31943D01*
X31777Y35712D01*
X31628Y35626D01*
X31516Y35515D01*
X31218D01*
X30941Y35792D01*
X31503Y36353D01*
X30866Y36990D01*
X30849Y37016D01*
X28606Y39259D01*
Y51221D01*
X28826Y51348D01*
X29017Y51540D01*
X29153Y51774D01*
X29223Y52036D01*
Y52307D01*
X29153Y52569D01*
X29017Y52803D01*
X28826Y52995D01*
X28591Y53130D01*
X28329Y53201D01*
X28059D01*
X27797Y53130D01*
X27562Y52995D01*
X27371Y52803D01*
X27235Y52569D01*
X27165Y52307D01*
Y52036D01*
X27235Y51774D01*
X27371Y51540D01*
X27562Y51348D01*
X27782Y51221D01*
Y39088D01*
X27813Y38930D01*
X27903Y38797D01*
X29608Y37091D01*
X29047Y36530D01*
X28494Y35977D01*
X23793Y40677D01*
Y40751D01*
X23749Y40918D01*
X23663Y41067D01*
X23541Y41189D01*
X23392Y41275D01*
X23226Y41319D01*
X23053D01*
X22887Y41275D01*
X22738Y41189D01*
X22616Y41067D01*
X22530Y40918D01*
X22485Y40751D01*
Y40579D01*
X22530Y40413D01*
X22616Y40264D01*
X22738Y40142D01*
X22887Y40056D01*
X23053Y40011D01*
X23226D01*
X23279Y40026D01*
X27911Y35394D01*
X27350Y34833D01*
X26784Y34267D01*
X26218Y33701D01*
X27534Y32385D01*
X28096Y32947D01*
X28703Y32340D01*
X28703Y32340D01*
X28879Y32164D01*
X29012Y32075D01*
X29170Y32043D01*
X33074D01*
X33123Y31958D01*
X33245Y31836D01*
X33394Y31750D01*
X33560Y31706D01*
X33732D01*
X33899Y31750D01*
X34048Y31836D01*
X34170Y31958D01*
X34256Y32107D01*
X34295Y32253D01*
X34413Y32314D01*
X34862Y31865D01*
X34996Y31776D01*
X35154Y31744D01*
X35986D01*
X36144Y31776D01*
X36220Y31826D01*
X36226Y31819D01*
X36278Y31865D01*
X36318Y31905D01*
X36880Y32468D01*
X36889Y32473D01*
X36905Y32499D01*
X37543Y33136D01*
X36968Y33710D01*
X36403Y34275D01*
X35962Y34716D01*
X36014Y34843D01*
X36456D01*
X39568Y31732D01*
Y31145D01*
X39456Y31034D01*
X39370Y30885D01*
X39326Y30719D01*
Y30546D01*
X39370Y30380D01*
X39456Y30231D01*
X39578Y30109D01*
X39727Y30023D01*
X39894Y29978D01*
X40066D01*
X40232Y30023D01*
X40381Y30109D01*
X40503Y30231D01*
X40589Y30380D01*
X40634Y30546D01*
Y30719D01*
X40589Y30885D01*
X40503Y31034D01*
X40392Y31145D01*
Y31902D01*
X40360Y32060D01*
X40271Y32194D01*
X37064Y35401D01*
X37083Y35561D01*
X38194Y36672D01*
X41015D01*
Y29838D01*
X37663Y26486D01*
X37506D01*
X37340Y26441D01*
X37190Y26355D01*
X37115Y26280D01*
X36988Y26332D01*
Y27374D01*
X37105Y27423D01*
X37667Y26861D01*
X38662Y27857D01*
X38106Y28414D01*
Y28457D01*
X38074Y28615D01*
X37985Y28748D01*
X36323Y30410D01*
X36298Y30427D01*
X35661Y31064D01*
X35411Y30815D01*
X35289Y30848D01*
X35278Y30888D01*
X35192Y31037D01*
X35070Y31158D01*
X34921Y31245D01*
X34755Y31289D01*
X34583D01*
X34466Y31258D01*
X34414Y31292D01*
X34257Y31324D01*
X30803D01*
X30488Y31639D01*
X30355Y31728D01*
X30197Y31759D01*
X27263D01*
X27106Y31728D01*
X26972Y31639D01*
X26315Y30982D01*
X26307Y30976D01*
X26290Y30951D01*
X25653Y30314D01*
X25973Y29993D01*
X25924Y29876D01*
X24174D01*
X23507Y30543D01*
X23373Y30632D01*
X23216Y30663D01*
X20427D01*
X20315Y30775D01*
X20166Y30861D01*
X20000Y30905D01*
X19827D01*
X19661Y30861D01*
X19512Y30775D01*
X19390Y30653D01*
X19304Y30504D01*
X19260Y30337D01*
Y30165D01*
X19304Y29999D01*
X19390Y29850D01*
X19512Y29728D01*
X19661Y29642D01*
X19827Y29597D01*
X20000D01*
X20166Y29642D01*
X20315Y29728D01*
X20427Y29839D01*
X22411D01*
X22474Y29724D01*
X22471Y29712D01*
X22331Y29632D01*
X22210Y29510D01*
X22124Y29361D01*
X22079Y29194D01*
Y29022D01*
X22124Y28856D01*
X22210Y28707D01*
X22331Y28585D01*
X22481Y28499D01*
X22647Y28454D01*
X22660D01*
X23775Y27340D01*
X23941Y27229D01*
X24138Y27190D01*
X25196D01*
X26670Y25715D01*
Y25217D01*
X26632Y25151D01*
X26587Y24985D01*
Y24813D01*
X26632Y24646D01*
X26684Y24555D01*
X26615Y24428D01*
X26269D01*
Y23120D01*
Y21825D01*
X27677D01*
Y22042D01*
X28016D01*
X28174Y22073D01*
X28307Y22162D01*
X28961Y22816D01*
X29050Y22949D01*
X29082Y23107D01*
Y26719D01*
X29199Y26767D01*
X29612Y26354D01*
X30187Y25780D01*
X30824Y26417D01*
X30849Y26434D01*
X31965Y27550D01*
X32054Y27683D01*
X32086Y27841D01*
Y28818D01*
X32187Y28920D01*
X32274Y29069D01*
X32318Y29235D01*
Y29407D01*
X32274Y29574D01*
X32187Y29723D01*
X32066Y29845D01*
X31917Y29931D01*
X31750Y29975D01*
X31578D01*
X31412Y29931D01*
X31263Y29845D01*
X31141Y29723D01*
X31055Y29574D01*
X31010Y29407D01*
X30918Y29337D01*
X30846Y29356D01*
X30673D01*
X30666Y29354D01*
X30642Y29368D01*
X30568Y29459D01*
X30601Y29581D01*
Y29753D01*
X30556Y29920D01*
X30470Y30069D01*
X30348Y30191D01*
X30199Y30277D01*
X30033Y30321D01*
X29861D01*
X29694Y30277D01*
X29545Y30191D01*
X29434Y30079D01*
X28977D01*
X28820Y30048D01*
X28686Y29958D01*
X28663Y29935D01*
X27781Y30818D01*
X27829Y30935D01*
X30026D01*
X30341Y30621D01*
X30475Y30531D01*
X30632Y30500D01*
X34028D01*
X34059Y30383D01*
X34145Y30234D01*
X34267Y30112D01*
X34416Y30026D01*
X34442Y30019D01*
X34475Y29878D01*
X33955Y29359D01*
X33389Y28793D01*
X32824Y28227D01*
X32258Y27661D01*
X31692Y27096D01*
X32329Y26459D01*
X32346Y26434D01*
X32964Y25816D01*
Y14318D01*
X30411Y11766D01*
X29235D01*
X29078Y11734D01*
X28944Y11645D01*
X28062Y10763D01*
X27799Y10833D01*
X27522D01*
X27254Y10761D01*
X27013Y10622D01*
X26817Y10426D01*
X26678Y10186D01*
X26607Y9918D01*
Y9640D01*
X26678Y9372D01*
X26817Y9132D01*
X27013Y8936D01*
X27254Y8797D01*
X27522Y8725D01*
X27799D01*
X28067Y8797D01*
X28308Y8936D01*
X28504Y9132D01*
X28643Y9372D01*
X28715Y9640D01*
Y9918D01*
X28644Y10180D01*
X29406Y10942D01*
X29978D01*
X29994Y10815D01*
X29794Y10761D01*
X29553Y10622D01*
X29357Y10426D01*
X29218Y10186D01*
X29147Y9918D01*
Y9640D01*
X29218Y9372D01*
X29357Y9132D01*
X29553Y8936D01*
X29794Y8797D01*
X30062Y8725D01*
X30339D01*
X30607Y8797D01*
X30848Y8936D01*
X31044Y9132D01*
X31183Y9372D01*
X31255Y9640D01*
Y9918D01*
X31183Y10186D01*
X31055Y10407D01*
X32211Y11563D01*
X32329Y11514D01*
Y10758D01*
X32093Y10622D01*
X31897Y10426D01*
X31758Y10186D01*
X31687Y9918D01*
Y9640D01*
X31758Y9372D01*
X31897Y9132D01*
X32093Y8936D01*
X32334Y8797D01*
X32602Y8725D01*
X32879D01*
X33147Y8797D01*
X33388Y8936D01*
X33584Y9132D01*
X33723Y9372D01*
X33795Y9640D01*
Y9918D01*
X33723Y10186D01*
X33584Y10426D01*
X33388Y10622D01*
X33153Y10758D01*
Y11666D01*
X34751Y13265D01*
X34869Y13216D01*
Y10758D01*
X34633Y10622D01*
X34437Y10426D01*
X34298Y10186D01*
X34227Y9918D01*
Y9640D01*
X34298Y9372D01*
X34437Y9132D01*
X34633Y8936D01*
X34874Y8797D01*
X35142Y8725D01*
X35419D01*
X35687Y8797D01*
X35928Y8936D01*
X36124Y9132D01*
X36263Y9372D01*
X36335Y9640D01*
Y9918D01*
X36263Y10186D01*
X36124Y10426D01*
X35928Y10622D01*
X35693Y10758D01*
Y13114D01*
X35810Y13163D01*
X37409Y11564D01*
Y10758D01*
X37173Y10622D01*
X36977Y10426D01*
X36838Y10186D01*
X36767Y9918D01*
Y9640D01*
X36838Y9372D01*
X36977Y9132D01*
X37173Y8936D01*
X37414Y8797D01*
X37682Y8725D01*
X37959D01*
X38227Y8797D01*
X38468Y8936D01*
X38664Y9132D01*
X38803Y9372D01*
X38875Y9640D01*
Y9918D01*
X38803Y10186D01*
X38664Y10426D01*
X38468Y10622D01*
X38233Y10758D01*
Y11358D01*
X38350Y11406D01*
X39449Y10308D01*
X39378Y10186D01*
X39307Y9918D01*
Y9640D01*
X39378Y9372D01*
X39517Y9132D01*
X39713Y8936D01*
X39954Y8797D01*
X40222Y8725D01*
X40499D01*
X40767Y8797D01*
X41008Y8936D01*
X41204Y9132D01*
X41343Y9372D01*
X41415Y9640D01*
Y9918D01*
X41343Y10186D01*
X41204Y10426D01*
X41008Y10622D01*
X40767Y10761D01*
X40499Y10833D01*
X40222D01*
X40117Y10805D01*
X36988Y13934D01*
Y25331D01*
X37115Y25384D01*
X37190Y25308D01*
X37340Y25222D01*
X37506Y25178D01*
X37678D01*
X37844Y25222D01*
X37994Y25308D01*
X38115Y25430D01*
X38201Y25579D01*
X38246Y25746D01*
Y25903D01*
X41719Y29376D01*
X41808Y29510D01*
X41839Y29667D01*
Y31002D01*
X41966Y31054D01*
X42081Y30988D01*
X42247Y30944D01*
X42388D01*
X43580Y29752D01*
X43713Y29662D01*
X43871Y29631D01*
X46339D01*
X46348Y29598D01*
X46500Y29334D01*
X46715Y29120D01*
X46978Y28968D01*
X47271Y28889D01*
X47575D01*
X47869Y28968D01*
X48132Y29120D01*
X48347Y29334D01*
X48499Y29598D01*
X48577Y29891D01*
Y30195D01*
X48499Y30488D01*
X48347Y30752D01*
X48132Y30966D01*
X47869Y31118D01*
X47575Y31197D01*
X47271D01*
X46978Y31118D01*
X46715Y30966D01*
X46500Y30752D01*
X46348Y30488D01*
X46339Y30455D01*
X44042D01*
X42987Y31510D01*
X42987Y31511D01*
Y31684D01*
X42942Y31850D01*
X42856Y31999D01*
X42735Y32121D01*
X42585Y32207D01*
X42419Y32252D01*
X42247D01*
X42081Y32207D01*
X41966Y32141D01*
X41839Y32194D01*
Y36470D01*
X41858Y36475D01*
X42007Y36561D01*
X42129Y36682D01*
X42215Y36832D01*
X42259Y36998D01*
Y37170D01*
X42215Y37336D01*
X42129Y37486D01*
X42028Y37586D01*
X42048Y37673D01*
X42073Y37713D01*
X42654D01*
X46273Y34094D01*
X46262Y34009D01*
Y33109D01*
X46286Y32925D01*
X46357Y32754D01*
X46470Y32606D01*
X46617Y32494D01*
X46788Y32423D01*
X46972Y32399D01*
X47872D01*
X48056Y32423D01*
X48227Y32494D01*
X48374Y32606D01*
X48487Y32754D01*
X48558Y32925D01*
X48582Y33109D01*
Y34009D01*
X48558Y34192D01*
X48487Y34364D01*
X48374Y34511D01*
X48227Y34624D01*
X48056Y34694D01*
X47872Y34719D01*
X46972D01*
X46832Y34700D01*
X43116Y38417D01*
X42982Y38506D01*
X42824Y38537D01*
X35170D01*
X35012Y38506D01*
X34879Y38417D01*
X33570Y37108D01*
X33009Y37670D01*
X32642Y37303D01*
X31121Y38824D01*
Y51210D01*
X31131Y51213D01*
X31366Y51348D01*
X31557Y51540D01*
X31693Y51774D01*
X31763Y52036D01*
Y52307D01*
X31693Y52569D01*
X31557Y52803D01*
X31366Y52995D01*
X31131Y53130D01*
X30869Y53201D01*
D02*
G37*
G36*
X56305Y34688D02*
X55405D01*
X55221Y34664D01*
X55050Y34593D01*
X54903Y34480D01*
X54790Y34333D01*
X54719Y34162D01*
X54695Y33978D01*
Y33078D01*
X54719Y32894D01*
X54790Y32723D01*
X54903Y32576D01*
X55050Y32463D01*
X55221Y32392D01*
X55405Y32368D01*
X56305D01*
X56488Y32392D01*
X56660Y32463D01*
X56807Y32576D01*
X56920Y32723D01*
X56990Y32894D01*
X57015Y33078D01*
Y33978D01*
X56990Y34162D01*
X56920Y34333D01*
X56807Y34480D01*
X56660Y34593D01*
X56488Y34664D01*
X56305Y34688D01*
D02*
G37*
G36*
X16002Y34662D02*
X15698D01*
X15404Y34583D01*
X15141Y34431D01*
X14926Y34216D01*
X14774Y33953D01*
X14696Y33660D01*
Y33356D01*
X14774Y33062D01*
X14926Y32799D01*
X15141Y32584D01*
X15404Y32432D01*
X15698Y32354D01*
X16002D01*
X16295Y32432D01*
X16558Y32584D01*
X16773Y32799D01*
X16925Y33062D01*
X17004Y33356D01*
Y33660D01*
X16925Y33953D01*
X16773Y34216D01*
X16558Y34431D01*
X16295Y34583D01*
X16002Y34662D01*
D02*
G37*
G36*
X80731Y33805D02*
X80559D01*
X80393Y33761D01*
X80243Y33675D01*
X80122Y33553D01*
X80036Y33404D01*
X79991Y33237D01*
Y33065D01*
X80036Y32899D01*
X80122Y32750D01*
X80243Y32628D01*
X80393Y32542D01*
X80553Y32499D01*
X80888Y32163D01*
X80888Y32163D01*
X81072Y32041D01*
X81288Y31998D01*
X83352D01*
X83429Y31953D01*
X83595Y31909D01*
X83767D01*
X83934Y31953D01*
X84083Y32039D01*
X84205Y32161D01*
X84291Y32310D01*
X84335Y32477D01*
Y32649D01*
X84291Y32815D01*
X84205Y32964D01*
X84083Y33086D01*
X83934Y33172D01*
X83767Y33217D01*
X83595D01*
X83429Y33172D01*
X83352Y33128D01*
X81522D01*
X81258Y33392D01*
X81254Y33404D01*
X81168Y33553D01*
X81047Y33675D01*
X80897Y33761D01*
X80731Y33805D01*
D02*
G37*
G36*
X56005Y31172D02*
X55701D01*
X55408Y31093D01*
X55144Y30941D01*
X54930Y30726D01*
X54778Y30463D01*
X54699Y30170D01*
Y29866D01*
X54778Y29572D01*
X54930Y29309D01*
X55144Y29094D01*
X55408Y28942D01*
X55701Y28864D01*
X56005D01*
X56298Y28942D01*
X56562Y29094D01*
X56776Y29309D01*
X56928Y29572D01*
X57007Y29866D01*
Y30170D01*
X56928Y30463D01*
X56776Y30726D01*
X56562Y30941D01*
X56298Y31093D01*
X56005Y31172D01*
D02*
G37*
G36*
X16300Y31152D02*
X15400D01*
X15216Y31128D01*
X15045Y31057D01*
X14898Y30944D01*
X14785Y30797D01*
X14714Y30626D01*
X14690Y30442D01*
Y29542D01*
X14714Y29358D01*
X14785Y29187D01*
X14898Y29040D01*
X15045Y28927D01*
X15216Y28856D01*
X15400Y28832D01*
X16300D01*
X16483Y28856D01*
X16655Y28927D01*
X16802Y29040D01*
X16915Y29187D01*
X16985Y29358D01*
X17010Y29542D01*
Y30442D01*
X16985Y30626D01*
X16915Y30797D01*
X16802Y30944D01*
X16655Y31057D01*
X16483Y31128D01*
X16300Y31152D01*
D02*
G37*
G36*
X76268Y39824D02*
X74760D01*
Y38149D01*
X74753Y38100D01*
Y33655D01*
X74757Y33630D01*
X74753Y33604D01*
Y28540D01*
X74760Y28491D01*
Y26816D01*
X76268D01*
Y28491D01*
X76274Y28540D01*
Y33434D01*
X76300Y33630D01*
X76274Y33826D01*
Y38100D01*
X76268Y38149D01*
Y39824D01*
D02*
G37*
G36*
X73728D02*
X72220D01*
Y38124D01*
X72213Y38074D01*
Y36837D01*
X72220Y36788D01*
Y36376D01*
X72239D01*
Y30498D01*
X72213Y30302D01*
Y28540D01*
X72220Y28491D01*
Y26816D01*
X73728D01*
Y28491D01*
X73734Y28540D01*
Y30132D01*
X73760Y30328D01*
Y36811D01*
X73734Y37007D01*
Y38074D01*
X73728Y38124D01*
Y39824D01*
D02*
G37*
G36*
X71188D02*
X69680D01*
Y38149D01*
X69673Y38100D01*
Y28540D01*
X69680Y28491D01*
Y26816D01*
X71188D01*
Y28491D01*
X71194Y28540D01*
Y38100D01*
X71188Y38149D01*
Y39824D01*
D02*
G37*
G36*
X56005Y27672D02*
X55701D01*
X55408Y27593D01*
X55144Y27441D01*
X54930Y27226D01*
X54778Y26963D01*
X54699Y26670D01*
Y26366D01*
X54778Y26072D01*
X54930Y25809D01*
X55144Y25594D01*
X55408Y25442D01*
X55701Y25364D01*
X56005D01*
X56298Y25442D01*
X56562Y25594D01*
X56776Y25809D01*
X56928Y26072D01*
X57007Y26366D01*
Y26670D01*
X56928Y26963D01*
X56776Y27226D01*
X56562Y27441D01*
X56298Y27593D01*
X56005Y27672D01*
D02*
G37*
G36*
X22512Y26610D02*
X20904D01*
Y26511D01*
X20838Y26460D01*
X20666D01*
X20499Y26416D01*
X20350Y26330D01*
X20228Y26208D01*
X20142Y26059D01*
X20098Y25892D01*
Y25720D01*
X20142Y25554D01*
X20228Y25405D01*
X20350Y25283D01*
X20499Y25197D01*
X20666Y25152D01*
X20838D01*
X20904Y25101D01*
Y24902D01*
X22512D01*
Y26610D01*
D02*
G37*
G36*
X47873Y24203D02*
X46973D01*
X46790Y24179D01*
X46618Y24108D01*
X46471Y23995D01*
X46358Y23848D01*
X46288Y23677D01*
X46263Y23493D01*
Y22910D01*
X39061D01*
X39045Y22926D01*
X38896Y23012D01*
X38730Y23057D01*
X38558D01*
X38391Y23012D01*
X38242Y22926D01*
X38120Y22804D01*
X38034Y22655D01*
X37990Y22489D01*
Y22317D01*
X38034Y22150D01*
X38120Y22001D01*
X38242Y21879D01*
X38391Y21793D01*
X38558Y21749D01*
X38730D01*
X38896Y21793D01*
X39045Y21879D01*
X39167Y22001D01*
X39216Y22087D01*
X46477D01*
X46618Y21978D01*
X46790Y21907D01*
X46973Y21883D01*
X47873D01*
X48057Y21907D01*
X48228Y21978D01*
X48376Y22091D01*
X48488Y22238D01*
X48559Y22409D01*
X48583Y22593D01*
Y23493D01*
X48559Y23677D01*
X48488Y23848D01*
X48376Y23995D01*
X48228Y24108D01*
X48057Y24179D01*
X47873Y24203D01*
D02*
G37*
G36*
X56303Y24178D02*
X55403D01*
X55219Y24153D01*
X55048Y24083D01*
X54901Y23970D01*
X54788Y23823D01*
X54717Y23651D01*
X54693Y23468D01*
Y22568D01*
X54717Y22384D01*
X54788Y22213D01*
X54901Y22066D01*
X55048Y21953D01*
X55219Y21882D01*
X55403Y21858D01*
X56303D01*
X56487Y21882D01*
X56658Y21953D01*
X56805Y22066D01*
X56918Y22213D01*
X56989Y22384D01*
X57013Y22568D01*
Y23468D01*
X56989Y23651D01*
X56918Y23823D01*
X56805Y23970D01*
X56658Y24083D01*
X56487Y24153D01*
X56303Y24178D01*
D02*
G37*
G36*
X16002Y24146D02*
X15698D01*
X15404Y24068D01*
X15141Y23916D01*
X14926Y23701D01*
X14774Y23438D01*
X14696Y23144D01*
Y22840D01*
X14774Y22547D01*
X14926Y22284D01*
X15141Y22069D01*
X15404Y21917D01*
X15698Y21838D01*
X16002D01*
X16295Y21917D01*
X16558Y22069D01*
X16773Y22284D01*
X16925Y22547D01*
X17004Y22840D01*
Y23144D01*
X16925Y23438D01*
X16773Y23701D01*
X16558Y23916D01*
X16295Y24068D01*
X16002Y24146D01*
D02*
G37*
G36*
X24612Y26610D02*
X23004D01*
Y24984D01*
X23004Y24902D01*
X23004Y24775D01*
Y23149D01*
X23004D01*
Y23104D01*
X23004D01*
Y21396D01*
X24612D01*
Y21825D01*
X25977D01*
Y23120D01*
Y24428D01*
X24702D01*
X24612Y24518D01*
X24612Y24857D01*
X24612Y25012D01*
X24702Y25102D01*
X24772D01*
X24939Y25146D01*
X25088Y25232D01*
X25209Y25354D01*
X25296Y25503D01*
X25340Y25670D01*
Y25842D01*
X25296Y26008D01*
X25209Y26157D01*
X25088Y26279D01*
X24939Y26365D01*
X24772Y26410D01*
X24612D01*
Y26610D01*
D02*
G37*
G36*
X51716Y42268D02*
X51453Y42266D01*
X51420Y42259D01*
X51387Y42257D01*
X51134Y42188D01*
X51104Y42173D01*
X51072Y42162D01*
X50845Y42029D01*
X50820Y42007D01*
X50792Y41988D01*
X50607Y41802D01*
X50588Y41774D01*
X50566Y41749D01*
X50436Y41521D01*
X50425Y41489D01*
X50410Y41459D01*
X50342Y41206D01*
X50340Y41172D01*
X50334Y41139D01*
X50334Y41008D01*
X50334Y22249D01*
X50334Y22117D01*
X50340Y22084D01*
X50342Y22050D01*
X50411Y21796D01*
X50426Y21765D01*
X50436Y21733D01*
X50568Y21505D01*
X50590Y21479D01*
X50609Y21451D01*
X50795Y21265D01*
X50824Y21246D01*
X50849Y21224D01*
X51077Y21092D01*
X51109Y21081D01*
X51139Y21066D01*
X51394Y20998D01*
X51428Y20996D01*
X51461Y20989D01*
X51724Y20989D01*
X51757Y20996D01*
X51791Y20998D01*
X52046Y21066D01*
X52076Y21081D01*
X52108Y21092D01*
X52336Y21224D01*
X52362Y21246D01*
X52390Y21265D01*
X52576Y21451D01*
X52595Y21479D01*
X52617Y21505D01*
X52749Y21733D01*
X52760Y21765D01*
X52775Y21795D01*
X52843Y22050D01*
X52845Y22083D01*
X52852Y22117D01*
Y22248D01*
X52852Y41022D01*
X52851Y41023D01*
X52852Y41024D01*
X52852Y41026D01*
X52852Y41026D01*
X52850Y41155D01*
X52843Y41188D01*
X52840Y41222D01*
X52769Y41474D01*
X52754Y41505D01*
X52743Y41536D01*
X52609Y41762D01*
X52587Y41787D01*
X52568Y41815D01*
X52381Y41999D01*
X52352Y42017D01*
X52327Y42039D01*
X52099Y42168D01*
X52067Y42179D01*
X52036Y42194D01*
X51782Y42259D01*
X51749Y42261D01*
X51716Y42268D01*
D02*
G37*
G36*
X83627Y18942D02*
X83454D01*
X83288Y18897D01*
X83208Y18851D01*
X80136D01*
X80062Y18894D01*
X79895Y18938D01*
X79723D01*
X79557Y18894D01*
X79408Y18808D01*
X79286Y18686D01*
X79200Y18537D01*
X79155Y18371D01*
Y18198D01*
X79200Y18032D01*
X79286Y17883D01*
X79408Y17761D01*
X79557Y17675D01*
X79723Y17630D01*
X79895D01*
X80062Y17675D01*
X80142Y17721D01*
X83214D01*
X83288Y17679D01*
X83454Y17634D01*
X83627D01*
X83793Y17679D01*
X83942Y17765D01*
X84064Y17886D01*
X84150Y18036D01*
X84195Y18202D01*
Y18374D01*
X84150Y18540D01*
X84064Y18690D01*
X83942Y18811D01*
X83793Y18897D01*
X83627Y18942D01*
D02*
G37*
G36*
X26350Y19348D02*
X26177D01*
X26011Y19304D01*
X25862Y19218D01*
X25740Y19096D01*
X25654Y18947D01*
X25610Y18781D01*
Y18739D01*
X23492Y16622D01*
X23347Y16582D01*
X23197Y16496D01*
X23076Y16375D01*
X22990Y16225D01*
X22945Y16059D01*
Y15887D01*
X22990Y15721D01*
X23016Y15675D01*
X23020Y15653D01*
X23132Y15486D01*
X23298Y15375D01*
X23342Y15366D01*
X23347Y15364D01*
X23513Y15319D01*
X23685D01*
X23851Y15364D01*
X24001Y15450D01*
X24122Y15571D01*
X24208Y15721D01*
X24253Y15887D01*
Y15929D01*
X26370Y18046D01*
X26516Y18085D01*
X26665Y18171D01*
X26787Y18293D01*
X26873Y18442D01*
X26918Y18608D01*
Y18781D01*
X26873Y18947D01*
X26787Y19096D01*
X26665Y19218D01*
X26516Y19304D01*
X26350Y19348D01*
D02*
G37*
G36*
X30873Y19396D02*
X30701D01*
X30535Y19351D01*
X30386Y19265D01*
X30264Y19143D01*
X30178Y18994D01*
X30133Y18828D01*
Y18814D01*
X25418Y14099D01*
X23045D01*
X23035Y14109D01*
X22886Y14195D01*
X22720Y14239D01*
X22548D01*
X22381Y14195D01*
X22232Y14109D01*
X22110Y13987D01*
X22024Y13838D01*
X21980Y13672D01*
Y13499D01*
X22024Y13333D01*
X22110Y13184D01*
X22232Y13062D01*
X22381Y12976D01*
X22548Y12931D01*
X22720D01*
X22886Y12976D01*
X23035Y13062D01*
X23045Y13072D01*
X25631D01*
X25828Y13111D01*
X25994Y13222D01*
X30860Y18088D01*
X30873D01*
X31040Y18132D01*
X31189Y18218D01*
X31310Y18340D01*
X31397Y18489D01*
X31441Y18656D01*
Y18828D01*
X31397Y18994D01*
X31310Y19143D01*
X31189Y19265D01*
X31040Y19351D01*
X30873Y19396D01*
D02*
G37*
G36*
X87818Y34995D02*
X87646D01*
X87479Y34950D01*
X87330Y34864D01*
X87208Y34742D01*
X87122Y34593D01*
X87078Y34427D01*
Y34341D01*
X84483Y31747D01*
X84383Y31597D01*
X84348Y31420D01*
X84348Y31420D01*
Y14695D01*
X82288Y12636D01*
X78808D01*
Y13541D01*
X78918Y13605D01*
X78945Y13589D01*
X79111Y13545D01*
X79283D01*
X79450Y13589D01*
X79599Y13675D01*
X79721Y13797D01*
X79807Y13946D01*
X79851Y14113D01*
Y14285D01*
X79807Y14451D01*
X79721Y14600D01*
X79599Y14722D01*
X79450Y14808D01*
X79283Y14853D01*
X79111D01*
X78945Y14808D01*
X78918Y14793D01*
X78808Y14856D01*
Y16024D01*
X77300D01*
Y12636D01*
X76268D01*
Y14251D01*
X76275Y14300D01*
Y20190D01*
X76300Y20250D01*
X76326Y20447D01*
X76300Y20644D01*
X76275Y20704D01*
Y23860D01*
X76268Y23910D01*
Y25584D01*
X74760D01*
Y23910D01*
X74754Y23860D01*
Y20498D01*
X74760Y20447D01*
X74754Y20396D01*
Y14300D01*
X74760Y14251D01*
Y12576D01*
X74785D01*
X74837Y12449D01*
X72981Y10593D01*
X72803Y10641D01*
X72536D01*
X72278Y10571D01*
X72047Y10438D01*
X71858Y10249D01*
X71725Y10018D01*
X71655Y9760D01*
Y9493D01*
X71725Y9235D01*
X71858Y9004D01*
X72047Y8815D01*
X72278Y8682D01*
X72536Y8613D01*
X72803D01*
X73061Y8682D01*
X73292Y8815D01*
X73481Y9004D01*
X73614Y9235D01*
X73683Y9493D01*
Y9760D01*
X73636Y9938D01*
X75407Y11710D01*
X76472D01*
X76521Y11593D01*
X75521Y10593D01*
X75343Y10641D01*
X75076D01*
X74818Y10571D01*
X74587Y10438D01*
X74398Y10249D01*
X74265Y10018D01*
X74195Y9760D01*
Y9493D01*
X74265Y9235D01*
X74398Y9004D01*
X74587Y8815D01*
X74818Y8682D01*
X75076Y8613D01*
X75343D01*
X75601Y8682D01*
X75832Y8815D01*
X76021Y9004D01*
X76154Y9235D01*
X76223Y9493D01*
Y9760D01*
X76176Y9938D01*
X77293Y11056D01*
X78358D01*
X78407Y10939D01*
X78061Y10593D01*
X77883Y10641D01*
X77616D01*
X77358Y10571D01*
X77127Y10438D01*
X76938Y10249D01*
X76804Y10018D01*
X76735Y9760D01*
Y9493D01*
X76804Y9235D01*
X76938Y9004D01*
X77127Y8815D01*
X77358Y8682D01*
X77616Y8613D01*
X77883D01*
X78141Y8682D01*
X78372Y8815D01*
X78561Y9004D01*
X78694Y9235D01*
X78763Y9493D01*
Y9760D01*
X78716Y9938D01*
X79179Y10402D01*
X79465D01*
X79513Y10285D01*
X79478Y10249D01*
X79344Y10018D01*
X79275Y9760D01*
Y9493D01*
X79344Y9235D01*
X79478Y9004D01*
X79667Y8815D01*
X79898Y8682D01*
X80156Y8613D01*
X80423D01*
X80681Y8682D01*
X80912Y8815D01*
X81101Y9004D01*
X81234Y9235D01*
X81303Y9493D01*
Y9748D01*
X83871D01*
X83871Y9748D01*
X84048Y9783D01*
X84198Y9883D01*
X87449Y13135D01*
X87449Y13135D01*
X87550Y13285D01*
X87585Y13462D01*
Y17461D01*
X87732Y17609D01*
X87818D01*
X87984Y17653D01*
X88133Y17739D01*
X88255Y17861D01*
X88341Y18010D01*
X88386Y18177D01*
Y18349D01*
X88341Y18515D01*
X88255Y18664D01*
X88133Y18786D01*
X87984Y18872D01*
X87818Y18917D01*
X87646D01*
X87479Y18872D01*
X87406Y18830D01*
X87328Y18931D01*
X87732Y19336D01*
X87818D01*
X87984Y19380D01*
X88133Y19466D01*
X88255Y19588D01*
X88341Y19737D01*
X88386Y19904D01*
Y20076D01*
X88341Y20242D01*
X88255Y20391D01*
X88133Y20513D01*
X87984Y20599D01*
X87818Y20644D01*
X87646D01*
X87479Y20599D01*
X87330Y20513D01*
X87208Y20391D01*
X87122Y20242D01*
X87078Y20076D01*
Y19990D01*
X86178Y19091D01*
X86061Y19140D01*
Y30187D01*
X87707Y31833D01*
X87792D01*
X87959Y31877D01*
X88108Y31963D01*
X88230Y32085D01*
X88316Y32234D01*
X88360Y32401D01*
Y32573D01*
X88316Y32739D01*
X88230Y32888D01*
X88108Y33010D01*
X87959Y33096D01*
X87792Y33141D01*
X87620D01*
X87454Y33096D01*
X87305Y33010D01*
X87183Y32888D01*
X87097Y32739D01*
X87052Y32573D01*
Y32487D01*
X85391Y30826D01*
X85273Y30874D01*
Y31228D01*
X87732Y33687D01*
X87818D01*
X87984Y33731D01*
X88133Y33817D01*
X88255Y33939D01*
X88341Y34088D01*
X88386Y34255D01*
Y34427D01*
X88341Y34593D01*
X88255Y34742D01*
X88133Y34864D01*
X87984Y34950D01*
X87818Y34995D01*
D02*
G37*
G36*
X73728Y25584D02*
X72220D01*
Y23910D01*
X72214Y23860D01*
Y22904D01*
X72188Y22711D01*
X72214Y22518D01*
Y14300D01*
X72220Y14251D01*
Y12576D01*
X73728D01*
Y14251D01*
X73735Y14300D01*
Y22711D01*
Y23860D01*
X73728Y23910D01*
Y25584D01*
D02*
G37*
G36*
X71188D02*
X69680D01*
Y23910D01*
X69674Y23860D01*
Y14300D01*
X69680Y14251D01*
Y12576D01*
X71188D01*
Y14251D01*
X71195Y14300D01*
Y23860D01*
X71188Y23910D01*
Y25584D01*
D02*
G37*
G36*
X68648Y54048D02*
X67140D01*
Y52650D01*
X67134Y52603D01*
Y42764D01*
Y38100D01*
Y28540D01*
Y23860D01*
Y20667D01*
X67126Y20649D01*
X67100Y20452D01*
X67126Y20255D01*
X67134Y20237D01*
Y14300D01*
X67140Y14251D01*
Y12576D01*
X68648D01*
Y14251D01*
X68655Y14300D01*
Y20419D01*
X68653Y20435D01*
X68655Y20452D01*
Y23860D01*
Y28540D01*
Y38100D01*
Y42764D01*
Y52603D01*
X68648Y52656D01*
Y54048D01*
D02*
G37*
G36*
X13906Y27270D02*
X13734D01*
X13568Y27225D01*
X13418Y27139D01*
X13297Y27017D01*
X13211Y26868D01*
X13166Y26702D01*
Y26529D01*
X13211Y26363D01*
X13297Y26214D01*
X13306Y26205D01*
Y15949D01*
X13345Y15752D01*
X13457Y15585D01*
X17874Y11168D01*
X18041Y11057D01*
X18237Y11018D01*
X23562D01*
X24232Y10347D01*
X24138Y10186D01*
X24067Y9918D01*
Y9640D01*
X24138Y9372D01*
X24277Y9132D01*
X24473Y8936D01*
X24714Y8797D01*
X24982Y8725D01*
X25259D01*
X25527Y8797D01*
X25768Y8936D01*
X25964Y9132D01*
X26103Y9372D01*
X26175Y9640D01*
Y9918D01*
X26103Y10186D01*
X25964Y10426D01*
X25768Y10622D01*
X25527Y10761D01*
X25259Y10833D01*
X25164D01*
X25091Y10942D01*
X24138Y11895D01*
X23971Y12006D01*
X23774Y12045D01*
X18450D01*
X14334Y16162D01*
Y26205D01*
X14343Y26214D01*
X14429Y26363D01*
X14474Y26529D01*
Y26702D01*
X14429Y26868D01*
X14343Y27017D01*
X14222Y27139D01*
X14072Y27225D01*
X13906Y27270D01*
D02*
G37*
G36*
X70263Y10641D02*
X69996D01*
X69738Y10571D01*
X69507Y10438D01*
X69318Y10249D01*
X69185Y10018D01*
X69115Y9760D01*
Y9493D01*
X69185Y9235D01*
X69318Y9004D01*
X69507Y8815D01*
X69738Y8682D01*
X69996Y8613D01*
X70263D01*
X70521Y8682D01*
X70752Y8815D01*
X70941Y9004D01*
X71074Y9235D01*
X71143Y9493D01*
Y9760D01*
X71074Y10018D01*
X70941Y10249D01*
X70752Y10438D01*
X70521Y10571D01*
X70263Y10641D01*
D02*
G37*
G36*
X67723D02*
X67456D01*
X67198Y10571D01*
X66967Y10438D01*
X66778Y10249D01*
X66645Y10018D01*
X66575Y9760D01*
Y9493D01*
X66645Y9235D01*
X66778Y9004D01*
X66967Y8815D01*
X67198Y8682D01*
X67456Y8613D01*
X67723D01*
X67981Y8682D01*
X68212Y8815D01*
X68401Y9004D01*
X68534Y9235D01*
X68603Y9493D01*
Y9760D01*
X68534Y10018D01*
X68401Y10249D01*
X68212Y10438D01*
X67981Y10571D01*
X67723Y10641D01*
D02*
G37*
G36*
X65183D02*
X64916D01*
X64658Y10571D01*
X64427Y10438D01*
X64238Y10249D01*
X64104Y10018D01*
X64035Y9760D01*
Y9493D01*
X64104Y9235D01*
X64238Y9004D01*
X64427Y8815D01*
X64658Y8682D01*
X64916Y8613D01*
X65183D01*
X65441Y8682D01*
X65672Y8815D01*
X65861Y9004D01*
X65994Y9235D01*
X66063Y9493D01*
Y9760D01*
X65994Y10018D01*
X65861Y10249D01*
X65672Y10438D01*
X65441Y10571D01*
X65183Y10641D01*
D02*
G37*
%LPD*%
G36*
X41163Y37673D02*
X41183Y37586D01*
X41092Y37496D01*
X38024D01*
X37866Y37465D01*
X37733Y37375D01*
X36649Y36292D01*
X36589Y36300D01*
X36557Y36335D01*
X36510Y36438D01*
X36544Y36566D01*
Y36738D01*
X36500Y36905D01*
X36414Y37054D01*
X36292Y37176D01*
X36143Y37262D01*
X35976Y37306D01*
X35804D01*
X35638Y37262D01*
X35489Y37176D01*
X35377Y37064D01*
X34871D01*
X34815Y37177D01*
X34814Y37187D01*
X35341Y37713D01*
X41137D01*
X41163Y37673D01*
D02*
G37*
G36*
X23712Y29173D02*
X23845Y29083D01*
X24003Y29052D01*
X26509D01*
X26666Y29083D01*
X26796Y29170D01*
X27350Y28617D01*
X27911Y28055D01*
X27824Y27968D01*
X27735Y27835D01*
X27704Y27677D01*
Y26286D01*
X27577Y26248D01*
X27547Y26292D01*
X25772Y28067D01*
X25605Y28178D01*
X25409Y28217D01*
X24351D01*
X23387Y29181D01*
Y29194D01*
X23342Y29361D01*
X23340Y29365D01*
X23442Y29443D01*
X23712Y29173D01*
D02*
G37*
D10*
X-218450Y-13583D02*
G03*
X-218879Y-14012I209J-638D01*
G01*
X-217602D02*
G03*
X-218032Y-13583I-638J-209D01*
G01*
Y-14860D02*
G03*
X-217602Y-14431I-209J638D01*
G01*
X-218879D02*
G03*
X-218450Y-14860I638J209D01*
G01*
X-218450Y-14860D02*
X-218032D01*
X-218241D02*
X-218032D01*
X-218450Y-13583D02*
X-218032D01*
X-218241D02*
X-218032D01*
X-217602Y-14431D02*
Y-14012D01*
X-218879Y-14431D02*
Y-14012D01*
D11*
X25273Y23774D02*
D03*
X26973D02*
D03*
Y22479D02*
D03*
X25273D02*
D03*
D12*
X21708Y24003D02*
D03*
X23808D02*
D03*
X21708Y22250D02*
D03*
X23808D02*
D03*
Y25756D02*
D03*
X21708D02*
D03*
D13*
X37702Y27822D02*
D03*
X38904Y29024D02*
D03*
D14*
X67894Y28540D02*
D03*
X70434D02*
D03*
X72974D02*
D03*
X75514D02*
D03*
X78054D02*
D03*
Y38100D02*
D03*
X75514D02*
D03*
X72974D02*
D03*
X70434D02*
D03*
X67894D02*
D03*
Y52324D02*
D03*
X70434D02*
D03*
X72974D02*
D03*
X75514D02*
D03*
X78054D02*
D03*
Y42764D02*
D03*
X75514D02*
D03*
X72974D02*
D03*
X70434D02*
D03*
X67894D02*
D03*
X67894Y23860D02*
D03*
X70434D02*
D03*
X72974D02*
D03*
X75514D02*
D03*
X78054D02*
D03*
Y14300D02*
D03*
X75514D02*
D03*
X72974D02*
D03*
X70434D02*
D03*
X67894D02*
D03*
D15*
X36597Y30685D02*
D03*
X36032Y30119D02*
D03*
X35466Y29553D02*
D03*
X34900Y28988D02*
D03*
X34335Y28422D02*
D03*
X33769Y27856D02*
D03*
X33203Y27291D02*
D03*
X32638Y26725D02*
D03*
X26598Y32765D02*
D03*
X27164Y33330D02*
D03*
X27729Y33896D02*
D03*
X28295Y34462D02*
D03*
X28861Y35027D02*
D03*
X29426Y35593D02*
D03*
X29992Y36159D02*
D03*
X30558Y36724D02*
D03*
D16*
Y26725D02*
D03*
X29992Y27291D02*
D03*
X29426Y27856D02*
D03*
X28861Y28422D02*
D03*
X28295Y28988D02*
D03*
X27729Y29553D02*
D03*
X27164Y30119D02*
D03*
X26598Y30685D02*
D03*
X32638Y36724D02*
D03*
X33203Y36159D02*
D03*
X33769Y35593D02*
D03*
X34335Y35027D02*
D03*
X34900Y34462D02*
D03*
X35466Y33896D02*
D03*
X36032Y33330D02*
D03*
X36597Y32765D02*
D03*
D17*
X72974Y36837D02*
X73000Y36811D01*
X72974Y36837D02*
Y38074D01*
X73000Y30328D02*
Y36811D01*
X72974Y30302D02*
X73000Y30328D01*
X72974Y28540D02*
Y30302D01*
Y42764D02*
Y52324D01*
X75514Y14300D02*
Y20396D01*
X75565Y20447D01*
X75514Y20498D02*
X75565Y20447D01*
X75514Y20498D02*
Y23860D01*
X72974Y14300D02*
Y22711D01*
Y23860D01*
X72949Y22711D02*
X72974Y22736D01*
X72949Y22711D02*
X72974D01*
Y22736D02*
Y23646D01*
X67894Y14300D02*
Y20419D01*
X67861Y20452D02*
X67894Y20419D01*
Y38100D02*
Y42764D01*
Y23860D02*
Y28540D01*
Y20452D02*
Y23860D01*
Y42764D02*
Y52603D01*
Y28540D02*
Y38100D01*
X75514Y33604D02*
X75540Y33630D01*
X75514Y28540D02*
Y33604D01*
Y33655D02*
Y38100D01*
Y33655D02*
X75540Y33630D01*
X75514Y47777D02*
X75540Y47803D01*
X75514Y47829D02*
X75540Y47803D01*
X75514Y47829D02*
Y52324D01*
Y42764D02*
Y47777D01*
X83591Y44425D02*
X85293Y46126D01*
Y49098D01*
X62509Y50546D02*
X66624Y54661D01*
X62509Y9627D02*
Y50546D01*
X66624Y54661D02*
X79731D01*
X85293Y49098D01*
X70434Y14300D02*
Y23860D01*
X70434Y28540D02*
Y38100D01*
Y42764D02*
Y52324D01*
D18*
X78054Y31953D02*
Y33325D01*
X77292Y18999D02*
Y19075D01*
X80340Y22123D01*
X78054Y33325D02*
Y34315D01*
X80264Y36525D02*
Y43840D01*
X78054Y34315D02*
X80264Y36525D01*
X81229Y35014D02*
Y42062D01*
X79284Y32188D02*
Y33069D01*
X81229Y35014D01*
X79284Y32188D02*
X80100Y31372D01*
X80464D01*
X81280Y30556D01*
X78054Y31953D02*
X80340Y29667D01*
Y22123D02*
Y29667D01*
X77956Y46149D02*
X80264Y43840D01*
X77997Y47491D02*
X78054Y47549D01*
X77956Y46649D02*
X77997Y46690D01*
Y47491D01*
X77956Y46149D02*
Y46649D01*
X25654Y53848D02*
X42062D01*
X21844D02*
X25654D01*
Y52172D02*
Y53848D01*
X13818Y45822D02*
X21844Y53848D01*
X27184Y24956D02*
Y25928D01*
X22733Y29108D02*
X24138Y27703D01*
X25409D02*
X27184Y25928D01*
X24138Y27703D02*
X25409D01*
X27184Y24956D02*
X27241Y24899D01*
X25749Y25737D02*
X25785Y25701D01*
X23599Y16001D02*
X26264Y18666D01*
X23599Y15973D02*
Y16001D01*
X26264Y18666D02*
Y18694D01*
X23495Y15850D02*
X23673D01*
X25097Y26949D02*
X25749Y26297D01*
X16659Y26949D02*
X25097D01*
X23808Y25756D02*
X24686D01*
X25749Y25737D02*
Y26297D01*
X25631Y13585D02*
X30787Y18742D01*
X22634Y13585D02*
X25631D01*
X16025Y26316D02*
X19202Y23139D01*
X49720Y17004D02*
Y26786D01*
Y27432D01*
X47423Y26543D02*
X49720D01*
Y27482D02*
Y37059D01*
X46351Y13636D02*
X49720Y17004D01*
X19202Y23139D02*
X21708D01*
X15723Y26619D02*
X16025Y26316D01*
X21708Y22250D02*
Y23139D01*
Y24003D01*
X13818Y28524D02*
X15723Y26619D01*
X25361Y22440D02*
X25425Y22504D01*
X23998Y22440D02*
X25361D01*
X23808Y22250D02*
X23998Y22440D01*
X24020Y23889D02*
X25159D01*
X23838D02*
X24020D01*
X24108Y23800D01*
X23876Y24032D02*
X24020Y23889D01*
X25159D02*
X25273Y23774D01*
X23749Y23800D02*
X23838Y23889D01*
X15926Y26467D02*
X16176D01*
X23876Y24032D02*
Y24130D01*
X49720Y37059D02*
Y46191D01*
X42062Y53848D02*
X49720Y46191D01*
X47422Y37059D02*
X49720D01*
X13818Y37008D02*
X15850D01*
X13818Y28524D02*
Y37008D01*
Y45822D01*
X16176Y26467D02*
X16659Y26949D01*
X20701Y25781D02*
X21683D01*
X20676Y25756D02*
X20701Y25781D01*
X21683D02*
X21708Y25756D01*
X13820Y15949D02*
X18237Y11532D01*
X13820Y15949D02*
Y26616D01*
X18237Y11532D02*
X23774D01*
X24728Y10469D02*
Y10578D01*
X25121Y9779D02*
Y10077D01*
X23774Y11532D02*
X24728Y10578D01*
Y10469D02*
X25121Y10077D01*
X78080Y24507D02*
X78304Y24282D01*
X79146D01*
X78080Y24507D02*
Y24845D01*
X78304Y38430D02*
X79172D01*
X78105Y38629D02*
X78304Y38430D01*
X78105Y38629D02*
Y39095D01*
X78130Y52980D02*
X78304Y52807D01*
X78130Y52980D02*
Y53319D01*
X78304Y52807D02*
X79273D01*
X77902Y41580D02*
Y42194D01*
X78304Y42596D01*
X79223D01*
X78304Y28423D02*
X79248D01*
X77902Y28021D02*
X78304Y28423D01*
X77902Y27330D02*
Y28021D01*
Y13081D02*
Y13796D01*
X78304Y14199D02*
X79197D01*
X77902Y13796D02*
X78304Y14199D01*
X81280Y30556D02*
X83388D01*
X81280Y21844D02*
Y30556D01*
X78435Y18999D02*
X81280Y21844D01*
X81229Y42062D02*
X83591Y44425D01*
X79934Y16180D02*
X83464D01*
X78435Y17678D02*
X79934Y16180D01*
X78435Y17678D02*
Y18999D01*
D19*
X80645Y33151D02*
X80699D01*
X81288Y32563D01*
X83642D01*
X83668Y32537D01*
X39550Y13636D02*
X46351D01*
X79811Y18286D02*
X83539D01*
X83541Y18288D01*
X79809Y18284D02*
X79811Y18286D01*
X79400Y46507D02*
X83642D01*
D20*
X29170Y32455D02*
X33551D01*
X33646Y32360D01*
X38024Y37084D02*
X41605D01*
X36749Y35809D02*
X38024Y37084D01*
X35117Y35809D02*
X36749D01*
X35697Y35255D02*
X36627D01*
X39980Y30632D02*
Y31902D01*
X36627Y35255D02*
X39980Y31902D01*
X30780Y34239D02*
X32741D01*
X31028Y31481D02*
X35801D01*
X27461Y31901D02*
X30608D01*
X31028Y31481D01*
X30197Y31347D02*
X30632Y30912D01*
X27263Y31347D02*
X30197D01*
X30632Y30912D02*
X34257D01*
X29992Y27291D02*
X30655Y27954D01*
Y28462D02*
X30664Y28471D01*
X30655Y27954D02*
Y28462D01*
Y28598D02*
X30664Y28589D01*
Y28471D02*
Y28589D01*
X41605Y36949D02*
Y37084D01*
X41427Y36771D02*
X41605Y36949D01*
X37592Y25832D02*
X41427Y29667D01*
Y36771D01*
X42333Y31581D02*
X43871Y30043D01*
X42333Y31581D02*
Y31598D01*
X26598Y30685D02*
X26601D01*
X27263Y31347D01*
X26598Y32765D02*
X27461Y31901D01*
X28994Y32631D02*
X28994D01*
X29170Y32455D01*
X27164Y30119D02*
X27164D01*
X24003Y29464D02*
X26509D01*
X27164Y30119D01*
X23216Y30251D02*
X24003Y29464D01*
X31674Y27841D02*
Y29312D01*
X28116Y27677D02*
X28861Y28422D01*
X29426Y27856D02*
Y27856D01*
X28116Y24495D02*
Y27677D01*
X28670Y27100D02*
X29426Y27856D01*
X28670Y23107D02*
Y27100D01*
X27645Y24024D02*
X28116Y24495D01*
X28016Y22454D02*
X28670Y23107D01*
X27250Y24024D02*
X27645D01*
X26975Y23749D02*
X27250Y24024D01*
X19914Y30251D02*
X23216D01*
X35801Y31481D02*
X36597Y30685D01*
X38294Y28988D01*
X27729Y33896D02*
X28994Y32631D01*
X29992Y36159D02*
X31048Y35103D01*
X32029D01*
X29426Y35593D02*
X30780Y34239D01*
X29321Y33435D02*
X32029D01*
X28295Y34462D02*
X29321Y33435D01*
X34533Y30635D02*
X34669D01*
X34257Y30912D02*
X34533Y30635D01*
X36595Y32765D02*
X36597D01*
X33751Y33559D02*
X35154Y32156D01*
X35986D01*
X36595Y32765D01*
X37694Y28254D02*
X37738Y28210D01*
Y27933D02*
Y28210D01*
X36032Y30119D02*
X36032D01*
X37694Y28457D01*
Y28254D02*
Y28457D01*
X38644Y22403D02*
X38739Y22498D01*
X46879D02*
X47423Y23043D01*
X38739Y22498D02*
X46879D01*
X36576Y13763D02*
X40411Y9927D01*
X36576Y13763D02*
Y28443D01*
X35466Y29553D02*
X36576Y28443D01*
X34900Y28988D02*
X35916Y27972D01*
Y13640D02*
Y27972D01*
Y13640D02*
X37821Y11735D01*
X26598Y32765D02*
X26598D01*
X28298Y28988D02*
X28977Y29667D01*
X28295Y28988D02*
X28298D01*
X28977Y29667D02*
X29947D01*
X30558Y26725D02*
X31674Y27841D01*
X26873Y22454D02*
X28016D01*
X34335Y35027D02*
X35117Y35809D01*
X34903Y34462D02*
X35697Y35255D01*
X34335Y35027D02*
X34335D01*
X34900Y34462D02*
X34903D01*
X34828Y36652D02*
X35890D01*
X43871Y30043D02*
X47423D01*
X38294Y28988D02*
X38869D01*
X38904Y29024D01*
X37694Y27889D02*
X37738Y27933D01*
X37821Y9779D02*
Y11735D01*
X40411Y9830D02*
Y9927D01*
X34641Y13737D02*
Y26984D01*
X32741Y9779D02*
Y11836D01*
X34641Y13737D01*
X30201Y10131D02*
X30607Y10537D01*
Y10541D02*
X34011Y13945D01*
Y26483D01*
X30607Y10537D02*
Y10541D01*
X30201Y9779D02*
Y10131D01*
X30582Y11354D02*
X33376Y14148D01*
Y25987D01*
X29235Y11354D02*
X30582D01*
X32638Y26725D02*
X33376Y25987D01*
X33203Y27291D02*
X34011Y26483D01*
X27661Y9779D02*
X29235Y11354D01*
X34335Y28422D02*
X35281Y27476D01*
Y9779D02*
Y27476D01*
X33769Y27856D02*
X34641Y26984D01*
X30709Y38653D02*
Y52095D01*
Y38653D02*
X32638Y36724D01*
X15850Y37008D02*
X22355D01*
X26598Y32765D01*
X33203Y36159D02*
X35170Y38125D01*
X42824D02*
X47498Y33452D01*
X35170Y38125D02*
X42824D01*
X33769Y35593D02*
X34828Y36652D01*
X39901Y40536D02*
X47399D01*
X39878Y40513D02*
X39901Y40536D01*
X47399D02*
X47422Y40559D01*
X28194Y52172D02*
Y52197D01*
Y39088D02*
Y52172D01*
Y39088D02*
X30558Y36724D01*
X28194Y52197D02*
X28270Y52273D01*
X23222Y40665D02*
X28861Y35027D01*
X23139Y40665D02*
X23222D01*
X33751Y33559D02*
Y34440D01*
X34335Y35024D01*
Y35027D01*
D21*
X31664Y29321D02*
X31674Y29312D01*
X30655Y28598D02*
X30759Y28702D01*
X33261Y52159D02*
X33274Y52172D01*
X33261Y43955D02*
Y52159D01*
X33249Y43942D02*
X33261Y43955D01*
X35814Y47727D02*
Y52172D01*
D22*
X84811Y31420D02*
X87732Y34341D01*
X84811Y14503D02*
Y31420D01*
X87122Y13462D02*
Y17653D01*
X86335Y13810D02*
Y18593D01*
X87732Y19990D01*
X83390Y10865D02*
X86335Y13810D01*
X87122Y17653D02*
X87732Y18263D01*
X85598Y14139D02*
Y30378D01*
X82977Y11519D02*
X85598Y14139D01*
Y30378D02*
X87706Y32487D01*
X83871Y10211D02*
X87122Y13462D01*
X82480Y12173D02*
X84811Y14503D01*
X80500Y9627D02*
X81084Y10211D01*
X75209Y9627D02*
X77102Y11519D01*
X72669Y9627D02*
X75216Y12173D01*
X77102Y11519D02*
X82977D01*
X80289Y9627D02*
X80500D01*
X78988Y10865D02*
X83390D01*
X77749Y9627D02*
X78988Y10865D01*
X81084Y10211D02*
X83871D01*
X75216Y12173D02*
X82480D01*
D23*
X15850Y26492D02*
D03*
Y22992D02*
D03*
X55855Y40528D02*
D03*
Y37028D02*
D03*
X55853Y30018D02*
D03*
Y26518D02*
D03*
X15850Y37008D02*
D03*
Y33508D02*
D03*
X47422Y37059D02*
D03*
Y40559D02*
D03*
X47423Y26543D02*
D03*
Y30043D02*
D03*
D24*
X15850Y29992D02*
D03*
X55855Y33528D02*
D03*
X55853Y23018D02*
D03*
X15850Y40508D02*
D03*
X47422Y33559D02*
D03*
X47423Y23043D02*
D03*
D25*
X40361Y9779D02*
D03*
X37821D02*
D03*
X32741D02*
D03*
X27661D02*
D03*
X25121D02*
D03*
X30201D02*
D03*
X35281D02*
D03*
D26*
X22581D02*
D03*
D27*
X80289Y9627D02*
D03*
X77749D02*
D03*
X67589D02*
D03*
X65049D02*
D03*
X70129D02*
D03*
X72669D02*
D03*
X75209D02*
D03*
D28*
X62509D02*
D03*
D29*
X25654Y52172D02*
D03*
X28194D02*
D03*
X30734D02*
D03*
X33274D02*
D03*
X35814D02*
D03*
D30*
X38354D02*
D03*
D31*
X73000Y30328D02*
D03*
X72949Y45034D02*
D03*
X77292Y18999D02*
D03*
X75565Y20447D02*
D03*
X72949Y22711D02*
D03*
X67861Y20452D02*
D03*
X75540Y33630D02*
D03*
X80645Y33151D02*
D03*
X78054Y33325D02*
D03*
Y47549D02*
D03*
X75540Y47803D02*
D03*
X33646Y32360D02*
D03*
X39980Y30632D02*
D03*
X32741Y34239D02*
D03*
X42333Y31598D02*
D03*
X25785Y25701D02*
D03*
X27241Y24899D02*
D03*
X31664Y29321D02*
D03*
X26264Y18694D02*
D03*
X24686Y25756D02*
D03*
X30787Y18742D02*
D03*
X32029Y33435D02*
D03*
X34669Y30635D02*
D03*
X32029Y35103D02*
D03*
X37592Y25832D02*
D03*
X38644Y22403D02*
D03*
X29947Y29667D02*
D03*
X30759Y28702D02*
D03*
X22634Y13585D02*
D03*
X23599Y15973D02*
D03*
X35890Y36652D02*
D03*
X39550Y13636D02*
D03*
X19914Y30251D02*
D03*
X22733Y29108D02*
D03*
X41605Y37084D02*
D03*
X33249Y43942D02*
D03*
X35814Y47727D02*
D03*
X39878Y40513D02*
D03*
X20752Y25806D02*
D03*
X13820Y26616D02*
D03*
X23139Y40665D02*
D03*
X87732Y34341D02*
D03*
Y18263D02*
D03*
Y19990D02*
D03*
X87706Y32487D02*
D03*
X79146Y24282D02*
D03*
X79172Y38430D02*
D03*
X79273Y52807D02*
D03*
X79223Y42596D02*
D03*
X79248Y28423D02*
D03*
X79197Y14199D02*
D03*
X83591Y44425D02*
D03*
X83388Y30556D02*
D03*
X83464Y16180D02*
D03*
X79809Y18284D02*
D03*
X83605Y46507D02*
D03*
X79400D02*
D03*
X83681Y32563D02*
D03*
X83541Y18288D02*
D03*
%TF.MD5,a306db41c8794cc892f648ece84fabf5*%
M02*
