%TF.GenerationSoftware,Altium Limited,Altium Designer,21.6.4 (81)*%
G04 Layer_Color=255*
%FSLAX43Y43*%
%MOMM*%
%TF.SameCoordinates,EF7AACBD-433E-4B6D-8733-A8E214C0EB56*%
%TF.FilePolarity,Positive*%
%TF.FileFunction,Pads,Top*%
%TF.Part,Single*%
G01*
G75*
%TA.AperFunction,SMDPad,CuDef*%
%ADD11R,0.900X0.800*%
%ADD12R,1.100X1.200*%
G04:AMPARAMS|DCode=13|XSize=0.9mm|YSize=0.8mm|CornerRadius=0mm|HoleSize=0mm|Usage=FLASHONLY|Rotation=45.000|XOffset=0mm|YOffset=0mm|HoleType=Round|Shape=Rectangle|*
%AMROTATEDRECTD13*
4,1,4,-0.035,-0.601,-0.601,-0.035,0.035,0.601,0.601,0.035,-0.035,-0.601,0.0*
%
%ADD13ROTATEDRECTD13*%

%ADD14R,1.000X2.940*%
G04:AMPARAMS|DCode=15|XSize=0.304mm|YSize=1.353mm|CornerRadius=0mm|HoleSize=0mm|Usage=FLASHONLY|Rotation=45.000|XOffset=0mm|YOffset=0mm|HoleType=Round|Shape=Rectangle|*
%AMROTATEDRECTD15*
4,1,4,0.371,-0.586,-0.586,0.371,-0.371,0.586,0.586,-0.371,0.371,-0.586,0.0*
%
%ADD15ROTATEDRECTD15*%

G04:AMPARAMS|DCode=16|XSize=0.304mm|YSize=1.353mm|CornerRadius=0mm|HoleSize=0mm|Usage=FLASHONLY|Rotation=135.000|XOffset=0mm|YOffset=0mm|HoleType=Round|Shape=Rectangle|*
%AMROTATEDRECTD16*
4,1,4,0.586,0.371,-0.371,-0.586,-0.586,-0.371,0.371,0.586,0.586,0.371,0.0*
%
%ADD16ROTATEDRECTD16*%

%TA.AperFunction,ComponentPad*%
%ADD23C,1.800*%
G04:AMPARAMS|DCode=24|XSize=1.8mm|YSize=1.8mm|CornerRadius=0.45mm|HoleSize=0mm|Usage=FLASHONLY|Rotation=270.000|XOffset=0mm|YOffset=0mm|HoleType=Round|Shape=RoundedRectangle|*
%AMROUNDEDRECTD24*
21,1,1.800,0.900,0,0,270.0*
21,1,0.900,1.800,0,0,270.0*
1,1,0.900,-0.450,-0.450*
1,1,0.900,-0.450,0.450*
1,1,0.900,0.450,0.450*
1,1,0.900,0.450,-0.450*
%
%ADD24ROUNDEDRECTD24*%
%ADD25C,1.600*%
%ADD26R,1.600X1.600*%
%ADD27C,1.520*%
G04:AMPARAMS|DCode=28|XSize=1.52mm|YSize=1.52mm|CornerRadius=0.38mm|HoleSize=0mm|Usage=FLASHONLY|Rotation=0.000|XOffset=0mm|YOffset=0mm|HoleType=Round|Shape=RoundedRectangle|*
%AMROUNDEDRECTD28*
21,1,1.520,0.760,0,0,0.0*
21,1,0.760,1.520,0,0,0.0*
1,1,0.760,0.380,-0.380*
1,1,0.760,-0.380,-0.380*
1,1,0.760,-0.380,0.380*
1,1,0.760,0.380,0.380*
%
%ADD28ROUNDEDRECTD28*%
%ADD29C,1.550*%
%ADD30R,1.550X1.550*%
D11*
X25273Y23774D02*
D03*
X26973D02*
D03*
Y22479D02*
D03*
X25273D02*
D03*
D12*
X21708Y24003D02*
D03*
X23808D02*
D03*
X21708Y22250D02*
D03*
X23808D02*
D03*
Y25756D02*
D03*
X21708D02*
D03*
D13*
X37702Y27822D02*
D03*
X38904Y29024D02*
D03*
D14*
X67894Y28540D02*
D03*
X70434D02*
D03*
X72974D02*
D03*
X75514D02*
D03*
X78054D02*
D03*
Y38100D02*
D03*
X75514D02*
D03*
X72974D02*
D03*
X70434D02*
D03*
X67894D02*
D03*
Y52324D02*
D03*
X70434D02*
D03*
X72974D02*
D03*
X75514D02*
D03*
X78054D02*
D03*
Y42764D02*
D03*
X75514D02*
D03*
X72974D02*
D03*
X70434D02*
D03*
X67894D02*
D03*
X67894Y23860D02*
D03*
X70434D02*
D03*
X72974D02*
D03*
X75514D02*
D03*
X78054D02*
D03*
Y14300D02*
D03*
X75514D02*
D03*
X72974D02*
D03*
X70434D02*
D03*
X67894D02*
D03*
D15*
X36597Y30685D02*
D03*
X36032Y30119D02*
D03*
X35466Y29553D02*
D03*
X34900Y28988D02*
D03*
X34335Y28422D02*
D03*
X33769Y27856D02*
D03*
X33203Y27291D02*
D03*
X32638Y26725D02*
D03*
X26598Y32765D02*
D03*
X27164Y33330D02*
D03*
X27729Y33896D02*
D03*
X28295Y34462D02*
D03*
X28861Y35027D02*
D03*
X29426Y35593D02*
D03*
X29992Y36159D02*
D03*
X30558Y36724D02*
D03*
D16*
Y26725D02*
D03*
X29992Y27291D02*
D03*
X29426Y27856D02*
D03*
X28861Y28422D02*
D03*
X28295Y28988D02*
D03*
X27729Y29553D02*
D03*
X27164Y30119D02*
D03*
X26598Y30685D02*
D03*
X32638Y36724D02*
D03*
X33203Y36159D02*
D03*
X33769Y35593D02*
D03*
X34335Y35027D02*
D03*
X34900Y34462D02*
D03*
X35466Y33896D02*
D03*
X36032Y33330D02*
D03*
X36597Y32765D02*
D03*
D23*
X15850Y26492D02*
D03*
Y22992D02*
D03*
X55855Y40528D02*
D03*
Y37028D02*
D03*
X55853Y30018D02*
D03*
Y26518D02*
D03*
X15850Y37008D02*
D03*
Y33508D02*
D03*
X47422Y37059D02*
D03*
Y40559D02*
D03*
X47423Y26543D02*
D03*
Y30043D02*
D03*
D24*
X15850Y29992D02*
D03*
X55855Y33528D02*
D03*
X55853Y23018D02*
D03*
X15850Y40508D02*
D03*
X47422Y33559D02*
D03*
X47423Y23043D02*
D03*
D25*
X40361Y9779D02*
D03*
X37821D02*
D03*
X32741D02*
D03*
X27661D02*
D03*
X25121D02*
D03*
X30201D02*
D03*
X35281D02*
D03*
D26*
X22581D02*
D03*
D27*
X80289Y9627D02*
D03*
X77749D02*
D03*
X67589D02*
D03*
X65049D02*
D03*
X70129D02*
D03*
X72669D02*
D03*
X75209D02*
D03*
D28*
X62509D02*
D03*
D29*
X25654Y52172D02*
D03*
X28194D02*
D03*
X30734D02*
D03*
X33274D02*
D03*
X35814D02*
D03*
D30*
X38354D02*
D03*
%TF.MD5,eafde8b786621bac87581c997a2aecc8*%
M02*
