%TF.GenerationSoftware,Altium Limited,Altium Designer,21.6.4 (81)*%
G04 Layer_Color=8388736*
%FSLAX43Y43*%
%MOMM*%
%TF.SameCoordinates,EF7AACBD-433E-4B6D-8733-A8E214C0EB56*%
%TF.FilePolarity,Positive*%
%TF.FileFunction,Other,Mechanical_10*%
%TF.Part,Single*%
G01*
G75*
%TA.AperFunction,NonConductor*%
%ADD60C,0.200*%
G36*
X26535Y16149D02*
X26550Y16147D01*
X26566Y16144D01*
X26581Y16140D01*
X26595Y16136D01*
X26607Y16131D01*
X26619Y16126D01*
X26629Y16120D01*
X26639Y16115D01*
X26647Y16110D01*
X26655Y16105D01*
X26660Y16101D01*
X26665Y16097D01*
X26669Y16094D01*
X26670Y16092D01*
X26671Y16091D01*
X26682Y16080D01*
X26692Y16068D01*
X26700Y16056D01*
X26707Y16044D01*
X26713Y16033D01*
X26719Y16021D01*
X26726Y15999D01*
X26728Y15989D01*
X26730Y15980D01*
X26731Y15971D01*
X26732Y15964D01*
X26733Y15958D01*
Y15954D01*
Y15951D01*
Y15950D01*
X26732Y15928D01*
X26729Y15907D01*
X26723Y15890D01*
X26718Y15875D01*
X26712Y15863D01*
X26707Y15854D01*
X26703Y15848D01*
X26702Y15846D01*
X26689Y15833D01*
X26675Y15821D01*
X26660Y15811D01*
X26645Y15804D01*
X26633Y15798D01*
X26622Y15795D01*
X26619Y15794D01*
X26616Y15793D01*
X26614Y15792D01*
X26613D01*
X26629Y15784D01*
X26642Y15775D01*
X26653Y15766D01*
X26662Y15758D01*
X26670Y15750D01*
X26675Y15744D01*
X26678Y15740D01*
X26679Y15738D01*
X26686Y15725D01*
X26692Y15712D01*
X26696Y15699D01*
X26699Y15687D01*
X26701Y15677D01*
X26702Y15670D01*
Y15664D01*
Y15662D01*
X26701Y15647D01*
X26698Y15631D01*
X26694Y15617D01*
X26690Y15605D01*
X26685Y15595D01*
X26682Y15587D01*
X26679Y15582D01*
X26678Y15580D01*
X26669Y15566D01*
X26658Y15554D01*
X26646Y15544D01*
X26635Y15535D01*
X26626Y15528D01*
X26618Y15523D01*
X26612Y15520D01*
X26611Y15519D01*
X26610D01*
X26594Y15512D01*
X26577Y15506D01*
X26560Y15502D01*
X26546Y15499D01*
X26534Y15497D01*
X26523Y15496D01*
X26500D01*
X26487Y15498D01*
X26462Y15502D01*
X26441Y15510D01*
X26423Y15517D01*
X26414Y15522D01*
X26408Y15526D01*
X26401Y15529D01*
X26397Y15533D01*
X26393Y15536D01*
X26390Y15538D01*
X26388Y15539D01*
X26388Y15539D01*
X26370Y15557D01*
X26356Y15576D01*
X26345Y15597D01*
X26336Y15617D01*
X26330Y15635D01*
X26327Y15642D01*
X26326Y15649D01*
X26325Y15654D01*
X26324Y15658D01*
X26323Y15661D01*
Y15661D01*
X26401Y15675D01*
X26405Y15655D01*
X26411Y15637D01*
X26417Y15623D01*
X26424Y15611D01*
X26430Y15601D01*
X26436Y15595D01*
X26439Y15590D01*
X26440Y15589D01*
X26452Y15580D01*
X26465Y15573D01*
X26477Y15568D01*
X26489Y15564D01*
X26500Y15563D01*
X26509Y15561D01*
X26516D01*
X26533Y15562D01*
X26547Y15565D01*
X26560Y15570D01*
X26572Y15575D01*
X26580Y15580D01*
X26586Y15585D01*
X26591Y15588D01*
X26592Y15589D01*
X26602Y15600D01*
X26609Y15612D01*
X26614Y15625D01*
X26618Y15636D01*
X26620Y15646D01*
X26621Y15653D01*
Y15659D01*
Y15660D01*
Y15661D01*
Y15671D01*
X26620Y15680D01*
X26615Y15696D01*
X26608Y15710D01*
X26601Y15722D01*
X26594Y15730D01*
X26587Y15736D01*
X26583Y15740D01*
X26582Y15741D01*
X26581D01*
X26565Y15749D01*
X26550Y15756D01*
X26535Y15760D01*
X26521Y15763D01*
X26509Y15765D01*
X26498Y15767D01*
X26486D01*
X26483Y15766D01*
X26478D01*
X26469Y15835D01*
X26481Y15833D01*
X26492Y15831D01*
X26501Y15829D01*
X26510Y15828D01*
X26516Y15827D01*
X26524D01*
X26544Y15829D01*
X26561Y15833D01*
X26577Y15838D01*
X26590Y15845D01*
X26600Y15851D01*
X26608Y15857D01*
X26612Y15860D01*
X26614Y15862D01*
X26626Y15876D01*
X26635Y15891D01*
X26642Y15906D01*
X26645Y15920D01*
X26648Y15932D01*
X26649Y15943D01*
X26650Y15946D01*
Y15949D01*
Y15951D01*
Y15952D01*
X26648Y15972D01*
X26644Y15991D01*
X26638Y16006D01*
X26631Y16020D01*
X26623Y16031D01*
X26618Y16040D01*
X26613Y16045D01*
X26611Y16047D01*
X26596Y16060D01*
X26581Y16069D01*
X26565Y16076D01*
X26550Y16080D01*
X26537Y16083D01*
X26527Y16084D01*
X26523Y16085D01*
X26518D01*
X26501Y16084D01*
X26486Y16080D01*
X26472Y16076D01*
X26461Y16070D01*
X26451Y16066D01*
X26444Y16061D01*
X26440Y16057D01*
X26438Y16056D01*
X26427Y16043D01*
X26418Y16029D01*
X26410Y16013D01*
X26403Y15996D01*
X26399Y15982D01*
X26397Y15976D01*
X26396Y15970D01*
X26395Y15966D01*
X26394Y15962D01*
X26393Y15960D01*
Y15959D01*
X26314Y15969D01*
X26316Y15984D01*
X26319Y15998D01*
X26327Y16024D01*
X26338Y16046D01*
X26343Y16055D01*
X26349Y16065D01*
X26354Y16073D01*
X26360Y16079D01*
X26364Y16086D01*
X26369Y16090D01*
X26372Y16094D01*
X26375Y16097D01*
X26376Y16099D01*
X26377Y16100D01*
X26388Y16108D01*
X26400Y16116D01*
X26411Y16123D01*
X26423Y16128D01*
X26446Y16138D01*
X26468Y16143D01*
X26478Y16145D01*
X26487Y16147D01*
X26496Y16148D01*
X26503Y16149D01*
X26509Y16150D01*
X26517D01*
X26535Y16149D01*
D02*
G37*
G36*
X25952Y16138D02*
X25971Y16137D01*
X25989Y16135D01*
X26004Y16133D01*
X26017Y16131D01*
X26026Y16130D01*
X26029Y16129D01*
X26032Y16128D01*
X26033D01*
X26050Y16124D01*
X26065Y16118D01*
X26078Y16114D01*
X26089Y16108D01*
X26098Y16103D01*
X26105Y16100D01*
X26108Y16097D01*
X26110Y16096D01*
X26122Y16088D01*
X26132Y16078D01*
X26143Y16068D01*
X26151Y16059D01*
X26158Y16051D01*
X26164Y16044D01*
X26167Y16040D01*
X26168Y16038D01*
X26178Y16023D01*
X26187Y16007D01*
X26194Y15992D01*
X26200Y15978D01*
X26205Y15965D01*
X26209Y15955D01*
X26210Y15951D01*
X26211Y15948D01*
X26212Y15946D01*
Y15945D01*
X26217Y15923D01*
X26222Y15901D01*
X26225Y15880D01*
X26228Y15859D01*
X26229Y15842D01*
Y15834D01*
X26229Y15828D01*
Y15823D01*
Y15819D01*
Y15817D01*
Y15816D01*
X26229Y15784D01*
X26226Y15756D01*
X26221Y15730D01*
X26219Y15718D01*
X26216Y15708D01*
X26214Y15698D01*
X26212Y15689D01*
X26210Y15682D01*
X26207Y15675D01*
X26206Y15670D01*
X26204Y15666D01*
X26204Y15664D01*
Y15663D01*
X26193Y15639D01*
X26181Y15618D01*
X26168Y15600D01*
X26156Y15584D01*
X26145Y15571D01*
X26136Y15562D01*
X26132Y15559D01*
X26130Y15556D01*
X26129Y15555D01*
X26128Y15554D01*
X26113Y15542D01*
X26097Y15533D01*
X26081Y15525D01*
X26067Y15518D01*
X26054Y15514D01*
X26044Y15511D01*
X26040Y15509D01*
X26037D01*
X26035Y15508D01*
X26034D01*
X26019Y15505D01*
X26000Y15502D01*
X25982Y15501D01*
X25963Y15500D01*
X25947Y15499D01*
X25701D01*
Y16139D01*
X25931D01*
X25952Y16138D01*
D02*
G37*
G36*
X23583Y24467D02*
X23588D01*
X23594Y24467D01*
X23610Y24464D01*
X23627Y24460D01*
X23647Y24454D01*
X23666Y24445D01*
X23686Y24434D01*
X23687D01*
X23688Y24432D01*
X23690Y24431D01*
X23694Y24428D01*
X23703Y24420D01*
X23715Y24410D01*
X23727Y24396D01*
X23741Y24380D01*
X23753Y24360D01*
X23764Y24338D01*
Y24337D01*
X23765Y24335D01*
X23767Y24332D01*
X23769Y24327D01*
X23771Y24320D01*
X23774Y24312D01*
X23775Y24303D01*
X23778Y24293D01*
X23781Y24281D01*
X23784Y24267D01*
X23786Y24252D01*
X23787Y24236D01*
X23789Y24219D01*
X23791Y24200D01*
X23792Y24180D01*
Y24159D01*
Y24158D01*
Y24153D01*
Y24147D01*
Y24138D01*
X23791Y24128D01*
Y24116D01*
X23790Y24102D01*
X23788Y24088D01*
X23786Y24057D01*
X23781Y24024D01*
X23774Y23992D01*
X23770Y23977D01*
X23765Y23963D01*
Y23962D01*
X23764Y23960D01*
X23762Y23956D01*
X23761Y23951D01*
X23758Y23945D01*
X23754Y23938D01*
X23745Y23922D01*
X23734Y23904D01*
X23721Y23886D01*
X23704Y23868D01*
X23686Y23853D01*
X23685D01*
X23683Y23851D01*
X23680Y23849D01*
X23676Y23847D01*
X23671Y23844D01*
X23665Y23841D01*
X23658Y23837D01*
X23651Y23834D01*
X23633Y23827D01*
X23612Y23820D01*
X23589Y23817D01*
X23563Y23815D01*
X23555D01*
X23551Y23816D01*
X23544D01*
X23537Y23817D01*
X23519Y23820D01*
X23500Y23825D01*
X23480Y23832D01*
X23459Y23842D01*
X23449Y23849D01*
X23440Y23856D01*
X23439Y23857D01*
X23438Y23858D01*
X23435Y23861D01*
X23432Y23864D01*
X23429Y23868D01*
X23424Y23874D01*
X23415Y23887D01*
X23406Y23904D01*
X23396Y23924D01*
X23389Y23947D01*
X23383Y23974D01*
X23459Y23980D01*
Y23979D01*
X23460Y23977D01*
Y23976D01*
X23461Y23972D01*
X23464Y23962D01*
X23468Y23951D01*
X23472Y23938D01*
X23479Y23925D01*
X23486Y23913D01*
X23495Y23903D01*
X23496Y23902D01*
X23500Y23899D01*
X23506Y23895D01*
X23514Y23891D01*
X23524Y23887D01*
X23536Y23883D01*
X23550Y23880D01*
X23565Y23879D01*
X23571D01*
X23578Y23880D01*
X23586Y23881D01*
X23596Y23883D01*
X23606Y23886D01*
X23617Y23890D01*
X23627Y23895D01*
X23628Y23896D01*
X23632Y23898D01*
X23638Y23902D01*
X23643Y23907D01*
X23651Y23914D01*
X23658Y23921D01*
X23665Y23929D01*
X23673Y23940D01*
X23674Y23941D01*
X23676Y23945D01*
X23679Y23952D01*
X23683Y23960D01*
X23688Y23971D01*
X23692Y23984D01*
X23697Y23999D01*
X23701Y24015D01*
Y24016D01*
X23702Y24017D01*
Y24020D01*
X23703Y24024D01*
X23705Y24033D01*
X23708Y24045D01*
X23710Y24060D01*
X23712Y24075D01*
X23713Y24093D01*
X23713Y24112D01*
Y24112D01*
Y24115D01*
Y24120D01*
Y24127D01*
X23713Y24125D01*
X23709Y24121D01*
X23703Y24114D01*
X23697Y24105D01*
X23688Y24096D01*
X23676Y24086D01*
X23664Y24075D01*
X23649Y24066D01*
X23647Y24065D01*
X23641Y24063D01*
X23633Y24059D01*
X23623Y24055D01*
X23609Y24051D01*
X23594Y24047D01*
X23578Y24044D01*
X23560Y24043D01*
X23553D01*
X23547Y24044D01*
X23540Y24045D01*
X23532Y24046D01*
X23523Y24048D01*
X23514Y24051D01*
X23493Y24057D01*
X23481Y24062D01*
X23470Y24067D01*
X23458Y24074D01*
X23447Y24082D01*
X23436Y24090D01*
X23426Y24100D01*
X23425Y24101D01*
X23423Y24103D01*
X23421Y24106D01*
X23418Y24111D01*
X23413Y24117D01*
X23408Y24124D01*
X23404Y24132D01*
X23399Y24141D01*
X23394Y24151D01*
X23389Y24162D01*
X23384Y24175D01*
X23380Y24188D01*
X23376Y24203D01*
X23374Y24219D01*
X23372Y24235D01*
X23371Y24252D01*
Y24253D01*
Y24257D01*
Y24261D01*
X23372Y24268D01*
X23373Y24276D01*
X23374Y24286D01*
X23376Y24296D01*
X23379Y24308D01*
X23385Y24333D01*
X23390Y24345D01*
X23395Y24359D01*
X23402Y24372D01*
X23410Y24384D01*
X23419Y24397D01*
X23429Y24408D01*
X23430Y24409D01*
X23431Y24411D01*
X23434Y24414D01*
X23439Y24418D01*
X23444Y24422D01*
X23452Y24428D01*
X23459Y24432D01*
X23468Y24439D01*
X23478Y24444D01*
X23489Y24449D01*
X23514Y24459D01*
X23527Y24463D01*
X23542Y24466D01*
X23556Y24467D01*
X23572Y24468D01*
X23578D01*
X23583Y24467D01*
D02*
G37*
G36*
X23021Y24465D02*
X23039Y24464D01*
X23058Y24462D01*
X23076Y24459D01*
X23092Y24456D01*
X23093D01*
X23095Y24455D01*
X23098D01*
X23101Y24454D01*
X23112Y24451D01*
X23125Y24446D01*
X23139Y24440D01*
X23155Y24431D01*
X23171Y24422D01*
X23186Y24410D01*
X23186Y24409D01*
X23187Y24408D01*
X23190Y24406D01*
X23194Y24403D01*
X23203Y24394D01*
X23214Y24381D01*
X23226Y24365D01*
X23239Y24346D01*
X23251Y24325D01*
X23261Y24301D01*
Y24300D01*
X23262Y24298D01*
X23264Y24295D01*
X23265Y24289D01*
X23268Y24283D01*
X23270Y24275D01*
X23272Y24267D01*
X23274Y24257D01*
X23277Y24247D01*
X23279Y24235D01*
X23284Y24209D01*
X23286Y24180D01*
X23287Y24149D01*
Y24148D01*
Y24146D01*
Y24141D01*
Y24136D01*
X23286Y24130D01*
Y24123D01*
X23285Y24105D01*
X23283Y24085D01*
X23280Y24063D01*
X23275Y24041D01*
X23270Y24019D01*
Y24018D01*
X23269Y24016D01*
X23268Y24014D01*
X23267Y24010D01*
X23263Y24000D01*
X23258Y23987D01*
X23252Y23972D01*
X23245Y23957D01*
X23235Y23941D01*
X23226Y23927D01*
X23225Y23925D01*
X23222Y23920D01*
X23216Y23914D01*
X23209Y23905D01*
X23200Y23896D01*
X23190Y23887D01*
X23180Y23877D01*
X23168Y23868D01*
X23166Y23867D01*
X23162Y23865D01*
X23156Y23861D01*
X23147Y23856D01*
X23136Y23851D01*
X23123Y23846D01*
X23108Y23841D01*
X23091Y23836D01*
X23089D01*
X23087Y23835D01*
X23084Y23834D01*
X23075Y23833D01*
X23062Y23831D01*
X23047Y23830D01*
X23029Y23828D01*
X23010Y23827D01*
X22989Y23826D01*
X22758D01*
Y24466D01*
X23004D01*
X23021Y24465D01*
D02*
G37*
G36*
X23667Y22073D02*
X23589D01*
Y22573D01*
X23588Y22573D01*
X23583Y22569D01*
X23578Y22563D01*
X23568Y22557D01*
X23558Y22548D01*
X23545Y22539D01*
X23530Y22529D01*
X23514Y22519D01*
X23513D01*
X23512Y22518D01*
X23506Y22514D01*
X23497Y22510D01*
X23486Y22504D01*
X23473Y22498D01*
X23459Y22491D01*
X23445Y22485D01*
X23431Y22479D01*
Y22555D01*
X23432D01*
X23434Y22557D01*
X23438Y22558D01*
X23443Y22560D01*
X23448Y22563D01*
X23455Y22567D01*
X23470Y22576D01*
X23489Y22586D01*
X23507Y22599D01*
X23527Y22614D01*
X23546Y22630D01*
X23547Y22631D01*
X23548Y22632D01*
X23551Y22634D01*
X23554Y22637D01*
X23563Y22646D01*
X23574Y22658D01*
X23585Y22671D01*
X23597Y22685D01*
X23607Y22700D01*
X23616Y22716D01*
X23667D01*
Y22073D01*
D02*
G37*
G36*
X23021Y22712D02*
X23039Y22711D01*
X23058Y22709D01*
X23076Y22707D01*
X23092Y22704D01*
X23093D01*
X23095Y22703D01*
X23098D01*
X23101Y22701D01*
X23112Y22698D01*
X23125Y22694D01*
X23139Y22687D01*
X23155Y22679D01*
X23171Y22670D01*
X23186Y22658D01*
X23186Y22657D01*
X23187Y22656D01*
X23190Y22653D01*
X23194Y22650D01*
X23203Y22641D01*
X23214Y22628D01*
X23226Y22612D01*
X23239Y22594D01*
X23251Y22573D01*
X23261Y22548D01*
Y22548D01*
X23262Y22546D01*
X23264Y22542D01*
X23265Y22536D01*
X23268Y22530D01*
X23270Y22523D01*
X23272Y22514D01*
X23274Y22504D01*
X23277Y22494D01*
X23279Y22482D01*
X23284Y22456D01*
X23286Y22427D01*
X23287Y22396D01*
Y22395D01*
Y22393D01*
Y22389D01*
Y22384D01*
X23286Y22377D01*
Y22370D01*
X23285Y22352D01*
X23283Y22332D01*
X23280Y22311D01*
X23275Y22289D01*
X23270Y22266D01*
Y22266D01*
X23269Y22264D01*
X23268Y22261D01*
X23267Y22257D01*
X23263Y22247D01*
X23258Y22234D01*
X23252Y22219D01*
X23245Y22205D01*
X23235Y22189D01*
X23226Y22174D01*
X23225Y22172D01*
X23222Y22168D01*
X23216Y22161D01*
X23209Y22153D01*
X23200Y22144D01*
X23190Y22134D01*
X23180Y22124D01*
X23168Y22116D01*
X23166Y22115D01*
X23162Y22112D01*
X23156Y22108D01*
X23147Y22104D01*
X23136Y22098D01*
X23123Y22094D01*
X23108Y22088D01*
X23091Y22083D01*
X23089D01*
X23087Y22083D01*
X23084Y22082D01*
X23075Y22081D01*
X23062Y22079D01*
X23047Y22077D01*
X23029Y22075D01*
X23010Y22074D01*
X22989Y22073D01*
X22758D01*
Y22713D01*
X23004D01*
X23021Y22712D01*
D02*
G37*
G36*
X24096Y22715D02*
X24108Y22713D01*
X24122Y22710D01*
X24137Y22707D01*
X24153Y22702D01*
X24167Y22695D01*
X24168D01*
X24169Y22694D01*
X24174Y22691D01*
X24181Y22686D01*
X24191Y22680D01*
X24201Y22671D01*
X24212Y22660D01*
X24222Y22648D01*
X24232Y22634D01*
X24233Y22633D01*
X24237Y22628D01*
X24240Y22620D01*
X24247Y22608D01*
X24252Y22594D01*
X24260Y22578D01*
X24266Y22560D01*
X24272Y22539D01*
Y22538D01*
X24273Y22536D01*
X24274Y22534D01*
X24275Y22529D01*
X24276Y22524D01*
X24277Y22517D01*
X24278Y22509D01*
X24279Y22499D01*
X24281Y22489D01*
X24282Y22478D01*
X24283Y22465D01*
X24285Y22452D01*
X24286Y22438D01*
Y22423D01*
X24287Y22406D01*
Y22389D01*
Y22388D01*
Y22384D01*
Y22377D01*
Y22370D01*
X24286Y22360D01*
Y22349D01*
X24285Y22337D01*
X24284Y22324D01*
X24281Y22294D01*
X24277Y22264D01*
X24271Y22234D01*
X24267Y22220D01*
X24263Y22206D01*
Y22205D01*
X24262Y22204D01*
X24260Y22200D01*
X24258Y22195D01*
X24256Y22189D01*
X24252Y22182D01*
X24245Y22167D01*
X24236Y22150D01*
X24224Y22132D01*
X24210Y22115D01*
X24193Y22099D01*
X24192D01*
X24191Y22097D01*
X24189Y22095D01*
X24185Y22094D01*
X24180Y22091D01*
X24176Y22087D01*
X24162Y22081D01*
X24145Y22074D01*
X24126Y22068D01*
X24103Y22064D01*
X24078Y22062D01*
X24069D01*
X24062Y22063D01*
X24055Y22064D01*
X24045Y22066D01*
X24035Y22068D01*
X24024Y22070D01*
X24013Y22074D01*
X24001Y22078D01*
X23989Y22083D01*
X23977Y22090D01*
X23965Y22097D01*
X23953Y22107D01*
X23942Y22117D01*
X23932Y22128D01*
X23931Y22129D01*
X23929Y22132D01*
X23926Y22136D01*
X23921Y22144D01*
X23917Y22152D01*
X23912Y22163D01*
X23906Y22176D01*
X23900Y22191D01*
X23895Y22207D01*
X23889Y22227D01*
X23884Y22248D01*
X23879Y22272D01*
X23874Y22298D01*
X23872Y22326D01*
X23870Y22356D01*
X23869Y22389D01*
Y22389D01*
Y22393D01*
Y22400D01*
Y22407D01*
X23870Y22417D01*
Y22428D01*
X23871Y22440D01*
X23872Y22454D01*
X23874Y22483D01*
X23879Y22513D01*
X23885Y22544D01*
X23888Y22558D01*
X23892Y22572D01*
Y22573D01*
X23893Y22574D01*
X23895Y22578D01*
X23897Y22583D01*
X23898Y22589D01*
X23902Y22596D01*
X23909Y22611D01*
X23919Y22628D01*
X23931Y22646D01*
X23945Y22663D01*
X23961Y22678D01*
X23962D01*
X23963Y22680D01*
X23966Y22682D01*
X23970Y22683D01*
X23974Y22687D01*
X23980Y22690D01*
X23994Y22697D01*
X24010Y22704D01*
X24030Y22710D01*
X24053Y22714D01*
X24078Y22716D01*
X24086D01*
X24096Y22715D01*
D02*
G37*
G36*
X41181Y53927D02*
X41596D01*
Y53863D01*
X41181Y53570D01*
X41109D01*
Y53848D01*
X40956D01*
Y53927D01*
X41109D01*
Y54014D01*
X41181D01*
Y53927D01*
D02*
G37*
G36*
X41180Y53440D02*
X41165Y53436D01*
X41151Y53431D01*
X41138Y53427D01*
X41126Y53422D01*
X41115Y53417D01*
X41106Y53411D01*
X41096Y53405D01*
X41088Y53399D01*
X41081Y53394D01*
X41075Y53389D01*
X41070Y53384D01*
X41065Y53381D01*
X41062Y53377D01*
X41059Y53374D01*
X41059Y53373D01*
X41058Y53372D01*
X41050Y53363D01*
X41045Y53353D01*
X41034Y53333D01*
X41027Y53313D01*
X41022Y53294D01*
X41019Y53277D01*
X41018Y53271D01*
Y53264D01*
X41017Y53259D01*
Y53252D01*
X41018Y53231D01*
X41022Y53210D01*
X41026Y53192D01*
X41032Y53175D01*
X41037Y53162D01*
X41040Y53157D01*
X41042Y53152D01*
X41044Y53149D01*
X41046Y53146D01*
X41046Y53144D01*
Y53143D01*
X41059Y53125D01*
X41073Y53111D01*
X41089Y53098D01*
X41104Y53088D01*
X41117Y53079D01*
X41128Y53074D01*
X41132Y53072D01*
X41135Y53070D01*
X41137Y53069D01*
X41138D01*
X41162Y53062D01*
X41186Y53056D01*
X41210Y53051D01*
X41232Y53049D01*
X41242Y53048D01*
X41252Y53047D01*
X41260D01*
X41267Y53046D01*
X41272D01*
X41277D01*
X41279D01*
X41280D01*
X41304Y53047D01*
X41327Y53049D01*
X41347Y53052D01*
X41365Y53056D01*
X41381Y53059D01*
X41388Y53061D01*
X41393Y53063D01*
X41398Y53063D01*
X41401Y53064D01*
X41402Y53065D01*
X41403D01*
X41425Y53075D01*
X41444Y53085D01*
X41460Y53096D01*
X41474Y53108D01*
X41485Y53118D01*
X41492Y53126D01*
X41497Y53133D01*
X41499Y53134D01*
Y53135D01*
X41511Y53154D01*
X41520Y53175D01*
X41526Y53196D01*
X41530Y53215D01*
X41533Y53233D01*
X41534Y53240D01*
Y53247D01*
X41535Y53251D01*
Y53259D01*
X41534Y53282D01*
X41530Y53303D01*
X41524Y53320D01*
X41519Y53336D01*
X41512Y53348D01*
X41508Y53357D01*
X41504Y53363D01*
X41502Y53365D01*
X41488Y53380D01*
X41473Y53394D01*
X41456Y53405D01*
X41439Y53414D01*
X41425Y53421D01*
X41417Y53424D01*
X41412Y53426D01*
X41407Y53428D01*
X41403Y53430D01*
X41402Y53431D01*
X41401D01*
X41420Y53514D01*
X41437Y53508D01*
X41451Y53503D01*
X41465Y53495D01*
X41479Y53489D01*
X41491Y53481D01*
X41502Y53473D01*
X41513Y53466D01*
X41523Y53458D01*
X41530Y53451D01*
X41537Y53444D01*
X41544Y53438D01*
X41549Y53433D01*
X41553Y53429D01*
X41556Y53425D01*
X41557Y53423D01*
X41558Y53422D01*
X41566Y53409D01*
X41574Y53396D01*
X41581Y53383D01*
X41586Y53369D01*
X41595Y53342D01*
X41600Y53317D01*
X41603Y53305D01*
X41604Y53295D01*
X41605Y53284D01*
X41606Y53276D01*
X41607Y53270D01*
Y53260D01*
X41605Y53230D01*
X41600Y53200D01*
X41595Y53174D01*
X41591Y53162D01*
X41587Y53151D01*
X41584Y53141D01*
X41580Y53132D01*
X41577Y53124D01*
X41574Y53117D01*
X41572Y53112D01*
X41570Y53109D01*
X41569Y53106D01*
X41568Y53105D01*
X41552Y53080D01*
X41534Y53059D01*
X41515Y53040D01*
X41497Y53025D01*
X41480Y53013D01*
X41473Y53008D01*
X41466Y53004D01*
X41462Y53001D01*
X41458Y52999D01*
X41455Y52998D01*
X41454Y52997D01*
X41426Y52984D01*
X41396Y52975D01*
X41366Y52968D01*
X41340Y52964D01*
X41328Y52962D01*
X41316Y52961D01*
X41306Y52960D01*
X41297D01*
X41291Y52959D01*
X41285D01*
X41281D01*
X41280D01*
X41247Y52961D01*
X41215Y52965D01*
X41186Y52969D01*
X41172Y52973D01*
X41160Y52976D01*
X41149Y52978D01*
X41139Y52982D01*
X41130Y52985D01*
X41122Y52987D01*
X41117Y52989D01*
X41112Y52990D01*
X41109Y52992D01*
X41108D01*
X41081Y53006D01*
X41056Y53022D01*
X41034Y53039D01*
X41026Y53047D01*
X41018Y53054D01*
X41010Y53062D01*
X41004Y53069D01*
X40998Y53075D01*
X40995Y53081D01*
X40991Y53085D01*
X40988Y53088D01*
X40987Y53090D01*
X40986Y53091D01*
X40979Y53104D01*
X40973Y53117D01*
X40962Y53145D01*
X40955Y53173D01*
X40950Y53199D01*
X40948Y53212D01*
X40947Y53223D01*
X40946Y53234D01*
Y53242D01*
X40945Y53249D01*
Y53259D01*
X40946Y53278D01*
X40948Y53296D01*
X40949Y53312D01*
X40953Y53328D01*
X40958Y53343D01*
X40962Y53357D01*
X40967Y53369D01*
X40973Y53382D01*
X40977Y53392D01*
X40982Y53402D01*
X40986Y53409D01*
X40991Y53417D01*
X40995Y53421D01*
X40997Y53426D01*
X40998Y53428D01*
X40999Y53429D01*
X41010Y53442D01*
X41022Y53453D01*
X41034Y53463D01*
X41047Y53473D01*
X41073Y53490D01*
X41099Y53503D01*
X41111Y53508D01*
X41122Y53513D01*
X41132Y53516D01*
X41141Y53519D01*
X41148Y53522D01*
X41154Y53524D01*
X41157Y53525D01*
X41158D01*
X41180Y53440D01*
D02*
G37*
G36*
X43449Y53093D02*
X43465Y53091D01*
X43481Y53088D01*
X43495Y53084D01*
X43508Y53080D01*
X43521Y53075D01*
X43532Y53069D01*
X43542Y53065D01*
X43551Y53059D01*
X43559Y53054D01*
X43566Y53049D01*
X43572Y53045D01*
X43577Y53041D01*
X43580Y53038D01*
X43582Y53036D01*
X43583Y53035D01*
X43593Y53024D01*
X43602Y53013D01*
X43609Y53001D01*
X43616Y52989D01*
X43622Y52977D01*
X43627Y52965D01*
X43633Y52943D01*
X43636Y52933D01*
X43638Y52923D01*
X43639Y52915D01*
X43640Y52908D01*
X43641Y52902D01*
Y52882D01*
X43639Y52871D01*
X43634Y52849D01*
X43628Y52828D01*
X43621Y52810D01*
X43613Y52795D01*
X43609Y52788D01*
X43607Y52783D01*
X43604Y52778D01*
X43602Y52775D01*
X43601Y52774D01*
X43600Y52773D01*
X43773Y52807D01*
Y53063D01*
X43848D01*
Y52745D01*
X43519Y52683D01*
X43509Y52757D01*
X43519Y52763D01*
X43527Y52772D01*
X43535Y52779D01*
X43542Y52787D01*
X43547Y52794D01*
X43551Y52800D01*
X43553Y52803D01*
X43554Y52804D01*
X43559Y52816D01*
X43564Y52828D01*
X43567Y52839D01*
X43570Y52850D01*
X43571Y52860D01*
X43572Y52867D01*
Y52885D01*
X43570Y52896D01*
X43565Y52915D01*
X43559Y52932D01*
X43552Y52947D01*
X43545Y52958D01*
X43538Y52966D01*
X43534Y52971D01*
X43533Y52972D01*
X43532D01*
X43516Y52985D01*
X43499Y52995D01*
X43482Y53001D01*
X43464Y53006D01*
X43449Y53008D01*
X43443Y53009D01*
X43437D01*
X43433Y53010D01*
X43429D01*
X43427D01*
X43426D01*
X43413D01*
X43401Y53008D01*
X43378Y53004D01*
X43359Y52997D01*
X43343Y52991D01*
X43330Y52984D01*
X43320Y52977D01*
X43317Y52974D01*
X43314Y52972D01*
X43314Y52971D01*
X43313Y52971D01*
X43305Y52963D01*
X43299Y52956D01*
X43288Y52939D01*
X43280Y52923D01*
X43276Y52908D01*
X43272Y52895D01*
X43271Y52884D01*
X43270Y52880D01*
Y52874D01*
X43271Y52857D01*
X43275Y52841D01*
X43279Y52827D01*
X43285Y52816D01*
X43290Y52806D01*
X43295Y52799D01*
X43299Y52795D01*
X43300Y52793D01*
X43313Y52782D01*
X43326Y52773D01*
X43342Y52765D01*
X43356Y52760D01*
X43370Y52756D01*
X43380Y52753D01*
X43385Y52752D01*
X43388Y52751D01*
X43389D01*
X43390D01*
X43384Y52669D01*
X43369Y52671D01*
X43355Y52674D01*
X43329Y52682D01*
X43307Y52692D01*
X43297Y52698D01*
X43289Y52703D01*
X43280Y52708D01*
X43273Y52714D01*
X43267Y52718D01*
X43263Y52723D01*
X43259Y52726D01*
X43255Y52728D01*
X43254Y52730D01*
X43253Y52731D01*
X43245Y52742D01*
X43238Y52753D01*
X43231Y52765D01*
X43226Y52777D01*
X43217Y52800D01*
X43212Y52824D01*
X43209Y52834D01*
X43208Y52844D01*
X43207Y52852D01*
X43206Y52860D01*
X43205Y52866D01*
Y52874D01*
X43206Y52894D01*
X43209Y52912D01*
X43213Y52930D01*
X43217Y52946D01*
X43224Y52960D01*
X43230Y52974D01*
X43237Y52987D01*
X43244Y52998D01*
X43252Y53008D01*
X43258Y53018D01*
X43265Y53025D01*
X43271Y53032D01*
X43276Y53036D01*
X43279Y53040D01*
X43282Y53042D01*
X43283Y53043D01*
X43295Y53052D01*
X43308Y53059D01*
X43320Y53067D01*
X43333Y53072D01*
X43358Y53082D01*
X43382Y53087D01*
X43392Y53089D01*
X43402Y53091D01*
X43411Y53092D01*
X43418Y53093D01*
X43425Y53094D01*
X43429D01*
X43432D01*
X43433D01*
X43449Y53093D01*
D02*
G37*
G36*
X43440Y52512D02*
X43425Y52508D01*
X43412Y52504D01*
X43399Y52499D01*
X43387Y52494D01*
X43376Y52489D01*
X43366Y52483D01*
X43357Y52477D01*
X43349Y52471D01*
X43341Y52467D01*
X43336Y52461D01*
X43330Y52457D01*
X43326Y52453D01*
X43323Y52449D01*
X43320Y52446D01*
X43319Y52445D01*
X43318Y52444D01*
X43311Y52435D01*
X43305Y52425D01*
X43295Y52405D01*
X43288Y52385D01*
X43283Y52366D01*
X43279Y52349D01*
X43278Y52343D01*
Y52336D01*
X43278Y52331D01*
Y52324D01*
X43278Y52303D01*
X43282Y52283D01*
X43287Y52264D01*
X43292Y52248D01*
X43298Y52235D01*
X43301Y52229D01*
X43302Y52224D01*
X43304Y52221D01*
X43306Y52218D01*
X43307Y52216D01*
Y52215D01*
X43320Y52198D01*
X43334Y52183D01*
X43350Y52170D01*
X43364Y52160D01*
X43377Y52151D01*
X43388Y52146D01*
X43393Y52144D01*
X43396Y52142D01*
X43398Y52141D01*
X43399D01*
X43423Y52134D01*
X43447Y52128D01*
X43471Y52124D01*
X43493Y52121D01*
X43503Y52120D01*
X43512Y52119D01*
X43521D01*
X43527Y52118D01*
X43533D01*
X43537D01*
X43540D01*
X43541D01*
X43565Y52119D01*
X43587Y52121D01*
X43608Y52125D01*
X43626Y52128D01*
X43642Y52131D01*
X43648Y52133D01*
X43654Y52135D01*
X43658Y52136D01*
X43661Y52137D01*
X43663Y52138D01*
X43664D01*
X43685Y52147D01*
X43705Y52157D01*
X43720Y52168D01*
X43734Y52180D01*
X43745Y52190D01*
X43753Y52199D01*
X43757Y52205D01*
X43759Y52206D01*
Y52207D01*
X43771Y52226D01*
X43780Y52248D01*
X43787Y52268D01*
X43791Y52287D01*
X43793Y52305D01*
X43794Y52312D01*
Y52319D01*
X43795Y52323D01*
Y52331D01*
X43794Y52354D01*
X43791Y52375D01*
X43785Y52393D01*
X43780Y52408D01*
X43773Y52420D01*
X43768Y52430D01*
X43765Y52435D01*
X43763Y52437D01*
X43749Y52452D01*
X43733Y52466D01*
X43717Y52477D01*
X43700Y52486D01*
X43685Y52493D01*
X43678Y52496D01*
X43672Y52498D01*
X43668Y52500D01*
X43664Y52502D01*
X43662Y52503D01*
X43661D01*
X43681Y52586D01*
X43697Y52580D01*
X43712Y52575D01*
X43726Y52567D01*
X43740Y52561D01*
X43752Y52554D01*
X43763Y52545D01*
X43774Y52538D01*
X43783Y52530D01*
X43791Y52523D01*
X43798Y52517D01*
X43805Y52510D01*
X43809Y52506D01*
X43814Y52501D01*
X43817Y52497D01*
X43817Y52495D01*
X43818Y52494D01*
X43827Y52481D01*
X43835Y52469D01*
X43841Y52456D01*
X43847Y52442D01*
X43855Y52414D01*
X43861Y52389D01*
X43864Y52377D01*
X43865Y52367D01*
X43866Y52357D01*
X43866Y52348D01*
X43867Y52342D01*
Y52333D01*
X43866Y52302D01*
X43861Y52273D01*
X43855Y52247D01*
X43852Y52235D01*
X43848Y52224D01*
X43844Y52213D01*
X43841Y52204D01*
X43838Y52197D01*
X43835Y52189D01*
X43832Y52185D01*
X43830Y52181D01*
X43829Y52178D01*
X43829Y52177D01*
X43813Y52152D01*
X43794Y52131D01*
X43776Y52113D01*
X43757Y52097D01*
X43741Y52085D01*
X43733Y52080D01*
X43727Y52077D01*
X43722Y52073D01*
X43719Y52071D01*
X43716Y52070D01*
X43715Y52069D01*
X43686Y52056D01*
X43657Y52047D01*
X43627Y52040D01*
X43600Y52036D01*
X43588Y52034D01*
X43576Y52033D01*
X43567Y52032D01*
X43558D01*
X43551Y52031D01*
X43546D01*
X43542D01*
X43541D01*
X43508Y52033D01*
X43475Y52037D01*
X43447Y52041D01*
X43433Y52045D01*
X43421Y52048D01*
X43410Y52051D01*
X43400Y52054D01*
X43390Y52057D01*
X43383Y52059D01*
X43377Y52062D01*
X43373Y52063D01*
X43370Y52064D01*
X43369D01*
X43341Y52078D01*
X43316Y52094D01*
X43295Y52111D01*
X43287Y52119D01*
X43278Y52126D01*
X43271Y52134D01*
X43265Y52141D01*
X43259Y52148D01*
X43255Y52153D01*
X43252Y52157D01*
X43249Y52161D01*
X43248Y52162D01*
X43247Y52163D01*
X43240Y52176D01*
X43233Y52189D01*
X43223Y52217D01*
X43216Y52245D01*
X43211Y52272D01*
X43209Y52285D01*
X43207Y52296D01*
X43206Y52306D01*
Y52314D01*
X43205Y52322D01*
Y52332D01*
X43206Y52350D01*
X43208Y52368D01*
X43210Y52384D01*
X43214Y52400D01*
X43218Y52415D01*
X43223Y52429D01*
X43228Y52442D01*
X43233Y52454D01*
X43238Y52464D01*
X43242Y52474D01*
X43247Y52481D01*
X43252Y52489D01*
X43255Y52493D01*
X43257Y52498D01*
X43259Y52500D01*
X43260Y52501D01*
X43271Y52514D01*
X43282Y52525D01*
X43295Y52535D01*
X43308Y52545D01*
X43334Y52562D01*
X43360Y52575D01*
X43372Y52580D01*
X43383Y52585D01*
X43393Y52589D01*
X43401Y52591D01*
X43409Y52594D01*
X43414Y52596D01*
X43418Y52597D01*
X43419D01*
X43440Y52512D01*
D02*
G37*
G36*
X49050Y38835D02*
X49082Y38831D01*
X49111Y38826D01*
X49125Y38823D01*
X49137Y38820D01*
X49148Y38817D01*
X49158Y38813D01*
X49167Y38811D01*
X49175Y38809D01*
X49180Y38806D01*
X49185Y38805D01*
X49188Y38803D01*
X49189D01*
X49216Y38789D01*
X49241Y38774D01*
X49263Y38757D01*
X49271Y38749D01*
X49279Y38741D01*
X49287Y38734D01*
X49293Y38727D01*
X49299Y38720D01*
X49302Y38715D01*
X49306Y38711D01*
X49309Y38707D01*
X49310Y38705D01*
X49311Y38704D01*
X49318Y38691D01*
X49324Y38679D01*
X49335Y38651D01*
X49342Y38623D01*
X49347Y38596D01*
X49349Y38583D01*
X49350Y38572D01*
X49351Y38562D01*
Y38554D01*
X49352Y38546D01*
Y38536D01*
X49351Y38518D01*
X49349Y38500D01*
X49348Y38483D01*
X49344Y38468D01*
X49339Y38453D01*
X49335Y38439D01*
X49330Y38426D01*
X49324Y38414D01*
X49320Y38404D01*
X49315Y38394D01*
X49311Y38386D01*
X49306Y38379D01*
X49302Y38374D01*
X49300Y38370D01*
X49299Y38368D01*
X49298Y38367D01*
X49287Y38354D01*
X49275Y38343D01*
X49263Y38333D01*
X49250Y38323D01*
X49224Y38306D01*
X49198Y38293D01*
X49186Y38287D01*
X49175Y38283D01*
X49165Y38279D01*
X49156Y38276D01*
X49149Y38274D01*
X49143Y38272D01*
X49140Y38271D01*
X49139D01*
X49117Y38356D01*
X49132Y38360D01*
X49146Y38364D01*
X49159Y38369D01*
X49171Y38373D01*
X49182Y38379D01*
X49191Y38385D01*
X49201Y38391D01*
X49209Y38397D01*
X49216Y38401D01*
X49222Y38407D01*
X49227Y38411D01*
X49232Y38415D01*
X49235Y38419D01*
X49238Y38421D01*
X49238Y38422D01*
X49239Y38423D01*
X49247Y38433D01*
X49252Y38443D01*
X49263Y38463D01*
X49270Y38483D01*
X49275Y38502D01*
X49278Y38519D01*
X49279Y38525D01*
Y38532D01*
X49280Y38537D01*
Y38544D01*
X49279Y38565D01*
X49275Y38585D01*
X49271Y38604D01*
X49265Y38620D01*
X49260Y38633D01*
X49257Y38639D01*
X49255Y38643D01*
X49253Y38647D01*
X49251Y38650D01*
X49251Y38652D01*
Y38653D01*
X49238Y38670D01*
X49224Y38685D01*
X49208Y38698D01*
X49193Y38708D01*
X49180Y38716D01*
X49169Y38722D01*
X49165Y38724D01*
X49162Y38726D01*
X49160Y38727D01*
X49159D01*
X49135Y38734D01*
X49111Y38740D01*
X49087Y38744D01*
X49065Y38747D01*
X49055Y38748D01*
X49045Y38749D01*
X49037D01*
X49030Y38750D01*
X49025D01*
X49020D01*
X49018D01*
X49017D01*
X48993Y38749D01*
X48970Y38747D01*
X48950Y38743D01*
X48932Y38740D01*
X48916Y38737D01*
X48909Y38735D01*
X48904Y38733D01*
X48899Y38732D01*
X48896Y38731D01*
X48895Y38730D01*
X48894D01*
X48872Y38721D01*
X48853Y38711D01*
X48837Y38700D01*
X48823Y38688D01*
X48812Y38678D01*
X48805Y38669D01*
X48800Y38663D01*
X48798Y38662D01*
Y38661D01*
X48786Y38642D01*
X48777Y38620D01*
X48771Y38600D01*
X48767Y38581D01*
X48764Y38563D01*
X48763Y38556D01*
Y38549D01*
X48762Y38544D01*
Y38537D01*
X48763Y38514D01*
X48767Y38493D01*
X48773Y38475D01*
X48778Y38459D01*
X48785Y38447D01*
X48789Y38438D01*
X48793Y38433D01*
X48795Y38431D01*
X48809Y38416D01*
X48824Y38402D01*
X48841Y38391D01*
X48858Y38382D01*
X48872Y38374D01*
X48880Y38372D01*
X48885Y38370D01*
X48890Y38368D01*
X48894Y38366D01*
X48895Y38365D01*
X48896D01*
X48877Y38282D01*
X48860Y38287D01*
X48846Y38293D01*
X48832Y38300D01*
X48818Y38307D01*
X48806Y38314D01*
X48795Y38323D01*
X48784Y38330D01*
X48774Y38337D01*
X48767Y38345D01*
X48760Y38351D01*
X48753Y38358D01*
X48748Y38362D01*
X48744Y38367D01*
X48741Y38371D01*
X48740Y38372D01*
X48739Y38373D01*
X48731Y38386D01*
X48723Y38399D01*
X48716Y38412D01*
X48711Y38426D01*
X48702Y38454D01*
X48697Y38479D01*
X48694Y38491D01*
X48693Y38501D01*
X48692Y38511D01*
X48691Y38519D01*
X48690Y38526D01*
Y38535D01*
X48692Y38566D01*
X48697Y38595D01*
X48702Y38621D01*
X48706Y38633D01*
X48710Y38644D01*
X48713Y38654D01*
X48717Y38664D01*
X48720Y38671D01*
X48723Y38679D01*
X48725Y38683D01*
X48727Y38687D01*
X48728Y38690D01*
X48729Y38691D01*
X48745Y38715D01*
X48763Y38737D01*
X48782Y38755D01*
X48800Y38771D01*
X48817Y38783D01*
X48824Y38788D01*
X48831Y38791D01*
X48835Y38795D01*
X48839Y38797D01*
X48842Y38798D01*
X48843Y38799D01*
X48871Y38812D01*
X48901Y38821D01*
X48931Y38827D01*
X48957Y38832D01*
X48969Y38834D01*
X48981Y38835D01*
X48991Y38836D01*
X49000D01*
X49006Y38837D01*
X49012D01*
X49016D01*
X49017D01*
X49050Y38835D01*
D02*
G37*
G36*
X49187Y38196D02*
X49201Y38193D01*
X49226Y38185D01*
X49249Y38175D01*
X49258Y38169D01*
X49267Y38164D01*
X49275Y38158D01*
X49282Y38152D01*
X49288Y38148D01*
X49293Y38143D01*
X49297Y38140D01*
X49300Y38138D01*
X49301Y38136D01*
X49302Y38135D01*
X49311Y38124D01*
X49319Y38113D01*
X49325Y38102D01*
X49331Y38090D01*
X49340Y38066D01*
X49346Y38044D01*
X49348Y38034D01*
X49349Y38025D01*
X49350Y38017D01*
X49351Y38009D01*
X49352Y38004D01*
Y37995D01*
X49351Y37978D01*
X49349Y37962D01*
X49347Y37946D01*
X49343Y37931D01*
X49338Y37918D01*
X49334Y37906D01*
X49328Y37894D01*
X49323Y37883D01*
X49318Y37873D01*
X49312Y37865D01*
X49308Y37858D01*
X49303Y37852D01*
X49300Y37847D01*
X49297Y37844D01*
X49295Y37842D01*
X49294Y37841D01*
X49283Y37830D01*
X49271Y37821D01*
X49259Y37812D01*
X49247Y37805D01*
X49236Y37799D01*
X49224Y37794D01*
X49202Y37786D01*
X49191Y37784D01*
X49182Y37783D01*
X49174Y37781D01*
X49166Y37780D01*
X49161Y37779D01*
X49156D01*
X49153D01*
X49153D01*
X49130Y37780D01*
X49110Y37784D01*
X49092Y37789D01*
X49078Y37795D01*
X49066Y37800D01*
X49056Y37806D01*
X49051Y37809D01*
X49049Y37810D01*
X49035Y37823D01*
X49023Y37837D01*
X49014Y37852D01*
X49006Y37867D01*
X49001Y37880D01*
X48997Y37890D01*
X48996Y37894D01*
X48995Y37896D01*
X48994Y37898D01*
Y37899D01*
X48986Y37883D01*
X48978Y37870D01*
X48969Y37859D01*
X48960Y37850D01*
X48953Y37843D01*
X48946Y37837D01*
X48943Y37834D01*
X48941Y37833D01*
X48928Y37826D01*
X48915Y37821D01*
X48902Y37816D01*
X48890Y37813D01*
X48880Y37811D01*
X48872Y37810D01*
X48867D01*
X48865D01*
X48849Y37811D01*
X48834Y37814D01*
X48820Y37818D01*
X48808Y37822D01*
X48797Y37827D01*
X48789Y37831D01*
X48785Y37833D01*
X48783Y37834D01*
X48769Y37844D01*
X48757Y37855D01*
X48747Y37866D01*
X48737Y37877D01*
X48731Y37886D01*
X48725Y37894D01*
X48723Y37900D01*
X48722Y37901D01*
Y37902D01*
X48714Y37919D01*
X48709Y37935D01*
X48704Y37952D01*
X48701Y37967D01*
X48699Y37979D01*
X48699Y37989D01*
Y38012D01*
X48700Y38025D01*
X48705Y38050D01*
X48712Y38071D01*
X48720Y38090D01*
X48724Y38098D01*
X48728Y38104D01*
X48732Y38111D01*
X48736Y38115D01*
X48738Y38119D01*
X48740Y38122D01*
X48741Y38124D01*
X48742Y38125D01*
X48760Y38142D01*
X48779Y38156D01*
X48799Y38167D01*
X48820Y38176D01*
X48837Y38182D01*
X48845Y38185D01*
X48851Y38187D01*
X48857Y38188D01*
X48860Y38188D01*
X48863Y38189D01*
X48864D01*
X48878Y38111D01*
X48858Y38107D01*
X48840Y38102D01*
X48825Y38095D01*
X48813Y38089D01*
X48804Y38082D01*
X48797Y38077D01*
X48793Y38073D01*
X48792Y38072D01*
X48783Y38060D01*
X48775Y38047D01*
X48771Y38035D01*
X48767Y38023D01*
X48765Y38012D01*
X48763Y38004D01*
Y37996D01*
X48764Y37980D01*
X48768Y37965D01*
X48773Y37952D01*
X48777Y37941D01*
X48783Y37932D01*
X48787Y37926D01*
X48791Y37921D01*
X48792Y37920D01*
X48803Y37910D01*
X48815Y37903D01*
X48827Y37898D01*
X48838Y37894D01*
X48848Y37893D01*
X48856Y37891D01*
X48861D01*
X48862D01*
X48863D01*
X48873D01*
X48883Y37893D01*
X48898Y37897D01*
X48912Y37904D01*
X48924Y37911D01*
X48932Y37919D01*
X48939Y37925D01*
X48943Y37930D01*
X48944Y37931D01*
Y37931D01*
X48952Y37947D01*
X48958Y37962D01*
X48963Y37978D01*
X48966Y37992D01*
X48968Y38004D01*
X48969Y38014D01*
Y38026D01*
X48969Y38029D01*
Y38034D01*
X49038Y38043D01*
X49035Y38031D01*
X49033Y38020D01*
X49031Y38011D01*
X49030Y38003D01*
X49030Y37996D01*
Y37988D01*
X49031Y37968D01*
X49035Y37951D01*
X49041Y37935D01*
X49047Y37922D01*
X49054Y37912D01*
X49059Y37905D01*
X49063Y37900D01*
X49065Y37898D01*
X49079Y37886D01*
X49093Y37877D01*
X49108Y37870D01*
X49123Y37867D01*
X49135Y37864D01*
X49145Y37863D01*
X49149Y37862D01*
X49152D01*
X49153D01*
X49154D01*
X49175Y37864D01*
X49193Y37869D01*
X49209Y37874D01*
X49223Y37882D01*
X49234Y37889D01*
X49242Y37894D01*
X49248Y37899D01*
X49250Y37901D01*
X49263Y37916D01*
X49272Y37931D01*
X49278Y37947D01*
X49283Y37962D01*
X49286Y37975D01*
X49287Y37985D01*
X49287Y37989D01*
Y37994D01*
X49287Y38011D01*
X49283Y38027D01*
X49278Y38041D01*
X49273Y38052D01*
X49268Y38061D01*
X49263Y38068D01*
X49260Y38072D01*
X49259Y38074D01*
X49246Y38085D01*
X49231Y38094D01*
X49215Y38103D01*
X49199Y38109D01*
X49185Y38114D01*
X49178Y38115D01*
X49173Y38116D01*
X49168Y38117D01*
X49165Y38118D01*
X49163Y38119D01*
X49162D01*
X49172Y38198D01*
X49187Y38196D01*
D02*
G37*
G36*
X49944Y25420D02*
X49868D01*
Y25734D01*
X49841Y25712D01*
X49813Y25690D01*
X49785Y25672D01*
X49758Y25654D01*
X49746Y25647D01*
X49735Y25641D01*
X49725Y25634D01*
X49717Y25629D01*
X49709Y25626D01*
X49704Y25623D01*
X49701Y25621D01*
X49700Y25620D01*
X49663Y25602D01*
X49626Y25585D01*
X49591Y25571D01*
X49575Y25566D01*
X49559Y25560D01*
X49545Y25555D01*
X49533Y25551D01*
X49521Y25547D01*
X49512Y25544D01*
X49504Y25542D01*
X49498Y25540D01*
X49495Y25539D01*
X49494D01*
X49456Y25530D01*
X49437Y25526D01*
X49421Y25523D01*
X49405Y25520D01*
X49389Y25518D01*
X49376Y25516D01*
X49363Y25514D01*
X49352Y25513D01*
X49342Y25512D01*
X49333Y25511D01*
X49325D01*
X49320Y25510D01*
X49316D01*
X49313D01*
X49312D01*
Y25591D01*
X49348Y25593D01*
X49380Y25598D01*
X49410Y25603D01*
X49423Y25605D01*
X49436Y25608D01*
X49447Y25610D01*
X49458Y25613D01*
X49467Y25615D01*
X49474Y25617D01*
X49480Y25618D01*
X49484Y25619D01*
X49487Y25620D01*
X49488D01*
X49531Y25634D01*
X49570Y25649D01*
X49590Y25656D01*
X49608Y25664D01*
X49625Y25672D01*
X49642Y25679D01*
X49656Y25686D01*
X49669Y25692D01*
X49680Y25698D01*
X49691Y25702D01*
X49699Y25707D01*
X49704Y25710D01*
X49708Y25712D01*
X49709Y25713D01*
X49729Y25724D01*
X49748Y25735D01*
X49766Y25746D01*
X49782Y25757D01*
X49797Y25767D01*
X49812Y25777D01*
X49825Y25788D01*
X49836Y25796D01*
X49847Y25804D01*
X49856Y25812D01*
X49864Y25819D01*
X49870Y25825D01*
X49876Y25828D01*
X49879Y25832D01*
X49881Y25834D01*
X49882Y25835D01*
X49944D01*
Y25420D01*
D02*
G37*
G36*
X49536Y25258D02*
X49521Y25254D01*
X49508Y25249D01*
X49495Y25245D01*
X49483Y25240D01*
X49472Y25235D01*
X49462Y25229D01*
X49453Y25223D01*
X49445Y25217D01*
X49437Y25212D01*
X49432Y25207D01*
X49426Y25202D01*
X49422Y25199D01*
X49419Y25195D01*
X49416Y25192D01*
X49415Y25191D01*
X49414Y25190D01*
X49407Y25181D01*
X49401Y25171D01*
X49391Y25151D01*
X49384Y25131D01*
X49379Y25112D01*
X49375Y25095D01*
X49374Y25089D01*
Y25082D01*
X49374Y25077D01*
Y25070D01*
X49374Y25049D01*
X49378Y25028D01*
X49383Y25010D01*
X49388Y24993D01*
X49394Y24980D01*
X49397Y24975D01*
X49398Y24970D01*
X49400Y24967D01*
X49402Y24964D01*
X49403Y24962D01*
Y24961D01*
X49416Y24943D01*
X49430Y24929D01*
X49446Y24916D01*
X49460Y24906D01*
X49473Y24897D01*
X49484Y24892D01*
X49489Y24890D01*
X49492Y24888D01*
X49494Y24887D01*
X49495D01*
X49519Y24880D01*
X49543Y24874D01*
X49567Y24869D01*
X49589Y24867D01*
X49599Y24866D01*
X49608Y24865D01*
X49617D01*
X49623Y24864D01*
X49629D01*
X49633D01*
X49636D01*
X49637D01*
X49661Y24865D01*
X49683Y24867D01*
X49704Y24870D01*
X49722Y24874D01*
X49738Y24877D01*
X49744Y24879D01*
X49750Y24881D01*
X49754Y24881D01*
X49757Y24882D01*
X49759Y24883D01*
X49760D01*
X49781Y24893D01*
X49801Y24903D01*
X49816Y24914D01*
X49830Y24926D01*
X49841Y24936D01*
X49849Y24944D01*
X49853Y24951D01*
X49855Y24952D01*
Y24953D01*
X49867Y24972D01*
X49876Y24993D01*
X49883Y25014D01*
X49887Y25033D01*
X49889Y25051D01*
X49890Y25058D01*
Y25065D01*
X49891Y25069D01*
Y25077D01*
X49890Y25100D01*
X49887Y25121D01*
X49881Y25139D01*
X49876Y25154D01*
X49869Y25166D01*
X49864Y25175D01*
X49861Y25181D01*
X49859Y25183D01*
X49845Y25198D01*
X49829Y25212D01*
X49813Y25223D01*
X49796Y25232D01*
X49781Y25239D01*
X49774Y25242D01*
X49768Y25244D01*
X49764Y25246D01*
X49760Y25248D01*
X49758Y25249D01*
X49757D01*
X49777Y25332D01*
X49793Y25326D01*
X49808Y25321D01*
X49822Y25313D01*
X49836Y25307D01*
X49848Y25299D01*
X49859Y25291D01*
X49870Y25284D01*
X49879Y25276D01*
X49887Y25269D01*
X49894Y25262D01*
X49901Y25256D01*
X49905Y25251D01*
X49910Y25247D01*
X49913Y25243D01*
X49913Y25241D01*
X49914Y25240D01*
X49923Y25227D01*
X49931Y25214D01*
X49937Y25201D01*
X49943Y25188D01*
X49951Y25160D01*
X49957Y25135D01*
X49960Y25123D01*
X49961Y25113D01*
X49962Y25102D01*
X49962Y25094D01*
X49963Y25088D01*
Y25078D01*
X49962Y25048D01*
X49957Y25018D01*
X49951Y24992D01*
X49948Y24980D01*
X49944Y24969D01*
X49940Y24959D01*
X49937Y24950D01*
X49934Y24942D01*
X49931Y24935D01*
X49928Y24930D01*
X49926Y24927D01*
X49925Y24924D01*
X49925Y24923D01*
X49909Y24898D01*
X49890Y24877D01*
X49872Y24858D01*
X49853Y24843D01*
X49837Y24831D01*
X49829Y24826D01*
X49823Y24822D01*
X49818Y24819D01*
X49815Y24817D01*
X49812Y24816D01*
X49811Y24815D01*
X49782Y24802D01*
X49753Y24793D01*
X49723Y24786D01*
X49696Y24782D01*
X49684Y24780D01*
X49672Y24779D01*
X49663Y24778D01*
X49654D01*
X49647Y24777D01*
X49642D01*
X49638D01*
X49637D01*
X49604Y24779D01*
X49571Y24783D01*
X49543Y24787D01*
X49529Y24791D01*
X49517Y24794D01*
X49506Y24796D01*
X49496Y24800D01*
X49486Y24803D01*
X49479Y24805D01*
X49473Y24808D01*
X49469Y24808D01*
X49466Y24810D01*
X49465D01*
X49437Y24824D01*
X49412Y24840D01*
X49391Y24857D01*
X49383Y24865D01*
X49374Y24872D01*
X49367Y24880D01*
X49361Y24887D01*
X49355Y24893D01*
X49351Y24899D01*
X49348Y24903D01*
X49345Y24906D01*
X49344Y24908D01*
X49343Y24909D01*
X49336Y24922D01*
X49329Y24935D01*
X49319Y24963D01*
X49312Y24991D01*
X49307Y25017D01*
X49305Y25030D01*
X49303Y25041D01*
X49302Y25052D01*
Y25060D01*
X49301Y25067D01*
Y25077D01*
X49302Y25096D01*
X49304Y25114D01*
X49306Y25130D01*
X49310Y25146D01*
X49314Y25161D01*
X49319Y25175D01*
X49324Y25188D01*
X49329Y25200D01*
X49334Y25210D01*
X49338Y25220D01*
X49343Y25227D01*
X49348Y25235D01*
X49351Y25239D01*
X49353Y25244D01*
X49355Y25246D01*
X49356Y25247D01*
X49367Y25260D01*
X49378Y25271D01*
X49391Y25281D01*
X49404Y25291D01*
X49430Y25308D01*
X49456Y25321D01*
X49468Y25326D01*
X49479Y25331D01*
X49489Y25335D01*
X49497Y25337D01*
X49505Y25340D01*
X49510Y25342D01*
X49514Y25343D01*
X49515D01*
X49536Y25258D01*
D02*
G37*
G36*
X49567Y36364D02*
X49586Y36360D01*
X49604Y36354D01*
X49618Y36349D01*
X49630Y36343D01*
X49640Y36338D01*
X49645Y36334D01*
X49646Y36333D01*
X49647D01*
X49662Y36320D01*
X49675Y36306D01*
X49685Y36292D01*
X49694Y36278D01*
X49701Y36265D01*
X49705Y36254D01*
X49707Y36250D01*
X49708Y36247D01*
X49709Y36245D01*
Y36244D01*
X49716Y36261D01*
X49725Y36275D01*
X49733Y36287D01*
X49741Y36297D01*
X49749Y36305D01*
X49754Y36310D01*
X49758Y36314D01*
X49760Y36315D01*
X49773Y36323D01*
X49786Y36329D01*
X49799Y36333D01*
X49812Y36336D01*
X49822Y36338D01*
X49830Y36339D01*
X49836D01*
X49837D01*
X49838D01*
X49851Y36338D01*
X49863Y36337D01*
X49886Y36330D01*
X49906Y36322D01*
X49924Y36313D01*
X49937Y36304D01*
X49943Y36299D01*
X49949Y36295D01*
X49952Y36292D01*
X49955Y36289D01*
X49956Y36288D01*
X49957Y36287D01*
X49965Y36277D01*
X49973Y36267D01*
X49980Y36256D01*
X49986Y36244D01*
X49994Y36222D01*
X49999Y36200D01*
X50002Y36191D01*
X50003Y36182D01*
X50004Y36173D01*
X50005Y36166D01*
X50006Y36160D01*
Y36152D01*
X50005Y36137D01*
X50004Y36122D01*
X49998Y36096D01*
X49995Y36084D01*
X49991Y36073D01*
X49986Y36063D01*
X49982Y36054D01*
X49977Y36047D01*
X49973Y36039D01*
X49969Y36033D01*
X49965Y36028D01*
X49962Y36024D01*
X49960Y36022D01*
X49959Y36020D01*
X49958Y36019D01*
X49949Y36011D01*
X49939Y36002D01*
X49929Y35996D01*
X49919Y35990D01*
X49900Y35981D01*
X49881Y35975D01*
X49865Y35972D01*
X49858Y35971D01*
X49852Y35970D01*
X49847Y35969D01*
X49843D01*
X49841D01*
X49840D01*
X49824Y35970D01*
X49808Y35973D01*
X49794Y35976D01*
X49782Y35981D01*
X49773Y35985D01*
X49765Y35988D01*
X49762Y35991D01*
X49760Y35992D01*
X49749Y36002D01*
X49739Y36013D01*
X49729Y36025D01*
X49722Y36037D01*
X49716Y36048D01*
X49713Y36057D01*
X49711Y36060D01*
X49710Y36063D01*
X49709Y36064D01*
Y36065D01*
X49703Y36044D01*
X49694Y36026D01*
X49684Y36011D01*
X49675Y35998D01*
X49666Y35987D01*
X49658Y35980D01*
X49654Y35976D01*
X49653Y35974D01*
X49652D01*
X49635Y35964D01*
X49618Y35956D01*
X49601Y35950D01*
X49584Y35947D01*
X49569Y35945D01*
X49563Y35944D01*
X49557D01*
X49554Y35943D01*
X49550D01*
X49548D01*
X49547D01*
X49532Y35944D01*
X49518Y35946D01*
X49504Y35949D01*
X49490Y35952D01*
X49467Y35961D01*
X49456Y35966D01*
X49446Y35972D01*
X49437Y35977D01*
X49430Y35982D01*
X49423Y35987D01*
X49418Y35991D01*
X49413Y35995D01*
X49410Y35998D01*
X49409Y35999D01*
X49408Y36000D01*
X49397Y36011D01*
X49389Y36023D01*
X49382Y36036D01*
X49375Y36049D01*
X49371Y36061D01*
X49366Y36074D01*
X49360Y36099D01*
X49357Y36110D01*
X49355Y36121D01*
X49354Y36130D01*
X49353Y36138D01*
X49352Y36145D01*
Y36154D01*
X49353Y36171D01*
X49355Y36187D01*
X49358Y36203D01*
X49361Y36218D01*
X49365Y36231D01*
X49370Y36243D01*
X49374Y36256D01*
X49380Y36266D01*
X49385Y36275D01*
X49390Y36283D01*
X49395Y36290D01*
X49399Y36296D01*
X49402Y36301D01*
X49405Y36304D01*
X49407Y36305D01*
X49408Y36306D01*
X49419Y36317D01*
X49430Y36326D01*
X49441Y36333D01*
X49453Y36340D01*
X49464Y36346D01*
X49476Y36351D01*
X49497Y36357D01*
X49508Y36360D01*
X49517Y36362D01*
X49525Y36363D01*
X49532Y36364D01*
X49537Y36365D01*
X49542D01*
X49544D01*
X49545D01*
X49567Y36364D01*
D02*
G37*
G36*
X49587Y35787D02*
X49572Y35783D01*
X49558Y35778D01*
X49545Y35774D01*
X49533Y35769D01*
X49522Y35764D01*
X49513Y35758D01*
X49504Y35752D01*
X49495Y35746D01*
X49488Y35741D01*
X49483Y35736D01*
X49477Y35731D01*
X49472Y35728D01*
X49470Y35724D01*
X49467Y35721D01*
X49466Y35720D01*
X49465Y35719D01*
X49458Y35710D01*
X49452Y35700D01*
X49442Y35680D01*
X49434Y35660D01*
X49430Y35641D01*
X49426Y35624D01*
X49425Y35618D01*
Y35611D01*
X49424Y35606D01*
Y35599D01*
X49425Y35578D01*
X49429Y35557D01*
X49434Y35539D01*
X49439Y35522D01*
X49445Y35509D01*
X49447Y35504D01*
X49449Y35499D01*
X49451Y35496D01*
X49453Y35493D01*
X49454Y35491D01*
Y35490D01*
X49467Y35472D01*
X49481Y35458D01*
X49496Y35445D01*
X49511Y35435D01*
X49524Y35426D01*
X49535Y35421D01*
X49540Y35419D01*
X49543Y35417D01*
X49544Y35416D01*
X49545D01*
X49569Y35409D01*
X49593Y35403D01*
X49618Y35398D01*
X49640Y35396D01*
X49650Y35395D01*
X49659Y35394D01*
X49667D01*
X49674Y35393D01*
X49679D01*
X49684D01*
X49687D01*
X49688D01*
X49712Y35394D01*
X49734Y35396D01*
X49754Y35399D01*
X49773Y35403D01*
X49789Y35406D01*
X49795Y35408D01*
X49801Y35410D01*
X49805Y35410D01*
X49808Y35411D01*
X49810Y35412D01*
X49811D01*
X49832Y35422D01*
X49851Y35432D01*
X49867Y35443D01*
X49881Y35455D01*
X49892Y35465D01*
X49900Y35473D01*
X49904Y35480D01*
X49906Y35481D01*
Y35482D01*
X49918Y35501D01*
X49927Y35522D01*
X49934Y35543D01*
X49937Y35562D01*
X49940Y35580D01*
X49941Y35587D01*
Y35594D01*
X49942Y35598D01*
Y35606D01*
X49941Y35629D01*
X49937Y35650D01*
X49932Y35667D01*
X49926Y35683D01*
X49920Y35695D01*
X49915Y35704D01*
X49912Y35710D01*
X49910Y35712D01*
X49896Y35727D01*
X49880Y35741D01*
X49863Y35752D01*
X49847Y35761D01*
X49832Y35768D01*
X49825Y35771D01*
X49819Y35773D01*
X49814Y35775D01*
X49811Y35777D01*
X49809Y35778D01*
X49808D01*
X49827Y35861D01*
X49844Y35855D01*
X49859Y35850D01*
X49873Y35842D01*
X49887Y35836D01*
X49899Y35828D01*
X49910Y35820D01*
X49921Y35813D01*
X49930Y35805D01*
X49937Y35798D01*
X49945Y35791D01*
X49951Y35785D01*
X49956Y35780D01*
X49961Y35776D01*
X49963Y35772D01*
X49964Y35770D01*
X49965Y35769D01*
X49973Y35756D01*
X49982Y35743D01*
X49988Y35730D01*
X49994Y35716D01*
X50002Y35689D01*
X50008Y35664D01*
X50010Y35652D01*
X50011Y35642D01*
X50012Y35631D01*
X50013Y35623D01*
X50014Y35617D01*
Y35607D01*
X50012Y35577D01*
X50008Y35547D01*
X50002Y35521D01*
X49998Y35509D01*
X49995Y35498D01*
X49991Y35488D01*
X49987Y35479D01*
X49985Y35471D01*
X49982Y35464D01*
X49979Y35459D01*
X49977Y35456D01*
X49976Y35453D01*
X49975Y35452D01*
X49960Y35427D01*
X49941Y35406D01*
X49923Y35387D01*
X49904Y35372D01*
X49888Y35360D01*
X49880Y35355D01*
X49874Y35351D01*
X49869Y35348D01*
X49865Y35346D01*
X49863Y35345D01*
X49862Y35344D01*
X49833Y35331D01*
X49803Y35322D01*
X49774Y35315D01*
X49747Y35311D01*
X49735Y35309D01*
X49723Y35308D01*
X49714Y35307D01*
X49704D01*
X49698Y35306D01*
X49692D01*
X49689D01*
X49688D01*
X49655Y35308D01*
X49622Y35312D01*
X49593Y35316D01*
X49580Y35320D01*
X49568Y35323D01*
X49557Y35325D01*
X49546Y35329D01*
X49537Y35332D01*
X49530Y35334D01*
X49524Y35336D01*
X49520Y35337D01*
X49517Y35339D01*
X49516D01*
X49488Y35353D01*
X49463Y35369D01*
X49442Y35386D01*
X49434Y35394D01*
X49425Y35401D01*
X49418Y35409D01*
X49411Y35416D01*
X49406Y35422D01*
X49402Y35428D01*
X49398Y35432D01*
X49396Y35435D01*
X49395Y35437D01*
X49394Y35438D01*
X49386Y35451D01*
X49380Y35464D01*
X49370Y35492D01*
X49362Y35520D01*
X49358Y35546D01*
X49356Y35559D01*
X49354Y35570D01*
X49353Y35581D01*
Y35589D01*
X49352Y35596D01*
Y35606D01*
X49353Y35625D01*
X49355Y35643D01*
X49357Y35659D01*
X49361Y35675D01*
X49365Y35690D01*
X49370Y35704D01*
X49374Y35716D01*
X49380Y35729D01*
X49385Y35739D01*
X49389Y35749D01*
X49394Y35756D01*
X49398Y35764D01*
X49402Y35768D01*
X49404Y35773D01*
X49406Y35775D01*
X49407Y35776D01*
X49418Y35789D01*
X49429Y35800D01*
X49442Y35810D01*
X49455Y35820D01*
X49481Y35837D01*
X49507Y35850D01*
X49519Y35855D01*
X49530Y35860D01*
X49540Y35863D01*
X49548Y35866D01*
X49556Y35869D01*
X49561Y35871D01*
X49565Y35872D01*
X49566D01*
X49587Y35787D01*
D02*
G37*
G36*
X49050Y28116D02*
X49082Y28112D01*
X49111Y28108D01*
X49125Y28104D01*
X49137Y28101D01*
X49148Y28098D01*
X49158Y28095D01*
X49167Y28092D01*
X49175Y28090D01*
X49180Y28087D01*
X49185Y28086D01*
X49188Y28085D01*
X49189D01*
X49216Y28071D01*
X49241Y28055D01*
X49263Y28038D01*
X49271Y28030D01*
X49279Y28023D01*
X49287Y28015D01*
X49293Y28008D01*
X49299Y28001D01*
X49302Y27996D01*
X49306Y27992D01*
X49309Y27988D01*
X49310Y27987D01*
X49311Y27986D01*
X49318Y27973D01*
X49324Y27960D01*
X49335Y27932D01*
X49342Y27904D01*
X49347Y27877D01*
X49349Y27864D01*
X49350Y27853D01*
X49351Y27843D01*
Y27835D01*
X49352Y27827D01*
Y27817D01*
X49351Y27799D01*
X49349Y27781D01*
X49348Y27765D01*
X49344Y27749D01*
X49339Y27734D01*
X49335Y27720D01*
X49330Y27707D01*
X49324Y27695D01*
X49320Y27685D01*
X49315Y27675D01*
X49311Y27668D01*
X49306Y27660D01*
X49302Y27656D01*
X49300Y27651D01*
X49299Y27649D01*
X49298Y27648D01*
X49287Y27635D01*
X49275Y27624D01*
X49263Y27614D01*
X49250Y27604D01*
X49224Y27587D01*
X49198Y27574D01*
X49186Y27569D01*
X49175Y27564D01*
X49165Y27560D01*
X49156Y27558D01*
X49149Y27555D01*
X49143Y27553D01*
X49140Y27552D01*
X49139D01*
X49117Y27637D01*
X49132Y27641D01*
X49146Y27645D01*
X49159Y27650D01*
X49171Y27655D01*
X49182Y27660D01*
X49191Y27666D01*
X49201Y27672D01*
X49209Y27678D01*
X49216Y27682D01*
X49222Y27688D01*
X49227Y27693D01*
X49232Y27696D01*
X49235Y27700D01*
X49238Y27703D01*
X49238Y27704D01*
X49239Y27705D01*
X49247Y27714D01*
X49252Y27724D01*
X49263Y27744D01*
X49270Y27764D01*
X49275Y27783D01*
X49278Y27800D01*
X49279Y27806D01*
Y27813D01*
X49280Y27818D01*
Y27825D01*
X49279Y27846D01*
X49275Y27866D01*
X49271Y27885D01*
X49265Y27901D01*
X49260Y27914D01*
X49257Y27920D01*
X49255Y27925D01*
X49253Y27928D01*
X49251Y27931D01*
X49251Y27933D01*
Y27934D01*
X49238Y27951D01*
X49224Y27966D01*
X49208Y27979D01*
X49193Y27989D01*
X49180Y27998D01*
X49169Y28003D01*
X49165Y28005D01*
X49162Y28007D01*
X49160Y28008D01*
X49159D01*
X49135Y28015D01*
X49111Y28021D01*
X49087Y28025D01*
X49065Y28028D01*
X49055Y28029D01*
X49045Y28030D01*
X49037D01*
X49030Y28031D01*
X49025D01*
X49020D01*
X49018D01*
X49017D01*
X48993Y28030D01*
X48970Y28028D01*
X48950Y28024D01*
X48932Y28021D01*
X48916Y28018D01*
X48909Y28016D01*
X48904Y28014D01*
X48899Y28013D01*
X48896Y28012D01*
X48895Y28011D01*
X48894D01*
X48872Y28002D01*
X48853Y27992D01*
X48837Y27981D01*
X48823Y27969D01*
X48812Y27959D01*
X48805Y27950D01*
X48800Y27944D01*
X48798Y27943D01*
Y27942D01*
X48786Y27923D01*
X48777Y27901D01*
X48771Y27881D01*
X48767Y27862D01*
X48764Y27844D01*
X48763Y27837D01*
Y27830D01*
X48762Y27826D01*
Y27818D01*
X48763Y27795D01*
X48767Y27774D01*
X48773Y27756D01*
X48778Y27741D01*
X48785Y27729D01*
X48789Y27719D01*
X48793Y27714D01*
X48795Y27712D01*
X48809Y27697D01*
X48824Y27683D01*
X48841Y27672D01*
X48858Y27663D01*
X48872Y27656D01*
X48880Y27653D01*
X48885Y27651D01*
X48890Y27649D01*
X48894Y27647D01*
X48895Y27646D01*
X48896D01*
X48877Y27563D01*
X48860Y27569D01*
X48846Y27574D01*
X48832Y27582D01*
X48818Y27588D01*
X48806Y27595D01*
X48795Y27604D01*
X48784Y27611D01*
X48774Y27619D01*
X48767Y27626D01*
X48760Y27632D01*
X48753Y27639D01*
X48748Y27644D01*
X48744Y27648D01*
X48741Y27652D01*
X48740Y27654D01*
X48739Y27655D01*
X48731Y27668D01*
X48723Y27681D01*
X48716Y27693D01*
X48711Y27707D01*
X48702Y27735D01*
X48697Y27760D01*
X48694Y27772D01*
X48693Y27782D01*
X48692Y27792D01*
X48691Y27801D01*
X48690Y27807D01*
Y27816D01*
X48692Y27847D01*
X48697Y27877D01*
X48702Y27902D01*
X48706Y27914D01*
X48710Y27926D01*
X48713Y27936D01*
X48717Y27945D01*
X48720Y27952D01*
X48723Y27960D01*
X48725Y27964D01*
X48727Y27968D01*
X48728Y27971D01*
X48729Y27972D01*
X48745Y27997D01*
X48763Y28018D01*
X48782Y28036D01*
X48800Y28052D01*
X48817Y28064D01*
X48824Y28069D01*
X48831Y28073D01*
X48835Y28076D01*
X48839Y28078D01*
X48842Y28079D01*
X48843Y28080D01*
X48871Y28093D01*
X48901Y28102D01*
X48931Y28109D01*
X48957Y28113D01*
X48969Y28115D01*
X48981Y28116D01*
X48991Y28117D01*
X49000D01*
X49006Y28118D01*
X49012D01*
X49016D01*
X49017D01*
X49050Y28116D01*
D02*
G37*
G36*
X49341Y27067D02*
X49265D01*
Y27382D01*
X49250Y27371D01*
X49243Y27365D01*
X49237Y27361D01*
X49231Y27356D01*
X49227Y27352D01*
X49225Y27350D01*
X49224Y27349D01*
X49219Y27344D01*
X49214Y27338D01*
X49202Y27325D01*
X49189Y27311D01*
X49175Y27295D01*
X49163Y27280D01*
X49157Y27274D01*
X49152Y27268D01*
X49148Y27264D01*
X49145Y27260D01*
X49143Y27258D01*
X49142Y27257D01*
X49129Y27242D01*
X49117Y27227D01*
X49105Y27215D01*
X49095Y27202D01*
X49085Y27191D01*
X49076Y27182D01*
X49067Y27173D01*
X49060Y27166D01*
X49053Y27158D01*
X49047Y27153D01*
X49042Y27148D01*
X49038Y27143D01*
X49032Y27139D01*
X49030Y27137D01*
X49015Y27124D01*
X49001Y27113D01*
X48987Y27104D01*
X48976Y27096D01*
X48966Y27091D01*
X48958Y27087D01*
X48954Y27085D01*
X48952Y27084D01*
X48938Y27079D01*
X48924Y27075D01*
X48911Y27071D01*
X48900Y27069D01*
X48890Y27068D01*
X48883Y27068D01*
X48878D01*
X48876D01*
X48862Y27068D01*
X48849Y27070D01*
X48836Y27072D01*
X48825Y27076D01*
X48803Y27085D01*
X48785Y27094D01*
X48777Y27100D01*
X48771Y27104D01*
X48764Y27109D01*
X48760Y27114D01*
X48756Y27117D01*
X48752Y27119D01*
X48751Y27121D01*
X48750Y27122D01*
X48741Y27132D01*
X48733Y27143D01*
X48726Y27155D01*
X48721Y27167D01*
X48711Y27191D01*
X48705Y27215D01*
X48703Y27226D01*
X48701Y27236D01*
X48700Y27245D01*
X48699Y27252D01*
X48699Y27259D01*
Y27268D01*
X48699Y27285D01*
X48700Y27301D01*
X48703Y27315D01*
X48706Y27329D01*
X48710Y27342D01*
X48713Y27354D01*
X48718Y27365D01*
X48723Y27375D01*
X48727Y27385D01*
X48732Y27392D01*
X48736Y27399D01*
X48739Y27404D01*
X48742Y27409D01*
X48745Y27411D01*
X48746Y27413D01*
X48747Y27414D01*
X48756Y27423D01*
X48766Y27432D01*
X48777Y27440D01*
X48788Y27447D01*
X48810Y27458D01*
X48833Y27465D01*
X48843Y27468D01*
X48853Y27471D01*
X48861Y27472D01*
X48869Y27474D01*
X48875Y27475D01*
X48880D01*
X48883Y27476D01*
X48883D01*
X48892Y27396D01*
X48871Y27394D01*
X48852Y27390D01*
X48835Y27385D01*
X48822Y27378D01*
X48811Y27373D01*
X48804Y27367D01*
X48799Y27363D01*
X48797Y27362D01*
X48786Y27348D01*
X48778Y27333D01*
X48772Y27317D01*
X48768Y27303D01*
X48765Y27290D01*
X48764Y27279D01*
X48763Y27276D01*
Y27270D01*
X48764Y27251D01*
X48768Y27233D01*
X48773Y27218D01*
X48779Y27205D01*
X48785Y27195D01*
X48790Y27189D01*
X48794Y27184D01*
X48796Y27182D01*
X48809Y27171D01*
X48822Y27163D01*
X48834Y27156D01*
X48847Y27153D01*
X48858Y27150D01*
X48867Y27149D01*
X48872Y27148D01*
X48873D01*
X48874D01*
X48891Y27150D01*
X48908Y27153D01*
X48924Y27160D01*
X48939Y27166D01*
X48951Y27174D01*
X48961Y27180D01*
X48965Y27182D01*
X48968Y27184D01*
X48969Y27186D01*
X48969D01*
X48980Y27193D01*
X48990Y27202D01*
X49001Y27213D01*
X49012Y27224D01*
X49034Y27247D01*
X49056Y27270D01*
X49067Y27282D01*
X49076Y27292D01*
X49084Y27302D01*
X49091Y27311D01*
X49097Y27317D01*
X49102Y27323D01*
X49104Y27326D01*
X49105Y27327D01*
X49125Y27350D01*
X49143Y27372D01*
X49160Y27389D01*
X49174Y27403D01*
X49186Y27415D01*
X49194Y27423D01*
X49200Y27428D01*
X49201Y27430D01*
X49202D01*
X49217Y27443D01*
X49232Y27453D01*
X49247Y27462D01*
X49260Y27470D01*
X49271Y27475D01*
X49279Y27479D01*
X49285Y27481D01*
X49286Y27482D01*
X49287D01*
X49297Y27485D01*
X49306Y27487D01*
X49315Y27489D01*
X49324Y27490D01*
X49331Y27491D01*
X49336D01*
X49340D01*
X49341D01*
Y27067D01*
D02*
G37*
G36*
X22920Y32413D02*
X22919Y32392D01*
X22919Y32372D01*
X22917Y32355D01*
X22915Y32340D01*
X22913Y32327D01*
X22912Y32318D01*
X22911Y32315D01*
X22910Y32312D01*
Y32310D01*
X22906Y32294D01*
X22900Y32279D01*
X22895Y32266D01*
X22890Y32255D01*
X22885Y32246D01*
X22882Y32239D01*
X22879Y32235D01*
X22878Y32234D01*
X22869Y32222D01*
X22859Y32211D01*
X22850Y32201D01*
X22841Y32193D01*
X22833Y32186D01*
X22826Y32180D01*
X22821Y32176D01*
X22820Y32175D01*
X22805Y32166D01*
X22789Y32157D01*
X22774Y32150D01*
X22759Y32144D01*
X22747Y32138D01*
X22736Y32135D01*
X22733Y32134D01*
X22730Y32133D01*
X22728Y32132D01*
X22727D01*
X22705Y32126D01*
X22683Y32122D01*
X22661Y32119D01*
X22641Y32116D01*
X22624Y32115D01*
X22616D01*
X22610Y32114D01*
X22605D01*
X22600D01*
X22599D01*
X22598D01*
X22566Y32115D01*
X22538Y32118D01*
X22512Y32123D01*
X22500Y32125D01*
X22490Y32127D01*
X22479Y32130D01*
X22471Y32132D01*
X22464Y32134D01*
X22457Y32137D01*
X22452Y32137D01*
X22448Y32139D01*
X22446Y32140D01*
X22445D01*
X22421Y32150D01*
X22400Y32162D01*
X22381Y32175D01*
X22366Y32187D01*
X22353Y32199D01*
X22343Y32208D01*
X22341Y32211D01*
X22338Y32214D01*
X22337Y32215D01*
X22336Y32216D01*
X22324Y32231D01*
X22315Y32247D01*
X22306Y32262D01*
X22300Y32277D01*
X22295Y32290D01*
X22293Y32300D01*
X22291Y32304D01*
Y32307D01*
X22290Y32309D01*
Y32309D01*
X22287Y32325D01*
X22284Y32344D01*
X22282Y32362D01*
X22281Y32381D01*
X22281Y32397D01*
Y32643D01*
X22920D01*
Y32413D01*
D02*
G37*
G36*
X22751Y32030D02*
X22766Y32028D01*
X22780Y32026D01*
X22794Y32022D01*
X22817Y32013D01*
X22828Y32008D01*
X22837Y32002D01*
X22846Y31997D01*
X22854Y31992D01*
X22860Y31987D01*
X22866Y31983D01*
X22870Y31979D01*
X22873Y31977D01*
X22875Y31975D01*
X22876Y31974D01*
X22886Y31963D01*
X22894Y31951D01*
X22902Y31938D01*
X22908Y31925D01*
X22913Y31913D01*
X22918Y31900D01*
X22924Y31875D01*
X22927Y31864D01*
X22929Y31854D01*
X22930Y31844D01*
X22931Y31836D01*
X22931Y31830D01*
Y31820D01*
X22931Y31803D01*
X22929Y31787D01*
X22926Y31771D01*
X22923Y31757D01*
X22919Y31744D01*
X22914Y31731D01*
X22909Y31719D01*
X22904Y31708D01*
X22898Y31699D01*
X22894Y31691D01*
X22889Y31684D01*
X22884Y31678D01*
X22882Y31673D01*
X22879Y31671D01*
X22877Y31669D01*
X22876Y31668D01*
X22865Y31658D01*
X22854Y31648D01*
X22843Y31641D01*
X22831Y31635D01*
X22820Y31628D01*
X22808Y31623D01*
X22786Y31617D01*
X22776Y31614D01*
X22767Y31612D01*
X22759Y31611D01*
X22752Y31610D01*
X22747Y31610D01*
X22742D01*
X22739D01*
X22738D01*
X22717Y31610D01*
X22698Y31614D01*
X22680Y31620D01*
X22665Y31625D01*
X22653Y31631D01*
X22644Y31636D01*
X22638Y31640D01*
X22637Y31641D01*
X22637D01*
X22622Y31654D01*
X22609Y31668D01*
X22599Y31683D01*
X22589Y31696D01*
X22583Y31709D01*
X22578Y31721D01*
X22576Y31724D01*
X22575Y31727D01*
X22575Y31729D01*
Y31730D01*
X22567Y31713D01*
X22559Y31699D01*
X22551Y31687D01*
X22542Y31677D01*
X22535Y31670D01*
X22529Y31664D01*
X22526Y31660D01*
X22524Y31659D01*
X22511Y31651D01*
X22498Y31646D01*
X22485Y31641D01*
X22472Y31638D01*
X22462Y31636D01*
X22453Y31635D01*
X22448D01*
X22447D01*
X22446D01*
X22433Y31636D01*
X22421Y31637D01*
X22398Y31644D01*
X22378Y31652D01*
X22360Y31661D01*
X22346Y31671D01*
X22341Y31675D01*
X22335Y31679D01*
X22331Y31683D01*
X22329Y31685D01*
X22328Y31686D01*
X22327Y31687D01*
X22318Y31697D01*
X22310Y31708D01*
X22304Y31719D01*
X22298Y31730D01*
X22290Y31752D01*
X22284Y31774D01*
X22281Y31783D01*
X22281Y31793D01*
X22280Y31801D01*
X22279Y31808D01*
X22278Y31814D01*
Y31822D01*
X22279Y31837D01*
X22280Y31852D01*
X22285Y31878D01*
X22289Y31890D01*
X22293Y31901D01*
X22297Y31911D01*
X22302Y31920D01*
X22306Y31928D01*
X22311Y31935D01*
X22315Y31941D01*
X22318Y31946D01*
X22321Y31950D01*
X22324Y31953D01*
X22325Y31954D01*
X22326Y31955D01*
X22335Y31964D01*
X22344Y31972D01*
X22355Y31978D01*
X22365Y31984D01*
X22384Y31993D01*
X22403Y31999D01*
X22418Y32002D01*
X22426Y32003D01*
X22431Y32004D01*
X22437Y32005D01*
X22441D01*
X22442D01*
X22443D01*
X22460Y32004D01*
X22476Y32002D01*
X22490Y31998D01*
X22502Y31993D01*
X22511Y31990D01*
X22518Y31986D01*
X22522Y31983D01*
X22524Y31982D01*
X22535Y31972D01*
X22545Y31961D01*
X22554Y31949D01*
X22562Y31937D01*
X22567Y31926D01*
X22571Y31917D01*
X22573Y31914D01*
X22574Y31911D01*
X22575Y31910D01*
Y31909D01*
X22581Y31930D01*
X22589Y31948D01*
X22600Y31964D01*
X22609Y31977D01*
X22618Y31987D01*
X22625Y31994D01*
X22630Y31998D01*
X22631Y32000D01*
X22632D01*
X22649Y32010D01*
X22666Y32018D01*
X22683Y32024D01*
X22699Y32027D01*
X22714Y32029D01*
X22721Y32030D01*
X22726D01*
X22730Y32031D01*
X22734D01*
X22735D01*
X22736D01*
X22751Y32030D01*
D02*
G37*
G36*
X53800Y18388D02*
X53832Y18384D01*
X53861Y18379D01*
X53875Y18376D01*
X53887Y18373D01*
X53898Y18370D01*
X53908Y18367D01*
X53917Y18364D01*
X53924Y18362D01*
X53930Y18359D01*
X53935Y18358D01*
X53937Y18356D01*
X53938D01*
X53966Y18342D01*
X53991Y18327D01*
X54012Y18310D01*
X54021Y18302D01*
X54029Y18294D01*
X54036Y18287D01*
X54043Y18280D01*
X54048Y18273D01*
X54052Y18268D01*
X54056Y18264D01*
X54059Y18260D01*
X54059Y18258D01*
X54060Y18257D01*
X54068Y18244D01*
X54074Y18232D01*
X54084Y18204D01*
X54092Y18176D01*
X54096Y18149D01*
X54098Y18136D01*
X54100Y18125D01*
X54101Y18115D01*
Y18107D01*
X54102Y18099D01*
Y18089D01*
X54101Y18071D01*
X54099Y18053D01*
X54097Y18036D01*
X54094Y18021D01*
X54089Y18006D01*
X54084Y17992D01*
X54080Y17979D01*
X54074Y17967D01*
X54070Y17957D01*
X54065Y17947D01*
X54060Y17939D01*
X54056Y17932D01*
X54052Y17927D01*
X54050Y17923D01*
X54048Y17921D01*
X54047Y17920D01*
X54036Y17907D01*
X54025Y17896D01*
X54012Y17886D01*
X53999Y17876D01*
X53973Y17859D01*
X53948Y17846D01*
X53936Y17840D01*
X53924Y17836D01*
X53914Y17832D01*
X53906Y17829D01*
X53899Y17827D01*
X53893Y17825D01*
X53889Y17824D01*
X53888D01*
X53867Y17909D01*
X53882Y17913D01*
X53896Y17917D01*
X53909Y17922D01*
X53921Y17926D01*
X53932Y17932D01*
X53941Y17938D01*
X53950Y17944D01*
X53959Y17950D01*
X53966Y17954D01*
X53972Y17960D01*
X53977Y17964D01*
X53982Y17968D01*
X53985Y17972D01*
X53987Y17974D01*
X53988Y17975D01*
X53989Y17976D01*
X53997Y17986D01*
X54002Y17996D01*
X54012Y18016D01*
X54020Y18036D01*
X54024Y18055D01*
X54028Y18072D01*
X54029Y18078D01*
Y18085D01*
X54030Y18090D01*
Y18097D01*
X54029Y18118D01*
X54025Y18138D01*
X54021Y18157D01*
X54015Y18173D01*
X54010Y18186D01*
X54007Y18192D01*
X54005Y18196D01*
X54003Y18200D01*
X54001Y18203D01*
X54000Y18205D01*
Y18206D01*
X53987Y18223D01*
X53973Y18238D01*
X53958Y18251D01*
X53943Y18261D01*
X53930Y18269D01*
X53919Y18275D01*
X53914Y18277D01*
X53912Y18279D01*
X53910Y18280D01*
X53909D01*
X53885Y18287D01*
X53861Y18293D01*
X53837Y18297D01*
X53814Y18300D01*
X53804Y18301D01*
X53795Y18302D01*
X53787D01*
X53780Y18303D01*
X53775D01*
X53770D01*
X53767D01*
X53766D01*
X53742Y18302D01*
X53720Y18300D01*
X53700Y18296D01*
X53681Y18293D01*
X53666Y18290D01*
X53659Y18288D01*
X53654Y18286D01*
X53649Y18285D01*
X53646Y18284D01*
X53644Y18283D01*
X53643D01*
X53622Y18274D01*
X53603Y18264D01*
X53587Y18253D01*
X53573Y18241D01*
X53562Y18231D01*
X53555Y18222D01*
X53550Y18216D01*
X53548Y18215D01*
Y18214D01*
X53536Y18195D01*
X53527Y18173D01*
X53520Y18153D01*
X53517Y18134D01*
X53514Y18116D01*
X53513Y18109D01*
Y18102D01*
X53512Y18097D01*
Y18090D01*
X53513Y18067D01*
X53517Y18046D01*
X53522Y18028D01*
X53528Y18012D01*
X53534Y18000D01*
X53539Y17991D01*
X53543Y17986D01*
X53544Y17984D01*
X53558Y17969D01*
X53574Y17955D01*
X53591Y17944D01*
X53607Y17935D01*
X53622Y17927D01*
X53630Y17925D01*
X53635Y17923D01*
X53640Y17921D01*
X53643Y17919D01*
X53645Y17918D01*
X53646D01*
X53627Y17835D01*
X53610Y17840D01*
X53595Y17846D01*
X53581Y17853D01*
X53568Y17860D01*
X53556Y17867D01*
X53544Y17876D01*
X53533Y17883D01*
X53524Y17890D01*
X53517Y17898D01*
X53509Y17904D01*
X53503Y17911D01*
X53498Y17915D01*
X53494Y17920D01*
X53491Y17924D01*
X53490Y17925D01*
X53489Y17926D01*
X53481Y17939D01*
X53472Y17952D01*
X53466Y17965D01*
X53460Y17979D01*
X53452Y18007D01*
X53446Y18032D01*
X53444Y18044D01*
X53443Y18054D01*
X53442Y18064D01*
X53441Y18072D01*
X53440Y18079D01*
Y18088D01*
X53442Y18119D01*
X53446Y18148D01*
X53452Y18174D01*
X53456Y18186D01*
X53459Y18197D01*
X53463Y18207D01*
X53467Y18217D01*
X53470Y18224D01*
X53472Y18232D01*
X53475Y18236D01*
X53477Y18240D01*
X53478Y18243D01*
X53479Y18244D01*
X53495Y18268D01*
X53513Y18290D01*
X53532Y18308D01*
X53550Y18324D01*
X53567Y18336D01*
X53574Y18341D01*
X53581Y18344D01*
X53585Y18348D01*
X53589Y18350D01*
X53592Y18351D01*
X53593Y18352D01*
X53621Y18365D01*
X53651Y18374D01*
X53680Y18380D01*
X53707Y18385D01*
X53719Y18387D01*
X53731Y18388D01*
X53741Y18389D01*
X53750D01*
X53756Y18390D01*
X53762D01*
X53765D01*
X53766D01*
X53800Y18388D01*
D02*
G37*
G36*
X53679Y17678D02*
X53673Y17664D01*
X53667Y17650D01*
X53660Y17637D01*
X53655Y17626D01*
X53650Y17617D01*
X53646Y17611D01*
X53645Y17610D01*
Y17609D01*
X53635Y17593D01*
X53625Y17578D01*
X53616Y17565D01*
X53607Y17555D01*
X53601Y17545D01*
X53595Y17540D01*
X53592Y17535D01*
X53591Y17534D01*
X54091D01*
Y17456D01*
X53448D01*
Y17507D01*
X53464Y17516D01*
X53479Y17526D01*
X53494Y17538D01*
X53507Y17549D01*
X53518Y17560D01*
X53527Y17569D01*
X53530Y17572D01*
X53532Y17575D01*
X53533Y17576D01*
X53534Y17577D01*
X53550Y17596D01*
X53565Y17616D01*
X53578Y17634D01*
X53588Y17653D01*
X53597Y17668D01*
X53601Y17675D01*
X53604Y17680D01*
X53606Y17685D01*
X53607Y17689D01*
X53609Y17691D01*
Y17692D01*
X53685D01*
X53679Y17678D01*
D02*
G37*
G36*
Y17180D02*
X53673Y17166D01*
X53667Y17153D01*
X53660Y17140D01*
X53655Y17129D01*
X53650Y17119D01*
X53646Y17114D01*
X53645Y17113D01*
Y17112D01*
X53635Y17095D01*
X53625Y17080D01*
X53616Y17067D01*
X53607Y17057D01*
X53601Y17048D01*
X53595Y17043D01*
X53592Y17038D01*
X53591Y17037D01*
X54091D01*
Y16958D01*
X53448D01*
Y17009D01*
X53464Y17018D01*
X53479Y17029D01*
X53494Y17041D01*
X53507Y17052D01*
X53518Y17063D01*
X53527Y17071D01*
X53530Y17075D01*
X53532Y17078D01*
X53533Y17079D01*
X53534Y17080D01*
X53550Y17099D01*
X53565Y17118D01*
X53578Y17137D01*
X53588Y17155D01*
X53597Y17171D01*
X53601Y17178D01*
X53604Y17183D01*
X53606Y17188D01*
X53607Y17191D01*
X53609Y17193D01*
Y17194D01*
X53685D01*
X53679Y17180D01*
D02*
G37*
G36*
X56162Y15887D02*
X56194Y15883D01*
X56223Y15878D01*
X56237Y15875D01*
X56249Y15872D01*
X56260Y15869D01*
X56270Y15866D01*
X56279Y15863D01*
X56287Y15861D01*
X56292Y15858D01*
X56297Y15857D01*
X56300Y15855D01*
X56301D01*
X56328Y15841D01*
X56353Y15826D01*
X56375Y15809D01*
X56383Y15801D01*
X56391Y15793D01*
X56399Y15786D01*
X56405Y15779D01*
X56411Y15772D01*
X56414Y15767D01*
X56418Y15763D01*
X56421Y15759D01*
X56422Y15757D01*
X56423Y15756D01*
X56430Y15743D01*
X56436Y15731D01*
X56447Y15703D01*
X56454Y15675D01*
X56459Y15648D01*
X56461Y15635D01*
X56462Y15624D01*
X56463Y15614D01*
Y15606D01*
X56464Y15598D01*
Y15588D01*
X56463Y15570D01*
X56461Y15552D01*
X56460Y15535D01*
X56456Y15520D01*
X56451Y15505D01*
X56447Y15491D01*
X56442Y15478D01*
X56436Y15466D01*
X56432Y15456D01*
X56427Y15446D01*
X56423Y15438D01*
X56418Y15431D01*
X56414Y15426D01*
X56412Y15422D01*
X56411Y15420D01*
X56410Y15419D01*
X56399Y15406D01*
X56387Y15395D01*
X56375Y15385D01*
X56362Y15375D01*
X56336Y15358D01*
X56310Y15345D01*
X56298Y15339D01*
X56287Y15335D01*
X56277Y15331D01*
X56268Y15328D01*
X56261Y15326D01*
X56255Y15324D01*
X56252Y15323D01*
X56251D01*
X56229Y15408D01*
X56244Y15412D01*
X56258Y15416D01*
X56271Y15421D01*
X56283Y15425D01*
X56294Y15431D01*
X56303Y15437D01*
X56313Y15443D01*
X56321Y15449D01*
X56328Y15453D01*
X56334Y15459D01*
X56339Y15463D01*
X56344Y15467D01*
X56347Y15471D01*
X56350Y15474D01*
X56350Y15474D01*
X56351Y15475D01*
X56359Y15485D01*
X56364Y15495D01*
X56375Y15515D01*
X56382Y15535D01*
X56387Y15554D01*
X56390Y15571D01*
X56391Y15577D01*
Y15584D01*
X56392Y15589D01*
Y15596D01*
X56391Y15617D01*
X56387Y15637D01*
X56383Y15656D01*
X56377Y15672D01*
X56372Y15685D01*
X56369Y15691D01*
X56367Y15695D01*
X56365Y15699D01*
X56363Y15702D01*
X56363Y15704D01*
Y15705D01*
X56350Y15722D01*
X56336Y15737D01*
X56320Y15750D01*
X56305Y15760D01*
X56292Y15768D01*
X56281Y15774D01*
X56277Y15776D01*
X56274Y15778D01*
X56272Y15779D01*
X56271D01*
X56247Y15786D01*
X56223Y15792D01*
X56199Y15796D01*
X56177Y15799D01*
X56167Y15800D01*
X56157Y15801D01*
X56149D01*
X56142Y15802D01*
X56137D01*
X56132D01*
X56130D01*
X56129D01*
X56105Y15801D01*
X56082Y15799D01*
X56062Y15795D01*
X56044Y15792D01*
X56028Y15789D01*
X56021Y15787D01*
X56016Y15785D01*
X56011Y15784D01*
X56008Y15783D01*
X56007Y15782D01*
X56006D01*
X55984Y15773D01*
X55965Y15763D01*
X55949Y15752D01*
X55935Y15740D01*
X55924Y15730D01*
X55917Y15721D01*
X55912Y15715D01*
X55910Y15714D01*
Y15713D01*
X55898Y15694D01*
X55889Y15672D01*
X55883Y15652D01*
X55879Y15633D01*
X55876Y15615D01*
X55875Y15608D01*
Y15601D01*
X55874Y15596D01*
Y15589D01*
X55875Y15566D01*
X55879Y15545D01*
X55885Y15527D01*
X55890Y15511D01*
X55897Y15499D01*
X55901Y15490D01*
X55905Y15485D01*
X55907Y15483D01*
X55921Y15468D01*
X55936Y15454D01*
X55953Y15443D01*
X55970Y15434D01*
X55984Y15426D01*
X55992Y15424D01*
X55997Y15422D01*
X56002Y15420D01*
X56006Y15418D01*
X56007Y15417D01*
X56008D01*
X55989Y15334D01*
X55972Y15339D01*
X55958Y15345D01*
X55944Y15352D01*
X55930Y15359D01*
X55918Y15366D01*
X55907Y15375D01*
X55896Y15382D01*
X55886Y15389D01*
X55879Y15397D01*
X55872Y15403D01*
X55865Y15410D01*
X55860Y15414D01*
X55856Y15419D01*
X55853Y15423D01*
X55852Y15425D01*
X55851Y15425D01*
X55843Y15438D01*
X55835Y15451D01*
X55828Y15464D01*
X55823Y15478D01*
X55814Y15506D01*
X55809Y15531D01*
X55806Y15543D01*
X55805Y15553D01*
X55804Y15563D01*
X55803Y15572D01*
X55802Y15578D01*
Y15587D01*
X55804Y15618D01*
X55809Y15647D01*
X55814Y15673D01*
X55818Y15685D01*
X55822Y15696D01*
X55825Y15706D01*
X55829Y15716D01*
X55832Y15723D01*
X55835Y15731D01*
X55837Y15735D01*
X55839Y15739D01*
X55840Y15742D01*
X55841Y15743D01*
X55857Y15768D01*
X55875Y15789D01*
X55894Y15807D01*
X55912Y15823D01*
X55929Y15835D01*
X55936Y15840D01*
X55943Y15843D01*
X55947Y15847D01*
X55951Y15849D01*
X55954Y15850D01*
X55955Y15851D01*
X55983Y15864D01*
X56013Y15873D01*
X56043Y15879D01*
X56069Y15884D01*
X56081Y15886D01*
X56093Y15887D01*
X56103Y15888D01*
X56112D01*
X56118Y15889D01*
X56124D01*
X56128D01*
X56129D01*
X56162Y15887D01*
D02*
G37*
G36*
X56042Y15177D02*
X56035Y15163D01*
X56029Y15149D01*
X56022Y15136D01*
X56017Y15125D01*
X56012Y15116D01*
X56008Y15110D01*
X56007Y15109D01*
Y15108D01*
X55997Y15092D01*
X55987Y15077D01*
X55978Y15064D01*
X55970Y15054D01*
X55963Y15045D01*
X55958Y15039D01*
X55954Y15034D01*
X55953Y15033D01*
X56453D01*
Y14955D01*
X55811D01*
Y15006D01*
X55826Y15015D01*
X55841Y15025D01*
X55856Y15037D01*
X55869Y15048D01*
X55880Y15059D01*
X55889Y15068D01*
X55892Y15071D01*
X55895Y15074D01*
X55896Y15075D01*
X55897Y15076D01*
X55912Y15095D01*
X55927Y15115D01*
X55940Y15133D01*
X55950Y15152D01*
X55959Y15167D01*
X55963Y15174D01*
X55966Y15179D01*
X55969Y15184D01*
X55970Y15188D01*
X55971Y15190D01*
Y15191D01*
X56047D01*
X56042Y15177D01*
D02*
G37*
G36*
X56170Y14752D02*
X56201Y14750D01*
X56228Y14748D01*
X56254Y14743D01*
X56278Y14738D01*
X56300Y14733D01*
X56319Y14727D01*
X56336Y14722D01*
X56350Y14716D01*
X56363Y14710D01*
X56375Y14705D01*
X56383Y14701D01*
X56390Y14696D01*
X56395Y14693D01*
X56398Y14691D01*
X56399Y14690D01*
X56410Y14680D01*
X56420Y14669D01*
X56429Y14657D01*
X56436Y14645D01*
X56443Y14633D01*
X56449Y14621D01*
X56452Y14609D01*
X56456Y14598D01*
X56459Y14587D01*
X56461Y14577D01*
X56462Y14567D01*
X56463Y14560D01*
X56464Y14554D01*
Y14544D01*
X56462Y14519D01*
X56459Y14496D01*
X56452Y14477D01*
X56446Y14460D01*
X56439Y14446D01*
X56436Y14442D01*
X56433Y14437D01*
X56431Y14433D01*
X56429Y14431D01*
X56427Y14430D01*
Y14429D01*
X56412Y14412D01*
X56395Y14398D01*
X56376Y14386D01*
X56360Y14377D01*
X56344Y14370D01*
X56338Y14366D01*
X56331Y14364D01*
X56326Y14362D01*
X56323Y14360D01*
X56321Y14359D01*
X56320D01*
X56306Y14355D01*
X56292Y14351D01*
X56263Y14346D01*
X56232Y14341D01*
X56203Y14338D01*
X56190Y14337D01*
X56178Y14336D01*
X56167D01*
X56156Y14335D01*
X56149D01*
X56142D01*
X56139D01*
X56138D01*
X56120D01*
X56104Y14336D01*
X56089D01*
X56074Y14337D01*
X56061Y14339D01*
X56048Y14340D01*
X56037Y14341D01*
X56027Y14343D01*
X56018Y14344D01*
X56009Y14346D01*
X56003Y14346D01*
X55997Y14347D01*
X55993Y14348D01*
X55990Y14349D01*
X55988Y14350D01*
X55987D01*
X55967Y14356D01*
X55948Y14362D01*
X55933Y14370D01*
X55919Y14375D01*
X55907Y14382D01*
X55898Y14385D01*
X55894Y14389D01*
X55892Y14390D01*
X55878Y14400D01*
X55866Y14410D01*
X55856Y14421D01*
X55847Y14432D01*
X55840Y14441D01*
X55836Y14448D01*
X55833Y14453D01*
X55832Y14454D01*
Y14455D01*
X55824Y14469D01*
X55820Y14485D01*
X55816Y14500D01*
X55813Y14514D01*
X55811Y14526D01*
X55811Y14536D01*
Y14544D01*
X55812Y14569D01*
X55816Y14592D01*
X55823Y14612D01*
X55829Y14628D01*
X55836Y14642D01*
X55839Y14648D01*
X55843Y14652D01*
X55845Y14656D01*
X55847Y14659D01*
X55848Y14660D01*
Y14661D01*
X55863Y14677D01*
X55881Y14691D01*
X55898Y14703D01*
X55915Y14713D01*
X55931Y14720D01*
X55937Y14724D01*
X55944Y14726D01*
X55948Y14727D01*
X55952Y14729D01*
X55954Y14730D01*
X55955D01*
X55969Y14734D01*
X55983Y14738D01*
X56013Y14743D01*
X56044Y14748D01*
X56072Y14750D01*
X56086Y14751D01*
X56098Y14752D01*
X56109D01*
X56119Y14753D01*
X56127D01*
X56133D01*
X56137D01*
X56138D01*
X56170Y14752D01*
D02*
G37*
G36*
X62931Y12540D02*
X62946Y12538D01*
X62961Y12535D01*
X62974Y12532D01*
X62999Y12521D01*
X63010Y12517D01*
X63019Y12511D01*
X63028Y12505D01*
X63036Y12500D01*
X63043Y12495D01*
X63049Y12490D01*
X63053Y12486D01*
X63056Y12484D01*
X63058Y12482D01*
X63059Y12481D01*
X63069Y12470D01*
X63077Y12457D01*
X63086Y12445D01*
X63092Y12432D01*
X63098Y12418D01*
X63102Y12405D01*
X63109Y12381D01*
X63111Y12369D01*
X63113Y12359D01*
X63114Y12349D01*
X63115Y12340D01*
X63116Y12334D01*
Y12329D01*
Y12325D01*
Y12325D01*
X63115Y12307D01*
X63113Y12291D01*
X63111Y12276D01*
X63108Y12261D01*
X63103Y12248D01*
X63098Y12235D01*
X63094Y12224D01*
X63088Y12214D01*
X63084Y12204D01*
X63079Y12196D01*
X63074Y12190D01*
X63070Y12183D01*
X63066Y12178D01*
X63064Y12176D01*
X63062Y12174D01*
X63062Y12173D01*
X63051Y12163D01*
X63040Y12154D01*
X63029Y12146D01*
X63017Y12140D01*
X63006Y12134D01*
X62995Y12129D01*
X62974Y12123D01*
X62964Y12120D01*
X62955Y12118D01*
X62948Y12117D01*
X62940Y12116D01*
X62935Y12116D01*
X62927D01*
X62910Y12116D01*
X62893Y12119D01*
X62878Y12123D01*
X62865Y12128D01*
X62854Y12131D01*
X62846Y12135D01*
X62841Y12138D01*
X62839Y12139D01*
X62824Y12148D01*
X62811Y12158D01*
X62800Y12168D01*
X62791Y12177D01*
X62784Y12187D01*
X62779Y12193D01*
X62775Y12198D01*
X62774Y12200D01*
Y12192D01*
Y12188D01*
Y12185D01*
Y12184D01*
X62775Y12165D01*
X62776Y12148D01*
X62778Y12132D01*
X62780Y12117D01*
X62782Y12105D01*
X62784Y12096D01*
X62785Y12092D01*
Y12090D01*
X62786Y12089D01*
Y12088D01*
X62791Y12071D01*
X62795Y12056D01*
X62800Y12043D01*
X62804Y12032D01*
X62808Y12024D01*
X62812Y12018D01*
X62814Y12013D01*
X62815Y12012D01*
X62822Y12002D01*
X62829Y11994D01*
X62837Y11986D01*
X62844Y11980D01*
X62850Y11974D01*
X62855Y11970D01*
X62859Y11969D01*
X62860Y11968D01*
X62870Y11962D01*
X62881Y11958D01*
X62891Y11956D01*
X62902Y11954D01*
X62910Y11953D01*
X62916Y11952D01*
X62923D01*
X62938Y11953D01*
X62951Y11956D01*
X62964Y11959D01*
X62974Y11964D01*
X62981Y11968D01*
X62988Y11971D01*
X62991Y11974D01*
X62992Y11975D01*
X63001Y11985D01*
X63009Y11997D01*
X63015Y12010D01*
X63020Y12023D01*
X63024Y12034D01*
X63026Y12044D01*
X63027Y12048D01*
Y12050D01*
X63028Y12052D01*
Y12053D01*
X63104Y12046D01*
X63098Y12019D01*
X63091Y11996D01*
X63082Y11976D01*
X63073Y11959D01*
X63063Y11946D01*
X63059Y11941D01*
X63055Y11936D01*
X63052Y11933D01*
X63049Y11931D01*
X63049Y11930D01*
X63048Y11929D01*
X63038Y11921D01*
X63028Y11915D01*
X63008Y11905D01*
X62988Y11897D01*
X62968Y11893D01*
X62951Y11889D01*
X62943Y11888D01*
X62937D01*
X62932Y11887D01*
X62925D01*
X62899Y11889D01*
X62876Y11893D01*
X62854Y11899D01*
X62837Y11907D01*
X62829Y11909D01*
X62822Y11913D01*
X62817Y11917D01*
X62811Y11920D01*
X62807Y11921D01*
X62804Y11923D01*
X62803Y11925D01*
X62802D01*
X62783Y11941D01*
X62767Y11958D01*
X62754Y11977D01*
X62743Y11994D01*
X62733Y12010D01*
X62730Y12018D01*
X62727Y12023D01*
X62725Y12029D01*
X62723Y12032D01*
X62722Y12034D01*
Y12035D01*
X62718Y12049D01*
X62713Y12065D01*
X62706Y12096D01*
X62702Y12129D01*
X62699Y12161D01*
X62697Y12175D01*
X62696Y12189D01*
Y12201D01*
X62695Y12211D01*
Y12219D01*
Y12226D01*
Y12230D01*
Y12231D01*
Y12252D01*
X62696Y12273D01*
X62698Y12291D01*
X62700Y12309D01*
X62702Y12325D01*
X62704Y12339D01*
X62706Y12353D01*
X62709Y12365D01*
X62712Y12375D01*
X62714Y12385D01*
X62717Y12393D01*
X62719Y12399D01*
X62720Y12404D01*
X62722Y12408D01*
X62723Y12410D01*
Y12410D01*
X62734Y12433D01*
X62746Y12452D01*
X62760Y12469D01*
X62772Y12483D01*
X62784Y12493D01*
X62793Y12500D01*
X62797Y12503D01*
X62800Y12505D01*
X62801Y12507D01*
X62802D01*
X62821Y12518D01*
X62841Y12526D01*
X62860Y12533D01*
X62878Y12536D01*
X62893Y12539D01*
X62900Y12540D01*
X62904D01*
X62909Y12541D01*
X62915D01*
X62931Y12540D01*
D02*
G37*
G36*
X63483Y12547D02*
X63513Y12543D01*
X63539Y12537D01*
X63551Y12533D01*
X63562Y12530D01*
X63572Y12526D01*
X63581Y12522D01*
X63589Y12520D01*
X63596Y12517D01*
X63601Y12514D01*
X63604Y12512D01*
X63607Y12511D01*
X63608Y12510D01*
X63633Y12495D01*
X63654Y12476D01*
X63673Y12458D01*
X63688Y12439D01*
X63700Y12423D01*
X63705Y12415D01*
X63709Y12409D01*
X63712Y12404D01*
X63714Y12400D01*
X63715Y12398D01*
X63716Y12397D01*
X63729Y12368D01*
X63738Y12338D01*
X63745Y12309D01*
X63749Y12282D01*
X63751Y12270D01*
X63752Y12258D01*
X63753Y12249D01*
Y12239D01*
X63754Y12233D01*
Y12227D01*
Y12224D01*
Y12223D01*
X63752Y12190D01*
X63748Y12157D01*
X63744Y12128D01*
X63740Y12115D01*
X63737Y12103D01*
X63735Y12092D01*
X63731Y12081D01*
X63728Y12072D01*
X63726Y12065D01*
X63723Y12059D01*
X63723Y12055D01*
X63721Y12052D01*
Y12051D01*
X63707Y12023D01*
X63691Y11998D01*
X63674Y11977D01*
X63666Y11969D01*
X63659Y11960D01*
X63651Y11953D01*
X63644Y11946D01*
X63638Y11941D01*
X63632Y11937D01*
X63628Y11933D01*
X63625Y11931D01*
X63623Y11930D01*
X63622Y11929D01*
X63609Y11921D01*
X63596Y11915D01*
X63568Y11905D01*
X63540Y11897D01*
X63514Y11893D01*
X63501Y11891D01*
X63490Y11889D01*
X63479Y11888D01*
X63471D01*
X63464Y11887D01*
X63454D01*
X63435Y11888D01*
X63417Y11890D01*
X63401Y11892D01*
X63385Y11896D01*
X63370Y11900D01*
X63356Y11905D01*
X63344Y11909D01*
X63331Y11915D01*
X63321Y11920D01*
X63311Y11924D01*
X63304Y11929D01*
X63296Y11933D01*
X63292Y11937D01*
X63287Y11939D01*
X63285Y11941D01*
X63284Y11942D01*
X63271Y11953D01*
X63260Y11964D01*
X63250Y11977D01*
X63240Y11990D01*
X63223Y12016D01*
X63210Y12042D01*
X63205Y12054D01*
X63200Y12065D01*
X63196Y12075D01*
X63194Y12083D01*
X63191Y12091D01*
X63189Y12096D01*
X63188Y12100D01*
Y12101D01*
X63273Y12122D01*
X63277Y12107D01*
X63282Y12093D01*
X63286Y12080D01*
X63291Y12068D01*
X63296Y12057D01*
X63302Y12048D01*
X63308Y12039D01*
X63314Y12030D01*
X63319Y12023D01*
X63324Y12018D01*
X63329Y12012D01*
X63332Y12007D01*
X63336Y12005D01*
X63339Y12002D01*
X63340Y12001D01*
X63341Y12000D01*
X63350Y11993D01*
X63360Y11987D01*
X63380Y11977D01*
X63400Y11969D01*
X63419Y11965D01*
X63436Y11961D01*
X63442Y11960D01*
X63449D01*
X63454Y11959D01*
X63461D01*
X63482Y11960D01*
X63503Y11964D01*
X63521Y11969D01*
X63538Y11974D01*
X63551Y11980D01*
X63556Y11982D01*
X63561Y11984D01*
X63564Y11986D01*
X63567Y11988D01*
X63569Y11989D01*
X63570D01*
X63588Y12002D01*
X63602Y12016D01*
X63615Y12031D01*
X63625Y12046D01*
X63634Y12059D01*
X63639Y12070D01*
X63641Y12075D01*
X63643Y12078D01*
X63644Y12080D01*
Y12080D01*
X63651Y12104D01*
X63657Y12128D01*
X63662Y12153D01*
X63664Y12175D01*
X63665Y12185D01*
X63666Y12194D01*
Y12202D01*
X63667Y12209D01*
Y12214D01*
Y12219D01*
Y12222D01*
Y12223D01*
X63666Y12247D01*
X63664Y12269D01*
X63661Y12289D01*
X63657Y12308D01*
X63654Y12324D01*
X63652Y12330D01*
X63650Y12336D01*
X63650Y12340D01*
X63649Y12343D01*
X63648Y12345D01*
Y12346D01*
X63638Y12367D01*
X63628Y12386D01*
X63617Y12402D01*
X63605Y12416D01*
X63595Y12427D01*
X63587Y12435D01*
X63580Y12439D01*
X63579Y12441D01*
X63578D01*
X63559Y12453D01*
X63538Y12462D01*
X63517Y12469D01*
X63498Y12472D01*
X63480Y12475D01*
X63473Y12476D01*
X63466D01*
X63462Y12477D01*
X63454D01*
X63431Y12476D01*
X63410Y12472D01*
X63393Y12467D01*
X63377Y12461D01*
X63365Y12455D01*
X63356Y12450D01*
X63350Y12447D01*
X63348Y12445D01*
X63333Y12431D01*
X63319Y12415D01*
X63308Y12398D01*
X63299Y12382D01*
X63292Y12367D01*
X63289Y12360D01*
X63287Y12354D01*
X63285Y12349D01*
X63283Y12346D01*
X63282Y12344D01*
Y12343D01*
X63199Y12362D01*
X63205Y12379D01*
X63210Y12394D01*
X63218Y12408D01*
X63224Y12422D01*
X63232Y12434D01*
X63240Y12445D01*
X63247Y12456D01*
X63255Y12465D01*
X63262Y12472D01*
X63269Y12480D01*
X63275Y12486D01*
X63280Y12491D01*
X63284Y12496D01*
X63288Y12498D01*
X63290Y12499D01*
X63291Y12500D01*
X63304Y12508D01*
X63317Y12517D01*
X63330Y12523D01*
X63344Y12529D01*
X63371Y12537D01*
X63396Y12543D01*
X63408Y12545D01*
X63418Y12546D01*
X63429Y12547D01*
X63437Y12548D01*
X63443Y12549D01*
X63453D01*
X63483Y12547D01*
D02*
G37*
G36*
X23667Y25578D02*
X23589D01*
Y26079D01*
X23588Y26078D01*
X23583Y26074D01*
X23578Y26068D01*
X23568Y26062D01*
X23558Y26054D01*
X23545Y26044D01*
X23530Y26034D01*
X23514Y26024D01*
X23513D01*
X23512Y26023D01*
X23506Y26019D01*
X23497Y26015D01*
X23486Y26009D01*
X23473Y26003D01*
X23459Y25996D01*
X23445Y25990D01*
X23431Y25984D01*
Y26060D01*
X23432D01*
X23434Y26062D01*
X23438Y26063D01*
X23443Y26066D01*
X23448Y26068D01*
X23455Y26072D01*
X23470Y26081D01*
X23489Y26092D01*
X23507Y26105D01*
X23527Y26119D01*
X23546Y26135D01*
X23547Y26136D01*
X23548Y26137D01*
X23551Y26140D01*
X23554Y26142D01*
X23563Y26152D01*
X23574Y26163D01*
X23585Y26176D01*
X23597Y26191D01*
X23607Y26205D01*
X23616Y26221D01*
X23667D01*
Y25578D01*
D02*
G37*
G36*
X23021Y26217D02*
X23039Y26216D01*
X23058Y26215D01*
X23076Y26212D01*
X23092Y26209D01*
X23093D01*
X23095Y26208D01*
X23098D01*
X23101Y26206D01*
X23112Y26203D01*
X23125Y26199D01*
X23139Y26192D01*
X23155Y26184D01*
X23171Y26175D01*
X23186Y26163D01*
X23186Y26162D01*
X23187Y26161D01*
X23190Y26158D01*
X23194Y26155D01*
X23203Y26146D01*
X23214Y26133D01*
X23226Y26117D01*
X23239Y26099D01*
X23251Y26078D01*
X23261Y26054D01*
Y26053D01*
X23262Y26051D01*
X23264Y26047D01*
X23265Y26042D01*
X23268Y26035D01*
X23270Y26028D01*
X23272Y26019D01*
X23274Y26009D01*
X23277Y25999D01*
X23279Y25987D01*
X23284Y25961D01*
X23286Y25933D01*
X23287Y25901D01*
Y25900D01*
Y25898D01*
Y25894D01*
Y25889D01*
X23286Y25883D01*
Y25875D01*
X23285Y25858D01*
X23283Y25837D01*
X23280Y25816D01*
X23275Y25794D01*
X23270Y25772D01*
Y25771D01*
X23269Y25769D01*
X23268Y25766D01*
X23267Y25762D01*
X23263Y25752D01*
X23258Y25739D01*
X23252Y25725D01*
X23245Y25710D01*
X23235Y25694D01*
X23226Y25679D01*
X23225Y25677D01*
X23222Y25673D01*
X23216Y25666D01*
X23209Y25658D01*
X23200Y25649D01*
X23190Y25639D01*
X23180Y25629D01*
X23168Y25621D01*
X23166Y25620D01*
X23162Y25617D01*
X23156Y25614D01*
X23147Y25609D01*
X23136Y25603D01*
X23123Y25599D01*
X23108Y25593D01*
X23091Y25589D01*
X23089D01*
X23087Y25588D01*
X23084Y25587D01*
X23075Y25586D01*
X23062Y25584D01*
X23047Y25582D01*
X23029Y25580D01*
X23010Y25579D01*
X22989Y25578D01*
X22758D01*
Y26218D01*
X23004D01*
X23021Y26217D01*
D02*
G37*
G36*
X24091Y26220D02*
X24098Y26219D01*
X24106Y26218D01*
X24116Y26217D01*
X24125Y26215D01*
X24147Y26209D01*
X24169Y26201D01*
X24180Y26195D01*
X24191Y26189D01*
X24202Y26180D01*
X24212Y26172D01*
X24213Y26171D01*
X24214Y26170D01*
X24216Y26167D01*
X24220Y26164D01*
X24224Y26158D01*
X24228Y26153D01*
X24238Y26139D01*
X24247Y26121D01*
X24255Y26101D01*
X24262Y26078D01*
X24263Y26066D01*
X24264Y26053D01*
Y26052D01*
Y26051D01*
Y26045D01*
X24263Y26037D01*
X24261Y26027D01*
X24258Y26014D01*
X24253Y26001D01*
X24248Y25988D01*
X24240Y25975D01*
X24239Y25973D01*
X24235Y25970D01*
X24229Y25964D01*
X24222Y25957D01*
X24212Y25948D01*
X24200Y25940D01*
X24186Y25932D01*
X24169Y25924D01*
X24170D01*
X24172Y25923D01*
X24175Y25922D01*
X24179Y25921D01*
X24190Y25916D01*
X24203Y25909D01*
X24216Y25900D01*
X24231Y25890D01*
X24245Y25877D01*
X24258Y25862D01*
Y25861D01*
X24259Y25860D01*
X24263Y25855D01*
X24268Y25846D01*
X24274Y25834D01*
X24279Y25819D01*
X24285Y25801D01*
X24289Y25782D01*
X24289Y25761D01*
Y25760D01*
Y25757D01*
Y25752D01*
X24289Y25747D01*
X24288Y25740D01*
X24287Y25732D01*
X24285Y25723D01*
X24282Y25713D01*
X24276Y25691D01*
X24271Y25679D01*
X24265Y25668D01*
X24258Y25656D01*
X24251Y25645D01*
X24241Y25634D01*
X24231Y25623D01*
X24230Y25622D01*
X24228Y25620D01*
X24226Y25617D01*
X24221Y25615D01*
X24215Y25610D01*
X24208Y25605D01*
X24200Y25601D01*
X24191Y25595D01*
X24180Y25590D01*
X24168Y25585D01*
X24155Y25580D01*
X24142Y25576D01*
X24128Y25573D01*
X24112Y25570D01*
X24096Y25568D01*
X24079Y25567D01*
X24069D01*
X24063Y25568D01*
X24055Y25569D01*
X24045Y25570D01*
X24035Y25572D01*
X24024Y25575D01*
X23999Y25581D01*
X23986Y25586D01*
X23974Y25590D01*
X23961Y25597D01*
X23948Y25604D01*
X23936Y25613D01*
X23925Y25623D01*
X23924Y25624D01*
X23922Y25626D01*
X23920Y25628D01*
X23916Y25633D01*
X23912Y25639D01*
X23907Y25645D01*
X23902Y25652D01*
X23897Y25662D01*
X23891Y25671D01*
X23886Y25682D01*
X23877Y25705D01*
X23873Y25719D01*
X23871Y25733D01*
X23869Y25748D01*
X23868Y25762D01*
Y25763D01*
Y25765D01*
Y25769D01*
X23869Y25773D01*
Y25778D01*
X23870Y25785D01*
X23872Y25799D01*
X23875Y25816D01*
X23881Y25833D01*
X23889Y25850D01*
X23899Y25867D01*
Y25868D01*
X23901Y25869D01*
X23905Y25873D01*
X23912Y25881D01*
X23922Y25890D01*
X23935Y25899D01*
X23951Y25909D01*
X23969Y25918D01*
X23990Y25924D01*
X23989D01*
X23988Y25925D01*
X23985Y25926D01*
X23982Y25928D01*
X23973Y25932D01*
X23962Y25937D01*
X23950Y25945D01*
X23938Y25954D01*
X23927Y25964D01*
X23917Y25975D01*
X23916Y25977D01*
X23913Y25981D01*
X23909Y25988D01*
X23906Y25997D01*
X23901Y26009D01*
X23897Y26023D01*
X23895Y26039D01*
X23894Y26056D01*
Y26056D01*
Y26058D01*
Y26062D01*
X23895Y26068D01*
X23896Y26073D01*
X23897Y26080D01*
X23900Y26096D01*
X23906Y26115D01*
X23915Y26134D01*
X23921Y26144D01*
X23927Y26154D01*
X23935Y26164D01*
X23944Y26173D01*
X23945Y26174D01*
X23946Y26175D01*
X23949Y26178D01*
X23953Y26180D01*
X23958Y26184D01*
X23964Y26188D01*
X23971Y26192D01*
X23979Y26197D01*
X23988Y26202D01*
X23998Y26206D01*
X24009Y26210D01*
X24021Y26214D01*
X24047Y26219D01*
X24062Y26220D01*
X24077Y26221D01*
X24085D01*
X24091Y26220D01*
D02*
G37*
G36*
X31353Y52482D02*
X31361Y52481D01*
X31369Y52480D01*
X31379Y52479D01*
X31389Y52476D01*
X31412Y52471D01*
X31435Y52462D01*
X31447Y52457D01*
X31459Y52450D01*
X31471Y52443D01*
X31482Y52435D01*
X31483Y52434D01*
X31484Y52433D01*
X31486Y52429D01*
X31490Y52425D01*
X31495Y52421D01*
X31499Y52415D01*
X31505Y52408D01*
X31509Y52399D01*
X31515Y52391D01*
X31520Y52381D01*
X31531Y52359D01*
X31539Y52333D01*
X31542Y52319D01*
X31544Y52304D01*
X31461Y52298D01*
Y52299D01*
Y52301D01*
X31460Y52303D01*
X31459Y52308D01*
X31457Y52318D01*
X31453Y52332D01*
X31447Y52346D01*
X31440Y52362D01*
X31431Y52375D01*
X31420Y52388D01*
X31418Y52389D01*
X31414Y52393D01*
X31407Y52398D01*
X31397Y52403D01*
X31385Y52409D01*
X31372Y52413D01*
X31356Y52417D01*
X31338Y52418D01*
X31333D01*
X31329Y52417D01*
X31318Y52416D01*
X31305Y52412D01*
X31289Y52408D01*
X31274Y52400D01*
X31257Y52389D01*
X31250Y52383D01*
X31242Y52375D01*
X31241Y52375D01*
X31240Y52374D01*
X31238Y52371D01*
X31236Y52368D01*
X31229Y52358D01*
X31222Y52345D01*
X31215Y52329D01*
X31209Y52310D01*
X31204Y52287D01*
X31202Y52275D01*
Y52262D01*
Y52261D01*
Y52259D01*
Y52255D01*
X31203Y52251D01*
Y52245D01*
X31204Y52239D01*
X31207Y52224D01*
X31212Y52206D01*
X31218Y52189D01*
X31227Y52172D01*
X31240Y52156D01*
Y52155D01*
X31242Y52154D01*
X31247Y52150D01*
X31255Y52143D01*
X31266Y52136D01*
X31281Y52130D01*
X31298Y52123D01*
X31317Y52118D01*
X31328Y52117D01*
X31346D01*
X31353Y52117D01*
X31362Y52118D01*
X31373Y52121D01*
X31385Y52124D01*
X31397Y52129D01*
X31409Y52134D01*
X31410Y52135D01*
X31413Y52137D01*
X31419Y52142D01*
X31426Y52146D01*
X31434Y52153D01*
X31441Y52161D01*
X31449Y52169D01*
X31456Y52179D01*
X31530Y52169D01*
X31468Y51840D01*
X31150D01*
Y51915D01*
X31406D01*
X31440Y52088D01*
X31439Y52087D01*
X31437Y52086D01*
X31434Y52084D01*
X31430Y52081D01*
X31424Y52079D01*
X31418Y52075D01*
X31403Y52068D01*
X31385Y52060D01*
X31364Y52054D01*
X31342Y52049D01*
X31331Y52047D01*
X31311D01*
X31305Y52048D01*
X31298Y52049D01*
X31289Y52050D01*
X31280Y52052D01*
X31270Y52055D01*
X31248Y52061D01*
X31236Y52066D01*
X31224Y52072D01*
X31212Y52079D01*
X31200Y52086D01*
X31189Y52095D01*
X31177Y52105D01*
X31177Y52106D01*
X31175Y52108D01*
X31172Y52111D01*
X31168Y52116D01*
X31164Y52122D01*
X31159Y52129D01*
X31153Y52137D01*
X31148Y52146D01*
X31143Y52156D01*
X31138Y52167D01*
X31133Y52180D01*
X31128Y52193D01*
X31125Y52207D01*
X31122Y52223D01*
X31120Y52239D01*
X31119Y52255D01*
Y52256D01*
Y52259D01*
Y52264D01*
X31120Y52270D01*
X31121Y52277D01*
X31122Y52286D01*
X31124Y52296D01*
X31126Y52306D01*
X31131Y52330D01*
X31140Y52355D01*
X31146Y52368D01*
X31153Y52380D01*
X31161Y52393D01*
X31170Y52405D01*
X31171Y52406D01*
X31173Y52409D01*
X31177Y52412D01*
X31181Y52417D01*
X31188Y52423D01*
X31195Y52430D01*
X31204Y52436D01*
X31214Y52444D01*
X31226Y52451D01*
X31238Y52458D01*
X31252Y52464D01*
X31267Y52471D01*
X31283Y52475D01*
X31300Y52479D01*
X31319Y52482D01*
X31338Y52483D01*
X31347D01*
X31353Y52482D01*
D02*
G37*
G36*
X31844D02*
X31851Y52481D01*
X31859Y52480D01*
X31878Y52476D01*
X31899Y52471D01*
X31920Y52462D01*
X31931Y52457D01*
X31941Y52450D01*
X31950Y52443D01*
X31960Y52435D01*
X31961Y52434D01*
X31961Y52433D01*
X31963Y52429D01*
X31966Y52425D01*
X31970Y52421D01*
X31973Y52414D01*
X31977Y52407D01*
X31982Y52399D01*
X31986Y52389D01*
X31989Y52378D01*
X31993Y52367D01*
X31997Y52354D01*
X31998Y52340D01*
X32001Y52325D01*
X32002Y52309D01*
Y52291D01*
X31925Y52280D01*
Y52281D01*
Y52283D01*
Y52287D01*
X31924Y52292D01*
X31924Y52298D01*
Y52304D01*
X31921Y52320D01*
X31918Y52337D01*
X31912Y52353D01*
X31907Y52368D01*
X31903Y52375D01*
X31899Y52380D01*
X31898Y52381D01*
X31894Y52384D01*
X31888Y52388D01*
X31881Y52393D01*
X31871Y52399D01*
X31860Y52402D01*
X31846Y52406D01*
X31831Y52407D01*
X31826D01*
X31820Y52406D01*
X31812Y52405D01*
X31803Y52403D01*
X31794Y52401D01*
X31785Y52398D01*
X31776Y52393D01*
X31775Y52392D01*
X31772Y52390D01*
X31768Y52387D01*
X31763Y52383D01*
X31758Y52376D01*
X31753Y52370D01*
X31748Y52362D01*
X31744Y52353D01*
Y52352D01*
X31742Y52349D01*
X31741Y52342D01*
X31740Y52334D01*
X31738Y52323D01*
X31737Y52309D01*
X31735Y52292D01*
Y52273D01*
Y51832D01*
X31650D01*
Y52268D01*
Y52269D01*
Y52272D01*
Y52276D01*
Y52281D01*
X31651Y52289D01*
Y52296D01*
X31653Y52313D01*
X31655Y52334D01*
X31658Y52355D01*
X31664Y52375D01*
X31670Y52393D01*
Y52394D01*
X31671Y52395D01*
X31674Y52400D01*
X31679Y52408D01*
X31685Y52418D01*
X31694Y52428D01*
X31704Y52439D01*
X31717Y52450D01*
X31732Y52460D01*
X31734Y52460D01*
X31740Y52463D01*
X31748Y52467D01*
X31760Y52471D01*
X31775Y52475D01*
X31791Y52479D01*
X31810Y52482D01*
X31830Y52483D01*
X31838D01*
X31844Y52482D01*
D02*
G37*
%LPC*%
G36*
X25937Y16063D02*
X25786D01*
Y15575D01*
X25934D01*
X25946Y15575D01*
X25958D01*
X25969Y15576D01*
X25987Y15579D01*
X26002Y15581D01*
X26014Y15584D01*
X26022Y15587D01*
X26027Y15588D01*
X26029Y15588D01*
X26045Y15597D01*
X26061Y15607D01*
X26075Y15619D01*
X26087Y15631D01*
X26096Y15642D01*
X26104Y15651D01*
X26106Y15655D01*
X26107Y15658D01*
X26109Y15660D01*
Y15661D01*
X26115Y15671D01*
X26120Y15683D01*
X26129Y15707D01*
X26134Y15733D01*
X26139Y15758D01*
X26140Y15769D01*
X26141Y15780D01*
X26142Y15789D01*
Y15797D01*
X26143Y15805D01*
Y15809D01*
Y15813D01*
Y15814D01*
X26142Y15840D01*
X26140Y15864D01*
X26137Y15885D01*
X26134Y15904D01*
X26132Y15911D01*
X26131Y15918D01*
X26129Y15924D01*
X26128Y15929D01*
X26127Y15932D01*
X26126Y15935D01*
X26125Y15937D01*
Y15938D01*
X26118Y15955D01*
X26111Y15971D01*
X26103Y15985D01*
X26095Y15997D01*
X26089Y16006D01*
X26083Y16013D01*
X26080Y16017D01*
X26079Y16018D01*
X26069Y16026D01*
X26060Y16032D01*
X26051Y16038D01*
X26042Y16043D01*
X26033Y16047D01*
X26027Y16050D01*
X26022Y16051D01*
X26020Y16052D01*
X26007Y16055D01*
X25990Y16058D01*
X25973Y16060D01*
X25958Y16061D01*
X25944Y16062D01*
X25937Y16063D01*
D02*
G37*
G36*
X23591Y24404D02*
X23577D01*
X23573Y24403D01*
X23563Y24402D01*
X23551Y24398D01*
X23536Y24394D01*
X23520Y24385D01*
X23505Y24375D01*
X23497Y24368D01*
X23490Y24360D01*
Y24359D01*
X23488Y24358D01*
X23486Y24356D01*
X23484Y24353D01*
X23478Y24344D01*
X23471Y24331D01*
X23464Y24315D01*
X23457Y24296D01*
X23454Y24273D01*
X23452Y24249D01*
Y24248D01*
Y24247D01*
Y24244D01*
X23453Y24239D01*
Y24234D01*
X23454Y24228D01*
X23456Y24214D01*
X23461Y24198D01*
X23467Y24182D01*
X23476Y24165D01*
X23488Y24150D01*
X23490Y24149D01*
X23494Y24145D01*
X23503Y24138D01*
X23513Y24132D01*
X23527Y24124D01*
X23542Y24118D01*
X23560Y24114D01*
X23579Y24112D01*
X23585D01*
X23589Y24113D01*
X23599Y24114D01*
X23611Y24117D01*
X23626Y24122D01*
X23640Y24128D01*
X23655Y24137D01*
X23669Y24150D01*
X23671Y24152D01*
X23675Y24158D01*
X23680Y24166D01*
X23688Y24178D01*
X23694Y24193D01*
X23700Y24210D01*
X23703Y24232D01*
X23705Y24256D01*
Y24257D01*
Y24259D01*
Y24262D01*
X23704Y24267D01*
Y24273D01*
X23703Y24280D01*
X23701Y24295D01*
X23697Y24312D01*
X23690Y24331D01*
X23681Y24348D01*
X23669Y24364D01*
Y24365D01*
X23667Y24366D01*
X23663Y24370D01*
X23655Y24377D01*
X23645Y24384D01*
X23632Y24391D01*
X23617Y24397D01*
X23601Y24402D01*
X23591Y24404D01*
D02*
G37*
G36*
X22991Y24390D02*
X22843D01*
Y23902D01*
X22995D01*
X23002Y23903D01*
X23015Y23904D01*
X23031Y23904D01*
X23048Y23906D01*
X23064Y23909D01*
X23078Y23913D01*
X23080Y23914D01*
X23085Y23915D01*
X23091Y23917D01*
X23100Y23921D01*
X23109Y23927D01*
X23118Y23932D01*
X23127Y23939D01*
X23137Y23946D01*
X23137Y23948D01*
X23141Y23952D01*
X23147Y23958D01*
X23153Y23967D01*
X23161Y23979D01*
X23169Y23993D01*
X23176Y24009D01*
X23183Y24026D01*
Y24027D01*
X23184Y24029D01*
X23185Y24032D01*
X23186Y24036D01*
X23186Y24040D01*
X23188Y24047D01*
X23190Y24053D01*
X23192Y24061D01*
X23195Y24079D01*
X23198Y24100D01*
X23199Y24124D01*
X23200Y24150D01*
Y24151D01*
Y24155D01*
Y24160D01*
X23199Y24167D01*
Y24175D01*
X23198Y24185D01*
X23198Y24196D01*
X23197Y24207D01*
X23192Y24232D01*
X23186Y24258D01*
X23178Y24282D01*
X23173Y24294D01*
X23167Y24304D01*
Y24305D01*
X23165Y24307D01*
X23163Y24309D01*
X23162Y24313D01*
X23154Y24322D01*
X23145Y24333D01*
X23133Y24345D01*
X23119Y24357D01*
X23103Y24368D01*
X23087Y24376D01*
X23085Y24377D01*
X23080Y24378D01*
X23072Y24381D01*
X23060Y24383D01*
X23045Y24385D01*
X23027Y24388D01*
X23015Y24389D01*
X23003D01*
X22991Y24390D01*
D02*
G37*
G36*
Y22637D02*
X22843D01*
Y22149D01*
X22995D01*
X23002Y22150D01*
X23015Y22151D01*
X23031Y22152D01*
X23048Y22154D01*
X23064Y22156D01*
X23078Y22160D01*
X23080Y22161D01*
X23085Y22162D01*
X23091Y22165D01*
X23100Y22168D01*
X23109Y22174D01*
X23118Y22180D01*
X23127Y22186D01*
X23137Y22193D01*
X23137Y22195D01*
X23141Y22199D01*
X23147Y22205D01*
X23153Y22215D01*
X23161Y22227D01*
X23169Y22241D01*
X23176Y22256D01*
X23183Y22274D01*
Y22275D01*
X23184Y22277D01*
X23185Y22279D01*
X23186Y22283D01*
X23186Y22288D01*
X23188Y22294D01*
X23190Y22301D01*
X23192Y22308D01*
X23195Y22327D01*
X23198Y22348D01*
X23199Y22372D01*
X23200Y22398D01*
Y22399D01*
Y22402D01*
Y22407D01*
X23199Y22414D01*
Y22423D01*
X23198Y22432D01*
X23198Y22443D01*
X23197Y22454D01*
X23192Y22479D01*
X23186Y22505D01*
X23178Y22529D01*
X23173Y22541D01*
X23167Y22551D01*
Y22552D01*
X23165Y22554D01*
X23163Y22557D01*
X23162Y22560D01*
X23154Y22570D01*
X23145Y22581D01*
X23133Y22593D01*
X23119Y22605D01*
X23103Y22615D01*
X23087Y22623D01*
X23085Y22624D01*
X23080Y22625D01*
X23072Y22628D01*
X23060Y22631D01*
X23045Y22633D01*
X23027Y22635D01*
X23015Y22636D01*
X23003D01*
X22991Y22637D01*
D02*
G37*
G36*
X24077Y22651D02*
X24071D01*
X24068Y22650D01*
X24057Y22648D01*
X24045Y22646D01*
X24032Y22640D01*
X24017Y22632D01*
X24009Y22626D01*
X24002Y22621D01*
X23995Y22613D01*
X23989Y22605D01*
Y22604D01*
X23987Y22602D01*
X23985Y22598D01*
X23983Y22594D01*
X23980Y22586D01*
X23976Y22578D01*
X23973Y22568D01*
X23970Y22556D01*
X23966Y22542D01*
X23962Y22526D01*
X23958Y22509D01*
X23956Y22489D01*
X23953Y22467D01*
X23951Y22443D01*
X23950Y22417D01*
X23949Y22389D01*
Y22387D01*
Y22382D01*
Y22374D01*
X23950Y22363D01*
Y22351D01*
X23951Y22336D01*
X23952Y22320D01*
X23954Y22303D01*
X23958Y22267D01*
X23961Y22250D01*
X23965Y22233D01*
X23969Y22217D01*
X23974Y22203D01*
X23980Y22190D01*
X23986Y22179D01*
Y22178D01*
X23988Y22177D01*
X23993Y22170D01*
X24001Y22162D01*
X24011Y22153D01*
X24025Y22144D01*
X24041Y22135D01*
X24058Y22129D01*
X24068Y22128D01*
X24078Y22127D01*
X24083D01*
X24087Y22128D01*
X24096Y22130D01*
X24109Y22133D01*
X24123Y22140D01*
X24139Y22149D01*
X24146Y22155D01*
X24154Y22162D01*
X24161Y22169D01*
X24168Y22179D01*
Y22180D01*
X24170Y22181D01*
X24172Y22184D01*
X24174Y22189D01*
X24178Y22195D01*
X24180Y22204D01*
X24184Y22213D01*
X24188Y22224D01*
X24191Y22238D01*
X24194Y22253D01*
X24198Y22270D01*
X24201Y22289D01*
X24203Y22311D01*
X24204Y22334D01*
X24206Y22360D01*
Y22389D01*
Y22389D01*
Y22390D01*
Y22395D01*
Y22403D01*
X24205Y22414D01*
Y22426D01*
X24204Y22441D01*
X24203Y22457D01*
X24202Y22475D01*
X24197Y22510D01*
X24194Y22527D01*
X24191Y22544D01*
X24187Y22560D01*
X24181Y22574D01*
X24176Y22587D01*
X24169Y22598D01*
Y22599D01*
X24167Y22600D01*
X24166Y22603D01*
X24163Y22607D01*
X24154Y22615D01*
X24144Y22625D01*
X24130Y22634D01*
X24115Y22643D01*
X24106Y22646D01*
X24097Y22649D01*
X24087Y22650D01*
X24077Y22651D01*
D02*
G37*
G36*
X41468Y53848D02*
X41181D01*
Y53647D01*
X41468Y53848D01*
D02*
G37*
G36*
X49846Y36258D02*
X49840D01*
X49839D01*
X49839D01*
X49824Y36257D01*
X49810Y36254D01*
X49798Y36249D01*
X49788Y36243D01*
X49779Y36238D01*
X49774Y36233D01*
X49769Y36230D01*
X49768Y36229D01*
X49759Y36218D01*
X49752Y36205D01*
X49747Y36193D01*
X49743Y36181D01*
X49741Y36170D01*
X49741Y36161D01*
X49740Y36156D01*
Y36154D01*
X49741Y36137D01*
X49744Y36122D01*
X49749Y36109D01*
X49754Y36098D01*
X49759Y36090D01*
X49764Y36084D01*
X49767Y36079D01*
X49768Y36078D01*
X49779Y36069D01*
X49792Y36061D01*
X49804Y36057D01*
X49816Y36053D01*
X49826Y36051D01*
X49835Y36050D01*
X49840Y36049D01*
X49841D01*
X49842D01*
X49857Y36050D01*
X49870Y36054D01*
X49882Y36059D01*
X49892Y36064D01*
X49900Y36069D01*
X49907Y36073D01*
X49911Y36077D01*
X49912Y36078D01*
X49922Y36090D01*
X49929Y36102D01*
X49934Y36115D01*
X49937Y36127D01*
X49939Y36138D01*
X49941Y36146D01*
Y36154D01*
X49940Y36170D01*
X49937Y36184D01*
X49932Y36196D01*
X49926Y36207D01*
X49921Y36216D01*
X49916Y36222D01*
X49912Y36227D01*
X49912Y36228D01*
X49900Y36238D01*
X49888Y36245D01*
X49875Y36251D01*
X49864Y36255D01*
X49854Y36256D01*
X49846Y36258D01*
D02*
G37*
G36*
X49550Y36284D02*
X49547D01*
X49545D01*
X49544D01*
X49525Y36282D01*
X49507Y36279D01*
X49491Y36272D01*
X49478Y36266D01*
X49468Y36259D01*
X49459Y36253D01*
X49455Y36249D01*
X49453Y36247D01*
X49441Y36232D01*
X49432Y36218D01*
X49426Y36202D01*
X49422Y36187D01*
X49419Y36174D01*
X49418Y36163D01*
X49417Y36159D01*
Y36154D01*
X49418Y36141D01*
X49420Y36128D01*
X49422Y36116D01*
X49425Y36106D01*
X49428Y36097D01*
X49431Y36091D01*
X49433Y36087D01*
X49434Y36085D01*
X49441Y36074D01*
X49448Y36065D01*
X49457Y36057D01*
X49465Y36050D01*
X49471Y36045D01*
X49477Y36041D01*
X49482Y36039D01*
X49483Y36038D01*
X49495Y36034D01*
X49506Y36030D01*
X49517Y36027D01*
X49527Y36025D01*
X49535Y36024D01*
X49542Y36023D01*
X49545D01*
X49547D01*
X49567Y36025D01*
X49584Y36029D01*
X49600Y36035D01*
X49614Y36042D01*
X49624Y36048D01*
X49632Y36054D01*
X49637Y36058D01*
X49639Y36060D01*
X49651Y36073D01*
X49660Y36089D01*
X49667Y36104D01*
X49671Y36119D01*
X49674Y36132D01*
X49675Y36142D01*
X49676Y36145D01*
Y36151D01*
X49674Y36171D01*
X49670Y36190D01*
X49664Y36207D01*
X49657Y36220D01*
X49650Y36231D01*
X49643Y36240D01*
X49640Y36244D01*
X49638Y36246D01*
X49623Y36259D01*
X49607Y36268D01*
X49592Y36275D01*
X49578Y36280D01*
X49564Y36282D01*
X49554Y36283D01*
X49550Y36284D01*
D02*
G37*
G36*
X22845Y32558D02*
X22356D01*
Y32410D01*
X22357Y32398D01*
Y32386D01*
X22358Y32375D01*
X22361Y32357D01*
X22363Y32342D01*
X22366Y32330D01*
X22368Y32321D01*
X22369Y32317D01*
X22370Y32315D01*
X22379Y32298D01*
X22389Y32283D01*
X22401Y32269D01*
X22413Y32257D01*
X22424Y32248D01*
X22433Y32240D01*
X22437Y32238D01*
X22440Y32236D01*
X22441Y32235D01*
X22442D01*
X22453Y32229D01*
X22465Y32223D01*
X22489Y32215D01*
X22514Y32210D01*
X22539Y32205D01*
X22551Y32204D01*
X22562Y32203D01*
X22571Y32202D01*
X22579D01*
X22587Y32201D01*
X22591D01*
X22595D01*
X22596D01*
X22622Y32202D01*
X22646Y32204D01*
X22667Y32207D01*
X22686Y32210D01*
X22693Y32211D01*
X22699Y32213D01*
X22706Y32215D01*
X22710Y32216D01*
X22714Y32217D01*
X22717Y32218D01*
X22719Y32219D01*
X22720D01*
X22737Y32225D01*
X22753Y32233D01*
X22767Y32241D01*
X22779Y32248D01*
X22788Y32255D01*
X22795Y32260D01*
X22798Y32264D01*
X22800Y32265D01*
X22808Y32274D01*
X22814Y32284D01*
X22820Y32293D01*
X22825Y32302D01*
X22829Y32310D01*
X22832Y32317D01*
X22833Y32321D01*
X22833Y32323D01*
X22837Y32337D01*
X22840Y32354D01*
X22842Y32370D01*
X22843Y32386D01*
X22844Y32400D01*
X22845Y32407D01*
Y32558D01*
D02*
G37*
G36*
X22443Y31925D02*
X22442D01*
X22441D01*
X22427Y31924D01*
X22414Y31920D01*
X22402Y31916D01*
X22392Y31910D01*
X22383Y31905D01*
X22377Y31901D01*
X22373Y31897D01*
X22372Y31896D01*
X22362Y31884D01*
X22355Y31872D01*
X22350Y31859D01*
X22346Y31847D01*
X22344Y31836D01*
X22343Y31828D01*
Y31820D01*
X22343Y31805D01*
X22347Y31790D01*
X22352Y31778D01*
X22357Y31767D01*
X22363Y31758D01*
X22367Y31752D01*
X22371Y31747D01*
X22372Y31746D01*
X22384Y31736D01*
X22396Y31729D01*
X22408Y31723D01*
X22419Y31720D01*
X22429Y31718D01*
X22438Y31716D01*
X22443D01*
X22444D01*
X22445D01*
X22460Y31717D01*
X22474Y31721D01*
X22486Y31725D01*
X22496Y31731D01*
X22504Y31736D01*
X22510Y31741D01*
X22514Y31745D01*
X22515Y31745D01*
X22525Y31757D01*
X22532Y31770D01*
X22537Y31782D01*
X22540Y31794D01*
X22542Y31805D01*
X22543Y31813D01*
X22544Y31819D01*
Y31820D01*
X22543Y31837D01*
X22539Y31852D01*
X22535Y31865D01*
X22529Y31876D01*
X22525Y31884D01*
X22520Y31891D01*
X22516Y31895D01*
X22515Y31896D01*
X22504Y31905D01*
X22491Y31913D01*
X22479Y31917D01*
X22467Y31921D01*
X22457Y31923D01*
X22449Y31924D01*
X22443Y31925D01*
D02*
G37*
G36*
X22742Y31951D02*
X22738D01*
X22736D01*
X22717Y31949D01*
X22699Y31945D01*
X22684Y31940D01*
X22670Y31932D01*
X22660Y31926D01*
X22651Y31920D01*
X22647Y31917D01*
X22645Y31915D01*
X22633Y31901D01*
X22624Y31885D01*
X22617Y31870D01*
X22612Y31855D01*
X22610Y31843D01*
X22609Y31832D01*
X22608Y31829D01*
Y31823D01*
X22610Y31803D01*
X22613Y31784D01*
X22620Y31768D01*
X22626Y31754D01*
X22634Y31743D01*
X22640Y31734D01*
X22644Y31730D01*
X22646Y31728D01*
X22661Y31715D01*
X22676Y31706D01*
X22692Y31699D01*
X22706Y31695D01*
X22720Y31692D01*
X22730Y31691D01*
X22734Y31690D01*
X22736D01*
X22738D01*
X22739D01*
X22759Y31692D01*
X22777Y31696D01*
X22793Y31702D01*
X22806Y31708D01*
X22816Y31715D01*
X22824Y31721D01*
X22829Y31725D01*
X22831Y31727D01*
X22843Y31742D01*
X22852Y31757D01*
X22857Y31772D01*
X22862Y31787D01*
X22865Y31800D01*
X22866Y31811D01*
X22867Y31815D01*
Y31820D01*
X22866Y31833D01*
X22864Y31846D01*
X22861Y31858D01*
X22858Y31868D01*
X22856Y31877D01*
X22853Y31883D01*
X22851Y31887D01*
X22850Y31889D01*
X22843Y31900D01*
X22835Y31909D01*
X22827Y31917D01*
X22819Y31924D01*
X22812Y31929D01*
X22807Y31933D01*
X22802Y31935D01*
X22801Y31936D01*
X22789Y31941D01*
X22778Y31944D01*
X22767Y31947D01*
X22757Y31949D01*
X22748Y31950D01*
X22742Y31951D01*
D02*
G37*
G36*
X56153Y14673D02*
X56144D01*
X56140D01*
X56138D01*
X56109Y14672D01*
X56083Y14671D01*
X56059Y14669D01*
X56037Y14666D01*
X56018Y14664D01*
X56000Y14660D01*
X55984Y14656D01*
X55971Y14652D01*
X55958Y14649D01*
X55948Y14646D01*
X55940Y14642D01*
X55933Y14640D01*
X55928Y14637D01*
X55924Y14635D01*
X55922Y14633D01*
X55922D01*
X55913Y14627D01*
X55906Y14620D01*
X55900Y14613D01*
X55895Y14605D01*
X55886Y14591D01*
X55881Y14577D01*
X55878Y14565D01*
X55876Y14554D01*
X55875Y14551D01*
Y14545D01*
X55876Y14535D01*
X55877Y14525D01*
X55880Y14516D01*
X55884Y14507D01*
X55892Y14492D01*
X55901Y14478D01*
X55911Y14468D01*
X55920Y14459D01*
X55923Y14456D01*
X55926Y14455D01*
X55927Y14453D01*
X55928D01*
X55939Y14446D01*
X55952Y14441D01*
X55967Y14435D01*
X55983Y14432D01*
X55999Y14428D01*
X56017Y14425D01*
X56052Y14420D01*
X56069Y14419D01*
X56085Y14418D01*
X56100Y14417D01*
X56112D01*
X56123Y14416D01*
X56131D01*
X56136D01*
X56137D01*
X56138D01*
X56167D01*
X56192Y14418D01*
X56216Y14420D01*
X56238Y14421D01*
X56256Y14424D01*
X56274Y14428D01*
X56289Y14432D01*
X56302Y14434D01*
X56314Y14438D01*
X56323Y14442D01*
X56331Y14444D01*
X56338Y14448D01*
X56342Y14450D01*
X56345Y14452D01*
X56347Y14454D01*
X56348D01*
X56357Y14461D01*
X56364Y14469D01*
X56372Y14476D01*
X56377Y14483D01*
X56387Y14499D01*
X56393Y14513D01*
X56397Y14526D01*
X56399Y14535D01*
X56399Y14539D01*
Y14544D01*
X56399Y14554D01*
X56398Y14564D01*
X56391Y14581D01*
X56383Y14597D01*
X56374Y14611D01*
X56364Y14621D01*
X56356Y14629D01*
X56350Y14634D01*
X56349Y14636D01*
X56348D01*
X56337Y14642D01*
X56324Y14648D01*
X56309Y14653D01*
X56293Y14657D01*
X56277Y14661D01*
X56259Y14664D01*
X56223Y14668D01*
X56206Y14670D01*
X56191Y14671D01*
X56176Y14672D01*
X56164D01*
X56153Y14673D01*
D02*
G37*
G36*
X62911Y12476D02*
X62896D01*
X62887Y12474D01*
X62870Y12470D01*
X62855Y12463D01*
X62842Y12457D01*
X62832Y12449D01*
X62825Y12443D01*
X62820Y12438D01*
X62818Y12437D01*
Y12436D01*
X62806Y12421D01*
X62797Y12403D01*
X62791Y12385D01*
X62787Y12367D01*
X62784Y12352D01*
X62783Y12346D01*
Y12339D01*
X62782Y12335D01*
Y12331D01*
Y12329D01*
Y12328D01*
X62784Y12304D01*
X62788Y12283D01*
X62793Y12265D01*
X62800Y12251D01*
X62807Y12239D01*
X62813Y12230D01*
X62817Y12225D01*
X62818Y12223D01*
X62832Y12210D01*
X62847Y12201D01*
X62862Y12194D01*
X62877Y12190D01*
X62889Y12187D01*
X62899Y12186D01*
X62902Y12185D01*
X62908D01*
X62927Y12187D01*
X62945Y12190D01*
X62961Y12197D01*
X62975Y12204D01*
X62985Y12211D01*
X62993Y12217D01*
X62998Y12221D01*
X63000Y12223D01*
X63012Y12238D01*
X63021Y12254D01*
X63026Y12271D01*
X63031Y12287D01*
X63034Y12300D01*
X63035Y12306D01*
Y12312D01*
X63036Y12316D01*
Y12319D01*
Y12321D01*
Y12322D01*
X63034Y12346D01*
X63030Y12368D01*
X63024Y12387D01*
X63016Y12403D01*
X63010Y12416D01*
X63003Y12425D01*
X63001Y12428D01*
X63000Y12431D01*
X62998Y12432D01*
Y12433D01*
X62990Y12440D01*
X62983Y12447D01*
X62967Y12458D01*
X62951Y12466D01*
X62937Y12471D01*
X62925Y12474D01*
X62915Y12475D01*
X62911Y12476D01*
D02*
G37*
G36*
X22991Y26142D02*
X22843D01*
Y25654D01*
X22995D01*
X23002Y25655D01*
X23015Y25656D01*
X23031Y25657D01*
X23048Y25659D01*
X23064Y25662D01*
X23078Y25665D01*
X23080Y25666D01*
X23085Y25667D01*
X23091Y25670D01*
X23100Y25674D01*
X23109Y25679D01*
X23118Y25685D01*
X23127Y25691D01*
X23137Y25699D01*
X23137Y25700D01*
X23141Y25704D01*
X23147Y25711D01*
X23153Y25720D01*
X23161Y25732D01*
X23169Y25746D01*
X23176Y25762D01*
X23183Y25779D01*
Y25780D01*
X23184Y25782D01*
X23185Y25785D01*
X23186Y25788D01*
X23186Y25793D01*
X23188Y25799D01*
X23190Y25806D01*
X23192Y25813D01*
X23195Y25832D01*
X23198Y25853D01*
X23199Y25877D01*
X23200Y25903D01*
Y25904D01*
Y25908D01*
Y25912D01*
X23199Y25920D01*
Y25928D01*
X23198Y25937D01*
X23198Y25948D01*
X23197Y25959D01*
X23192Y25984D01*
X23186Y26010D01*
X23178Y26034D01*
X23173Y26046D01*
X23167Y26056D01*
Y26057D01*
X23165Y26059D01*
X23163Y26062D01*
X23162Y26066D01*
X23154Y26075D01*
X23145Y26086D01*
X23133Y26098D01*
X23119Y26110D01*
X23103Y26120D01*
X23087Y26129D01*
X23085Y26129D01*
X23080Y26130D01*
X23072Y26133D01*
X23060Y26136D01*
X23045Y26138D01*
X23027Y26141D01*
X23015Y26142D01*
X23003D01*
X22991Y26142D01*
D02*
G37*
G36*
X24079Y26156D02*
X24071D01*
X24063Y26154D01*
X24052Y26153D01*
X24040Y26149D01*
X24027Y26144D01*
X24015Y26137D01*
X24003Y26127D01*
X24002Y26126D01*
X23998Y26122D01*
X23994Y26116D01*
X23989Y26107D01*
X23983Y26097D01*
X23979Y26085D01*
X23975Y26072D01*
X23974Y26057D01*
Y26056D01*
Y26056D01*
X23975Y26050D01*
X23976Y26042D01*
X23978Y26031D01*
X23982Y26019D01*
X23986Y26007D01*
X23994Y25994D01*
X24003Y25983D01*
X24004Y25982D01*
X24008Y25979D01*
X24015Y25974D01*
X24023Y25970D01*
X24034Y25964D01*
X24047Y25959D01*
X24062Y25956D01*
X24079Y25955D01*
X24081D01*
X24086Y25956D01*
X24094Y25957D01*
X24105Y25958D01*
X24118Y25962D01*
X24130Y25967D01*
X24142Y25974D01*
X24154Y25983D01*
X24154Y25984D01*
X24158Y25989D01*
X24163Y25994D01*
X24168Y26003D01*
X24174Y26013D01*
X24179Y26025D01*
X24182Y26039D01*
X24183Y26054D01*
Y26055D01*
Y26056D01*
Y26061D01*
X24181Y26069D01*
X24179Y26080D01*
X24176Y26091D01*
X24170Y26103D01*
X24163Y26115D01*
X24153Y26127D01*
X24152Y26128D01*
X24147Y26131D01*
X24141Y26136D01*
X24132Y26142D01*
X24121Y26147D01*
X24109Y26152D01*
X24094Y26155D01*
X24079Y26156D01*
D02*
G37*
G36*
X24076Y25891D02*
X24070D01*
X24067Y25890D01*
X24056Y25889D01*
X24044Y25886D01*
X24029Y25882D01*
X24014Y25875D01*
X23998Y25866D01*
X23984Y25854D01*
X23983Y25852D01*
X23979Y25847D01*
X23973Y25839D01*
X23967Y25829D01*
X23959Y25815D01*
X23954Y25799D01*
X23950Y25782D01*
X23948Y25762D01*
Y25761D01*
Y25757D01*
X23949Y25750D01*
X23950Y25742D01*
X23952Y25732D01*
X23955Y25721D01*
X23958Y25710D01*
X23963Y25698D01*
X23964Y25697D01*
X23966Y25692D01*
X23970Y25687D01*
X23975Y25680D01*
X23982Y25672D01*
X23990Y25664D01*
X23999Y25656D01*
X24010Y25649D01*
X24012Y25648D01*
X24016Y25646D01*
X24022Y25643D01*
X24031Y25640D01*
X24041Y25638D01*
X24053Y25635D01*
X24066Y25633D01*
X24079Y25632D01*
X24084D01*
X24088Y25633D01*
X24099Y25634D01*
X24112Y25637D01*
X24127Y25641D01*
X24142Y25647D01*
X24157Y25656D01*
X24172Y25668D01*
X24174Y25670D01*
X24178Y25675D01*
X24184Y25683D01*
X24191Y25693D01*
X24197Y25706D01*
X24203Y25722D01*
X24207Y25740D01*
X24209Y25760D01*
Y25761D01*
Y25762D01*
Y25765D01*
X24208Y25769D01*
X24207Y25779D01*
X24204Y25793D01*
X24200Y25807D01*
X24193Y25823D01*
X24184Y25838D01*
X24171Y25853D01*
X24169Y25855D01*
X24165Y25859D01*
X24156Y25865D01*
X24145Y25872D01*
X24131Y25879D01*
X24115Y25885D01*
X24096Y25889D01*
X24076Y25891D01*
D02*
G37*
%LPD*%
D60*
X23778Y14261D02*
X27623D01*
Y17661D01*
X23778D02*
X27623D01*
X23778Y14261D02*
Y17661D01*
X21058Y24778D02*
X24458D01*
Y23228D02*
Y24778D01*
X21058Y23228D02*
X24458D01*
X21058D02*
Y24778D01*
Y23025D02*
X24458D01*
Y21475D02*
Y23025D01*
X21058Y21475D02*
X24458D01*
X21058D02*
Y23025D01*
X41923Y51256D02*
Y54662D01*
X39967D02*
X41923D01*
X39967Y51256D02*
Y54662D01*
Y51256D02*
X41923D01*
X44183Y50328D02*
Y53734D01*
X42227D02*
X44183D01*
X42227Y50328D02*
Y53734D01*
Y50328D02*
X44183D01*
X48374Y37133D02*
Y40540D01*
Y37133D02*
X50330D01*
Y40540D01*
X48374D02*
X50330D01*
X50279Y23074D02*
Y26480D01*
X48323D02*
X50279D01*
X48323Y23074D02*
Y26480D01*
Y23074D02*
X50279D01*
X50330Y33603D02*
Y37009D01*
X48374D02*
X50330D01*
X48374Y33603D02*
Y37009D01*
Y33603D02*
X50330D01*
X48374Y26415D02*
Y29821D01*
Y26415D02*
X50330D01*
Y29821D01*
X48374D02*
X50330D01*
X21043Y30721D02*
Y34566D01*
Y30721D02*
X24443D01*
Y34566D01*
X21043D02*
X24443D01*
X53252Y16990D02*
Y19790D01*
Y16990D02*
X54952D01*
Y19790D01*
X53252D02*
X54952D01*
X55186Y18042D02*
X57742D01*
Y13736D02*
Y18042D01*
X55186Y13736D02*
X57742D01*
X55186D02*
Y18042D01*
X65907Y10609D02*
Y13165D01*
X61601Y10609D02*
X65907D01*
X61601D02*
Y13165D01*
X65907D01*
X21058Y24981D02*
Y26531D01*
Y24981D02*
X24458D01*
Y26531D01*
X21058D02*
X24458D01*
X39904Y49322D02*
Y55622D01*
X24104D02*
X39904D01*
X24104Y49322D02*
Y55622D01*
Y49322D02*
X39904D01*
%TF.MD5,c1a0a0387e96883d123a3eb852e55b74*%
M02*
